<svg width="101" height="101" viewBox="0 0 101 101" fill="none" xmlns="http://www.w3.org/2000/svg">
<path d="M33.0384 2.03174H11.3244C6.19303 2.03174 2.0332 6.19157 2.0332 11.323V33.0369C2.0332 38.1683 6.19303 42.3281 11.3244 42.3281H33.0384C38.1698 42.3281 42.3296 38.1683 42.3296 33.0369V11.323C42.3296 6.19157 38.1698 2.03174 33.0384 2.03174Z" fill="url(#paint0_linear_71_889)"/>
<path d="M28.6809 9.98236C30.2106 9.98852 31.6759 10.5989 32.7576 11.6806C33.8394 12.7623 34.4498 14.2277 34.4559 15.7574V28.6038C34.4498 30.1336 33.8394 31.5989 32.7576 32.6806C31.6759 33.7623 30.2106 34.3727 28.6809 34.3789H15.6837C14.154 34.3727 12.6886 33.7623 11.6069 32.6806C10.5252 31.5989 9.91479 30.1336 9.90863 28.6038V15.7574C9.91479 14.2277 10.5252 12.7623 11.6069 11.6806C12.6886 10.5989 14.154 9.98852 15.6837 9.98236H28.6809ZM28.6809 7.29628H15.6837C11.0298 7.29628 7.22168 11.1088 7.22168 15.7583V28.6038C7.22168 33.2577 11.0342 37.0658 15.6837 37.0658H28.6809C33.3347 37.0658 37.1429 33.2533 37.1429 28.6038V15.7574C37.1429 11.1036 33.3347 7.29541 28.6809 7.29541V7.29628Z" fill="white"/>
<path d="M22.1818 17.1651C23.1736 17.1651 24.143 17.4592 24.9676 18.0101C25.7922 18.5611 26.4349 19.3443 26.8144 20.2605C27.194 21.1767 27.2933 22.185 27.0998 23.1576C26.9063 24.1303 26.4287 25.0238 25.7275 25.725C25.0262 26.4263 24.1328 26.9039 23.1601 27.0973C22.1874 27.2908 21.1792 27.1915 20.2629 26.812C19.3467 26.4325 18.5636 25.7898 18.0126 24.9652C17.4616 24.1406 17.1675 23.1711 17.1675 22.1794C17.1691 20.85 17.6979 19.5755 18.638 18.6355C19.578 17.6955 20.8525 17.1667 22.1818 17.1651ZM22.1818 14.479C20.6588 14.479 19.1701 14.9306 17.9037 15.7768C16.6374 16.6229 15.6504 17.8255 15.0676 19.2326C14.4848 20.6396 14.3323 22.1879 14.6294 23.6817C14.9265 25.1754 15.6599 26.5475 16.7368 27.6244C17.8138 28.7013 19.1858 29.4347 20.6796 29.7318C22.1733 30.0289 23.7216 29.8764 25.1286 29.2936C26.5357 28.7108 27.7383 27.7238 28.5845 26.4575C29.4306 25.1912 29.8822 23.7024 29.8822 22.1794C29.8822 20.1371 29.0709 18.1785 27.6268 16.7344C26.1827 15.2903 24.2241 14.479 22.1818 14.479Z" fill="white"/>
<path d="M30.0503 15.9682C31.0586 15.9682 31.8759 15.1509 31.8759 14.1426C31.8759 13.1343 31.0586 12.3169 30.0503 12.3169C29.042 12.3169 28.2246 13.1343 28.2246 14.1426C28.2246 15.1509 29.042 15.9682 30.0503 15.9682Z" fill="white"/>
<g clip-path="url(#clip0_71_889)">
<path d="M95.1819 -0.00146484H61.9092C58.8509 -0.00146484 56.3638 2.48567 56.3638 5.54399V38.8167C56.3638 41.875 58.8509 44.3622 61.9092 44.3622H95.1819C98.2403 44.3622 100.727 41.875 100.727 38.8167V5.54399C100.727 2.48567 98.2403 -0.00146484 95.1819 -0.00146484Z" fill="#1976D2"/>
<path d="M93.795 22.1805H86.8631V16.6351C86.8631 15.1045 88.1053 15.2487 89.6359 15.2487H92.4086V8.31689H86.8631C82.2687 8.31689 78.545 12.0407 78.545 16.6351V22.1805H72.9995V29.1124H78.545V44.3624H86.8631V29.1124H91.0222L93.795 22.1805Z" fill="#FAFAFA"/>
</g>
<g clip-path="url(#clip1_71_889)">
<path d="M64.6096 99.9691C55.142 100.979 45.5938 100.979 36.1262 99.9691C34.2876 99.775 32.5712 98.9565 31.263 97.6502C29.9549 96.3438 29.134 94.6286 28.9372 92.7903C27.9272 83.3227 27.9272 73.7745 28.9372 64.3068C29.1314 62.4683 29.9499 60.7519 31.2562 59.4437C32.5626 58.1355 34.2778 57.3146 36.1161 57.1179C45.5837 56.1078 55.1319 56.1078 64.5996 57.1179C66.4381 57.3121 68.1545 58.1305 69.4627 59.4369C70.7709 60.7432 71.5918 62.4585 71.7885 64.2968C72.7986 73.7644 72.7986 83.3126 71.7885 92.7802C71.5943 94.6187 70.7759 96.3352 69.4695 97.6434C68.1632 98.9515 66.4479 99.7724 64.6096 99.9691Z" fill="#E60000"/>
<path d="M63.5781 71.874C63.0236 70.1675 61.1885 69.134 59.4997 68.8971C53.4252 68.2518 47.2994 68.2518 41.2249 68.8971C39.5361 69.134 37.696 70.1574 37.1465 71.874C36.2819 76.2792 36.2819 80.8106 37.1465 85.2158C37.701 86.9198 39.5361 87.9558 41.2249 88.1927C47.2994 88.838 53.4252 88.838 59.4997 88.1927C61.1885 87.9558 63.0286 86.9324 63.5781 85.2158C64.4427 80.8106 64.4427 76.2792 63.5781 71.874ZM47.0451 83.8572V73.2301L55.696 78.5436C52.7796 80.3358 49.9489 82.0726 47.0451 83.8572Z" fill="white"/>
</g>
<defs>
<linearGradient id="paint0_linear_71_889" x1="28.4434" y1="44.0195" x2="15.9194" y2="0.340373" gradientUnits="userSpaceOnUse">
<stop stop-color="#FFDB73"/>
<stop offset="0.08" stop-color="#FDAD4E"/>
<stop offset="0.15" stop-color="#FB832E"/>
<stop offset="0.19" stop-color="#FA7321"/>
<stop offset="0.23" stop-color="#F6692F"/>
<stop offset="0.37" stop-color="#E84A5A"/>
<stop offset="0.48" stop-color="#E03675"/>
<stop offset="0.55" stop-color="#DD2F7F"/>
<stop offset="0.68" stop-color="#B43D97"/>
<stop offset="0.97" stop-color="#4D60D4"/>
<stop offset="1" stop-color="#4264DB"/>
</linearGradient>
<clipPath id="clip0_71_889">
<rect width="44.3636" height="44.3636" fill="white" transform="translate(56.3638 -0.00146484)"/>
</clipPath>
<clipPath id="clip1_71_889">
<rect width="44.3636" height="44.3636" fill="white" transform="translate(28.1816 56.3623)"/>
</clipPath>
</defs>
</svg>
