<svg width="269" height="43" viewBox="0 0 269 43" fill="none" xmlns="http://www.w3.org/2000/svg">
<path d="M19.552 42.4103C16.9387 42.4103 14.484 41.953 12.188 41.0383C9.91067 40.105 7.904 38.7423 6.168 36.9503C4.45067 35.1583 3.10667 32.965 2.136 30.3703C1.16533 27.757 0.68 24.7703 0.68 21.4103C0.68 17.005 1.50133 13.2436 3.144 10.1263C4.78667 6.99031 7.036 4.59164 9.892 2.93031C12.748 1.25031 15.968 0.410312 19.552 0.410312C24.5173 0.410312 28.4467 1.56764 31.34 3.88231C34.252 6.17831 36.2213 9.40764 37.248 13.5703L30.36 14.6623C29.5947 12.273 28.344 10.369 26.608 8.95031C24.872 7.51298 22.66 6.79431 19.972 6.79431C17.2653 6.75698 15.016 7.34498 13.224 8.55831C11.432 9.77164 10.0787 11.4796 9.164 13.6823C8.268 15.885 7.82 18.461 7.82 21.4103C7.82 24.3596 8.268 26.9263 9.164 29.1103C10.06 31.2756 11.404 32.965 13.196 34.1783C15.0067 35.3916 17.2653 36.017 19.972 36.0543C22.0067 36.073 23.7893 35.709 25.32 34.9623C26.8507 34.197 28.1013 33.049 29.072 31.5183C30.0427 29.969 30.696 28.037 31.032 25.7223H23.92V20.4303H38.2C38.2373 20.729 38.2653 21.1676 38.284 21.7463C38.3027 22.325 38.312 22.6703 38.312 22.7823C38.312 26.5903 37.556 29.9783 36.044 32.9463C34.5507 35.8956 32.404 38.2103 29.604 39.8903C26.804 41.5703 23.4533 42.4103 19.552 42.4103ZM60.7476 42.4103C56.7156 42.4103 53.2623 41.533 50.3876 39.7783C47.513 38.005 45.301 35.541 43.7516 32.3863C42.221 29.2316 41.4556 25.573 41.4556 21.4103C41.4556 17.2476 42.221 13.589 43.7516 10.4343C45.301 7.27964 47.513 4.82498 50.3876 3.07031C53.2623 1.29698 56.7156 0.410312 60.7476 0.410312C64.7796 0.410312 68.233 1.29698 71.1076 3.07031C74.001 4.82498 76.213 7.27964 77.7436 10.4343C79.293 13.589 80.0676 17.2476 80.0676 21.4103C80.0676 25.573 79.293 29.2316 77.7436 32.3863C76.213 35.541 74.001 38.005 71.1076 39.7783C68.233 41.533 64.7796 42.4103 60.7476 42.4103ZM60.7476 36.0543C63.4543 36.073 65.7036 35.4756 67.4956 34.2623C69.3063 33.049 70.6596 31.341 71.5556 29.1383C72.4703 26.9356 72.9276 24.3596 72.9276 21.4103C72.9276 18.461 72.4703 15.9036 71.5556 13.7383C70.6596 11.5543 69.3063 9.85564 67.4956 8.64231C65.7036 7.42898 63.4543 6.80364 60.7476 6.76631C58.041 6.74764 55.7916 7.34498 53.9996 8.55831C52.2076 9.77164 50.8543 11.4796 49.9396 13.6823C49.0436 15.885 48.5956 18.461 48.5956 21.4103C48.5956 24.3596 49.0436 26.9263 49.9396 29.1103C50.8356 31.2756 52.1796 32.965 53.9716 34.1783C55.7823 35.3916 58.041 36.017 60.7476 36.0543ZM85.4009 41.5703V1.25031H92.1489V18.2183H111.245V1.25031H117.965V41.5703H111.245V24.5463H92.1489V41.5703H85.4009ZM142.627 42.4103C138.595 42.4103 135.142 41.533 132.267 39.7783C129.392 38.005 127.18 35.541 125.631 32.3863C124.1 29.2316 123.335 25.573 123.335 21.4103C123.335 17.2476 124.1 13.589 125.631 10.4343C127.18 7.27964 129.392 4.82498 132.267 3.07031C135.142 1.29698 138.595 0.410312 142.627 0.410312C146.659 0.410312 150.112 1.29698 152.987 3.07031C155.88 4.82498 158.092 7.27964 159.623 10.4343C161.172 13.589 161.947 17.2476 161.947 21.4103C161.947 25.573 161.172 29.2316 159.623 32.3863C158.092 35.541 155.88 38.005 152.987 39.7783C150.112 41.533 146.659 42.4103 142.627 42.4103ZM142.627 36.0543C145.334 36.073 147.583 35.4756 149.375 34.2623C151.186 33.049 152.539 31.341 153.435 29.1383C154.35 26.9356 154.807 24.3596 154.807 21.4103C154.807 18.461 154.35 15.9036 153.435 13.7383C152.539 11.5543 151.186 9.85564 149.375 8.64231C147.583 7.42898 145.334 6.80364 142.627 6.76631C139.92 6.74764 137.671 7.34498 135.879 8.55831C134.087 9.77164 132.734 11.4796 131.819 13.6823C130.923 15.885 130.475 18.461 130.475 21.4103C130.475 24.3596 130.923 26.9263 131.819 29.1103C132.715 31.2756 134.059 32.965 135.851 34.1783C137.662 35.3916 139.92 36.017 142.627 36.0543ZM183.52 42.4103C180.31 42.4103 177.482 41.757 175.036 40.4503C172.61 39.1436 170.706 37.305 169.324 34.9343C167.962 32.5636 167.28 29.7823 167.28 26.5903V1.30631L174.112 1.25031V26.4223C174.112 27.9343 174.364 29.2876 174.868 30.4823C175.391 31.677 176.091 32.6943 176.968 33.5343C177.846 34.3556 178.854 34.981 179.992 35.4103C181.131 35.8396 182.307 36.0543 183.52 36.0543C184.771 36.0543 185.956 35.8396 187.076 35.4103C188.215 34.9623 189.223 34.3276 190.1 33.5063C190.978 32.6663 191.668 31.649 192.172 30.4543C192.676 29.2596 192.928 27.9156 192.928 26.4223V1.25031H199.76V26.5903C199.76 29.7823 199.07 32.5636 197.688 34.9343C196.326 37.305 194.422 39.1436 191.976 40.4503C189.55 41.757 186.731 42.4103 183.52 42.4103ZM220.574 42.4103C217.624 42.4103 214.964 41.897 212.594 40.8703C210.242 39.8436 208.3 38.3783 206.77 36.4743C205.258 34.5516 204.296 32.2743 203.886 29.6423L210.886 28.5783C211.483 30.9676 212.706 32.8156 214.554 34.1223C216.42 35.429 218.567 36.0823 220.994 36.0823C222.431 36.0823 223.784 35.8583 225.054 35.4103C226.323 34.9623 227.35 34.309 228.134 33.4503C228.936 32.5916 229.338 31.537 229.338 30.2863C229.338 29.7263 229.244 29.213 229.058 28.7463C228.871 28.261 228.591 27.8316 228.218 27.4583C227.863 27.085 227.396 26.749 226.818 26.4503C226.258 26.133 225.604 25.8623 224.858 25.6383L214.442 22.5583C213.546 22.297 212.575 21.9516 211.53 21.5223C210.503 21.0743 209.523 20.4676 208.59 19.7023C207.675 18.9183 206.919 17.929 206.322 16.7343C205.743 15.521 205.454 14.0276 205.454 12.2543C205.454 9.65964 206.107 7.48498 207.414 5.73031C208.739 3.95698 210.512 2.63164 212.734 1.75431C214.974 0.876977 217.456 0.447643 220.182 0.466311C222.944 0.484976 225.408 0.960976 227.574 1.89431C229.739 2.80898 231.55 4.14364 233.006 5.89831C234.462 7.65298 235.488 9.77164 236.086 12.2543L228.834 13.5143C228.535 12.0956 227.956 10.8916 227.098 9.90231C226.258 8.89431 225.222 8.12898 223.99 7.60631C222.776 7.08364 221.479 6.80364 220.098 6.76631C218.754 6.74764 217.503 6.95298 216.346 7.38231C215.207 7.79298 214.283 8.39031 213.574 9.17431C212.883 9.95831 212.538 10.873 212.538 11.9183C212.538 12.9076 212.836 13.7196 213.434 14.3543C214.031 14.9703 214.768 15.465 215.646 15.8383C216.542 16.193 217.447 16.4916 218.362 16.7343L225.586 18.7503C226.575 19.0116 227.686 19.3663 228.918 19.8143C230.15 20.2623 231.335 20.8876 232.474 21.6903C233.612 22.493 234.546 23.5476 235.274 24.8543C236.02 26.161 236.394 27.8223 236.394 29.8383C236.394 31.929 235.955 33.7676 235.078 35.3543C234.219 36.9223 233.052 38.229 231.578 39.2743C230.103 40.3196 228.414 41.1036 226.51 41.6263C224.624 42.149 222.646 42.4103 220.574 42.4103ZM242.214 41.5703V1.25031H268.254V7.57831H248.962V17.5183H264.894V23.8463H248.962V35.2423H268.254V41.5703H242.214Z" fill="#0C67C9"/>
</svg>
