<svg width="376" height="90" viewBox="0 0 376 90" fill="none" xmlns="http://www.w3.org/2000/svg">
<path d="M373.038 88.1509C373.674 88.6822 374.62 88.5976 375.151 87.9619C375.682 87.3263 375.598 86.3803 374.962 85.8491L373.038 88.1509ZM0.506373 86.8619C0.430088 87.6868 1.03697 88.4173 1.86187 88.4936L15.3045 89.7368C16.1294 89.8131 16.86 89.2062 16.9363 88.3813C17.0126 87.5564 16.4057 86.8258 15.5808 86.7495L3.63175 85.6445L4.73677 73.6955C4.81305 72.8706 4.20618 72.14 3.38127 72.0637C2.55636 71.9874 1.8258 72.5943 1.74952 73.4192L0.506373 86.8619ZM189.069 2.00096L189.063 3.50095L189.069 2.00096ZM2 87C2.95848 88.1538 2.95846 88.1538 2.95845 88.1539C2.95845 88.1539 2.95844 88.1539 2.95844 88.1539C2.95844 88.1539 2.95846 88.1538 2.9585 88.1538C2.95858 88.1537 2.95872 88.1536 2.95894 88.1534C2.95938 88.1531 2.96009 88.1525 2.96109 88.1517C2.96309 88.15 2.96621 88.1474 2.97045 88.1439C2.97893 88.1369 2.9919 88.1261 3.00932 88.1118C3.04414 88.083 3.09676 88.0396 3.16689 87.982C3.30714 87.8668 3.51742 87.6947 3.79546 87.4689C4.35155 87.0174 5.17866 86.3513 6.2587 85.496L4.39626 83.1441C3.30626 84.0073 2.46963 84.6811 1.90449 85.14C1.62191 85.3694 1.40721 85.5451 1.26262 85.6638C1.19033 85.7232 1.13557 85.7684 1.09863 85.7989C1.08016 85.8142 1.06614 85.8258 1.05661 85.8337C1.05184 85.8376 1.0482 85.8406 1.04568 85.8427C1.04442 85.8438 1.04345 85.8446 1.04275 85.8451C1.04241 85.8454 1.04213 85.8457 1.04192 85.8458C1.04182 85.8459 1.04173 85.846 1.04167 85.846C1.04163 85.8461 1.0416 85.8461 1.04158 85.8461C1.04155 85.8462 1.04152 85.8462 2 87ZM13.164 80.1544C15.2144 78.6011 17.5462 76.8612 20.1339 74.9705L18.364 72.5482C15.7616 74.4496 13.416 76.1999 11.3525 77.7631L13.164 80.1544ZM27.1437 69.9347C29.4042 68.3378 31.7979 66.6723 34.3142 64.9536L32.6221 62.4763C30.0922 64.2044 27.6855 65.8788 25.4128 67.4844L27.1437 69.9347ZM41.4899 60.1338C43.8352 58.5851 46.2634 57.0074 48.7676 55.4106L47.1547 52.8811C44.6364 54.4868 42.1948 56.0732 39.8368 57.6304L41.4899 60.1338ZM56.1303 50.8003C58.5537 49.3107 61.0354 47.8129 63.5701 46.3143L62.0432 43.7319C59.4932 45.2396 56.9968 46.7463 54.5594 48.2445L56.1303 50.8003ZM71.0845 41.9615C73.5731 40.55 76.1044 39.1444 78.6739 37.7509L77.2437 35.1137C74.6569 36.5166 72.1089 37.9315 69.6044 39.352L71.0845 41.9615ZM86.3354 33.6943C88.8868 32.3766 91.4696 31.0761 94.0798 29.7985L92.7609 27.104C90.1306 28.3914 87.5285 29.7016 84.9587 31.0289L86.3354 33.6943ZM101.908 26.0773C104.525 24.8709 107.164 23.6922 109.821 22.5466L108.634 19.7916C105.952 20.9475 103.29 22.1365 100.652 23.3529L101.908 26.0773ZM117.822 19.2245C120.504 18.1537 123.201 17.1211 125.909 16.1323L124.88 13.3143C122.143 14.3138 119.418 15.3569 116.709 16.4383L117.822 19.2245ZM134.085 13.2942C136.834 12.3906 139.59 11.537 142.349 10.7388L141.515 7.85698C138.72 8.66563 135.93 9.52993 133.149 10.4442L134.085 13.2942ZM150.698 8.49903C153.51 7.80528 156.321 7.17484 159.127 6.61344L158.538 3.67176C155.687 4.24229 152.833 4.88249 149.979 5.58633L150.698 8.49903ZM167.627 5.1264C170.492 4.69954 173.346 4.35161 176.184 4.08871L175.908 1.10149C173.011 1.36977 170.102 1.72453 167.185 2.15916L167.627 5.1264ZM184.776 3.55742C186.211 3.51445 187.64 3.49536 189.063 3.50095L189.075 0.500974C187.617 0.495246 186.154 0.514809 184.687 0.55877L184.776 3.55742ZM189.063 3.50095C190.601 3.50699 192.145 3.5419 193.695 3.60463L193.816 0.607081C192.231 0.542913 190.65 0.507163 189.075 0.500974L189.063 3.50095ZM202.973 4.2973C206.036 4.6268 209.115 5.05429 212.204 5.57199L212.7 2.61324C209.556 2.08635 206.418 1.65065 203.294 1.31451L202.973 4.2973ZM221.355 7.35575C224.371 8.02391 227.392 8.76987 230.413 9.58639L231.196 6.69035C228.133 5.86245 225.067 5.10537 222.003 4.42673L221.355 7.35575ZM239.376 12.2118C242.337 13.1445 245.293 14.1383 248.237 15.1863L249.243 12.36C246.266 11.3002 243.275 10.2946 240.277 9.35031L239.376 12.2118ZM256.996 18.4712C259.898 19.6142 262.784 20.8038 265.65 22.0333L266.833 19.2764C263.941 18.0356 261.027 16.8344 258.095 15.6798L256.996 18.4712ZM274.201 25.8445C277.045 27.1587 279.863 28.5064 282.649 29.8805L283.976 27.1898C281.168 25.8051 278.327 24.4465 275.459 23.1212L274.201 25.8445ZM290.996 34.1201C293.791 35.5805 296.547 37.0611 299.259 38.5542L300.706 35.9263C297.976 34.4231 295.201 32.9321 292.386 31.4612L290.996 34.1201ZM307.43 43.1638C310.179 44.7517 312.873 46.3447 315.506 47.9338L317.056 45.3654C314.408 43.7668 311.697 42.1639 308.93 40.566L307.43 43.1638ZM323.482 52.8493C326.191 54.5529 328.82 56.2409 331.361 57.9019L333.002 55.3909C330.448 53.7207 327.804 52.0231 325.079 50.3097L323.482 52.8493ZM339.193 63.1192C341.886 64.9468 344.451 66.7224 346.876 68.4287L348.602 65.9753C346.164 64.2597 343.585 62.4744 340.877 60.6369L339.193 63.1192ZM354.532 73.9159C357.325 75.9548 359.844 77.8351 362.059 79.5156L363.872 77.1256C361.643 75.4346 359.11 73.5432 356.301 71.4929L354.532 73.9159ZM369.475 85.2675C370.639 86.1935 371.532 86.9162 372.133 87.4064C372.434 87.6516 372.661 87.8386 372.813 87.9639C372.888 88.0265 372.945 88.0737 372.983 88.1051C373.002 88.1207 373.016 88.1324 373.025 88.1401C373.03 88.1439 373.033 88.1467 373.035 88.1486C373.036 88.1495 373.037 88.1501 373.038 88.1505C373.038 88.1507 373.038 88.1508 373.038 88.1509C373.038 88.1509 373.038 88.151 373.038 88.151L373.038 88.151C373.038 88.151 373.038 88.1509 374 87C374.962 85.8491 374.962 85.849 374.962 85.849C374.962 85.849 374.962 85.849 374.962 85.8489C374.962 85.8489 374.962 85.8488 374.962 85.8487C374.961 85.8485 374.961 85.8483 374.961 85.848C374.96 85.8473 374.959 85.8465 374.957 85.8453C374.955 85.8431 374.951 85.8398 374.946 85.8355C374.935 85.8269 374.92 85.8143 374.9 85.7977C374.86 85.7646 374.801 85.7155 374.723 85.651C374.567 85.522 374.335 85.3312 374.03 85.0822C373.42 84.5842 372.517 83.8535 371.341 82.9191L369.475 85.2675Z" fill="#0C67C9"/>
</svg>
