<svg width="41" height="40" viewBox="0 0 41 40" fill="none" xmlns="http://www.w3.org/2000/svg">
<g clip-path="url(#clip0_54_7207)">
<path d="M28.8594 17.3594C28.4062 16.9062 28.0703 16.3828 27.8594 15.8203C27.4922 14.8828 26.5859 14.2656 25.5781 14.2656H15.4297C14.4219 14.2656 13.5078 14.8828 13.1484 15.8203C12.9297 16.3828 12.6016 16.9062 12.1484 17.3594C11.6719 17.8359 11.125 18.1797 10.5312 18.3906C9.69531 18.6953 9.14062 19.4922 9.14062 20.3906V23.4609C9.14062 28.2734 11.2422 32.8516 14.8906 35.9922L18.8125 39.3672C19.7891 40.2031 21.2266 40.2031 22.2031 39.3672L26.7344 35.4687C30 32.6562 31.875 28.5703 31.875 24.2656V20.3906C31.875 19.5 31.3203 18.7031 30.4844 18.3906C29.8828 18.1797 29.3281 17.8359 28.8594 17.3594Z" fill="url(#paint0_linear_54_7207)"/>
<path d="M30.4688 18.3906C29.8828 18.1719 29.3281 17.8281 28.8516 17.3594C28.3984 16.9062 28.0625 16.3828 27.8516 15.8203C27.4844 14.8828 26.5781 14.2656 25.5703 14.2656H20.5V40C21.1016 40 21.7109 39.7891 22.1953 39.3672L26.7266 35.4687C29.9922 32.6562 31.8672 28.5703 31.8672 24.2656V20.3906C31.8672 19.5 31.3125 18.6953 30.4688 18.3906Z" fill="url(#paint1_linear_54_7207)"/>
<path d="M9.14062 23.5078C9.15625 28.3047 11.25 32.8594 14.8906 35.9922L18.8125 39.3672C19.7891 40.2031 21.2266 40.2031 22.2031 39.3672L26.7344 35.4688C30 32.6563 31.875 28.5703 31.875 24.2656V23.5078H9.14062Z" fill="url(#paint2_linear_54_7207)"/>
<path d="M21.8906 37.0234C21.0859 37.7031 19.9063 37.7109 19.1016 37.0234L16.1328 34.5078C12.875 31.7031 11.0078 27.625 11.0078 23.3281V21.1797C11.0078 20.6094 11.3125 20.0703 11.8125 19.7969C12.4063 19.4609 12.9609 19.0469 13.4375 18.5625C13.9375 18.0625 14.3672 17.4922 14.7031 16.875C14.9844 16.3594 15.5234 16.0312 16.1094 16.0312H24.875C25.4609 16.0312 26 16.3594 26.2813 16.875C26.6172 17.4922 27.0469 18.0547 27.5469 18.5625C28.0313 19.0469 28.5781 19.4609 29.1719 19.7969C29.6719 20.0781 29.9766 20.6094 29.9766 21.1797V24.0625C29.9766 27.8984 28.3125 31.5313 25.4063 34.0313L21.8906 37.0234Z" fill="url(#paint3_linear_54_7207)"/>
<path d="M21.8906 37.0234C21.0859 37.7031 19.9063 37.7109 19.1016 37.0234L16.1328 34.5078C12.875 31.7031 11.0078 27.625 11.0078 23.3281V21.1797C11.0078 20.6094 11.3125 20.0703 11.8125 19.7969C12.4063 19.4609 12.9609 19.0469 13.4375 18.5625C13.9375 18.0625 14.3672 17.4922 14.7031 16.875C14.9844 16.3594 15.5234 16.0312 16.1094 16.0312H24.875C25.4609 16.0312 26 16.3594 26.2813 16.875C26.6172 17.4922 27.0469 18.0547 27.5469 18.5625C28.0313 19.0469 28.5781 19.4609 29.1719 19.7969C29.6719 20.0781 29.9766 20.6094 29.9766 21.1797V24.0625C29.9766 27.8984 28.3125 31.5313 25.4063 34.0313L21.8906 37.0234Z" fill="url(#paint4_linear_54_7207)"/>
<path d="M21.8906 37.0234C21.0859 37.7031 19.9063 37.7109 19.1016 37.0234L16.1328 34.5078C12.875 31.7031 11.0078 27.625 11.0078 23.3281V21.1797C11.0078 20.6094 11.3125 20.0703 11.8125 19.7969C12.4063 19.4609 12.9609 19.0469 13.4375 18.5625C13.9375 18.0625 14.3672 17.4922 14.7031 16.875C14.9844 16.3594 15.5234 16.0312 16.1094 16.0312H24.875C25.4609 16.0312 26 16.3594 26.2813 16.875C26.6172 17.4922 27.0469 18.0547 27.5469 18.5625C28.0313 19.0469 28.5781 19.4609 29.1719 19.7969C29.6719 20.0781 29.9766 20.6094 29.9766 21.1797V24.0625C29.9766 27.8984 28.3125 31.5313 25.4063 34.0313L21.8906 37.0234Z" fill="url(#paint5_linear_54_7207)"/>
<path d="M29.9844 22.9844L26.7734 19.7734L15.7109 30.8984L21.8594 37.0469C21.8672 37.0391 21.8828 37.0312 21.8906 37.0234L25.4141 34.0312C28.3203 31.5312 29.9844 27.8984 29.9844 24.0625V22.9844Z" fill="url(#paint6_linear_54_7207)"/>
<path d="M21.4919 25.2888L15.3669 21.3044C15.1013 21.1326 15.0153 20.781 15.1716 20.4997C15.6325 19.6951 16.6091 19.3357 17.4841 19.6404L23.5232 21.7576L21.4919 25.2888Z" fill="url(#paint7_linear_54_7207)"/>
<path d="M21.0229 24.9762L15.3667 21.2965C15.1401 21.1481 15.0464 20.8746 15.1167 20.6246C15.4135 20.5621 15.812 20.6481 16.226 20.8903L21.3979 23.8825L21.0229 24.9762Z" fill="url(#paint8_linear_54_7207)"/>
<path d="M21.312 25.1011L25.2964 31.2261C25.4683 31.4917 25.8198 31.5776 26.1011 31.4214C26.9058 30.9605 27.2651 29.9839 26.9605 29.1089L24.8433 23.0698L21.312 25.1011Z" fill="url(#paint9_linear_54_7207)"/>
<path d="M25.9683 31.4761C25.7183 31.5464 25.4448 31.4526 25.2964 31.2261L21.6167 25.5698L22.7104 25.187L25.7026 30.3589C25.9448 30.7808 26.0308 31.1792 25.9683 31.4761Z" fill="url(#paint10_linear_54_7207)"/>
<path d="M26.4995 27.8042L24.8354 23.062L21.312 25.1011L24.4214 29.8823L26.4995 27.8042Z" fill="url(#paint11_linear_54_7207)"/>
<path d="M16.7812 29.6089L13.9062 27.7418C13.6406 27.5699 13.5546 27.2183 13.7187 26.9449L13.9296 26.5855C14.0702 26.3355 14.3749 26.2261 14.6406 26.3199L17.9999 27.4996L16.7812 29.6089Z" fill="url(#paint12_linear_54_7207)"/>
<path d="M16.9844 29.812L18.8516 32.687C19.0234 32.9526 19.375 33.0386 19.6484 32.8745L20.0078 32.6636C20.2578 32.5229 20.3672 32.2183 20.2734 31.9526L19.1016 28.5933L16.9844 29.812Z" fill="url(#paint13_linear_54_7207)"/>
<path d="M16.9844 29.812L18.8516 32.687C19.0234 32.9526 19.375 33.0386 19.6484 32.8745L20.0078 32.6636C20.2578 32.5229 20.3672 32.2183 20.2734 31.9526L19.1016 28.5933L16.9844 29.812Z" fill="url(#paint14_linear_54_7207)"/>
<path d="M26.8204 19.8201C26.8048 19.8045 26.7892 19.7888 26.7814 19.781C25.8439 18.8513 24.0626 19.156 22.8517 20.4373C20.1017 23.3513 17.3283 26.6873 15.6798 29.3982C15.3439 29.9451 15.3517 30.5545 15.7033 30.8982C15.7111 30.906 15.7111 30.906 15.7189 30.9138C16.0626 31.2576 16.672 31.2654 17.2189 30.9373C19.922 29.2888 23.2579 26.5076 26.1798 23.7654C27.4533 22.5388 27.7501 20.7576 26.8204 19.8201Z" fill="url(#paint15_linear_54_7207)"/>
<path d="M25.1015 21.4453L25.1561 21.5C25.4921 21.8438 25.7343 22.2344 25.8827 22.6563C25.9608 22.875 26.2577 22.8984 26.3671 22.6953C26.8515 21.7891 26.8827 20.8437 26.3436 20.2969C26.3358 20.2891 26.3202 20.2734 26.3124 20.2656C25.7655 19.7266 24.8202 19.75 23.914 20.2422C23.7108 20.3516 23.7343 20.6484 23.953 20.7266C24.3593 20.8672 24.7577 21.1094 25.1015 21.4453Z" fill="url(#paint16_linear_54_7207)"/>
<path d="M25.1015 21.4453L25.1561 21.5C25.4921 21.8438 25.7343 22.2344 25.8827 22.6563C25.9608 22.875 26.2577 22.8984 26.3671 22.6953C26.8515 21.7891 26.8827 20.8437 26.3436 20.2969C26.3358 20.2891 26.3202 20.2734 26.3124 20.2656C25.7655 19.7266 24.8202 19.75 23.914 20.2422C23.7108 20.3516 23.7343 20.6484 23.953 20.7266C24.3593 20.8672 24.7577 21.1094 25.1015 21.4453Z" fill="url(#paint17_linear_54_7207)"/>
<path d="M25.1015 21.4453L25.1561 21.5C25.4921 21.8438 25.7343 22.2344 25.8827 22.6563C25.9608 22.875 26.2577 22.8984 26.3671 22.6953C26.8515 21.7891 26.8827 20.8437 26.3436 20.2969C26.3358 20.2891 26.3202 20.2734 26.3124 20.2656C25.7655 19.7266 24.8202 19.75 23.914 20.2422C23.7108 20.3516 23.7343 20.6484 23.953 20.7266C24.3593 20.8672 24.7577 21.1094 25.1015 21.4453Z" fill="url(#paint18_linear_54_7207)"/>
<path d="M17.7501 26.3906C16.9533 27.4375 16.2501 28.4531 15.672 29.3906C15.3361 29.9375 15.3439 30.5469 15.6954 30.8906L15.7111 30.9063C16.0548 31.25 16.6642 31.2578 17.2111 30.9297C18.1486 30.3594 19.1642 29.6484 20.2111 28.8516L17.7501 26.3906Z" fill="url(#paint19_linear_54_7207)"/>
<path d="M30.4688 18.3906C29.8828 18.1719 29.3281 17.8281 28.8516 17.3594C28.3984 16.9062 28.0625 16.3828 27.8516 15.8203C27.4844 14.8828 26.5781 14.2656 25.5703 14.2656H15.4297C14.4219 14.2656 13.5078 14.8828 13.1484 15.8203C12.9297 16.3828 12.6016 16.9062 12.1484 17.3594C11.6719 17.8359 11.125 18.1797 10.5312 18.3906C9.69531 18.6953 9.14062 19.4922 9.14062 20.3906V21.9609H31.8672V20.3906C31.8672 19.5 31.3125 18.6953 30.4688 18.3906Z" fill="url(#paint20_linear_54_7207)"/>
<path d="M20.4845 3.59375H20.5235C21.3517 3.59375 22.0079 3.22656 21.9767 2.78906C21.9142 1.91406 21.711 0.984375 21.3438 0.25C21.2657 0.09375 21.0548 -0.0078125 20.8204 -0.0078125H20.1798C19.9454 -0.0078125 19.7345 0.09375 19.6563 0.25C19.2892 0.984375 19.0938 1.91406 19.0235 2.78906C18.9923 3.22656 19.6485 3.59375 20.4845 3.59375Z" fill="url(#paint21_linear_54_7207)"/>
<path d="M38.3672 18.0234C38.2656 18.0234 38.1719 17.9766 38.1094 17.8984C38 17.75 37.875 17.6094 37.75 17.4766C37.0625 16.7891 36.1172 16.3672 35.0781 16.3672C33.9219 16.3672 32.8828 16.8906 32.1953 17.7031C32.0625 17.8594 31.8906 17.9688 31.7109 18.0156C31.5391 18.0625 31.3516 18.0625 31.1719 18.0156C30.9922 17.9609 30.8203 17.8594 30.6875 17.7031C29.9922 16.8828 28.9609 16.3672 27.8047 16.3672C26.9375 16.3672 26.1406 16.6562 25.5 17.1484C25.2891 17.3125 25.0937 17.5 24.9141 17.7031C24.7812 17.8594 24.6094 17.9688 24.4297 18.0156C24.2578 18.0625 24.0703 18.0625 23.8906 18.0156C23.7109 17.9609 23.5391 17.8594 23.4062 17.7031C22.7109 16.8828 21.6797 16.3672 20.5234 16.3672C19.6562 16.3672 18.8594 16.6562 18.2187 17.1484C18.0078 17.3125 17.8125 17.5 17.6406 17.7031C17.5078 17.8594 17.3359 17.9688 17.1562 18.0156C16.9844 18.0625 16.7969 18.0625 16.6172 18.0156C16.4375 17.9609 16.2656 17.8594 16.1328 17.7031C15.4375 16.8828 14.4062 16.3672 13.25 16.3672C12.3828 16.3672 11.5859 16.6562 10.9453 17.1484C10.7344 17.3125 10.5391 17.5 10.3594 17.7031C10.2266 17.8594 10.0547 17.9688 9.875 18.0156C9.70312 18.0625 9.51562 18.0625 9.33593 18.0156C9.15625 17.9609 8.98437 17.8594 8.85156 17.7031C8.15625 16.8828 7.125 16.3672 5.96875 16.3672C4.92187 16.3672 3.97656 16.7891 3.29687 17.4766C3.16406 17.6094 3.04687 17.75 2.9375 17.8984C2.875 17.9766 2.78125 18.0234 2.67968 18.0234C2.48437 18.0234 2.33593 17.8516 2.35937 17.6562C3.53125 8.70313 11.2109 1.79688 20.5 1.79688C29.7891 1.79688 37.4687 8.69531 38.6875 17.6562C38.7109 17.8516 38.5625 18.0234 38.3672 18.0234Z" fill="url(#paint22_linear_54_7207)"/>
<path d="M20.4766 1.79688H20.5C18.6016 1.80469 17.0391 8.91406 16.8281 18.0547C16.75 18.0547 16.6719 18.0391 16.5938 18.0156C16.4141 17.9609 16.2422 17.8594 16.1094 17.7031C15.4141 16.8828 14.3828 16.3672 13.2266 16.3672C12.3594 16.3672 11.5625 16.6562 10.9219 17.1484C10.7109 17.3125 10.5156 17.5 10.3359 17.7031C10.2031 17.8594 10.0312 17.9688 9.85156 18.0156C9.75781 18.0391 9.66406 18.0547 9.57031 18.0547C10.1797 8.92188 14.8281 1.82031 20.4766 1.79688Z" fill="url(#paint23_linear_54_7207)"/>
<path d="M31.4453 18.0625C31.3516 18.0625 31.25 18.0547 31.1641 18.0234C30.9844 17.9687 30.8125 17.8672 30.6797 17.7109C29.9844 16.8906 28.9531 16.375 27.7969 16.375C26.9297 16.375 26.1328 16.6641 25.4922 17.1562C25.2812 17.3203 25.0859 17.5078 24.9062 17.7109C24.7734 17.8672 24.6016 17.9766 24.4219 18.0234C24.3438 18.0469 24.2656 18.0547 24.1875 18.0625C23.9766 8.92187 22.4141 1.8125 20.5156 1.80469H20.5391C26.1719 1.82031 30.8203 8.92187 31.4453 18.0625Z" fill="url(#paint24_linear_54_7207)"/>
<path d="M20.4922 1.79688C18.5938 1.80469 17.0313 8.91406 16.8203 18.0547C16.9219 18.0547 17.0234 18.0469 17.125 18.0156C17.3047 17.9609 17.4766 17.8594 17.6094 17.7031C17.7813 17.5 17.9766 17.3125 18.1875 17.1484C18.8281 16.6562 19.625 16.3672 20.4922 16.3672C21.6484 16.3672 22.6875 16.8906 23.375 17.7031C23.5078 17.8594 23.6797 17.9688 23.8594 18.0156C23.9609 18.0469 24.0625 18.0547 24.1641 18.0547C23.9531 8.91406 22.3906 1.80469 20.4922 1.79688C20.5 1.79688 20.5 1.79688 20.4922 1.79688Z" fill="url(#paint25_linear_54_7207)"/>
<path d="M38.3594 18.0234C38.2578 18.0234 38.1641 17.9766 38.1016 17.8984C37.9922 17.75 37.8672 17.6094 37.7422 17.4766C37.0547 16.7891 36.1094 16.3672 35.0703 16.3672C33.9141 16.3672 32.875 16.8906 32.1875 17.7031C32.0547 17.8594 31.8828 17.9688 31.7031 18.0156C31.5312 18.0625 31.3437 18.0625 31.1641 18.0156C30.9844 17.9609 30.8125 17.8594 30.6797 17.7031C29.9844 16.8828 28.9531 16.3672 27.7969 16.3672C26.9297 16.3672 26.1328 16.6562 25.4922 17.1484C25.2812 17.3125 25.0859 17.5 24.9062 17.7031C24.7734 17.8594 24.6016 17.9688 24.4219 18.0156C24.25 18.0625 24.0625 18.0625 23.8828 18.0156C23.7031 17.9609 23.5312 17.8594 23.3984 17.7031C22.7031 16.8828 21.6719 16.3672 20.5156 16.3672C19.6484 16.3672 18.8516 16.6562 18.2109 17.1484C18 17.3125 17.8047 17.5 17.6328 17.7031C17.5 17.8594 17.3281 17.9688 17.1484 18.0156C16.9766 18.0625 16.7891 18.0625 16.6094 18.0156C16.4297 17.9609 16.2578 17.8594 16.125 17.7031C15.4297 16.8828 14.3984 16.3672 13.2422 16.3672C12.375 16.3672 11.5781 16.6562 10.9375 17.1484C10.7266 17.3125 10.5312 17.5 10.3516 17.7031C10.2187 17.8594 10.0469 17.9688 9.86719 18.0156C9.69531 18.0625 9.50781 18.0625 9.32813 18.0156C9.14844 17.9609 8.97656 17.8594 8.84375 17.7031C8.14844 16.8828 7.11719 16.3672 5.96094 16.3672C4.91406 16.3672 3.96875 16.7891 3.28906 17.4766C3.15625 17.6094 3.03906 17.75 2.92969 17.8984C2.86719 17.9766 2.77344 18.0234 2.67187 18.0234C2.49219 18.0234 2.35156 17.875 2.35156 17.7031C2.35156 17.6875 2.35156 17.6719 2.35156 17.6562C2.78906 14.4219 4.07031 11.4531 5.96875 8.98438H35.0937C36.9922 11.4531 38.2734 14.4219 38.7109 17.6562C38.7109 17.8516 38.5625 18.0234 38.3594 18.0234Z" fill="url(#paint26_linear_54_7207)"/>
<path d="M20.5 1.79688C20.4375 1.79688 20.3672 1.79688 20.3047 1.79688V16.3672C20.3672 16.3672 20.4375 16.3594 20.5 16.3594C21.6563 16.3594 22.6953 16.8828 23.3828 17.6953C23.5156 17.8516 23.6875 17.9609 23.8672 18.0078C24.0469 18.0547 24.2266 18.0547 24.4062 18.0078C24.5859 17.9531 24.7578 17.8516 24.8906 17.6953C25.0625 17.4922 25.2578 17.3047 25.4766 17.1406C26.1172 16.6484 26.9141 16.3594 27.7813 16.3594C28.9375 16.3594 29.9766 16.8828 30.6641 17.6953C30.7969 17.8516 30.9687 17.9609 31.1484 18.0078C31.3203 18.0547 31.5078 18.0547 31.6875 18.0078C31.8672 17.9531 32.0391 17.8516 32.1719 17.6953C32.8672 16.875 33.8984 16.3594 35.0547 16.3594C36.1016 16.3594 37.0469 16.7813 37.7266 17.4688C37.8594 17.6016 37.9766 17.7422 38.0859 17.8906C38.1484 17.9688 38.2422 18.0156 38.3437 18.0156C38.5391 18.0156 38.6875 17.8437 38.6641 17.6484C37.4687 8.70312 29.7891 1.79688 20.5 1.79688Z" fill="url(#paint27_linear_54_7207)"/>
</g>
<defs>
<linearGradient id="paint0_linear_54_7207" x1="14.2353" y1="18.6448" x2="28.4898" y2="32.8993" gradientUnits="userSpaceOnUse">
<stop stop-color="#26A6FE"/>
<stop offset="0.2729" stop-color="#23A1FD"/>
<stop offset="0.5557" stop-color="#1A95FD"/>
<stop offset="0.8419" stop-color="#0B80FB"/>
<stop offset="1" stop-color="#0172FB"/>
</linearGradient>
<linearGradient id="paint1_linear_54_7207" x1="28.5055" y1="27.135" x2="32.3621" y2="27.135" gradientUnits="userSpaceOnUse">
<stop stop-color="#0182FC" stop-opacity="0"/>
<stop offset="0.192" stop-color="#017FF5" stop-opacity="0.04"/>
<stop offset="0.391" stop-color="#0179E3" stop-opacity="0.161"/>
<stop offset="0.5932" stop-color="#016EC6" stop-opacity="0.362"/>
<stop offset="0.7966" stop-color="#015F9C" stop-opacity="0.643"/>
<stop offset="1" stop-color="#024C67"/>
</linearGradient>
<linearGradient id="paint2_linear_54_7207" x1="24.9333" y1="31.827" x2="28.2427" y2="35.833" gradientUnits="userSpaceOnUse">
<stop stop-color="#0182FC" stop-opacity="0"/>
<stop offset="0.192" stop-color="#017FF5" stop-opacity="0.04"/>
<stop offset="0.391" stop-color="#0179E3" stop-opacity="0.161"/>
<stop offset="0.5932" stop-color="#016EC6" stop-opacity="0.362"/>
<stop offset="0.7966" stop-color="#015F9C" stop-opacity="0.643"/>
<stop offset="1" stop-color="#024C67"/>
</linearGradient>
<linearGradient id="paint3_linear_54_7207" x1="-2.39328" y1="2.06891" x2="32.0949" y2="36.5571" gradientUnits="userSpaceOnUse">
<stop stop-color="#0182FC" stop-opacity="0"/>
<stop offset="0.192" stop-color="#017FF5" stop-opacity="0.04"/>
<stop offset="0.391" stop-color="#0179E3" stop-opacity="0.161"/>
<stop offset="0.5932" stop-color="#016EC6" stop-opacity="0.362"/>
<stop offset="0.7966" stop-color="#015F9C" stop-opacity="0.643"/>
<stop offset="1" stop-color="#024C67"/>
</linearGradient>
<linearGradient id="paint4_linear_54_7207" x1="18.8678" y1="22.7467" x2="13.7182" y2="16.6816" gradientUnits="userSpaceOnUse">
<stop stop-color="#0182FC" stop-opacity="0"/>
<stop offset="0.192" stop-color="#017FF5" stop-opacity="0.04"/>
<stop offset="0.391" stop-color="#0179E3" stop-opacity="0.161"/>
<stop offset="0.5932" stop-color="#016EC6" stop-opacity="0.362"/>
<stop offset="0.7966" stop-color="#015F9C" stop-opacity="0.643"/>
<stop offset="1" stop-color="#024C67"/>
</linearGradient>
<linearGradient id="paint5_linear_54_7207" x1="17.4838" y1="26.8448" x2="9.93094" y2="27.3597" gradientUnits="userSpaceOnUse">
<stop stop-color="#0182FC" stop-opacity="0"/>
<stop offset="0.192" stop-color="#017FF5" stop-opacity="0.04"/>
<stop offset="0.391" stop-color="#0179E3" stop-opacity="0.161"/>
<stop offset="0.5932" stop-color="#016EC6" stop-opacity="0.362"/>
<stop offset="0.7966" stop-color="#015F9C" stop-opacity="0.643"/>
<stop offset="1" stop-color="#024C67"/>
</linearGradient>
<linearGradient id="paint6_linear_54_7207" x1="27.0656" y1="30.9103" x2="21.8805" y2="26.192" gradientUnits="userSpaceOnUse">
<stop stop-color="#0182FC" stop-opacity="0"/>
<stop offset="0.192" stop-color="#017FF5" stop-opacity="0.04"/>
<stop offset="0.391" stop-color="#0179E3" stop-opacity="0.161"/>
<stop offset="0.5932" stop-color="#016EC6" stop-opacity="0.362"/>
<stop offset="0.7966" stop-color="#015F9C" stop-opacity="0.643"/>
<stop offset="1" stop-color="#024C67"/>
</linearGradient>
<linearGradient id="paint7_linear_54_7207" x1="19.839" y1="20.4841" x2="18.0582" y2="23.2723" gradientUnits="userSpaceOnUse">
<stop stop-color="#EAF6FF"/>
<stop offset="0.2651" stop-color="#E5F3FE"/>
<stop offset="0.5398" stop-color="#D9EDFE"/>
<stop offset="0.8179" stop-color="#C4E3FE"/>
<stop offset="1" stop-color="#B3DAFE"/>
</linearGradient>
<linearGradient id="paint8_linear_54_7207" x1="17.8359" y1="23.1175" x2="18.4834" y2="22.1102" gradientUnits="userSpaceOnUse">
<stop stop-color="#EAF6FF"/>
<stop offset="0.2651" stop-color="#E5F3FE"/>
<stop offset="0.5398" stop-color="#D9EDFE"/>
<stop offset="0.8179" stop-color="#C4E3FE"/>
<stop offset="1" stop-color="#B3DAFE"/>
</linearGradient>
<linearGradient id="paint9_linear_54_7207" x1="26.0127" y1="26.7581" x2="23.3145" y2="28.4849" gradientUnits="userSpaceOnUse">
<stop stop-color="#EAF6FF"/>
<stop offset="0.2651" stop-color="#E5F3FE"/>
<stop offset="0.5398" stop-color="#D9EDFE"/>
<stop offset="0.8179" stop-color="#C4E3FE"/>
<stop offset="1" stop-color="#B3DAFE"/>
</linearGradient>
<linearGradient id="paint10_linear_54_7207" x1="23.4136" y1="28.7386" x2="24.295" y2="28.181" gradientUnits="userSpaceOnUse">
<stop stop-color="#EAF6FF"/>
<stop offset="0.2651" stop-color="#E5F3FE"/>
<stop offset="0.5398" stop-color="#D9EDFE"/>
<stop offset="0.8179" stop-color="#C4E3FE"/>
<stop offset="1" stop-color="#B3DAFE"/>
</linearGradient>
<linearGradient id="paint11_linear_54_7207" x1="25.0309" y1="26.8981" x2="23.6987" y2="25.5659" gradientUnits="userSpaceOnUse">
<stop stop-color="#8AC9FE" stop-opacity="0"/>
<stop offset="0.1291" stop-color="#89C8FD" stop-opacity="0.019"/>
<stop offset="0.2629" stop-color="#88C6FB" stop-opacity="0.075"/>
<stop offset="0.3989" stop-color="#87C4F8" stop-opacity="0.168"/>
<stop offset="0.5365" stop-color="#85C0F4" stop-opacity="0.298"/>
<stop offset="0.6753" stop-color="#83BBEF" stop-opacity="0.466"/>
<stop offset="0.8151" stop-color="#7FB5E9" stop-opacity="0.672"/>
<stop offset="0.9532" stop-color="#7CAEE1" stop-opacity="0.911"/>
<stop offset="1" stop-color="#7BACDF"/>
</linearGradient>
<linearGradient id="paint12_linear_54_7207" x1="16.0216" y1="26.9702" x2="14.9604" y2="28.6791" gradientUnits="userSpaceOnUse">
<stop stop-color="#EAF6FF"/>
<stop offset="0.2651" stop-color="#E5F3FE"/>
<stop offset="0.5398" stop-color="#D9EDFE"/>
<stop offset="0.8179" stop-color="#C4E3FE"/>
<stop offset="1" stop-color="#B3DAFE"/>
</linearGradient>
<linearGradient id="paint13_linear_54_7207" x1="19.5475" y1="30.6178" x2="18.0366" y2="31.4452" gradientUnits="userSpaceOnUse">
<stop stop-color="#EAF6FF"/>
<stop offset="0.2651" stop-color="#E5F3FE"/>
<stop offset="0.5398" stop-color="#D9EDFE"/>
<stop offset="0.8179" stop-color="#C4E3FE"/>
<stop offset="1" stop-color="#B3DAFE"/>
</linearGradient>
<linearGradient id="paint14_linear_54_7207" x1="19.446" y1="31.2907" x2="18.3128" y2="29.7978" gradientUnits="userSpaceOnUse">
<stop stop-color="#8AC9FE" stop-opacity="0"/>
<stop offset="0.1291" stop-color="#89C8FD" stop-opacity="0.019"/>
<stop offset="0.2629" stop-color="#88C6FB" stop-opacity="0.075"/>
<stop offset="0.3989" stop-color="#87C4F8" stop-opacity="0.168"/>
<stop offset="0.5365" stop-color="#85C0F4" stop-opacity="0.298"/>
<stop offset="0.6753" stop-color="#83BBEF" stop-opacity="0.466"/>
<stop offset="0.8151" stop-color="#7FB5E9" stop-opacity="0.672"/>
<stop offset="0.9532" stop-color="#7CAEE1" stop-opacity="0.911"/>
<stop offset="1" stop-color="#7BACDF"/>
</linearGradient>
<linearGradient id="paint15_linear_54_7207" x1="20.2196" y1="24.3352" x2="22.1348" y2="26.2504" gradientUnits="userSpaceOnUse">
<stop stop-color="#EAF6FF"/>
<stop offset="0.2651" stop-color="#E5F3FE"/>
<stop offset="0.5398" stop-color="#D9EDFE"/>
<stop offset="0.8179" stop-color="#C4E3FE"/>
<stop offset="1" stop-color="#B3DAFE"/>
</linearGradient>
<linearGradient id="paint16_linear_54_7207" x1="24.6375" y1="20.0232" x2="26.2349" y2="21.6205" gradientUnits="userSpaceOnUse">
<stop stop-color="#26A6FE"/>
<stop offset="0.2729" stop-color="#23A1FD"/>
<stop offset="0.5557" stop-color="#1A95FD"/>
<stop offset="0.8419" stop-color="#0B80FB"/>
<stop offset="1" stop-color="#0172FB"/>
</linearGradient>
<linearGradient id="paint17_linear_54_7207" x1="25.3872" y1="21.1452" x2="24.8032" y2="19.573" gradientUnits="userSpaceOnUse">
<stop stop-color="#0182FC" stop-opacity="0"/>
<stop offset="0.192" stop-color="#017FF5" stop-opacity="0.04"/>
<stop offset="0.391" stop-color="#0179E3" stop-opacity="0.161"/>
<stop offset="0.5932" stop-color="#016EC6" stop-opacity="0.362"/>
<stop offset="0.7966" stop-color="#015F9C" stop-opacity="0.643"/>
<stop offset="1" stop-color="#024C67"/>
</linearGradient>
<linearGradient id="paint18_linear_54_7207" x1="25.2704" y1="20.898" x2="25.48" y2="19.8048" gradientUnits="userSpaceOnUse">
<stop stop-color="#0182FC" stop-opacity="0"/>
<stop offset="0.192" stop-color="#017FF5" stop-opacity="0.04"/>
<stop offset="0.391" stop-color="#0179E3" stop-opacity="0.161"/>
<stop offset="0.5932" stop-color="#016EC6" stop-opacity="0.362"/>
<stop offset="0.7966" stop-color="#015F9C" stop-opacity="0.643"/>
<stop offset="1" stop-color="#024C67"/>
</linearGradient>
<linearGradient id="paint19_linear_54_7207" x1="17.6074" y1="28.9533" x2="15.5336" y2="31.0272" gradientUnits="userSpaceOnUse">
<stop stop-color="#8AC9FE" stop-opacity="0"/>
<stop offset="0.1291" stop-color="#89C8FD" stop-opacity="0.019"/>
<stop offset="0.2629" stop-color="#88C6FB" stop-opacity="0.075"/>
<stop offset="0.3989" stop-color="#87C4F8" stop-opacity="0.168"/>
<stop offset="0.5365" stop-color="#85C0F4" stop-opacity="0.298"/>
<stop offset="0.6753" stop-color="#83BBEF" stop-opacity="0.466"/>
<stop offset="0.8151" stop-color="#7FB5E9" stop-opacity="0.672"/>
<stop offset="0.9532" stop-color="#7CAEE1" stop-opacity="0.911"/>
<stop offset="1" stop-color="#7BACDF"/>
</linearGradient>
<linearGradient id="paint20_linear_54_7207" x1="20.5" y1="19.763" x2="20.5" y2="16.2995" gradientUnits="userSpaceOnUse">
<stop stop-color="#0182FC" stop-opacity="0"/>
<stop offset="0.192" stop-color="#017FF5" stop-opacity="0.04"/>
<stop offset="0.391" stop-color="#0179E3" stop-opacity="0.161"/>
<stop offset="0.5932" stop-color="#016EC6" stop-opacity="0.362"/>
<stop offset="0.7966" stop-color="#015F9C" stop-opacity="0.643"/>
<stop offset="1" stop-color="#024C67"/>
</linearGradient>
<linearGradient id="paint21_linear_54_7207" x1="20.0336" y1="1.79797" x2="21.2937" y2="1.79797" gradientUnits="userSpaceOnUse">
<stop stop-color="#465A61"/>
<stop offset="0.3978" stop-color="#44565C"/>
<stop offset="0.8093" stop-color="#404C50"/>
<stop offset="1" stop-color="#3E4648"/>
</linearGradient>
<linearGradient id="paint22_linear_54_7207" x1="14.1409" y1="0.507969" x2="21.5979" y2="19.8798" gradientUnits="userSpaceOnUse">
<stop stop-color="#FEF0AE"/>
<stop offset="0.1466" stop-color="#FDEEA9"/>
<stop offset="0.2986" stop-color="#FDEB9D"/>
<stop offset="0.4531" stop-color="#FDE688"/>
<stop offset="0.6093" stop-color="#FCDF6B"/>
<stop offset="0.7669" stop-color="#FBD646"/>
<stop offset="0.9233" stop-color="#FACC18"/>
<stop offset="1" stop-color="#FAC600"/>
</linearGradient>
<linearGradient id="paint23_linear_54_7207" x1="12.2917" y1="9.17398" x2="19.3434" y2="11.1193" gradientUnits="userSpaceOnUse">
<stop stop-color="#FEF0AE"/>
<stop offset="0.1466" stop-color="#FDEEA9"/>
<stop offset="0.2986" stop-color="#FDEB9D"/>
<stop offset="0.4531" stop-color="#FDE688"/>
<stop offset="0.6093" stop-color="#FCDF6B"/>
<stop offset="0.7669" stop-color="#FBD646"/>
<stop offset="0.9233" stop-color="#FACC18"/>
<stop offset="1" stop-color="#FAC600"/>
</linearGradient>
<linearGradient id="paint24_linear_54_7207" x1="22.3669" y1="10.6957" x2="29.9859" y2="9.07469" gradientUnits="userSpaceOnUse">
<stop stop-color="#FEF0AE"/>
<stop offset="0.1466" stop-color="#FDEEA9"/>
<stop offset="0.2986" stop-color="#FDEB9D"/>
<stop offset="0.4531" stop-color="#FDE688"/>
<stop offset="0.6093" stop-color="#FCDF6B"/>
<stop offset="0.7669" stop-color="#FBD646"/>
<stop offset="0.9233" stop-color="#FACC18"/>
<stop offset="1" stop-color="#FAC600"/>
</linearGradient>
<linearGradient id="paint25_linear_54_7207" x1="17.817" y1="9.92844" x2="23.7621" y2="9.92844" gradientUnits="userSpaceOnUse">
<stop stop-color="#FEF0AE"/>
<stop offset="0.1466" stop-color="#FDEEA9"/>
<stop offset="0.2986" stop-color="#FDEB9D"/>
<stop offset="0.4531" stop-color="#FDE688"/>
<stop offset="0.6093" stop-color="#FCDF6B"/>
<stop offset="0.7669" stop-color="#FBD646"/>
<stop offset="0.9233" stop-color="#FACC18"/>
<stop offset="1" stop-color="#FAC600"/>
</linearGradient>
<linearGradient id="paint26_linear_54_7207" x1="20.5" y1="13.4408" x2="20.5" y2="18.4687" gradientUnits="userSpaceOnUse">
<stop stop-color="#FE9738" stop-opacity="0"/>
<stop offset="0.1207" stop-color="#FE9738" stop-opacity="0.016"/>
<stop offset="0.2459" stop-color="#FE9738" stop-opacity="0.065"/>
<stop offset="0.3731" stop-color="#FE9738" stop-opacity="0.147"/>
<stop offset="0.5018" stop-color="#FE9738" stop-opacity="0.262"/>
<stop offset="0.6317" stop-color="#FE9738" stop-opacity="0.41"/>
<stop offset="0.7625" stop-color="#FE9738" stop-opacity="0.59"/>
<stop offset="0.8916" stop-color="#FE9738" stop-opacity="0.8"/>
<stop offset="1" stop-color="#FE9738"/>
</linearGradient>
<linearGradient id="paint27_linear_54_7207" x1="29.7018" y1="9.75976" x2="35.0513" y2="7.32812" gradientUnits="userSpaceOnUse">
<stop stop-color="#FE9738" stop-opacity="0"/>
<stop offset="0.1207" stop-color="#FE9738" stop-opacity="0.016"/>
<stop offset="0.2459" stop-color="#FE9738" stop-opacity="0.065"/>
<stop offset="0.3731" stop-color="#FE9738" stop-opacity="0.147"/>
<stop offset="0.5018" stop-color="#FE9738" stop-opacity="0.262"/>
<stop offset="0.6317" stop-color="#FE9738" stop-opacity="0.41"/>
<stop offset="0.7625" stop-color="#FE9738" stop-opacity="0.59"/>
<stop offset="0.8916" stop-color="#FE9738" stop-opacity="0.8"/>
<stop offset="1" stop-color="#FE9738"/>
</linearGradient>
<clipPath id="clip0_54_7207">
<rect width="40" height="40" fill="white" transform="translate(0.5)"/>
</clipPath>
</defs>
</svg>
