<svg width="41" height="40" viewBox="0 0 41 40" fill="none" xmlns="http://www.w3.org/2000/svg">
<g clip-path="url(#clip0_54_7247)">
<path d="M34.7002 8.11719V28.7656C34.7002 29.625 34.0049 30.3281 33.1377 30.3281H2.39551C1.53613 30.3281 0.833008 29.6328 0.833008 28.7656V8.11719L17.7705 5.39062L34.7002 8.11719Z" fill="url(#paint0_linear_54_7247)"/>
<path d="M0.833008 21.4297V28.7656C0.833008 29.625 1.52832 30.3281 2.39551 30.3281H33.1455C34.0049 30.3281 34.708 29.6328 34.708 28.7656V21.4297H0.833008Z" fill="url(#paint1_linear_54_7247)"/>
<path d="M34.7002 8.11719V28.7656C34.7002 29.625 34.0049 30.3281 33.1377 30.3281H21.8486V6.04688L34.7002 8.11719Z" fill="url(#paint2_linear_54_7247)"/>
<path d="M33.1455 1.73438H2.39551C1.53613 1.73438 0.833008 2.42969 0.833008 3.29688V8.11719H34.7002V3.28906C34.7002 2.42969 34.0049 1.73438 33.1455 1.73438Z" fill="url(#paint3_linear_54_7247)"/>
<path d="M33.1455 1.73438H4.36426V3.20312L9.27832 8.11719H34.7002V3.28906C34.7002 2.42969 34.0049 1.73438 33.1455 1.73438Z" fill="url(#paint4_linear_54_7247)"/>
<path d="M33.1455 1.73438H10.6299V3.20312L15.5439 8.11719H34.7002V3.28906C34.7002 2.42969 34.0049 1.73438 33.1455 1.73438Z" fill="url(#paint5_linear_54_7247)"/>
<path d="M33.1455 1.73438H16.8955V3.20312L21.8096 8.11719H34.7002V3.28906C34.7002 2.42969 34.0049 1.73438 33.1455 1.73438Z" fill="url(#paint6_linear_54_7247)"/>
<path d="M33.1455 1.73438H23.1533V3.20312L28.0674 8.11719H34.7002V3.28906C34.7002 2.42969 34.0049 1.73438 33.1455 1.73438Z" fill="url(#paint7_linear_54_7247)"/>
<path d="M33.1455 1.73438H25.7314V8.11719H34.708V3.28906C34.7002 2.42969 34.0049 1.73438 33.1455 1.73438Z" fill="url(#paint8_linear_54_7247)"/>
<path d="M33.1455 1.73438H29.4189V3.20312L34.333 8.11719H34.7002V3.28906C34.7002 2.42969 34.0049 1.73438 33.1455 1.73438Z" fill="url(#paint9_linear_54_7247)"/>
<path d="M5.35645 16.6328H8.39551C8.83301 16.6328 9.19238 16.9844 9.19238 17.4297V20.4688C9.19238 20.9063 8.84082 21.2656 8.39551 21.2656H5.35645C4.91895 21.2656 4.55957 20.9141 4.55957 20.4688V17.4297C4.56738 16.9922 4.91895 16.6328 5.35645 16.6328Z" fill="url(#paint10_linear_54_7247)"/>
<path d="M12.6143 16.6328H15.6533C16.0908 16.6328 16.4502 16.9844 16.4502 17.4297V20.4688C16.4502 20.9063 16.0986 21.2656 15.6533 21.2656H12.6143C12.1768 21.2656 11.8174 20.9141 11.8174 20.4688V17.4297C11.8252 16.9922 12.1768 16.6328 12.6143 16.6328Z" fill="url(#paint11_linear_54_7247)"/>
<path d="M19.8799 16.6328H22.9189C23.3564 16.6328 23.7158 16.9844 23.7158 17.4297V20.4688C23.7158 20.9063 23.3643 21.2656 22.9189 21.2656H19.8799C19.4424 21.2656 19.083 20.9141 19.083 20.4688V17.4297C19.083 16.9922 19.4424 16.6328 19.8799 16.6328Z" fill="url(#paint12_linear_54_7247)"/>
<path d="M27.1377 16.6328H30.1768C30.6143 16.6328 30.9736 16.9844 30.9736 17.4297V20.4688C30.9736 20.9063 30.6221 21.2656 30.1768 21.2656H27.1377C26.7002 21.2656 26.3408 20.9141 26.3408 20.4688V17.4297C26.3486 16.9922 26.7002 16.6328 27.1377 16.6328Z" fill="url(#paint13_linear_54_7247)"/>
<path d="M5.35645 23.2031H8.39551C8.83301 23.2031 9.19238 23.5547 9.19238 24V27.0312C9.19238 27.4687 8.84082 27.8281 8.39551 27.8281H5.35645C4.91895 27.8281 4.55957 27.4766 4.55957 27.0312V23.9922C4.56738 23.5547 4.91895 23.2031 5.35645 23.2031Z" fill="url(#paint14_linear_54_7247)"/>
<path d="M12.6143 23.2031H15.6533C16.0908 23.2031 16.4502 23.5547 16.4502 24V27.0312C16.4502 27.4687 16.0986 27.8281 15.6533 27.8281H12.6143C12.1768 27.8281 11.8174 27.4766 11.8174 27.0312V23.9922C11.8252 23.5547 12.1768 23.2031 12.6143 23.2031Z" fill="url(#paint15_linear_54_7247)"/>
<path d="M5.35645 10.0703H8.39551C8.83301 10.0703 9.19238 10.4219 9.19238 10.8672V13.9063C9.19238 14.3438 8.84082 14.7031 8.39551 14.7031H5.35645C4.91895 14.7031 4.55957 14.3516 4.55957 13.9063V10.8594C4.56738 10.4219 4.91895 10.0703 5.35645 10.0703Z" fill="url(#paint16_linear_54_7247)"/>
<path d="M12.6143 10.0703H15.6533C16.0908 10.0703 16.4502 10.4219 16.4502 10.8672V13.9063C16.4502 14.3438 16.0986 14.7031 15.6533 14.7031H12.6143C12.1768 14.7031 11.8174 14.3516 11.8174 13.9063V10.8594C11.8252 10.4219 12.1768 10.0703 12.6143 10.0703Z" fill="url(#paint17_linear_54_7247)"/>
<path d="M19.8799 10.0703H22.9189C23.3564 10.0703 23.7158 10.4219 23.7158 10.8672V13.9063C23.7158 14.3438 23.3643 14.7031 22.9189 14.7031H19.8799C19.4424 14.7031 19.083 14.3516 19.083 13.9063V10.8594C19.083 10.4219 19.4424 10.0703 19.8799 10.0703Z" fill="url(#paint18_linear_54_7247)"/>
<path d="M27.1377 10.0703H30.1768C30.6143 10.0703 30.9736 10.4219 30.9736 10.8672V13.9063C30.9736 14.3438 30.6221 14.7031 30.1768 14.7031H27.1377C26.7002 14.7031 26.3408 14.3516 26.3408 13.9063V10.8594C26.3486 10.4219 26.7002 10.0703 27.1377 10.0703Z" fill="url(#paint19_linear_54_7247)"/>
<path d="M5.23926 0C5.92676 0 6.48926 0.5625 6.48926 1.25V2.30469C6.48926 2.99219 5.92676 3.55469 5.23926 3.55469C4.55176 3.55469 3.98926 2.99219 3.98926 2.30469V1.25C3.98926 0.5625 4.55176 0 5.23926 0Z" fill="url(#paint20_linear_54_7247)"/>
<path d="M11.5049 0C12.1924 0 12.7549 0.5625 12.7549 1.25V2.30469C12.7549 2.99219 12.1924 3.55469 11.5049 3.55469C10.8174 3.55469 10.2549 2.99219 10.2549 2.30469V1.25C10.2549 0.5625 10.8174 0 11.5049 0Z" fill="url(#paint21_linear_54_7247)"/>
<path d="M17.7705 0C18.458 0 19.0205 0.5625 19.0205 1.25V2.30469C19.0205 2.99219 18.458 3.55469 17.7705 3.55469C17.083 3.55469 16.5205 2.99219 16.5205 2.30469V1.25C16.5205 0.5625 17.0752 0 17.7705 0Z" fill="url(#paint22_linear_54_7247)"/>
<path d="M24.0283 0C24.7158 0 25.2783 0.5625 25.2783 1.25V2.30469C25.2783 2.99219 24.7158 3.55469 24.0283 3.55469C23.3408 3.55469 22.7783 2.99219 22.7783 2.30469V1.25C22.7783 0.5625 23.3408 0 24.0283 0Z" fill="url(#paint23_linear_54_7247)"/>
<path d="M30.2939 0C30.9814 0 31.5439 0.5625 31.5439 1.25V2.30469C31.5439 2.99219 30.9814 3.55469 30.2939 3.55469C29.6064 3.55469 29.0439 2.99219 29.0439 2.30469V1.25C29.0439 0.5625 29.6064 0 30.2939 0Z" fill="url(#paint24_linear_54_7247)"/>
<path d="M14.083 27.3828C13.8096 27.3828 13.5361 27.2813 13.3252 27.0703L12.2236 25.9688C12.1064 25.8516 12.1064 25.6641 12.2236 25.5469L12.6299 25.1406C12.7471 25.0234 12.9346 25.0234 13.0518 25.1406L13.8721 25.9609C13.9893 26.0781 14.1768 26.0781 14.2939 25.9609L17.0986 23.1562C17.2158 23.0391 17.4033 23.0391 17.5205 23.1562L17.9268 23.5625C18.0439 23.6797 18.0439 23.8672 17.9268 23.9844L14.8408 27.0703C14.6299 27.2813 14.3564 27.3828 14.083 27.3828Z" fill="url(#paint25_linear_54_7247)"/>
<path d="M6.80957 27.3828C6.53613 27.3828 6.2627 27.2813 6.05176 27.0703L4.9502 25.9688C4.83301 25.8516 4.83301 25.6641 4.9502 25.5469L5.35645 25.1406C5.47363 25.0234 5.66113 25.0234 5.77832 25.1406L6.59863 25.9609C6.71582 26.0781 6.90332 26.0781 7.02051 25.9609L9.8252 23.1562C9.94238 23.0391 10.1299 23.0391 10.2471 23.1562L10.6533 23.5625C10.7705 23.6797 10.7705 23.8672 10.6533 23.9844L7.56738 27.0703C7.35645 27.2813 7.08301 27.3828 6.80957 27.3828Z" fill="url(#paint26_linear_54_7247)"/>
<path d="M24.7158 22.3672H26.2705V27.6328H24.7158V22.3672Z" fill="url(#paint27_linear_54_7247)"/>
<path d="M24.7158 22.3672H26.2705V27.6328H24.7158V22.3672Z" fill="url(#paint28_linear_54_7247)"/>
<path d="M30.4268 22.3672H31.9814V27.6328H30.4268V22.3672Z" fill="url(#paint29_linear_54_7247)"/>
<path d="M30.4268 22.3672H31.9814V27.6328H30.4268V22.3672Z" fill="url(#paint30_linear_54_7247)"/>
<path d="M25.4424 20.0312H31.2627C32.0986 20.0312 32.7861 20.7109 32.7861 21.5547C32.7861 22.3906 32.1064 23.0781 31.2627 23.0781H25.4424C24.6064 23.0781 23.9189 22.3984 23.9189 21.5547C23.9189 20.7109 24.5986 20.0312 25.4424 20.0312Z" fill="url(#paint31_linear_54_7247)"/>
<path d="M31.2627 22.9922V22.4141C31.2627 21.7344 30.708 21.1797 30.0283 21.1797H26.6768C25.9971 21.1797 25.4424 21.7344 25.4424 22.4141V22.9922V23.0703H31.2549C31.2627 23.0391 31.2627 23.0156 31.2627 22.9922Z" fill="url(#paint32_linear_54_7247)"/>
<path d="M23.9189 21.5469C23.9189 22.3828 24.5986 23.0703 25.4424 23.0703H31.2627C32.0986 23.0703 32.7861 22.3906 32.7861 21.5469C32.7861 21.2891 32.7236 21.0391 32.6064 20.8281H24.0986C23.9893 21.0469 23.9189 21.2891 23.9189 21.5469Z" fill="url(#paint33_linear_54_7247)"/>
<path d="M17.4346 24.1953H39.2705C40.1299 24.1953 40.833 24.8984 40.833 25.7578V37.9844C40.833 38.8438 40.1299 39.5469 39.2705 39.5469H17.4346C16.5752 39.5469 15.8721 38.8438 15.8721 37.9844V25.7578C15.8721 24.8906 16.5674 24.1953 17.4346 24.1953Z" fill="url(#paint34_linear_54_7247)"/>
<path d="M40.833 31.875V37.9922C40.833 38.8516 40.1299 39.5547 39.2705 39.5547H17.4346C16.5752 39.5547 15.8721 38.8516 15.8721 37.9922V31.875H40.833Z" fill="url(#paint35_linear_54_7247)"/>
<path d="M22.6768 24.1953H28.9658V39.5469H22.6768V24.1953Z" fill="url(#paint36_linear_54_7247)"/>
<path d="M39.2705 24.1953H34.7002V39.5469H39.2705C40.1299 39.5469 40.833 38.8438 40.833 37.9844V25.7578C40.833 24.8906 40.1299 24.1953 39.2705 24.1953Z" fill="url(#paint37_linear_54_7247)"/>
<path d="M39.2705 24.1953H34.7002V39.5469H39.2705C40.1299 39.5469 40.833 38.8438 40.833 37.9844V25.7578C40.833 24.8906 40.1299 24.1953 39.2705 24.1953Z" fill="url(#paint38_linear_54_7247)"/>
<path d="M20.7471 23.7422H23.2549C23.5986 23.7422 23.8721 24.0156 23.8721 24.3594V39.3828C23.8721 39.7266 23.5986 40 23.2549 40H20.7471C20.4033 40 20.1299 39.7266 20.1299 39.3828V24.3594C20.1299 24.0156 20.4033 23.7422 20.7471 23.7422Z" fill="url(#paint39_linear_54_7247)"/>
<path d="M33.4502 23.7422H35.958C36.3018 23.7422 36.5752 24.0156 36.5752 24.3594V39.3828C36.5752 39.7266 36.3018 40 35.958 40H33.4502C33.1064 40 32.833 39.7266 32.833 39.3828V24.3594C32.833 24.0156 33.1064 23.7422 33.4502 23.7422Z" fill="url(#paint40_linear_54_7247)"/>
</g>
<defs>
<linearGradient id="paint0_linear_54_7247" x1="16.3719" y1="9.16719" x2="19.5043" y2="30.1092" gradientUnits="userSpaceOnUse">
<stop stop-color="#EAF6FF"/>
<stop offset="0.2651" stop-color="#E5F3FE"/>
<stop offset="0.5398" stop-color="#D9EDFE"/>
<stop offset="0.8179" stop-color="#C4E3FE"/>
<stop offset="1" stop-color="#B3DAFE"/>
</linearGradient>
<linearGradient id="paint1_linear_54_7247" x1="17.7677" y1="27.1772" x2="17.7677" y2="29.9324" gradientUnits="userSpaceOnUse">
<stop stop-color="#8AC9FE" stop-opacity="0"/>
<stop offset="0.1291" stop-color="#89C8FD" stop-opacity="0.019"/>
<stop offset="0.2629" stop-color="#88C6FB" stop-opacity="0.075"/>
<stop offset="0.3989" stop-color="#87C4F8" stop-opacity="0.168"/>
<stop offset="0.5365" stop-color="#85C0F4" stop-opacity="0.298"/>
<stop offset="0.6753" stop-color="#83BBEF" stop-opacity="0.466"/>
<stop offset="0.8151" stop-color="#7FB5E9" stop-opacity="0.672"/>
<stop offset="0.9532" stop-color="#7CAEE1" stop-opacity="0.911"/>
<stop offset="1" stop-color="#7BACDF"/>
</linearGradient>
<linearGradient id="paint2_linear_54_7247" x1="30.8464" y1="18.186" x2="34.9324" y2="18.186" gradientUnits="userSpaceOnUse">
<stop stop-color="#8AC9FE" stop-opacity="0"/>
<stop offset="0.1291" stop-color="#89C8FD" stop-opacity="0.019"/>
<stop offset="0.2629" stop-color="#88C6FB" stop-opacity="0.075"/>
<stop offset="0.3989" stop-color="#87C4F8" stop-opacity="0.168"/>
<stop offset="0.5365" stop-color="#85C0F4" stop-opacity="0.298"/>
<stop offset="0.6753" stop-color="#83BBEF" stop-opacity="0.466"/>
<stop offset="0.8151" stop-color="#7FB5E9" stop-opacity="0.672"/>
<stop offset="0.9532" stop-color="#7CAEE1" stop-opacity="0.911"/>
<stop offset="1" stop-color="#7BACDF"/>
</linearGradient>
<linearGradient id="paint3_linear_54_7247" x1="17.7677" y1="0.5425" x2="17.7677" y2="8.47484" gradientUnits="userSpaceOnUse">
<stop stop-color="#FF4565"/>
<stop offset="0.2377" stop-color="#F53A60"/>
<stop offset="0.6488" stop-color="#DB1E54"/>
<stop offset="1" stop-color="#C00148"/>
</linearGradient>
<linearGradient id="paint4_linear_54_7247" x1="15.0403" y1="-1.70008" x2="12.2624" y2="-4.56133" gradientUnits="userSpaceOnUse">
<stop stop-color="#C41926" stop-opacity="0"/>
<stop offset="0.1865" stop-color="#C01926" stop-opacity="0.038"/>
<stop offset="0.3798" stop-color="#B61C26" stop-opacity="0.152"/>
<stop offset="0.5761" stop-color="#A62126" stop-opacity="0.343"/>
<stop offset="0.7747" stop-color="#8F2826" stop-opacity="0.609"/>
<stop offset="0.9732" stop-color="#713126" stop-opacity="0.949"/>
<stop offset="1" stop-color="#6D3326"/>
</linearGradient>
<linearGradient id="paint5_linear_54_7247" x1="16.9505" y1="-0.620703" x2="14.7282" y2="-2.23195" gradientUnits="userSpaceOnUse">
<stop stop-color="#C41926" stop-opacity="0"/>
<stop offset="0.1865" stop-color="#C01926" stop-opacity="0.038"/>
<stop offset="0.3798" stop-color="#B61C26" stop-opacity="0.152"/>
<stop offset="0.5761" stop-color="#A62126" stop-opacity="0.343"/>
<stop offset="0.7747" stop-color="#8F2826" stop-opacity="0.609"/>
<stop offset="0.9732" stop-color="#713126" stop-opacity="0.949"/>
<stop offset="1" stop-color="#6D3326"/>
</linearGradient>
<linearGradient id="paint6_linear_54_7247" x1="22.7346" y1="0.780313" x2="20.5122" y2="-1.05312" gradientUnits="userSpaceOnUse">
<stop stop-color="#C41926" stop-opacity="0"/>
<stop offset="0.1865" stop-color="#C01926" stop-opacity="0.038"/>
<stop offset="0.3798" stop-color="#B61C26" stop-opacity="0.152"/>
<stop offset="0.5761" stop-color="#A62126" stop-opacity="0.343"/>
<stop offset="0.7747" stop-color="#8F2826" stop-opacity="0.609"/>
<stop offset="0.9732" stop-color="#713126" stop-opacity="0.949"/>
<stop offset="1" stop-color="#6D3326"/>
</linearGradient>
<linearGradient id="paint7_linear_54_7247" x1="27.9298" y1="2.10375" x2="25.9575" y2="0.2425" gradientUnits="userSpaceOnUse">
<stop stop-color="#C41926" stop-opacity="0"/>
<stop offset="0.1865" stop-color="#C01926" stop-opacity="0.038"/>
<stop offset="0.3798" stop-color="#B61C26" stop-opacity="0.152"/>
<stop offset="0.5761" stop-color="#A62126" stop-opacity="0.343"/>
<stop offset="0.7747" stop-color="#8F2826" stop-opacity="0.609"/>
<stop offset="0.9732" stop-color="#713126" stop-opacity="0.949"/>
<stop offset="1" stop-color="#6D3326"/>
</linearGradient>
<linearGradient id="paint8_linear_54_7247" x1="32.0108" y1="4.9232" x2="34.8629" y2="4.9232" gradientUnits="userSpaceOnUse">
<stop stop-color="#C41926" stop-opacity="0"/>
<stop offset="0.1865" stop-color="#C01926" stop-opacity="0.038"/>
<stop offset="0.3798" stop-color="#B61C26" stop-opacity="0.152"/>
<stop offset="0.5761" stop-color="#A62126" stop-opacity="0.343"/>
<stop offset="0.7747" stop-color="#8F2826" stop-opacity="0.609"/>
<stop offset="0.9732" stop-color="#713126" stop-opacity="0.949"/>
<stop offset="1" stop-color="#6D3326"/>
</linearGradient>
<linearGradient id="paint9_linear_54_7247" x1="33.1258" y1="4.13133" x2="30.4868" y2="1.82562" gradientUnits="userSpaceOnUse">
<stop stop-color="#C41926" stop-opacity="0"/>
<stop offset="0.1865" stop-color="#C01926" stop-opacity="0.038"/>
<stop offset="0.3798" stop-color="#B61C26" stop-opacity="0.152"/>
<stop offset="0.5761" stop-color="#A62126" stop-opacity="0.343"/>
<stop offset="0.7747" stop-color="#8F2826" stop-opacity="0.609"/>
<stop offset="0.9732" stop-color="#713126" stop-opacity="0.949"/>
<stop offset="1" stop-color="#6D3326"/>
</linearGradient>
<linearGradient id="paint10_linear_54_7247" x1="-1.05191" y1="10.1097" x2="10.496" y2="22.9799" gradientUnits="userSpaceOnUse">
<stop stop-color="#8AC9FE" stop-opacity="0"/>
<stop offset="0.1291" stop-color="#89C8FD" stop-opacity="0.019"/>
<stop offset="0.2629" stop-color="#88C6FB" stop-opacity="0.075"/>
<stop offset="0.3989" stop-color="#87C4F8" stop-opacity="0.168"/>
<stop offset="0.5365" stop-color="#85C0F4" stop-opacity="0.298"/>
<stop offset="0.6753" stop-color="#83BBEF" stop-opacity="0.466"/>
<stop offset="0.8151" stop-color="#7FB5E9" stop-opacity="0.672"/>
<stop offset="0.9532" stop-color="#7CAEE1" stop-opacity="0.911"/>
<stop offset="1" stop-color="#7BACDF"/>
</linearGradient>
<linearGradient id="paint11_linear_54_7247" x1="6.20832" y1="10.1097" x2="17.7562" y2="22.9799" gradientUnits="userSpaceOnUse">
<stop stop-color="#8AC9FE" stop-opacity="0"/>
<stop offset="0.1291" stop-color="#89C8FD" stop-opacity="0.019"/>
<stop offset="0.2629" stop-color="#88C6FB" stop-opacity="0.075"/>
<stop offset="0.3989" stop-color="#87C4F8" stop-opacity="0.168"/>
<stop offset="0.5365" stop-color="#85C0F4" stop-opacity="0.298"/>
<stop offset="0.6753" stop-color="#83BBEF" stop-opacity="0.466"/>
<stop offset="0.8151" stop-color="#7FB5E9" stop-opacity="0.672"/>
<stop offset="0.9532" stop-color="#7CAEE1" stop-opacity="0.911"/>
<stop offset="1" stop-color="#7BACDF"/>
</linearGradient>
<linearGradient id="paint12_linear_54_7247" x1="13.4686" y1="10.1097" x2="25.0165" y2="22.9799" gradientUnits="userSpaceOnUse">
<stop stop-color="#8AC9FE" stop-opacity="0"/>
<stop offset="0.1291" stop-color="#89C8FD" stop-opacity="0.019"/>
<stop offset="0.2629" stop-color="#88C6FB" stop-opacity="0.075"/>
<stop offset="0.3989" stop-color="#87C4F8" stop-opacity="0.168"/>
<stop offset="0.5365" stop-color="#85C0F4" stop-opacity="0.298"/>
<stop offset="0.6753" stop-color="#83BBEF" stop-opacity="0.466"/>
<stop offset="0.8151" stop-color="#7FB5E9" stop-opacity="0.672"/>
<stop offset="0.9532" stop-color="#7CAEE1" stop-opacity="0.911"/>
<stop offset="1" stop-color="#7BACDF"/>
</linearGradient>
<linearGradient id="paint13_linear_54_7247" x1="20.7288" y1="10.1097" x2="32.2767" y2="22.9799" gradientUnits="userSpaceOnUse">
<stop stop-color="#8AC9FE" stop-opacity="0"/>
<stop offset="0.1291" stop-color="#89C8FD" stop-opacity="0.019"/>
<stop offset="0.2629" stop-color="#88C6FB" stop-opacity="0.075"/>
<stop offset="0.3989" stop-color="#87C4F8" stop-opacity="0.168"/>
<stop offset="0.5365" stop-color="#85C0F4" stop-opacity="0.298"/>
<stop offset="0.6753" stop-color="#83BBEF" stop-opacity="0.466"/>
<stop offset="0.8151" stop-color="#7FB5E9" stop-opacity="0.672"/>
<stop offset="0.9532" stop-color="#7CAEE1" stop-opacity="0.911"/>
<stop offset="1" stop-color="#7BACDF"/>
</linearGradient>
<linearGradient id="paint14_linear_54_7247" x1="-1.05191" y1="16.676" x2="10.496" y2="29.5462" gradientUnits="userSpaceOnUse">
<stop stop-color="#8AC9FE" stop-opacity="0"/>
<stop offset="0.1291" stop-color="#89C8FD" stop-opacity="0.019"/>
<stop offset="0.2629" stop-color="#88C6FB" stop-opacity="0.075"/>
<stop offset="0.3989" stop-color="#87C4F8" stop-opacity="0.168"/>
<stop offset="0.5365" stop-color="#85C0F4" stop-opacity="0.298"/>
<stop offset="0.6753" stop-color="#83BBEF" stop-opacity="0.466"/>
<stop offset="0.8151" stop-color="#7FB5E9" stop-opacity="0.672"/>
<stop offset="0.9532" stop-color="#7CAEE1" stop-opacity="0.911"/>
<stop offset="1" stop-color="#7BACDF"/>
</linearGradient>
<linearGradient id="paint15_linear_54_7247" x1="6.20832" y1="16.676" x2="17.7562" y2="29.5462" gradientUnits="userSpaceOnUse">
<stop stop-color="#8AC9FE" stop-opacity="0"/>
<stop offset="0.1291" stop-color="#89C8FD" stop-opacity="0.019"/>
<stop offset="0.2629" stop-color="#88C6FB" stop-opacity="0.075"/>
<stop offset="0.3989" stop-color="#87C4F8" stop-opacity="0.168"/>
<stop offset="0.5365" stop-color="#85C0F4" stop-opacity="0.298"/>
<stop offset="0.6753" stop-color="#83BBEF" stop-opacity="0.466"/>
<stop offset="0.8151" stop-color="#7FB5E9" stop-opacity="0.672"/>
<stop offset="0.9532" stop-color="#7CAEE1" stop-opacity="0.911"/>
<stop offset="1" stop-color="#7BACDF"/>
</linearGradient>
<linearGradient id="paint16_linear_54_7247" x1="-1.05191" y1="3.54344" x2="10.496" y2="16.4137" gradientUnits="userSpaceOnUse">
<stop stop-color="#8AC9FE" stop-opacity="0"/>
<stop offset="0.1291" stop-color="#89C8FD" stop-opacity="0.019"/>
<stop offset="0.2629" stop-color="#88C6FB" stop-opacity="0.075"/>
<stop offset="0.3989" stop-color="#87C4F8" stop-opacity="0.168"/>
<stop offset="0.5365" stop-color="#85C0F4" stop-opacity="0.298"/>
<stop offset="0.6753" stop-color="#83BBEF" stop-opacity="0.466"/>
<stop offset="0.8151" stop-color="#7FB5E9" stop-opacity="0.672"/>
<stop offset="0.9532" stop-color="#7CAEE1" stop-opacity="0.911"/>
<stop offset="1" stop-color="#7BACDF"/>
</linearGradient>
<linearGradient id="paint17_linear_54_7247" x1="6.20832" y1="3.54344" x2="17.7562" y2="16.4136" gradientUnits="userSpaceOnUse">
<stop stop-color="#8AC9FE" stop-opacity="0"/>
<stop offset="0.1291" stop-color="#89C8FD" stop-opacity="0.019"/>
<stop offset="0.2629" stop-color="#88C6FB" stop-opacity="0.075"/>
<stop offset="0.3989" stop-color="#87C4F8" stop-opacity="0.168"/>
<stop offset="0.5365" stop-color="#85C0F4" stop-opacity="0.298"/>
<stop offset="0.6753" stop-color="#83BBEF" stop-opacity="0.466"/>
<stop offset="0.8151" stop-color="#7FB5E9" stop-opacity="0.672"/>
<stop offset="0.9532" stop-color="#7CAEE1" stop-opacity="0.911"/>
<stop offset="1" stop-color="#7BACDF"/>
</linearGradient>
<linearGradient id="paint18_linear_54_7247" x1="13.4686" y1="3.54344" x2="25.0164" y2="16.4136" gradientUnits="userSpaceOnUse">
<stop stop-color="#8AC9FE" stop-opacity="0"/>
<stop offset="0.1291" stop-color="#89C8FD" stop-opacity="0.019"/>
<stop offset="0.2629" stop-color="#88C6FB" stop-opacity="0.075"/>
<stop offset="0.3989" stop-color="#87C4F8" stop-opacity="0.168"/>
<stop offset="0.5365" stop-color="#85C0F4" stop-opacity="0.298"/>
<stop offset="0.6753" stop-color="#83BBEF" stop-opacity="0.466"/>
<stop offset="0.8151" stop-color="#7FB5E9" stop-opacity="0.672"/>
<stop offset="0.9532" stop-color="#7CAEE1" stop-opacity="0.911"/>
<stop offset="1" stop-color="#7BACDF"/>
</linearGradient>
<linearGradient id="paint19_linear_54_7247" x1="20.7288" y1="3.54344" x2="32.2767" y2="16.4136" gradientUnits="userSpaceOnUse">
<stop stop-color="#8AC9FE" stop-opacity="0"/>
<stop offset="0.1291" stop-color="#89C8FD" stop-opacity="0.019"/>
<stop offset="0.2629" stop-color="#88C6FB" stop-opacity="0.075"/>
<stop offset="0.3989" stop-color="#87C4F8" stop-opacity="0.168"/>
<stop offset="0.5365" stop-color="#85C0F4" stop-opacity="0.298"/>
<stop offset="0.6753" stop-color="#83BBEF" stop-opacity="0.466"/>
<stop offset="0.8151" stop-color="#7FB5E9" stop-opacity="0.672"/>
<stop offset="0.9532" stop-color="#7CAEE1" stop-opacity="0.911"/>
<stop offset="1" stop-color="#7BACDF"/>
</linearGradient>
<linearGradient id="paint20_linear_54_7247" x1="4.6573" y1="1.77789" x2="6.2752" y2="1.77789" gradientUnits="userSpaceOnUse">
<stop stop-color="#FEF0AE"/>
<stop offset="0.1466" stop-color="#FDEEA9"/>
<stop offset="0.2986" stop-color="#FDEB9D"/>
<stop offset="0.4531" stop-color="#FDE688"/>
<stop offset="0.6093" stop-color="#FCDF6B"/>
<stop offset="0.7669" stop-color="#FBD646"/>
<stop offset="0.9233" stop-color="#FACC18"/>
<stop offset="1" stop-color="#FAC600"/>
</linearGradient>
<linearGradient id="paint21_linear_54_7247" x1="10.9208" y1="1.77789" x2="12.5387" y2="1.77789" gradientUnits="userSpaceOnUse">
<stop stop-color="#FEF0AE"/>
<stop offset="0.1466" stop-color="#FDEEA9"/>
<stop offset="0.2986" stop-color="#FDEB9D"/>
<stop offset="0.4531" stop-color="#FDE688"/>
<stop offset="0.6093" stop-color="#FCDF6B"/>
<stop offset="0.7669" stop-color="#FBD646"/>
<stop offset="0.9233" stop-color="#FACC18"/>
<stop offset="1" stop-color="#FAC600"/>
</linearGradient>
<linearGradient id="paint22_linear_54_7247" x1="17.1843" y1="1.77789" x2="18.8022" y2="1.77789" gradientUnits="userSpaceOnUse">
<stop stop-color="#FEF0AE"/>
<stop offset="0.1466" stop-color="#FDEEA9"/>
<stop offset="0.2986" stop-color="#FDEB9D"/>
<stop offset="0.4531" stop-color="#FDE688"/>
<stop offset="0.6093" stop-color="#FCDF6B"/>
<stop offset="0.7669" stop-color="#FBD646"/>
<stop offset="0.9233" stop-color="#FACC18"/>
<stop offset="1" stop-color="#FAC600"/>
</linearGradient>
<linearGradient id="paint23_linear_54_7247" x1="23.4479" y1="1.77789" x2="25.0657" y2="1.77789" gradientUnits="userSpaceOnUse">
<stop stop-color="#FEF0AE"/>
<stop offset="0.1466" stop-color="#FDEEA9"/>
<stop offset="0.2986" stop-color="#FDEB9D"/>
<stop offset="0.4531" stop-color="#FDE688"/>
<stop offset="0.6093" stop-color="#FCDF6B"/>
<stop offset="0.7669" stop-color="#FBD646"/>
<stop offset="0.9233" stop-color="#FACC18"/>
<stop offset="1" stop-color="#FAC600"/>
</linearGradient>
<linearGradient id="paint24_linear_54_7247" x1="29.7114" y1="1.77789" x2="31.3293" y2="1.77789" gradientUnits="userSpaceOnUse">
<stop stop-color="#FEF0AE"/>
<stop offset="0.1466" stop-color="#FDEEA9"/>
<stop offset="0.2986" stop-color="#FDEB9D"/>
<stop offset="0.4531" stop-color="#FDE688"/>
<stop offset="0.6093" stop-color="#FCDF6B"/>
<stop offset="0.7669" stop-color="#FBD646"/>
<stop offset="0.9233" stop-color="#FACC18"/>
<stop offset="1" stop-color="#FAC600"/>
</linearGradient>
<linearGradient id="paint25_linear_54_7247" x1="14.5897" y1="23.8543" x2="16.0935" y2="26.6668" gradientUnits="userSpaceOnUse">
<stop stop-color="#00F2A6"/>
<stop offset="0.2453" stop-color="#00EDA3"/>
<stop offset="0.4994" stop-color="#01E19A"/>
<stop offset="0.7566" stop-color="#04CC8C"/>
<stop offset="1" stop-color="#07B27B"/>
</linearGradient>
<linearGradient id="paint26_linear_54_7247" x1="7.31191" y1="23.8543" x2="8.81559" y2="26.6668" gradientUnits="userSpaceOnUse">
<stop stop-color="#00F2A6"/>
<stop offset="0.2453" stop-color="#00EDA3"/>
<stop offset="0.4994" stop-color="#01E19A"/>
<stop offset="0.7566" stop-color="#04CC8C"/>
<stop offset="1" stop-color="#07B27B"/>
</linearGradient>
<linearGradient id="paint27_linear_54_7247" x1="24.8571" y1="25.0016" x2="26.0884" y2="25.0016" gradientUnits="userSpaceOnUse">
<stop stop-color="#EAF6FF"/>
<stop offset="0.2651" stop-color="#E5F3FE"/>
<stop offset="0.5398" stop-color="#D9EDFE"/>
<stop offset="0.8179" stop-color="#C4E3FE"/>
<stop offset="1" stop-color="#B3DAFE"/>
</linearGradient>
<linearGradient id="paint28_linear_54_7247" x1="25.4946" y1="25.732" x2="25.4946" y2="22.8707" gradientUnits="userSpaceOnUse">
<stop stop-color="#8AC9FE" stop-opacity="0"/>
<stop offset="0.1291" stop-color="#89C8FD" stop-opacity="0.019"/>
<stop offset="0.2629" stop-color="#88C6FB" stop-opacity="0.075"/>
<stop offset="0.3989" stop-color="#87C4F8" stop-opacity="0.168"/>
<stop offset="0.5365" stop-color="#85C0F4" stop-opacity="0.298"/>
<stop offset="0.6753" stop-color="#83BBEF" stop-opacity="0.466"/>
<stop offset="0.8151" stop-color="#7FB5E9" stop-opacity="0.672"/>
<stop offset="0.9532" stop-color="#7CAEE1" stop-opacity="0.911"/>
<stop offset="1" stop-color="#7BACDF"/>
</linearGradient>
<linearGradient id="paint29_linear_54_7247" x1="30.5694" y1="25.0016" x2="31.8007" y2="25.0016" gradientUnits="userSpaceOnUse">
<stop stop-color="#EAF6FF"/>
<stop offset="0.2651" stop-color="#E5F3FE"/>
<stop offset="0.5398" stop-color="#D9EDFE"/>
<stop offset="0.8179" stop-color="#C4E3FE"/>
<stop offset="1" stop-color="#B3DAFE"/>
</linearGradient>
<linearGradient id="paint30_linear_54_7247" x1="31.2069" y1="25.732" x2="31.2069" y2="22.8707" gradientUnits="userSpaceOnUse">
<stop stop-color="#8AC9FE" stop-opacity="0"/>
<stop offset="0.1291" stop-color="#89C8FD" stop-opacity="0.019"/>
<stop offset="0.2629" stop-color="#88C6FB" stop-opacity="0.075"/>
<stop offset="0.3989" stop-color="#87C4F8" stop-opacity="0.168"/>
<stop offset="0.5365" stop-color="#85C0F4" stop-opacity="0.298"/>
<stop offset="0.6753" stop-color="#83BBEF" stop-opacity="0.466"/>
<stop offset="0.8151" stop-color="#7FB5E9" stop-opacity="0.672"/>
<stop offset="0.9532" stop-color="#7CAEE1" stop-opacity="0.911"/>
<stop offset="1" stop-color="#7BACDF"/>
</linearGradient>
<linearGradient id="paint31_linear_54_7247" x1="28.3508" y1="20.523" x2="28.3508" y2="22.3683" gradientUnits="userSpaceOnUse">
<stop stop-color="#465A61"/>
<stop offset="0.3978" stop-color="#44565C"/>
<stop offset="0.8093" stop-color="#404C50"/>
<stop offset="1" stop-color="#3E4648"/>
</linearGradient>
<linearGradient id="paint32_linear_54_7247" x1="28.3508" y1="23.1755" x2="28.3508" y2="21.1565" gradientUnits="userSpaceOnUse">
<stop stop-color="#465A61"/>
<stop offset="0.3978" stop-color="#44565C"/>
<stop offset="0.8093" stop-color="#404C50"/>
<stop offset="1" stop-color="#3E4648"/>
</linearGradient>
<linearGradient id="paint33_linear_54_7247" x1="28.3508" y1="21.7147" x2="28.3508" y2="23.0416" gradientUnits="userSpaceOnUse">
<stop stop-color="#444444" stop-opacity="0"/>
<stop offset="1"/>
</linearGradient>
<linearGradient id="paint34_linear_54_7247" x1="25.6178" y1="23.7854" x2="31.6326" y2="41.5794" gradientUnits="userSpaceOnUse">
<stop stop-color="#FEF0AE"/>
<stop offset="0.1466" stop-color="#FDEEA9"/>
<stop offset="0.2986" stop-color="#FDEB9D"/>
<stop offset="0.4531" stop-color="#FDE688"/>
<stop offset="0.6093" stop-color="#FCDF6B"/>
<stop offset="0.7669" stop-color="#FBD646"/>
<stop offset="0.9233" stop-color="#FACC18"/>
<stop offset="1" stop-color="#FAC600"/>
</linearGradient>
<linearGradient id="paint35_linear_54_7247" x1="28.3508" y1="36.1914" x2="28.3508" y2="40.2091" gradientUnits="userSpaceOnUse">
<stop stop-color="#FE9738" stop-opacity="0"/>
<stop offset="0.1207" stop-color="#FE9738" stop-opacity="0.016"/>
<stop offset="0.2459" stop-color="#FE9738" stop-opacity="0.065"/>
<stop offset="0.3731" stop-color="#FE9738" stop-opacity="0.147"/>
<stop offset="0.5018" stop-color="#FE9738" stop-opacity="0.262"/>
<stop offset="0.6317" stop-color="#FE9738" stop-opacity="0.41"/>
<stop offset="0.7625" stop-color="#FE9738" stop-opacity="0.59"/>
<stop offset="0.8916" stop-color="#FE9738" stop-opacity="0.8"/>
<stop offset="1" stop-color="#FE9738"/>
</linearGradient>
<linearGradient id="paint36_linear_54_7247" x1="26.6313" y1="31.8707" x2="23.5358" y2="31.8707" gradientUnits="userSpaceOnUse">
<stop stop-color="#FE9738" stop-opacity="0"/>
<stop offset="0.1207" stop-color="#FE9738" stop-opacity="0.016"/>
<stop offset="0.2459" stop-color="#FE9738" stop-opacity="0.065"/>
<stop offset="0.3731" stop-color="#FE9738" stop-opacity="0.147"/>
<stop offset="0.5018" stop-color="#FE9738" stop-opacity="0.262"/>
<stop offset="0.6317" stop-color="#FE9738" stop-opacity="0.41"/>
<stop offset="0.7625" stop-color="#FE9738" stop-opacity="0.59"/>
<stop offset="0.8916" stop-color="#FE9738" stop-opacity="0.8"/>
<stop offset="1" stop-color="#FE9738"/>
</linearGradient>
<linearGradient id="paint37_linear_54_7247" x1="38.4104" y1="31.8707" x2="40.751" y2="31.8707" gradientUnits="userSpaceOnUse">
<stop stop-color="#FE9738" stop-opacity="0"/>
<stop offset="0.1207" stop-color="#FE9738" stop-opacity="0.016"/>
<stop offset="0.2459" stop-color="#FE9738" stop-opacity="0.065"/>
<stop offset="0.3731" stop-color="#FE9738" stop-opacity="0.147"/>
<stop offset="0.5018" stop-color="#FE9738" stop-opacity="0.262"/>
<stop offset="0.6317" stop-color="#FE9738" stop-opacity="0.41"/>
<stop offset="0.7625" stop-color="#FE9738" stop-opacity="0.59"/>
<stop offset="0.8916" stop-color="#FE9738" stop-opacity="0.8"/>
<stop offset="1" stop-color="#FE9738"/>
</linearGradient>
<linearGradient id="paint38_linear_54_7247" x1="38.3268" y1="31.8707" x2="36.2367" y2="31.8707" gradientUnits="userSpaceOnUse">
<stop stop-color="#FE9738" stop-opacity="0"/>
<stop offset="0.1207" stop-color="#FE9738" stop-opacity="0.016"/>
<stop offset="0.2459" stop-color="#FE9738" stop-opacity="0.065"/>
<stop offset="0.3731" stop-color="#FE9738" stop-opacity="0.147"/>
<stop offset="0.5018" stop-color="#FE9738" stop-opacity="0.262"/>
<stop offset="0.6317" stop-color="#FE9738" stop-opacity="0.41"/>
<stop offset="0.7625" stop-color="#FE9738" stop-opacity="0.59"/>
<stop offset="0.8916" stop-color="#FE9738" stop-opacity="0.8"/>
<stop offset="1" stop-color="#FE9738"/>
</linearGradient>
<linearGradient id="paint39_linear_54_7247" x1="18.4794" y1="29.1034" x2="23.8631" y2="33.3361" gradientUnits="userSpaceOnUse">
<stop stop-color="#465A61"/>
<stop offset="0.3978" stop-color="#44565C"/>
<stop offset="0.8093" stop-color="#404C50"/>
<stop offset="1" stop-color="#3E4648"/>
</linearGradient>
<linearGradient id="paint40_linear_54_7247" x1="31.1826" y1="29.1034" x2="36.5662" y2="33.3361" gradientUnits="userSpaceOnUse">
<stop stop-color="#465A61"/>
<stop offset="0.3978" stop-color="#44565C"/>
<stop offset="0.8093" stop-color="#404C50"/>
<stop offset="1" stop-color="#3E4648"/>
</linearGradient>
<clipPath id="clip0_54_7247">
<rect width="40" height="40" fill="white" transform="translate(0.833008)"/>
</clipPath>
</defs>
</svg>
