<svg width="41" height="40" viewBox="0 0 41 40" fill="none" xmlns="http://www.w3.org/2000/svg">
<g clip-path="url(#clip0_54_7061)">
<path d="M33.3921 40H13.159C11.7153 40 10.5449 38.8296 10.5449 37.3859V2.61412C10.5449 1.17035 11.7153 0 13.159 0H33.3921C34.8358 0 36.0062 1.17035 36.0062 2.61412V37.3859C36.0062 38.8296 34.8358 40 33.3921 40Z" fill="url(#paint0_linear_54_7061)"/>
<path d="M19.903 0.644043H16.3343L10.5449 6.43353V37.3857C10.5449 38.8295 11.7153 39.9998 13.159 39.9998H33.392C34.8357 39.9998 36.0061 38.8295 36.0061 37.3857V16.7473L19.903 0.644043Z" fill="url(#paint1_linear_54_7061)"/>
<path d="M36.0062 37.3861V21.2853L19.903 5.18213H18.2951L10.5449 12.9324V37.3861C10.5449 38.8298 11.7153 40.0002 13.159 40.0002H33.392C34.8358 40.0002 36.0062 38.8298 36.0062 37.3861Z" fill="url(#paint2_linear_54_7061)"/>
<path d="M26.8705 2.19189H22.7621C22.4371 2.19189 22.1738 2.45527 22.1738 2.78013C22.1738 3.10499 22.4371 3.36837 22.7621 3.36837H26.8705C27.1954 3.36837 27.4587 3.10499 27.4587 2.78013C27.4587 2.45527 27.1953 2.19189 26.8705 2.19189Z" fill="url(#paint3_linear_54_7061)"/>
<path d="M20.1255 2.19189H19.681C19.3561 2.19189 19.0928 2.45527 19.0928 2.78013C19.0928 3.10499 19.3561 3.36837 19.681 3.36837H20.1255C20.4504 3.36837 20.7137 3.10499 20.7137 2.78013C20.7137 2.45527 20.4503 2.19189 20.1255 2.19189Z" fill="url(#paint4_linear_54_7061)"/>
<path d="M33.392 0H27.4834V40H33.392C34.8358 40 36.0061 38.8296 36.0061 37.3859V2.61412C36.0061 1.17035 34.8358 0 33.392 0Z" fill="url(#paint5_linear_54_7061)"/>
<path d="M10.5449 30.5239V37.3861C10.5449 38.8299 11.7153 40.0002 13.159 40.0002H33.392C34.8357 40.0002 36.0061 38.8299 36.0061 37.3861V30.5239H10.5449Z" fill="url(#paint6_linear_54_7061)"/>
<path d="M31.6874 2.19189H29.968C29.3263 2.19189 28.806 2.71213 28.806 3.35386C28.806 4.00029 28.2819 4.52437 27.6355 4.52437H18.9156C18.2692 4.52437 17.7451 4.00029 17.7451 3.35386C17.7451 2.71213 17.2248 2.19189 16.5831 2.19189H14.8637C13.6165 2.19189 12.6055 3.20295 12.6055 4.45017V35.5498C12.6055 36.797 13.6165 37.8081 14.8637 37.8081H31.6873C32.9345 37.8081 33.9455 36.797 33.9455 35.5498V4.45017C33.9456 3.20295 32.9346 2.19189 31.6874 2.19189Z" fill="url(#paint7_linear_54_7061)"/>
<path d="M33.9457 14.6869L23.7832 4.52437H18.9157C18.2692 4.52437 17.7452 4.00029 17.7452 3.35386C17.7452 2.71213 17.2249 2.19189 16.5832 2.19189H14.8638C14.8373 2.19189 14.811 2.19299 14.7848 2.19393L12.6075 4.37119C12.6066 4.39746 12.6055 4.42374 12.6055 4.45025V35.5499C12.6055 36.7971 13.6165 37.8081 14.8637 37.8081H31.6873C32.9345 37.8081 33.9455 36.7971 33.9455 35.5499V14.6869H33.9457Z" fill="url(#paint8_linear_54_7061)"/>
<path d="M33.9456 19.2247L19.903 5.18213H18.2951L12.6055 10.8718V35.55C12.6055 36.7972 13.6165 37.8082 14.8637 37.8082H31.6873C32.9345 37.8082 33.9455 36.7972 33.9455 35.55V19.2247H33.9456Z" fill="url(#paint9_linear_54_7061)"/>
<path d="M14.9087 15.0414L33.9459 34.0785V23.7937L20.0511 9.89893L14.9087 15.0414Z" fill="url(#paint10_linear_54_7061)"/>
<path d="M25.9109 11.9785L16.9019 20.9876L33.1684 37.2541C33.6444 36.8401 33.9459 36.2304 33.9459 35.5499V20.0135L25.9109 11.9785Z" fill="url(#paint11_linear_54_7061)"/>
<path d="M5.00181 13.6299C4.9135 14.4028 5.51264 15.0832 6.29052 15.0941H6.29115C6.97177 15.1038 7.53946 14.5916 7.61773 13.9153C7.93985 11.1327 9.16605 8.43524 11.2972 6.30402C13.4283 4.17281 16.1257 2.94669 18.9085 2.62457C19.5846 2.5463 20.0969 1.97861 20.0873 1.29798V1.29735C20.0763 0.519472 19.396 -0.0796649 18.6231 0.00864881C15.2637 0.39257 12.0062 1.871 9.43515 4.44198C6.86409 7.01296 5.38573 10.2705 5.00181 13.6299Z" fill="url(#paint12_linear_54_7061)"/>
<path d="M9.64836 13.6223C9.51715 14.4195 10.1198 15.1487 10.9277 15.1601C11.5746 15.1693 12.139 14.708 12.2428 14.0694C12.5113 12.4172 13.2815 10.8311 14.5528 9.55967C15.8242 8.28822 17.4102 7.5181 19.0626 7.24963C19.7011 7.14587 20.1624 6.58155 20.1533 5.93457C20.1419 5.12665 19.4127 4.52398 18.6154 4.6552C16.4446 5.01245 14.3619 6.02642 12.6908 7.69755C11.0197 9.36869 10.0056 11.4514 9.64836 13.6223Z" fill="url(#paint13_linear_54_7061)"/>
<path d="M14.2732 13.53C14.0187 14.3662 14.6421 15.2125 15.5161 15.2248C16.0978 15.233 16.6208 14.86 16.7899 14.3033C16.964 13.7298 17.2774 13.19 17.7303 12.7371C18.1832 12.2842 18.723 11.9708 19.2965 11.7967C19.8532 11.6277 20.2262 11.1046 20.2179 10.5229C20.2056 9.64886 19.3594 9.02557 18.5231 9.28008C17.5508 9.57592 16.6357 10.1076 15.8683 10.8751C15.1009 11.6425 14.5691 12.5576 14.2732 13.53Z" fill="url(#paint14_linear_54_7061)"/>
<path d="M25.4724 32.9751H25.0193C24.5777 32.9751 24.2197 33.3331 24.2197 33.7746C24.2197 34.2162 24.5777 34.5742 25.0193 34.5742H25.4724C25.9139 34.5742 26.2719 34.2162 26.2719 33.7746C26.2719 33.333 25.9139 32.9751 25.4724 32.9751Z" fill="#6CABCA"/>
<path d="M22.6453 32.9751H21.0788C20.6373 32.9751 20.2793 33.3331 20.2793 33.7746C20.2793 34.2162 20.6373 34.5742 21.0788 34.5742H22.6453C23.0869 34.5742 23.4449 34.2162 23.4449 33.7746C23.4449 33.3331 23.0869 32.9751 22.6453 32.9751Z" fill="#6CABCA"/>
<path d="M26.1439 31.3947C26.1439 30.9532 25.7859 30.5952 25.3443 30.5952H18.1941C17.7525 30.5952 17.3945 30.9532 17.3945 31.3947C17.3945 31.8363 17.7525 32.1943 18.1941 32.1943H25.3443C25.7859 32.1943 26.1439 31.8364 26.1439 31.3947Z" fill="#6CABCA"/>
<path d="M28.3571 30.5952H27.904C27.4625 30.5952 27.1045 30.9532 27.1045 31.3947C27.1045 31.8363 27.4625 32.1943 27.904 32.1943H28.3571C28.7987 32.1943 29.1566 31.8363 29.1566 31.3947C29.1566 30.9532 28.7987 30.5952 28.3571 30.5952Z" fill="#6CABCA"/>
<path d="M28.9375 15.4501H26.1787V12.6913C26.1787 12.0929 25.6937 11.6079 25.0953 11.6079H21.4563C20.858 11.6079 20.373 12.0929 20.373 12.6913V15.4501H17.6141C17.0158 15.4501 16.5308 15.9351 16.5308 16.5335V20.1725C16.5308 20.7708 17.0158 21.2558 17.6141 21.2558H20.373V24.0147C20.373 24.613 20.858 25.098 21.4563 25.098H25.0953C25.6937 25.098 26.1787 24.613 26.1787 24.0147V21.2558H28.9375C29.5359 21.2558 30.0209 20.7708 30.0209 20.1725V16.5335C30.0209 15.9351 29.5359 15.4501 28.9375 15.4501Z" fill="url(#paint15_linear_54_7061)"/>
<path d="M21.7603 11.6079H21.4563C20.858 11.6079 20.373 12.0929 20.373 12.6913V15.4501H17.6141C17.0158 15.4501 16.5308 15.9351 16.5308 16.5335V16.6632L24.9656 25.0981H25.0953C25.6937 25.0981 26.1787 24.6131 26.1787 24.0147V21.2559H28.9375C29.5359 21.2559 30.0209 20.7709 30.0209 20.1725V19.8686L21.7603 11.6079Z" fill="url(#paint16_linear_54_7061)"/>
</g>
<defs>
<linearGradient id="paint0_linear_54_7061" x1="13.7275" y1="13.3235" x2="29.3738" y2="24.2642" gradientUnits="userSpaceOnUse">
<stop stop-color="#5A5A5A"/>
<stop offset="1" stop-color="#444444"/>
</linearGradient>
<linearGradient id="paint1_linear_54_7061" x1="11.8761" y1="12.7604" x2="7.87606" y2="7.58396" gradientUnits="userSpaceOnUse">
<stop stop-color="#1A1A1A" stop-opacity="0"/>
<stop offset="1" stop-color="#1A1A1A"/>
</linearGradient>
<linearGradient id="paint2_linear_54_7061" x1="14.0218" y1="20.8523" x2="9.21135" y2="16.7216" gradientUnits="userSpaceOnUse">
<stop stop-color="#1A1A1A" stop-opacity="0"/>
<stop offset="1" stop-color="#1A1A1A"/>
</linearGradient>
<linearGradient id="paint3_linear_54_7061" x1="24.8163" y1="5.09801" x2="24.8163" y2="2.54272" gradientUnits="userSpaceOnUse">
<stop stop-color="#5A5A5A"/>
<stop offset="1" stop-color="#444444"/>
</linearGradient>
<linearGradient id="paint4_linear_54_7061" x1="19.9033" y1="5.09801" x2="19.9033" y2="2.54272" gradientUnits="userSpaceOnUse">
<stop stop-color="#1A1A1A" stop-opacity="0"/>
<stop offset="1" stop-color="#1A1A1A"/>
</linearGradient>
<linearGradient id="paint5_linear_54_7061" x1="31.903" y1="20" x2="35.2792" y2="20" gradientUnits="userSpaceOnUse">
<stop stop-color="#1A1A1A" stop-opacity="0"/>
<stop offset="1" stop-color="#1A1A1A"/>
</linearGradient>
<linearGradient id="paint6_linear_54_7061" x1="23.2756" y1="35.8173" x2="23.2756" y2="39.3732" gradientUnits="userSpaceOnUse">
<stop stop-color="#1A1A1A" stop-opacity="0"/>
<stop offset="1" stop-color="#1A1A1A"/>
</linearGradient>
<linearGradient id="paint7_linear_54_7061" x1="15.8246" y1="12.549" x2="29.7506" y2="26.475" gradientUnits="userSpaceOnUse">
<stop stop-color="#EAF6FF"/>
<stop offset="1" stop-color="#B3DAFE"/>
</linearGradient>
<linearGradient id="paint8_linear_54_7061" x1="13.8305" y1="7.38523" x2="12.1442" y2="4.16954" gradientUnits="userSpaceOnUse">
<stop stop-color="#D8ECFE" stop-opacity="0"/>
<stop offset="1" stop-color="#678D98"/>
</linearGradient>
<linearGradient id="paint9_linear_54_7061" x1="13.6226" y1="18.2021" x2="8.7741" y2="13.3536" gradientUnits="userSpaceOnUse">
<stop stop-color="#D8ECFE" stop-opacity="0"/>
<stop offset="1" stop-color="#678D98"/>
</linearGradient>
<linearGradient id="paint10_linear_54_7061" x1="21.1886" y1="16.1788" x2="16.9939" y2="11.9841" gradientUnits="userSpaceOnUse">
<stop stop-color="#D8ECFE" stop-opacity="0"/>
<stop offset="1" stop-color="#678D98"/>
</linearGradient>
<linearGradient id="paint11_linear_54_7061" x1="31.7074" y1="26.7841" x2="19.5484" y2="14.6252" gradientUnits="userSpaceOnUse">
<stop stop-color="#D8ECFE" stop-opacity="0"/>
<stop offset="1" stop-color="#678D98"/>
</linearGradient>
<linearGradient id="paint12_linear_54_7061" x1="11.5802" y1="4.44704" x2="12.8835" y2="8.50577" gradientUnits="userSpaceOnUse">
<stop stop-color="#FFDD00"/>
<stop offset="1" stop-color="#FFB000"/>
</linearGradient>
<linearGradient id="paint13_linear_54_7061" x1="14.7022" y1="7.37292" x2="15.0746" y2="11.6179" gradientUnits="userSpaceOnUse">
<stop stop-color="#FFDD00"/>
<stop offset="1" stop-color="#FFB000"/>
</linearGradient>
<linearGradient id="paint14_linear_54_7061" x1="17.1672" y1="10.7733" x2="17.3906" y2="14.7948" gradientUnits="userSpaceOnUse">
<stop stop-color="#FFDD00"/>
<stop offset="1" stop-color="#FFB000"/>
</linearGradient>
<linearGradient id="paint15_linear_54_7061" x1="20.3347" y1="15.4118" x2="26.3037" y2="21.3809" gradientUnits="userSpaceOnUse">
<stop stop-color="#FE646F"/>
<stop offset="1" stop-color="#E41F2D"/>
</linearGradient>
<linearGradient id="paint16_linear_54_7061" x1="23.0057" y1="17.9958" x2="13.1032" y2="8.09332" gradientUnits="userSpaceOnUse">
<stop stop-color="#E41F2D" stop-opacity="0"/>
<stop offset="0.142" stop-color="#D41F29" stop-opacity="0.142"/>
<stop offset="0.4198" stop-color="#AA2021" stop-opacity="0.42"/>
<stop offset="0.8027" stop-color="#672013" stop-opacity="0.803"/>
<stop offset="1" stop-color="#42210B"/>
</linearGradient>
<clipPath id="clip0_54_7061">
<rect width="40" height="40" fill="white" transform="translate(0.5)"/>
</clipPath>
</defs>
</svg>
