<svg width="41" height="40" viewBox="0 0 41 40" fill="none" xmlns="http://www.w3.org/2000/svg">
<g clip-path="url(#clip0_54_7160)">
<path d="M13.5829 9.16609C12.4954 9.16609 11.6138 10.0477 11.6138 11.1353V38.4481C11.6138 39.3055 12.309 39.9997 13.1654 39.9997H38.6146C39.4716 39.9997 40.1662 39.305 40.1662 38.4481V11.1352C40.1662 10.0477 39.2846 9.16602 38.1971 9.16602L13.5829 9.16609Z" fill="url(#paint0_linear_54_7160)"/>
<path d="M25.8921 24.6271V9.16602H13.5829C12.4954 9.16602 11.6138 10.0477 11.6138 11.1352V24.6271H25.8921Z" fill="url(#paint1_linear_54_7160)"/>
<path d="M38.1973 9.16602H20.7346C20.9659 10.0209 21.0875 10.9119 21.0875 11.8193C21.0875 13.3809 20.7353 14.8609 20.1063 16.1848C18.5659 19.4256 15.3675 21.7315 11.6138 21.999V38.4476C11.6138 39.3056 12.3087 39.9997 13.1651 39.9997H38.6146C39.4718 39.9997 40.1667 39.3048 40.1667 38.4476V11.1354C40.1667 10.0476 39.2851 9.16602 38.1973 9.16602Z" fill="url(#paint2_linear_54_7160)"/>
<path d="M11.6133 29.2583V38.4477C11.6133 39.3053 12.3085 39.9998 13.1654 39.9998H38.6145C39.4721 39.9998 40.1666 39.3053 40.1666 38.4477V29.2583H11.6133Z" fill="url(#paint3_linear_54_7160)"/>
<path d="M38.1971 9.1665H13.5829C12.4954 9.1665 11.6138 10.0481 11.6138 11.1356V16.1849H40.1663V11.1356C40.1663 10.0481 39.2847 9.1665 38.1971 9.1665Z" fill="url(#paint4_linear_54_7160)"/>
<path d="M25.8921 9.1665H13.5829C12.4954 9.1665 11.6138 10.0482 11.6138 11.1356V16.1849H25.8921V9.1665Z" fill="url(#paint5_linear_54_7160)"/>
<path d="M38.1969 9.1665H15.5044V10.4943L21.195 16.1849H40.166V11.1357C40.1661 10.0481 39.2845 9.1665 38.1969 9.1665Z" fill="url(#paint6_linear_54_7160)"/>
<path d="M40.1668 11.1354V16.1848H20.1064C20.7355 14.8609 21.0876 13.3809 21.0876 11.8193C21.0876 10.9119 20.9661 10.0209 20.7347 9.16602H38.1974C39.2853 9.16602 40.1668 10.0476 40.1668 11.1354Z" fill="url(#paint7_linear_54_7160)"/>
<path d="M38.197 9.1665H23.7559V10.4943L29.4464 16.1849H40.1661V11.1357C40.1662 10.0481 39.2846 9.1665 38.197 9.1665Z" fill="url(#paint8_linear_54_7160)"/>
<path d="M38.1971 9.1665H32.0073V10.4943L37.6979 16.1849H40.1663V11.1357C40.1663 10.0481 39.2847 9.1665 38.1971 9.1665Z" fill="url(#paint9_linear_54_7160)"/>
<path d="M20.0095 21.148H16.4687C15.8401 21.148 15.3306 20.6384 15.3306 20.0099V18.935C15.3306 18.3064 15.8401 17.7969 16.4687 17.7969H20.0095C20.638 17.7969 21.1476 18.3064 21.1476 18.935V20.0099C21.1476 20.6385 20.638 21.148 20.0095 21.148Z" fill="url(#paint10_linear_54_7160)"/>
<path d="M27.6603 21.148H24.1196C23.491 21.148 22.9814 20.6384 22.9814 20.0099V18.935C22.9814 18.3064 23.491 17.7969 24.1196 17.7969H27.6603C28.2889 17.7969 28.7985 18.3064 28.7985 18.935V20.0099C28.7985 20.6385 28.2889 21.148 27.6603 21.148Z" fill="url(#paint11_linear_54_7160)"/>
<path d="M35.3107 21.148H31.77C31.1414 21.148 30.6318 20.6384 30.6318 20.0099V18.935C30.6318 18.3064 31.1414 17.7969 31.77 17.7969H35.3107C35.9393 17.7969 36.4489 18.3064 36.4489 18.935V20.0099C36.4489 20.6385 35.9393 21.148 35.3107 21.148Z" fill="url(#paint12_linear_54_7160)"/>
<path d="M20.0095 26.5225H16.4687C15.8401 26.5225 15.3306 26.013 15.3306 25.3844V24.3095C15.3306 23.681 15.8401 23.1714 16.4687 23.1714H20.0095C20.638 23.1714 21.1476 23.681 21.1476 24.3095V25.3844C21.1476 26.013 20.638 26.5225 20.0095 26.5225Z" fill="url(#paint13_linear_54_7160)"/>
<path d="M27.6603 26.5225H24.1196C23.491 26.5225 22.9814 26.013 22.9814 25.3844V24.3095C22.9814 23.681 23.491 23.1714 24.1196 23.1714H27.6603C28.2889 23.1714 28.7985 23.681 28.7985 24.3095V25.3844C28.7985 26.013 28.2889 26.5225 27.6603 26.5225Z" fill="url(#paint14_linear_54_7160)"/>
<path d="M35.3107 26.5225H31.77C31.1414 26.5225 30.6318 26.013 30.6318 25.3844V24.3095C30.6318 23.681 31.1414 23.1714 31.77 23.1714H35.3107C35.9393 23.1714 36.4489 23.681 36.4489 24.3095V25.3844C36.4489 26.013 35.9393 26.5225 35.3107 26.5225Z" fill="url(#paint15_linear_54_7160)"/>
<path d="M20.0095 31.897H16.4687C15.8401 31.897 15.3306 31.3875 15.3306 30.7589V29.684C15.3306 29.0555 15.8401 28.5459 16.4687 28.5459H20.0095C20.638 28.5459 21.1476 29.0555 21.1476 29.684V30.7589C21.1476 31.3875 20.638 31.897 20.0095 31.897Z" fill="url(#paint16_linear_54_7160)"/>
<path d="M27.6603 31.897H24.1196C23.491 31.897 22.9814 31.3875 22.9814 30.7589V29.684C22.9814 29.0555 23.491 28.5459 24.1196 28.5459H27.6603C28.2889 28.5459 28.7985 29.0555 28.7985 29.684V30.7589C28.7985 31.3875 28.2889 31.897 27.6603 31.897Z" fill="url(#paint17_linear_54_7160)"/>
<path d="M35.3107 31.897H31.77C31.1414 31.897 30.6318 31.3875 30.6318 30.7589V29.684C30.6318 29.0555 31.1414 28.5459 31.77 28.5459H35.3107C35.9393 28.5459 36.4489 29.0555 36.4489 29.684V30.7589C36.4489 31.3875 35.9393 31.897 35.3107 31.897Z" fill="url(#paint18_linear_54_7160)"/>
<path d="M20.0095 37.2715H16.4687C15.8401 37.2715 15.3306 36.762 15.3306 36.1334V35.0585C15.3306 34.43 15.8401 33.9204 16.4687 33.9204H20.0095C20.638 33.9204 21.1476 34.43 21.1476 35.0585V36.1334C21.1476 36.762 20.638 37.2715 20.0095 37.2715Z" fill="url(#paint19_linear_54_7160)"/>
<path d="M27.6603 37.2715H24.1196C23.491 37.2715 22.9814 36.762 22.9814 36.1334V35.0585C22.9814 34.43 23.491 33.9204 24.1196 33.9204H27.6603C28.2889 33.9204 28.7985 34.43 28.7985 35.0585V36.1334C28.7985 36.762 28.2889 37.2715 27.6603 37.2715Z" fill="url(#paint20_linear_54_7160)"/>
<path d="M18.8714 10.8735H16.4055C15.6721 10.8735 15.0776 10.279 15.0776 9.54563V7.93331C15.0776 7.19998 15.6721 6.60547 16.4055 6.60547H18.8714C19.6048 6.60547 20.1993 7.19998 20.1993 7.93331V9.54563C20.1992 10.279 19.6048 10.8735 18.8714 10.8735Z" fill="url(#paint21_linear_54_7160)"/>
<path d="M18.8714 10.8735H16.4055C15.6721 10.8735 15.0776 10.279 15.0776 9.54563V7.93331C15.0776 7.19998 15.6721 6.60547 16.4055 6.60547H18.8714C19.6048 6.60547 20.1993 7.19998 20.1993 7.93331V9.54563C20.1992 10.279 19.6048 10.8735 18.8714 10.8735Z" fill="url(#paint22_linear_54_7160)"/>
<path d="M27.1229 10.8735H24.6569C23.9236 10.8735 23.3291 10.279 23.3291 9.54563V7.93331C23.3291 7.19998 23.9236 6.60547 24.6569 6.60547H27.1229C27.8562 6.60547 28.4507 7.19998 28.4507 7.93331V9.54563C28.4507 10.279 27.8562 10.8735 27.1229 10.8735Z" fill="url(#paint23_linear_54_7160)"/>
<path d="M35.3744 10.8735H32.9084C32.1751 10.8735 31.5806 10.279 31.5806 9.54563V7.93331C31.5806 7.19998 32.1751 6.60547 32.9084 6.60547H35.3744C36.1077 6.60547 36.7022 7.19998 36.7022 7.93331V9.54563C36.7021 10.279 36.1077 10.8735 35.3744 10.8735Z" fill="url(#paint24_linear_54_7160)"/>
<path d="M10.8817 19.6193C15.1742 19.6193 18.654 16.1396 18.654 11.847C18.654 7.55449 15.1742 4.07471 10.8817 4.07471C6.58916 4.07471 3.10938 7.55449 3.10938 11.847C3.10938 16.1396 6.58916 19.6193 10.8817 19.6193Z" fill="url(#paint25_linear_54_7160)"/>
<path d="M10.8816 18.4819C14.546 18.4819 17.5165 15.5113 17.5165 11.8469C17.5165 8.1825 14.546 5.21191 10.8816 5.21191C7.21716 5.21191 4.24658 8.1825 4.24658 11.8469C4.24658 15.5113 7.21716 18.4819 10.8816 18.4819Z" fill="url(#paint26_linear_54_7160)"/>
<path d="M10.8815 17.3788C13.9367 17.3788 16.4135 14.9021 16.4135 11.8469C16.4135 8.79167 13.9367 6.31494 10.8815 6.31494C7.82634 6.31494 5.34961 8.79167 5.34961 11.8469C5.34961 14.9021 7.82634 17.3788 10.8815 17.3788Z" fill="url(#paint27_linear_54_7160)"/>
<path d="M12.4949 14.0486C12.3444 14.0486 12.1938 13.9912 12.0789 13.8764L10.4657 12.2632C10.3554 12.1529 10.2935 12.0033 10.2935 11.8472V7.93638C10.2935 7.61144 10.5568 7.34814 10.8817 7.34814C11.2066 7.34814 11.4699 7.61144 11.4699 7.93638V11.6036L12.9109 13.0445C13.1406 13.2743 13.1406 13.6467 12.9109 13.8764C12.796 13.9912 12.6454 14.0486 12.4949 14.0486Z" fill="url(#paint28_linear_54_7160)"/>
<path d="M16.1786 2.52991C15.8962 2.36897 15.5371 2.46764 15.3763 2.74983C15.2154 3.03219 15.314 3.39132 15.5962 3.55211C18.5721 5.2474 20.4207 8.42568 20.4207 11.8465C20.4207 17.1063 16.1416 21.3854 10.8819 21.3854C5.62219 21.3854 1.34297 17.1063 1.34297 11.8466C1.34297 6.99619 4.98188 2.9798 9.67309 2.38403V3.02811C9.67309 3.6514 10.3663 4.02442 10.8864 3.68121L12.5867 2.55878C13.055 2.24983 13.055 1.56199 12.5867 1.25305L10.8864 0.130618C10.3663 -0.212519 9.67309 0.160422 9.67309 0.783716V1.19987C4.3316 1.8023 0.166504 6.34678 0.166504 11.8466C0.166504 17.7551 4.97333 22.5619 10.8818 22.5619C16.7903 22.5619 21.5971 17.7551 21.5971 11.8466C21.5971 8.00395 19.5209 4.43407 16.1786 2.52991Z" fill="url(#paint29_linear_54_7160)"/>
<path d="M12.5063 1.1998H9.67334V0.784115C9.67334 0.160586 10.3667 -0.212747 10.8867 0.130782L12.5063 1.1998Z" fill="url(#paint30_linear_54_7160)"/>
<path d="M12.7761 2.38428C12.7251 2.45016 12.6624 2.50977 12.5871 2.55918L10.8867 3.68153C10.3667 4.02428 9.67334 3.65173 9.67334 3.0282V2.38428H12.7761Z" fill="url(#paint31_linear_54_7160)"/>
</g>
<defs>
<linearGradient id="paint0_linear_54_7160" x1="14.7972" y1="16.4717" x2="32.8073" y2="29.8089" gradientUnits="userSpaceOnUse">
<stop stop-color="#EAF9FA"/>
<stop offset="1" stop-color="#B3DAFE"/>
</linearGradient>
<linearGradient id="paint1_linear_54_7160" x1="19.8176" y1="18.742" x2="18.249" y2="16.023" gradientUnits="userSpaceOnUse">
<stop stop-color="#7BACDF" stop-opacity="0"/>
<stop offset="1" stop-color="#7BACDF"/>
</linearGradient>
<linearGradient id="paint2_linear_54_7160" x1="24.3141" y1="23.075" x2="18.4579" y2="17.0095" gradientUnits="userSpaceOnUse">
<stop stop-color="#7BACDF" stop-opacity="0"/>
<stop offset="1" stop-color="#7BACDF"/>
</linearGradient>
<linearGradient id="paint3_linear_54_7160" x1="25.89" y1="34.7178" x2="25.89" y2="39.3032" gradientUnits="userSpaceOnUse">
<stop stop-color="#7BACDF" stop-opacity="0"/>
<stop offset="1" stop-color="#7BACDF"/>
</linearGradient>
<linearGradient id="paint4_linear_54_7160" x1="25.89" y1="10.3994" x2="25.89" y2="16.518" gradientUnits="userSpaceOnUse">
<stop stop-color="#FE860A"/>
<stop offset="0.2435" stop-color="#FB7C0E"/>
<stop offset="0.6648" stop-color="#F55F19"/>
<stop offset="1" stop-color="#EF4424"/>
</linearGradient>
<linearGradient id="paint5_linear_54_7160" x1="20.9576" y1="13.1248" x2="18.1341" y2="12.5496" gradientUnits="userSpaceOnUse">
<stop stop-color="#CA2E43" stop-opacity="0"/>
<stop offset="0.2852" stop-color="#C92744" stop-opacity="0.285"/>
<stop offset="0.7079" stop-color="#C41346" stop-opacity="0.708"/>
<stop offset="1" stop-color="#C00148"/>
</linearGradient>
<linearGradient id="paint6_linear_54_7160" x1="28.59" y1="11.8628" x2="22.2038" y2="0.766189" gradientUnits="userSpaceOnUse">
<stop stop-color="#CA2E43" stop-opacity="0"/>
<stop offset="0.2852" stop-color="#C92744" stop-opacity="0.285"/>
<stop offset="0.7079" stop-color="#C41346" stop-opacity="0.708"/>
<stop offset="1" stop-color="#C00148"/>
</linearGradient>
<linearGradient id="paint7_linear_54_7160" x1="25.5263" y1="12.6754" x2="20.3496" y2="12.6754" gradientUnits="userSpaceOnUse">
<stop stop-color="#CA2E43" stop-opacity="0"/>
<stop offset="0.2852" stop-color="#C92744" stop-opacity="0.285"/>
<stop offset="0.7079" stop-color="#C41346" stop-opacity="0.708"/>
<stop offset="1" stop-color="#C00148"/>
</linearGradient>
<linearGradient id="paint8_linear_54_7160" x1="32.7523" y1="11.9265" x2="27.7959" y2="3.31411" gradientUnits="userSpaceOnUse">
<stop stop-color="#CA2E43" stop-opacity="0"/>
<stop offset="0.2852" stop-color="#C92744" stop-opacity="0.285"/>
<stop offset="0.7079" stop-color="#C41346" stop-opacity="0.708"/>
<stop offset="1" stop-color="#C00148"/>
</linearGradient>
<linearGradient id="paint9_linear_54_7160" x1="36.9148" y1="11.9902" x2="33.388" y2="5.86203" gradientUnits="userSpaceOnUse">
<stop stop-color="#CA2E43" stop-opacity="0"/>
<stop offset="0.2852" stop-color="#C92744" stop-opacity="0.285"/>
<stop offset="0.7079" stop-color="#C41346" stop-opacity="0.708"/>
<stop offset="1" stop-color="#C00148"/>
</linearGradient>
<linearGradient id="paint10_linear_54_7160" x1="14.7332" y1="11.337" x2="19.01" y2="21.2616" gradientUnits="userSpaceOnUse">
<stop stop-color="#7BACDF" stop-opacity="0"/>
<stop offset="1" stop-color="#7BACDF"/>
</linearGradient>
<linearGradient id="paint11_linear_54_7160" x1="22.384" y1="11.337" x2="26.661" y2="21.2616" gradientUnits="userSpaceOnUse">
<stop stop-color="#7BACDF" stop-opacity="0"/>
<stop offset="1" stop-color="#7BACDF"/>
</linearGradient>
<linearGradient id="paint12_linear_54_7160" x1="30.0343" y1="11.337" x2="34.3113" y2="21.2616" gradientUnits="userSpaceOnUse">
<stop stop-color="#7BACDF" stop-opacity="0"/>
<stop offset="1" stop-color="#7BACDF"/>
</linearGradient>
<linearGradient id="paint13_linear_54_7160" x1="14.7332" y1="16.7114" x2="19.01" y2="26.636" gradientUnits="userSpaceOnUse">
<stop stop-color="#7BACDF" stop-opacity="0"/>
<stop offset="1" stop-color="#7BACDF"/>
</linearGradient>
<linearGradient id="paint14_linear_54_7160" x1="22.384" y1="16.7114" x2="26.661" y2="26.636" gradientUnits="userSpaceOnUse">
<stop stop-color="#7BACDF" stop-opacity="0"/>
<stop offset="1" stop-color="#7BACDF"/>
</linearGradient>
<linearGradient id="paint15_linear_54_7160" x1="30.0343" y1="16.7114" x2="34.3113" y2="26.636" gradientUnits="userSpaceOnUse">
<stop stop-color="#7BACDF" stop-opacity="0"/>
<stop offset="1" stop-color="#7BACDF"/>
</linearGradient>
<linearGradient id="paint16_linear_54_7160" x1="14.7332" y1="22.086" x2="19.01" y2="32.0105" gradientUnits="userSpaceOnUse">
<stop stop-color="#7BACDF" stop-opacity="0"/>
<stop offset="1" stop-color="#7BACDF"/>
</linearGradient>
<linearGradient id="paint17_linear_54_7160" x1="22.384" y1="22.086" x2="26.661" y2="32.0105" gradientUnits="userSpaceOnUse">
<stop stop-color="#7BACDF" stop-opacity="0"/>
<stop offset="1" stop-color="#7BACDF"/>
</linearGradient>
<linearGradient id="paint18_linear_54_7160" x1="30.0343" y1="22.086" x2="34.3113" y2="32.0105" gradientUnits="userSpaceOnUse">
<stop stop-color="#7BACDF" stop-opacity="0"/>
<stop offset="1" stop-color="#7BACDF"/>
</linearGradient>
<linearGradient id="paint19_linear_54_7160" x1="14.7332" y1="27.4605" x2="19.01" y2="37.3851" gradientUnits="userSpaceOnUse">
<stop stop-color="#7BACDF" stop-opacity="0"/>
<stop offset="1" stop-color="#7BACDF"/>
</linearGradient>
<linearGradient id="paint20_linear_54_7160" x1="22.384" y1="27.4605" x2="26.661" y2="37.3851" gradientUnits="userSpaceOnUse">
<stop stop-color="#7BACDF" stop-opacity="0"/>
<stop offset="1" stop-color="#7BACDF"/>
</linearGradient>
<linearGradient id="paint21_linear_54_7160" x1="17.1201" y1="7.34939" x2="18.1634" y2="10.1473" gradientUnits="userSpaceOnUse">
<stop stop-color="#FEF0AE"/>
<stop offset="1" stop-color="#FBC56D"/>
</linearGradient>
<linearGradient id="paint22_linear_54_7160" x1="19.1906" y1="7.82351" x2="17.5958" y2="8.76468" gradientUnits="userSpaceOnUse">
<stop stop-color="#DC8758" stop-opacity="0"/>
<stop offset="0.2153" stop-color="#DD8654" stop-opacity="0.215"/>
<stop offset="0.4291" stop-color="#E28448" stop-opacity="0.429"/>
<stop offset="0.6424" stop-color="#EA8034" stop-opacity="0.642"/>
<stop offset="0.8542" stop-color="#F47B18" stop-opacity="0.854"/>
<stop offset="1" stop-color="#FE7701"/>
</linearGradient>
<linearGradient id="paint23_linear_54_7160" x1="25.3716" y1="7.34939" x2="26.4148" y2="10.1473" gradientUnits="userSpaceOnUse">
<stop stop-color="#FEF0AE"/>
<stop offset="1" stop-color="#FBC56D"/>
</linearGradient>
<linearGradient id="paint24_linear_54_7160" x1="33.6231" y1="7.34939" x2="34.6663" y2="10.1473" gradientUnits="userSpaceOnUse">
<stop stop-color="#FEF0AE"/>
<stop offset="1" stop-color="#FBC56D"/>
</linearGradient>
<linearGradient id="paint25_linear_54_7160" x1="5.81785" y1="6.7831" x2="16.0777" y2="17.0429" gradientUnits="userSpaceOnUse">
<stop stop-color="#5A5A5A"/>
<stop offset="1" stop-color="#444444"/>
</linearGradient>
<linearGradient id="paint26_linear_54_7160" x1="16.7421" y1="17.7074" x2="4.18658" y2="5.15184" gradientUnits="userSpaceOnUse">
<stop stop-color="#5A5A5A"/>
<stop offset="1" stop-color="#444444"/>
</linearGradient>
<linearGradient id="paint27_linear_54_7160" x1="8.55439" y1="9.51965" x2="14.0191" y2="14.9844" gradientUnits="userSpaceOnUse">
<stop stop-color="#EAF9FA"/>
<stop offset="1" stop-color="#B3DAFE"/>
</linearGradient>
<linearGradient id="paint28_linear_54_7160" x1="9.48805" y1="8.49811" x2="13.8886" y2="12.8987" gradientUnits="userSpaceOnUse">
<stop stop-color="#FE860A"/>
<stop offset="0.2435" stop-color="#FB7C0E"/>
<stop offset="0.6648" stop-color="#F55F19"/>
<stop offset="1" stop-color="#EF4424"/>
</linearGradient>
<linearGradient id="paint29_linear_54_7160" x1="3.30995" y1="4.27234" x2="18.4563" y2="19.4187" gradientUnits="userSpaceOnUse">
<stop stop-color="#62DBFB"/>
<stop offset="0.1912" stop-color="#57D5FA"/>
<stop offset="0.5232" stop-color="#3BC5F7"/>
<stop offset="0.954" stop-color="#0DABF2"/>
<stop offset="1" stop-color="#08A9F1"/>
</linearGradient>
<linearGradient id="paint30_linear_54_7160" x1="10.4375" y1="0.599959" x2="8.84252" y2="0.599959" gradientUnits="userSpaceOnUse">
<stop stop-color="#0593FC" stop-opacity="0"/>
<stop offset="0.6831" stop-color="#0389FC" stop-opacity="0.683"/>
<stop offset="1" stop-color="#0182FC"/>
</linearGradient>
<linearGradient id="paint31_linear_54_7160" x1="10.4375" y1="3.09808" x2="8.84252" y2="3.09808" gradientUnits="userSpaceOnUse">
<stop stop-color="#0593FC" stop-opacity="0"/>
<stop offset="0.6831" stop-color="#0389FC" stop-opacity="0.683"/>
<stop offset="1" stop-color="#0182FC"/>
</linearGradient>
<clipPath id="clip0_54_7160">
<rect width="40" height="40" fill="white" transform="translate(0.166504)"/>
</clipPath>
</defs>
</svg>
