<svg width="41" height="40" viewBox="0 0 41 40" fill="none" xmlns="http://www.w3.org/2000/svg">
<g clip-path="url(#clip0_54_7091)">
<path d="M29.2893 5.21523C29.115 4.41602 28.5721 3.81211 27.9002 3.68008C22.4822 2.61445 17.0307 2.61445 11.6127 3.68008C10.9408 3.81211 10.3986 4.41602 10.2236 5.21523C9.70019 7.6082 9.43848 10.0074 9.43848 12.4066H12.8971C12.8971 10.6801 13.0705 8.95352 13.4182 7.23086C13.5346 6.65508 13.8955 6.2207 14.3424 6.12617C17.9447 5.35898 21.5689 5.35898 25.1705 6.12617C25.6174 6.2207 25.9783 6.65508 26.0947 7.23086C26.4424 8.95352 26.6166 10.6801 26.6166 12.4066H30.0744C30.0744 10.0074 29.8127 7.6082 29.2893 5.21523Z" fill="url(#paint0_linear_54_7091)"/>
<path d="M27.9 3.68006C25.4719 3.20248 23.0371 2.93967 20.6016 2.89014V5.56529C22.1263 5.61576 23.6503 5.80232 25.1703 6.12615C25.6172 6.22068 25.9781 6.65506 26.0945 7.23084C26.4422 8.9535 26.6164 10.6801 26.6164 12.4066H30.0742C30.0742 10.0074 29.8125 7.60818 29.2891 5.21521C29.1148 4.416 28.5719 3.81209 27.9 3.68006Z" fill="url(#paint1_linear_54_7091)"/>
<path d="M27.9 3.68006C25.4719 3.20248 23.0371 2.93967 20.6016 2.89014V5.56529C22.1263 5.61576 23.6503 5.80232 25.1703 6.12615C25.6172 6.22068 25.9781 6.65506 26.0945 7.23084C26.4422 8.9535 26.6164 10.6801 26.6164 12.4066H30.0742C30.0742 10.0074 29.8125 7.60818 29.2891 5.21521C29.1148 4.416 28.5719 3.81209 27.9 3.68006Z" fill="url(#paint2_linear_54_7091)"/>
<path d="M26.0947 7.23084C26.4424 8.9535 26.6166 10.6801 26.6166 12.4066H30.0744C30.0744 10.4384 29.8979 8.47014 29.5456 6.50537H25.7622C25.9199 6.69686 26.0372 6.94647 26.0947 7.23084Z" fill="url(#paint3_linear_54_7091)"/>
<path d="M13.4182 7.23084C13.4757 6.94647 13.5929 6.69686 13.7507 6.50537H9.96723C9.61496 8.47014 9.43848 10.4384 9.43848 12.4066H12.8971C12.8971 10.6801 13.0705 8.9535 13.4182 7.23084Z" fill="url(#paint4_linear_54_7091)"/>
<path d="M13.5498 12.7224C11.8181 12.9749 10.0757 12.9749 8.34399 12.7224C8.12923 12.6911 7.95571 12.5481 7.89985 12.3588C7.56532 11.2251 7.56524 10.0852 7.89985 8.95135C7.95571 8.76205 8.12923 8.619 8.34399 8.58775C10.0757 8.33533 11.8181 8.33533 13.5498 8.58775C13.7645 8.61908 13.9381 8.76205 13.9939 8.95135C14.3285 10.0852 14.3284 11.2251 13.9939 12.3588C13.9381 12.5481 13.7645 12.6911 13.5498 12.7224Z" fill="url(#paint5_linear_54_7091)"/>
<path d="M13.5498 12.7224C11.8181 12.9749 10.0757 12.9749 8.34399 12.7224C8.12923 12.6911 7.95571 12.5481 7.89985 12.3588C7.56532 11.2251 7.56524 10.0852 7.89985 8.95135C7.95571 8.76205 8.12923 8.619 8.34399 8.58775C10.0757 8.33533 11.8181 8.33533 13.5498 8.58775C13.7645 8.61908 13.9381 8.76205 13.9939 8.95135C14.3285 10.0852 14.3284 11.2251 13.9939 12.3588C13.9381 12.5481 13.7645 12.6911 13.5498 12.7224Z" fill="url(#paint6_linear_54_7091)"/>
<path d="M13.9938 8.95134C13.938 8.76204 13.7645 8.61899 13.5497 8.58774C12.5206 8.43774 11.4878 8.37689 10.4556 8.40517C11.1603 8.42446 11.8646 8.48532 12.5673 8.58774C12.7821 8.61907 12.9556 8.76204 13.0114 8.95134C13.346 10.0852 13.346 11.2251 13.0114 12.3588C12.9556 12.5481 12.7821 12.6912 12.5673 12.7224C11.8647 12.8249 11.1603 12.8857 10.4556 12.905C11.4877 12.9333 12.5206 12.8724 13.5496 12.7224C13.7644 12.6911 13.9379 12.5481 13.9938 12.3588C14.3285 11.2251 14.3285 10.0852 13.9938 8.95134Z" fill="url(#paint7_linear_54_7091)"/>
<path d="M13.5496 8.58795C13.1852 8.53482 12.8203 8.49311 12.4551 8.4624V8.57209C12.4924 8.57732 12.5298 8.58256 12.5672 8.58803C12.782 8.61936 12.9555 8.76232 13.0113 8.95162C13.3459 10.0854 13.3459 11.2254 13.0113 12.3591C12.9555 12.5484 12.782 12.6915 12.5672 12.7227C12.5298 12.7282 12.4924 12.7334 12.4551 12.7387V12.8483C12.8202 12.8176 13.1852 12.7759 13.5496 12.7228C13.7644 12.6915 13.9379 12.5485 13.9937 12.3592C14.3283 11.2254 14.3284 10.0855 13.9937 8.9517C13.9379 8.76225 13.7644 8.61928 13.5496 8.58795Z" fill="url(#paint8_linear_54_7091)"/>
<path d="M7.89979 12.359C7.95564 12.5483 8.12916 12.6914 8.34393 12.7226C10.0756 12.975 11.818 12.975 13.5497 12.7226C13.7645 12.6913 13.938 12.5483 13.9938 12.359C14.1611 11.7921 14.2448 11.2237 14.2448 10.6553H7.64893C7.64893 11.2236 7.73252 11.7921 7.89979 12.359Z" fill="url(#paint9_linear_54_7091)"/>
<path d="M31.1694 12.7224C29.4377 12.9749 27.6953 12.9749 25.9636 12.7224C25.7489 12.6911 25.5753 12.5481 25.5195 12.3588C25.185 11.2251 25.1849 10.0852 25.5195 8.95135C25.5753 8.76205 25.7489 8.619 25.9636 8.58775C27.6953 8.33533 29.4377 8.33533 31.1694 8.58775C31.3842 8.61908 31.5577 8.76205 31.6135 8.95135C31.9482 10.0852 31.9481 11.2251 31.6135 12.3588C31.5576 12.5481 31.3841 12.6911 31.1694 12.7224Z" fill="url(#paint10_linear_54_7091)"/>
<path d="M31.1694 12.7224C29.4377 12.9749 27.6953 12.9749 25.9636 12.7224C25.7489 12.6911 25.5753 12.5481 25.5195 12.3588C25.185 11.2251 25.1849 10.0852 25.5195 8.95135C25.5753 8.76205 25.7489 8.619 25.9636 8.58775C27.6953 8.33533 29.4377 8.33533 31.1694 8.58775C31.3842 8.61908 31.5577 8.76205 31.6135 8.95135C31.9482 10.0852 31.9481 11.2251 31.6135 12.3588C31.5576 12.5481 31.3841 12.6911 31.1694 12.7224Z" fill="url(#paint11_linear_54_7091)"/>
<path d="M31.6135 8.95134C31.5576 8.76204 31.3841 8.61899 31.1693 8.58774C30.1403 8.43774 29.1074 8.37689 28.0752 8.40517C28.7799 8.42446 29.4843 8.48532 30.1869 8.58774C30.4017 8.61907 30.5752 8.76204 30.6311 8.95134C30.9657 10.0852 30.9656 11.2251 30.6311 12.3588C30.5752 12.5481 30.4017 12.6912 30.1869 12.7224C29.4843 12.8249 28.78 12.8857 28.0752 12.905C29.1073 12.9333 30.1402 12.8724 31.1693 12.7224C31.384 12.6911 31.5575 12.5481 31.6134 12.3588C31.948 11.2251 31.948 10.0852 31.6135 8.95134Z" fill="url(#paint12_linear_54_7091)"/>
<path d="M31.1692 8.58795C30.8048 8.53482 30.4399 8.49311 30.0747 8.4624V8.57209C30.1121 8.57732 30.1495 8.58256 30.1868 8.58803C30.4016 8.61936 30.5751 8.76232 30.631 8.95162C30.9656 10.0854 30.9655 11.2254 30.631 12.3591C30.5751 12.5484 30.4016 12.6915 30.1868 12.7227C30.1495 12.7282 30.1121 12.7334 30.0747 12.7387V12.8483C30.4399 12.8176 30.8048 12.7759 31.1692 12.7228C31.384 12.6915 31.5575 12.5485 31.6134 12.3592C31.9479 11.2254 31.948 10.0855 31.6134 8.9517C31.5574 8.76225 31.3839 8.61928 31.1692 8.58795Z" fill="url(#paint13_linear_54_7091)"/>
<path d="M25.5195 12.359C25.5754 12.5483 25.7489 12.6914 25.9636 12.7226C27.6954 12.975 29.4377 12.975 31.1694 12.7226C31.3842 12.6913 31.5577 12.5483 31.6136 12.359C31.7808 11.7921 31.8645 11.2237 31.8645 10.6553H25.2686C25.2686 11.2236 25.3521 11.7921 25.5195 12.359Z" fill="url(#paint14_linear_54_7091)"/>
<path d="M37.5258 37.8221H33.335V10.4165H37.5258C39.3523 10.4165 40.833 11.8972 40.833 13.7237V34.5149C40.833 36.3414 39.3523 37.8221 37.5258 37.8221Z" fill="url(#paint15_linear_54_7091)"/>
<path d="M33.335 21.5532V37.8224H37.5258C39.3523 37.8224 40.833 36.3417 40.833 34.5152V21.5532H33.335Z" fill="url(#paint16_linear_54_7091)"/>
<path d="M37.5258 10.4165H33.335V37.822H37.5258C39.3523 37.822 40.833 36.3413 40.833 34.5149V13.7238C40.833 11.8972 39.3523 10.4165 37.5258 10.4165Z" fill="url(#paint17_linear_54_7091)"/>
<path d="M37.5258 10.4165H33.335V37.822H37.5258C39.3523 37.822 40.833 36.3413 40.833 34.5149V13.7238C40.833 11.8972 39.3523 10.4165 37.5258 10.4165Z" fill="url(#paint18_linear_54_7091)"/>
<path d="M34.6692 37.8221H4.84381C3.01732 37.8221 1.53662 36.3413 1.53662 34.5149V13.7237C1.53662 11.8972 3.01732 10.4165 4.84381 10.4165H34.6693C36.4958 10.4165 37.9765 11.8972 37.9765 13.7237V34.5149C37.9765 36.3413 36.4958 37.8221 34.6692 37.8221Z" fill="url(#paint19_linear_54_7091)"/>
<path d="M1.53662 21.5527V34.5146C1.53662 36.3411 3.01732 37.8218 4.84381 37.8218H34.6693C36.4958 37.8218 37.9765 36.3411 37.9765 34.5146V21.5527H1.53662Z" fill="url(#paint20_linear_54_7091)"/>
<path d="M1.53662 21.5527V34.5146C1.53662 36.3411 3.01732 37.8218 4.84381 37.8218H34.6693C36.4958 37.8218 37.9765 36.3411 37.9765 34.5146V21.5527H1.53662Z" fill="url(#paint21_linear_54_7091)"/>
<path d="M36.0533 27.042H3.3759C1.97152 27.042 0.833008 25.9036 0.833008 24.4992V12.9246C0.833008 11.036 2.3641 9.50488 4.25277 9.50488H37.4133C39.302 9.50488 40.8331 11.036 40.8331 12.9246V14.6067C40.8331 14.3424 40.7395 14.0866 40.5689 13.8847C39.8961 13.0888 38.5963 13.5645 38.5963 14.6067V24.4991C38.5962 25.9036 37.4577 27.042 36.0533 27.042Z" fill="url(#paint22_linear_54_7091)"/>
<path d="M37.4133 9.50488H30.9702V27.0419H36.0533C37.4577 27.0419 38.5962 25.9034 38.5962 24.499V14.6066C38.5962 13.5644 39.8961 13.0887 40.5688 13.8846C40.7394 14.0865 40.833 14.3423 40.833 14.6066V12.9246C40.833 11.0359 39.3019 9.50488 37.4133 9.50488Z" fill="url(#paint23_linear_54_7091)"/>
<path d="M12.0968 25.0571L5.71387 28.8596L14.6765 37.8222H24.8618L12.0968 25.0571Z" fill="url(#paint24_linear_54_7091)"/>
<path d="M37.9765 34.5149V31.741L31.2927 25.0571L24.918 28.8606L33.8795 37.8221H34.6694C36.4958 37.8222 37.9765 36.3415 37.9765 34.5149Z" fill="url(#paint25_linear_54_7091)"/>
<path d="M11.7134 28.9989C9.82679 29.2513 7.92858 29.2513 6.04194 28.9989C5.80796 28.9676 5.61897 28.8246 5.55804 28.6353C5.19358 27.5015 5.19351 26.3616 5.55804 25.2277C5.6189 25.0384 5.80796 24.8954 6.04194 24.8641C7.92858 24.6117 9.82679 24.6117 11.7134 24.8641C11.9474 24.8954 12.1364 25.0384 12.1973 25.2277C12.5619 26.3615 12.5618 27.5015 12.1973 28.6352C12.1364 28.8246 11.9473 28.9676 11.7134 28.9989Z" fill="url(#paint26_linear_54_7091)"/>
<path d="M9.41037 25.844L9.26365 25.8742C8.51169 26.0289 7.73607 26.0289 6.98404 25.8742L6.83732 25.844C6.51724 25.7781 6.2974 26.1576 6.5138 26.4025L7.86888 27.9362C8.00427 28.0895 8.24333 28.0895 8.3788 27.9362L9.73388 26.4025C9.95021 26.1575 9.73044 25.7781 9.41037 25.844Z" fill="url(#paint27_linear_54_7091)"/>
<path d="M12.1971 25.2277C12.1363 25.0384 11.9472 24.8954 11.7132 24.8641C10.5921 24.7141 9.46682 24.6533 8.34229 24.6815C9.11002 24.7008 9.87744 24.7617 10.6429 24.8641C10.8769 24.8954 11.0659 25.0384 11.1268 25.2277C11.4913 26.3615 11.4913 27.5015 11.1268 28.6352C11.066 28.8245 10.8769 28.9676 10.6429 28.9988C9.87744 29.1012 9.1101 29.1621 8.34236 29.1814C9.46682 29.2097 10.5921 29.1488 11.7132 28.9988C11.9472 28.9675 12.1362 28.8245 12.1971 28.6352C12.5617 27.5015 12.5617 26.3615 12.1971 25.2277Z" fill="url(#paint28_linear_54_7091)"/>
<path d="M11.7134 24.8643C11.3164 24.8112 10.9188 24.7695 10.521 24.7388V24.8485C10.5617 24.8537 10.6024 24.8589 10.6431 24.8644C10.8771 24.8957 11.0661 25.0387 11.127 25.228C11.4915 26.3618 11.4915 27.5017 11.127 28.6355C11.0662 28.8248 10.8771 28.9678 10.6431 28.9991C10.6024 29.0046 10.5617 29.0098 10.521 29.015V29.1247C10.9188 29.0939 11.3164 29.0523 11.7134 28.9992C11.9474 28.9678 12.1364 28.8249 12.1973 28.6356C12.5618 27.5018 12.5619 26.3619 12.1973 25.2281C12.1364 25.0386 11.9473 24.8956 11.7134 24.8643Z" fill="url(#paint29_linear_54_7091)"/>
<path d="M5.55803 28.6354C5.61889 28.8247 5.80795 28.9677 6.04193 28.999C7.92857 29.2514 9.82678 29.2514 11.7134 28.999C11.9474 28.9677 12.1364 28.8247 12.1973 28.6354C12.3796 28.0685 12.4707 27.5001 12.4707 26.9316H5.28467C5.28467 27.5 5.37584 28.0684 5.55803 28.6354Z" fill="url(#paint30_linear_54_7091)"/>
<path d="M30.9087 28.9989C29.0221 29.2513 27.1239 29.2513 25.2373 28.9989C25.0033 28.9676 24.8143 28.8246 24.7533 28.6353C24.3889 27.5015 24.3888 26.3616 24.7533 25.2277C24.8142 25.0384 25.0033 24.8954 25.2373 24.8641C27.1238 24.6117 29.0221 24.6117 30.9087 24.8641C31.1427 24.8954 31.3317 25.0384 31.3926 25.2277C31.7572 26.3615 31.7571 27.5015 31.3926 28.6352C31.3317 28.8246 31.1426 28.9676 30.9087 28.9989Z" fill="url(#paint31_linear_54_7091)"/>
<path d="M28.6057 25.844L28.459 25.8742C27.707 26.0289 26.9314 26.0289 26.1794 25.8742L26.0326 25.844C25.7126 25.7781 25.4927 26.1576 25.7091 26.4025L27.0642 27.9362C27.1996 28.0895 27.4386 28.0895 27.5741 27.9362L28.9292 26.4025C29.1455 26.1575 28.9258 25.7781 28.6057 25.844Z" fill="url(#paint32_linear_54_7091)"/>
<path d="M31.3924 25.2277C31.3316 25.0384 31.1425 24.8954 30.9085 24.8641C29.7874 24.7141 28.6621 24.6533 27.5376 24.6815C28.3053 24.7008 29.0728 24.7617 29.8382 24.8641C30.0722 24.8954 30.2612 25.0384 30.3221 25.2277C30.6867 26.3615 30.6866 27.5015 30.3221 28.6352C30.2613 28.8245 30.0722 28.9676 29.8382 28.9988C29.0728 29.1012 28.3054 29.1621 27.5376 29.1814C28.6621 29.2097 29.7874 29.1488 30.9085 28.9988C31.1424 28.9675 31.3314 28.8245 31.3924 28.6352C31.757 27.5015 31.757 26.3615 31.3924 25.2277Z" fill="url(#paint33_linear_54_7091)"/>
<path d="M30.9087 24.8643C30.5117 24.8112 30.1141 24.7695 29.7163 24.7388V24.8485C29.757 24.8537 29.7977 24.8589 29.8384 24.8644C30.0724 24.8957 30.2614 25.0387 30.3223 25.228C30.6869 26.3618 30.6868 27.5017 30.3223 28.6355C30.2615 28.8248 30.0724 28.9678 29.8384 28.9991C29.7977 29.0046 29.757 29.0098 29.7163 29.015V29.1247C30.1141 29.0939 30.5117 29.0523 30.9087 28.9992C31.1427 28.9678 31.3317 28.8249 31.3926 28.6356C31.7571 27.5018 31.7572 26.3619 31.3926 25.2281C31.3317 25.0386 31.1426 24.8956 30.9087 24.8643Z" fill="url(#paint34_linear_54_7091)"/>
<path d="M24.7533 28.6354C24.8141 28.8247 25.0032 28.9677 25.2372 28.999C27.1238 29.2514 29.022 29.2514 30.9087 28.999C31.1426 28.9677 31.3316 28.8247 31.3926 28.6354C31.5748 28.0685 31.6659 27.5001 31.6659 26.9316H24.48C24.4799 27.5 24.5711 28.0684 24.7533 28.6354Z" fill="url(#paint35_linear_54_7091)"/>
<path d="M14.385 6.55342C17.9628 6.09037 21.5502 6.09037 25.1279 6.55342C25.5108 6.60295 25.8499 6.30506 25.8499 5.91904V3.18193C25.8499 2.85982 25.6104 2.58904 25.2911 2.54646C21.6049 2.05482 17.9081 2.05482 14.2218 2.54646C13.9025 2.58904 13.6631 2.85975 13.6631 3.18193V5.91904C13.663 6.30506 14.0021 6.60295 14.385 6.55342Z" fill="url(#paint36_linear_54_7091)"/>
<path d="M14.385 6.55342C17.9628 6.09037 21.5502 6.09037 25.1279 6.55342C25.5108 6.60295 25.8499 6.30506 25.8499 5.91904V3.18193C25.8499 2.85982 25.6104 2.58904 25.2911 2.54646C21.6049 2.05482 17.9081 2.05482 14.2218 2.54646C13.9025 2.58904 13.6631 2.85975 13.6631 3.18193V5.91904C13.663 6.30506 14.0021 6.60295 14.385 6.55342Z" fill="url(#paint37_linear_54_7091)"/>
<path d="M25.2911 2.54648C23.8622 2.35594 22.4318 2.24016 21.001 2.19727V6.22539C22.3773 6.26656 23.7533 6.37547 25.1279 6.55336C25.5108 6.60289 25.8499 6.305 25.8499 5.91898V3.18195C25.8499 2.85984 25.6104 2.58906 25.2911 2.54648Z" fill="url(#paint38_linear_54_7091)"/>
</g>
<defs>
<linearGradient id="paint0_linear_54_7091" x1="18.6569" y1="3.32898" x2="19.9379" y2="12.5741" gradientUnits="userSpaceOnUse">
<stop stop-color="#EAF9FA"/>
<stop offset="1" stop-color="#B3DAFE"/>
</linearGradient>
<linearGradient id="paint1_linear_54_7091" x1="27.2191" y1="7.40717" x2="29.3912" y2="7.12873" gradientUnits="userSpaceOnUse">
<stop stop-color="#7BACDF" stop-opacity="0"/>
<stop offset="1" stop-color="#7BACDF"/>
</linearGradient>
<linearGradient id="paint2_linear_54_7091" x1="27.4035" y1="8.08553" x2="24.229" y2="7.0274" gradientUnits="userSpaceOnUse">
<stop stop-color="#7BACDF" stop-opacity="0"/>
<stop offset="1" stop-color="#7BACDF"/>
</linearGradient>
<linearGradient id="paint3_linear_54_7091" x1="27.9183" y1="7.14029" x2="27.9183" y2="8.67217" gradientUnits="userSpaceOnUse">
<stop stop-color="#7BACDF" stop-opacity="0"/>
<stop offset="1" stop-color="#7BACDF"/>
</linearGradient>
<linearGradient id="paint4_linear_54_7091" x1="11.5946" y1="7.14029" x2="11.5946" y2="8.67217" gradientUnits="userSpaceOnUse">
<stop stop-color="#7BACDF" stop-opacity="0"/>
<stop offset="1" stop-color="#7BACDF"/>
</linearGradient>
<linearGradient id="paint5_linear_54_7091" x1="9.80024" y1="8.74635" x2="12.0884" y2="12.5551" gradientUnits="userSpaceOnUse">
<stop stop-color="#FEF0AE"/>
<stop offset="1" stop-color="#FBC56D"/>
</linearGradient>
<linearGradient id="paint6_linear_54_7091" x1="10.9469" y1="8.64408" x2="10.9469" y2="9.64807" gradientUnits="userSpaceOnUse">
<stop stop-color="#DC8758" stop-opacity="0"/>
<stop offset="0.2153" stop-color="#DD8654" stop-opacity="0.215"/>
<stop offset="0.4291" stop-color="#E28448" stop-opacity="0.429"/>
<stop offset="0.6424" stop-color="#EA8034" stop-opacity="0.642"/>
<stop offset="0.8543" stop-color="#F47B18" stop-opacity="0.854"/>
<stop offset="1" stop-color="#FE7701"/>
</linearGradient>
<linearGradient id="paint7_linear_54_7091" x1="8.32002" y1="7.18228" x2="15.3724" y2="13.8676" gradientUnits="userSpaceOnUse">
<stop stop-color="#DC8758" stop-opacity="0"/>
<stop offset="0.2153" stop-color="#DD8654" stop-opacity="0.215"/>
<stop offset="0.4291" stop-color="#E28448" stop-opacity="0.429"/>
<stop offset="0.6424" stop-color="#EA8034" stop-opacity="0.642"/>
<stop offset="0.8543" stop-color="#F47B18" stop-opacity="0.854"/>
<stop offset="1" stop-color="#FE7701"/>
</linearGradient>
<linearGradient id="paint8_linear_54_7091" x1="13.3659" y1="10.6553" x2="14.1234" y2="10.6553" gradientUnits="userSpaceOnUse">
<stop stop-color="#DC8758" stop-opacity="0"/>
<stop offset="0.2153" stop-color="#DD8654" stop-opacity="0.215"/>
<stop offset="0.4291" stop-color="#E28448" stop-opacity="0.429"/>
<stop offset="0.6424" stop-color="#EA8034" stop-opacity="0.642"/>
<stop offset="0.8543" stop-color="#F47B18" stop-opacity="0.854"/>
<stop offset="1" stop-color="#FE7701"/>
</linearGradient>
<linearGradient id="paint9_linear_54_7091" x1="10.9468" y1="11.6236" x2="10.9468" y2="12.9414" gradientUnits="userSpaceOnUse">
<stop stop-color="#DC8758" stop-opacity="0"/>
<stop offset="0.2153" stop-color="#DD8654" stop-opacity="0.215"/>
<stop offset="0.4291" stop-color="#E28448" stop-opacity="0.429"/>
<stop offset="0.6424" stop-color="#EA8034" stop-opacity="0.642"/>
<stop offset="0.8543" stop-color="#F47B18" stop-opacity="0.854"/>
<stop offset="1" stop-color="#FE7701"/>
</linearGradient>
<linearGradient id="paint10_linear_54_7091" x1="27.4198" y1="8.74635" x2="29.708" y2="12.5551" gradientUnits="userSpaceOnUse">
<stop stop-color="#FEF0AE"/>
<stop offset="1" stop-color="#FBC56D"/>
</linearGradient>
<linearGradient id="paint11_linear_54_7091" x1="28.5665" y1="8.64408" x2="28.5665" y2="9.64807" gradientUnits="userSpaceOnUse">
<stop stop-color="#DC8758" stop-opacity="0"/>
<stop offset="0.2153" stop-color="#DD8654" stop-opacity="0.215"/>
<stop offset="0.4291" stop-color="#E28448" stop-opacity="0.429"/>
<stop offset="0.6424" stop-color="#EA8034" stop-opacity="0.642"/>
<stop offset="0.8543" stop-color="#F47B18" stop-opacity="0.854"/>
<stop offset="1" stop-color="#FE7701"/>
</linearGradient>
<linearGradient id="paint12_linear_54_7091" x1="25.9396" y1="7.18228" x2="32.992" y2="13.8676" gradientUnits="userSpaceOnUse">
<stop stop-color="#DC8758" stop-opacity="0"/>
<stop offset="0.2153" stop-color="#DD8654" stop-opacity="0.215"/>
<stop offset="0.4291" stop-color="#E28448" stop-opacity="0.429"/>
<stop offset="0.6424" stop-color="#EA8034" stop-opacity="0.642"/>
<stop offset="0.8543" stop-color="#F47B18" stop-opacity="0.854"/>
<stop offset="1" stop-color="#FE7701"/>
</linearGradient>
<linearGradient id="paint13_linear_54_7091" x1="30.9854" y1="10.6553" x2="31.743" y2="10.6553" gradientUnits="userSpaceOnUse">
<stop stop-color="#DC8758" stop-opacity="0"/>
<stop offset="0.2153" stop-color="#DD8654" stop-opacity="0.215"/>
<stop offset="0.4291" stop-color="#E28448" stop-opacity="0.429"/>
<stop offset="0.6424" stop-color="#EA8034" stop-opacity="0.642"/>
<stop offset="0.8543" stop-color="#F47B18" stop-opacity="0.854"/>
<stop offset="1" stop-color="#FE7701"/>
</linearGradient>
<linearGradient id="paint14_linear_54_7091" x1="28.5665" y1="11.6236" x2="28.5665" y2="12.9414" gradientUnits="userSpaceOnUse">
<stop stop-color="#DC8758" stop-opacity="0"/>
<stop offset="0.2153" stop-color="#DD8654" stop-opacity="0.215"/>
<stop offset="0.4291" stop-color="#E28448" stop-opacity="0.429"/>
<stop offset="0.6424" stop-color="#EA8034" stop-opacity="0.642"/>
<stop offset="0.8543" stop-color="#F47B18" stop-opacity="0.854"/>
<stop offset="1" stop-color="#FE7701"/>
</linearGradient>
<linearGradient id="paint15_linear_54_7091" x1="33.6754" y1="12.3316" x2="39.8509" y2="36.3013" gradientUnits="userSpaceOnUse">
<stop stop-color="#C86D36"/>
<stop offset="0.201" stop-color="#C46B35"/>
<stop offset="0.4143" stop-color="#B76233"/>
<stop offset="0.6334" stop-color="#A2552F"/>
<stop offset="0.8549" stop-color="#85422A"/>
<stop offset="1" stop-color="#6D3326"/>
</linearGradient>
<linearGradient id="paint16_linear_54_7091" x1="37.084" y1="35.2037" x2="37.084" y2="37.6037" gradientUnits="userSpaceOnUse">
<stop stop-color="#3A0F13" stop-opacity="0"/>
<stop offset="0.2722" stop-color="#3E1215" stop-opacity="0.272"/>
<stop offset="0.5611" stop-color="#4B1B19" stop-opacity="0.561"/>
<stop offset="0.8568" stop-color="#602A21" stop-opacity="0.857"/>
<stop offset="1" stop-color="#6D3326"/>
</linearGradient>
<linearGradient id="paint17_linear_54_7091" x1="15.1222" y1="6.23838" x2="51.3801" y2="37.231" gradientUnits="userSpaceOnUse">
<stop stop-color="#3A0F13" stop-opacity="0"/>
<stop offset="0.2722" stop-color="#3E1215" stop-opacity="0.272"/>
<stop offset="0.5611" stop-color="#4B1B19" stop-opacity="0.561"/>
<stop offset="0.8568" stop-color="#602A21" stop-opacity="0.857"/>
<stop offset="1" stop-color="#6D3326"/>
</linearGradient>
<linearGradient id="paint18_linear_54_7091" x1="32.6835" y1="23.5938" x2="41.0623" y2="25.1136" gradientUnits="userSpaceOnUse">
<stop stop-color="#3A0F13" stop-opacity="0"/>
<stop offset="0.2722" stop-color="#3E1215" stop-opacity="0.272"/>
<stop offset="0.5611" stop-color="#4B1B19" stop-opacity="0.561"/>
<stop offset="0.8568" stop-color="#602A21" stop-opacity="0.857"/>
<stop offset="1" stop-color="#6D3326"/>
</linearGradient>
<linearGradient id="paint19_linear_54_7091" x1="16.0887" y1="9.88346" x2="23.7143" y2="39.4807" gradientUnits="userSpaceOnUse">
<stop stop-color="#C86D36"/>
<stop offset="0.201" stop-color="#C46B35"/>
<stop offset="0.4143" stop-color="#B76233"/>
<stop offset="0.6334" stop-color="#A2552F"/>
<stop offset="0.8549" stop-color="#85422A"/>
<stop offset="1" stop-color="#6D3326"/>
</linearGradient>
<linearGradient id="paint20_linear_54_7091" x1="19.7565" y1="35.2032" x2="19.7565" y2="37.6032" gradientUnits="userSpaceOnUse">
<stop stop-color="#3A0F13" stop-opacity="0"/>
<stop offset="0.2722" stop-color="#3E1215" stop-opacity="0.272"/>
<stop offset="0.5611" stop-color="#4B1B19" stop-opacity="0.561"/>
<stop offset="0.8568" stop-color="#602A21" stop-opacity="0.857"/>
<stop offset="1" stop-color="#6D3326"/>
</linearGradient>
<linearGradient id="paint21_linear_54_7091" x1="19.7565" y1="32.2446" x2="19.7565" y2="25.6588" gradientUnits="userSpaceOnUse">
<stop stop-color="#3A0F13" stop-opacity="0"/>
<stop offset="0.2722" stop-color="#3E1215" stop-opacity="0.272"/>
<stop offset="0.5611" stop-color="#4B1B19" stop-opacity="0.561"/>
<stop offset="0.8568" stop-color="#602A21" stop-opacity="0.857"/>
<stop offset="1" stop-color="#6D3326"/>
</linearGradient>
<linearGradient id="paint22_linear_54_7091" x1="19.2515" y1="6.33918" x2="22.4082" y2="30.9788" gradientUnits="userSpaceOnUse">
<stop stop-color="#C86D36"/>
<stop offset="0.201" stop-color="#C46B35"/>
<stop offset="0.4143" stop-color="#B76233"/>
<stop offset="0.6334" stop-color="#A2552F"/>
<stop offset="0.8549" stop-color="#85422A"/>
<stop offset="1" stop-color="#6D3326"/>
</linearGradient>
<linearGradient id="paint23_linear_54_7091" x1="36.7256" y1="18.2734" x2="41.1745" y2="18.2734" gradientUnits="userSpaceOnUse">
<stop stop-color="#3A0F13" stop-opacity="0"/>
<stop offset="0.2722" stop-color="#3E1215" stop-opacity="0.272"/>
<stop offset="0.5611" stop-color="#4B1B19" stop-opacity="0.561"/>
<stop offset="0.8568" stop-color="#602A21" stop-opacity="0.857"/>
<stop offset="1" stop-color="#6D3326"/>
</linearGradient>
<linearGradient id="paint24_linear_54_7091" x1="13.0469" y1="29.8871" x2="9.89098" y2="25.0233" gradientUnits="userSpaceOnUse">
<stop stop-color="#3A0F13" stop-opacity="0"/>
<stop offset="0.2722" stop-color="#3E1215" stop-opacity="0.272"/>
<stop offset="0.5611" stop-color="#4B1B19" stop-opacity="0.561"/>
<stop offset="0.8568" stop-color="#602A21" stop-opacity="0.857"/>
<stop offset="1" stop-color="#6D3326"/>
</linearGradient>
<linearGradient id="paint25_linear_54_7091" x1="32.1481" y1="31.4385" x2="28.3053" y2="25.201" gradientUnits="userSpaceOnUse">
<stop stop-color="#3A0F13" stop-opacity="0"/>
<stop offset="0.2722" stop-color="#3E1215" stop-opacity="0.272"/>
<stop offset="0.5611" stop-color="#4B1B19" stop-opacity="0.561"/>
<stop offset="0.8568" stop-color="#602A21" stop-opacity="0.857"/>
<stop offset="1" stop-color="#6D3326"/>
</linearGradient>
<linearGradient id="paint26_linear_54_7091" x1="7.68374" y1="24.944" x2="10.0662" y2="28.91" gradientUnits="userSpaceOnUse">
<stop stop-color="#FEF0AE"/>
<stop offset="1" stop-color="#FBC56D"/>
</linearGradient>
<linearGradient id="paint27_linear_54_7091" x1="8.12388" y1="27.4828" x2="8.12388" y2="25.6724" gradientUnits="userSpaceOnUse">
<stop stop-color="#FEF0AE"/>
<stop offset="1" stop-color="#FBC56D"/>
</linearGradient>
<linearGradient id="paint28_linear_54_7091" x1="6.20658" y1="23.3138" x2="13.5532" y2="30.278" gradientUnits="userSpaceOnUse">
<stop stop-color="#DC8758" stop-opacity="0"/>
<stop offset="0.2153" stop-color="#DD8654" stop-opacity="0.215"/>
<stop offset="0.4291" stop-color="#E28448" stop-opacity="0.429"/>
<stop offset="0.6424" stop-color="#EA8034" stop-opacity="0.642"/>
<stop offset="0.8543" stop-color="#F47B18" stop-opacity="0.854"/>
<stop offset="1" stop-color="#FE7701"/>
</linearGradient>
<linearGradient id="paint29_linear_54_7091" x1="11.5132" y1="26.9317" x2="12.3385" y2="26.9317" gradientUnits="userSpaceOnUse">
<stop stop-color="#DC8758" stop-opacity="0"/>
<stop offset="0.2153" stop-color="#DD8654" stop-opacity="0.215"/>
<stop offset="0.4291" stop-color="#E28448" stop-opacity="0.429"/>
<stop offset="0.6424" stop-color="#EA8034" stop-opacity="0.642"/>
<stop offset="0.8543" stop-color="#F47B18" stop-opacity="0.854"/>
<stop offset="1" stop-color="#FE7701"/>
</linearGradient>
<linearGradient id="paint30_linear_54_7091" x1="8.87764" y1="27.9" x2="8.87764" y2="29.2177" gradientUnits="userSpaceOnUse">
<stop stop-color="#DC8758" stop-opacity="0"/>
<stop offset="0.2153" stop-color="#DD8654" stop-opacity="0.215"/>
<stop offset="0.4291" stop-color="#E28448" stop-opacity="0.429"/>
<stop offset="0.6424" stop-color="#EA8034" stop-opacity="0.642"/>
<stop offset="0.8543" stop-color="#F47B18" stop-opacity="0.854"/>
<stop offset="1" stop-color="#FE7701"/>
</linearGradient>
<linearGradient id="paint31_linear_54_7091" x1="26.8791" y1="24.944" x2="29.2616" y2="28.91" gradientUnits="userSpaceOnUse">
<stop stop-color="#FEF0AE"/>
<stop offset="1" stop-color="#FBC56D"/>
</linearGradient>
<linearGradient id="paint32_linear_54_7091" x1="27.3192" y1="27.4828" x2="27.3192" y2="25.6724" gradientUnits="userSpaceOnUse">
<stop stop-color="#FEF0AE"/>
<stop offset="1" stop-color="#FBC56D"/>
</linearGradient>
<linearGradient id="paint33_linear_54_7091" x1="25.4019" y1="23.3138" x2="32.7485" y2="30.278" gradientUnits="userSpaceOnUse">
<stop stop-color="#DC8758" stop-opacity="0"/>
<stop offset="0.2153" stop-color="#DD8654" stop-opacity="0.215"/>
<stop offset="0.4291" stop-color="#E28448" stop-opacity="0.429"/>
<stop offset="0.6424" stop-color="#EA8034" stop-opacity="0.642"/>
<stop offset="0.8543" stop-color="#F47B18" stop-opacity="0.854"/>
<stop offset="1" stop-color="#FE7701"/>
</linearGradient>
<linearGradient id="paint34_linear_54_7091" x1="30.7085" y1="26.9317" x2="31.5338" y2="26.9317" gradientUnits="userSpaceOnUse">
<stop stop-color="#DC8758" stop-opacity="0"/>
<stop offset="0.2153" stop-color="#DD8654" stop-opacity="0.215"/>
<stop offset="0.4291" stop-color="#E28448" stop-opacity="0.429"/>
<stop offset="0.6424" stop-color="#EA8034" stop-opacity="0.642"/>
<stop offset="0.8543" stop-color="#F47B18" stop-opacity="0.854"/>
<stop offset="1" stop-color="#FE7701"/>
</linearGradient>
<linearGradient id="paint35_linear_54_7091" x1="28.0729" y1="27.9" x2="28.0729" y2="29.2177" gradientUnits="userSpaceOnUse">
<stop stop-color="#DC8758" stop-opacity="0"/>
<stop offset="0.2153" stop-color="#DD8654" stop-opacity="0.215"/>
<stop offset="0.4291" stop-color="#E28448" stop-opacity="0.429"/>
<stop offset="0.6424" stop-color="#EA8034" stop-opacity="0.642"/>
<stop offset="0.8543" stop-color="#F47B18" stop-opacity="0.854"/>
<stop offset="1" stop-color="#FE7701"/>
</linearGradient>
<linearGradient id="paint36_linear_54_7091" x1="19.7564" y1="3.42943" x2="19.7564" y2="5.54584" gradientUnits="userSpaceOnUse">
<stop stop-color="#5A5A5A"/>
<stop offset="1" stop-color="#444444"/>
</linearGradient>
<linearGradient id="paint37_linear_54_7091" x1="19.7564" y1="3.93068" x2="19.7564" y2="6.21482" gradientUnits="userSpaceOnUse">
<stop stop-color="#433F43" stop-opacity="0"/>
<stop offset="1" stop-color="#1A1A1A"/>
</linearGradient>
<linearGradient id="paint38_linear_54_7091" x1="22.9709" y1="4.33695" x2="24.8645" y2="4.8382" gradientUnits="userSpaceOnUse">
<stop stop-color="#433F43" stop-opacity="0"/>
<stop offset="1" stop-color="#1A1A1A"/>
</linearGradient>
<clipPath id="clip0_54_7091">
<rect width="40" height="40" fill="white" transform="translate(0.833008)"/>
</clipPath>
</defs>
</svg>
