<svg width="41" height="40" viewBox="0 0 41 40" fill="none" xmlns="http://www.w3.org/2000/svg">
<path d="M37.4153 36.9781H2.51347C1.27206 36.9781 0.265625 35.9718 0.265625 34.7303V14.1123C0.265625 10.5233 3.17512 7.61377 6.76415 7.61377H37.4152C38.6566 7.61377 39.663 8.6202 39.663 9.86162V34.7303C39.6631 35.9717 38.6567 36.9781 37.4153 36.9781Z" fill="url(#paint0_linear_54_6991)"/>
<path d="M37.4153 36.9781H2.51347C1.27206 36.9781 0.265625 35.9718 0.265625 34.7303V14.1123C0.265625 10.5233 3.17512 7.61377 6.76415 7.61377H37.4152C38.6566 7.61377 39.663 8.6202 39.663 9.86162V34.7303C39.6631 35.9717 38.6567 36.9781 37.4153 36.9781Z" fill="url(#paint1_linear_54_6991)"/>
<path d="M17.0723 30.4225L17.1358 3.35347C17.1368 2.91426 17.4937 2.55904 17.9329 2.56006L32.0619 2.59316C32.5011 2.59418 32.8563 2.95112 32.8553 3.39034L32.7917 30.4593C32.7907 30.8985 32.4338 31.2538 31.9946 31.2527L17.8656 31.2196C17.4265 31.2186 17.0712 30.8618 17.0723 30.4225Z" fill="url(#paint2_linear_54_6991)"/>
<path d="M17.6182 29.8352L17.6789 3.94314C17.6798 3.52887 18.0164 3.19389 18.4307 3.19483L31.5602 3.22565C31.9744 3.22659 32.3094 3.56322 32.3085 3.97749L32.2477 29.8695C32.2467 30.2837 31.9101 30.6187 31.4958 30.6178L18.3664 30.587C17.9522 30.586 17.6172 30.2494 17.6182 29.8352Z" fill="url(#paint3_linear_54_6991)"/>
<path d="M27.9885 28.8397C27.9916 27.5121 29.0703 26.4385 30.3978 26.4416C30.4524 26.4418 30.5065 26.4437 30.56 26.4475C30.8173 26.4655 31.036 26.2629 31.0367 26.005L31.0793 7.83657C31.0799 7.57869 30.8621 7.375 30.6047 7.39187C30.5512 7.3954 30.4971 7.39712 30.4426 7.39696C29.115 7.39383 28.0414 6.31516 28.0444 4.98763C28.0444 4.98606 28.0444 4.98449 28.0444 4.98292C28.0455 4.73359 27.8498 4.52849 27.6004 4.52786L22.3859 4.51563C22.1366 4.51508 21.9399 4.71923 21.9398 4.96857V4.97327C21.9367 6.30081 20.858 7.37445 19.5305 7.37132C19.4759 7.37116 19.4218 7.3692 19.3683 7.36544C19.111 7.3474 18.8923 7.55006 18.8917 7.80795L18.8491 25.9764C18.8485 26.2343 19.0663 26.4379 19.3236 26.4211C19.3772 26.4175 19.4313 26.4158 19.4858 26.416C20.8134 26.4191 21.887 27.4978 21.8839 28.8253V28.83C21.8828 29.0794 22.0785 29.2845 22.3279 29.2851L27.5424 29.2973C27.7917 29.2979 27.9884 29.0937 27.9885 28.8444C27.9885 28.8428 27.9885 28.8412 27.9885 28.8397Z" fill="url(#paint4_linear_54_6991)"/>
<path d="M24.9636 22.3822C27.9878 22.3822 30.4393 19.9306 30.4393 16.9064C30.4393 13.8823 27.9878 11.4307 24.9636 11.4307C21.9394 11.4307 19.4878 13.8823 19.4878 16.9064C19.4878 19.9306 21.9394 22.3822 24.9636 22.3822Z" fill="url(#paint5_linear_54_6991)"/>
<path d="M28.2651 19.0645C28.3956 18.9814 28.5044 18.8205 28.5913 18.5807C28.6847 18.3223 28.7485 18.0467 28.7838 17.7547C28.7937 17.7391 28.8025 17.7232 28.81 17.707L29.2745 17.2755C29.3246 17.2077 29.3498 17.1346 29.35 17.0561C29.3502 16.9704 29.3253 16.8971 29.2755 16.8364C29.2257 16.7755 29.1686 16.7451 29.1044 16.7449L28.7938 16.7442C28.7309 16.1657 28.5392 15.6814 28.2188 15.2915C27.8984 14.9015 27.4279 14.7059 26.8077 14.7044C26.5867 14.7039 26.3854 14.7284 26.2035 14.778C26.0216 14.8274 25.863 14.9093 25.7273 15.0233C25.5916 15.1371 25.4755 15.2457 25.3791 15.3492C25.3784 15.3499 25.3777 15.3507 25.377 15.3514C25.377 15.3514 24.027 16.6951 24.0263 16.6958C24.0129 16.7083 24.0003 16.7205 23.9874 16.7329L22.1958 16.7287C22.218 16.4123 22.3005 16.1338 22.4437 15.8932C22.5867 15.6525 22.7206 15.4636 22.8458 15.3259C22.9708 15.1884 23.0335 15.0772 23.0337 14.9925C23.034 14.8647 22.9665 14.751 22.8314 14.6514C22.6962 14.5516 22.5609 14.5018 22.4256 14.5015C22.2091 14.5009 21.9955 14.6224 21.7847 14.8659L17.0983 19.5303L17.0732 30.2041L28.2651 19.0645Z" fill="url(#paint6_linear_54_6991)"/>
<path d="M22.4247 14.5005C22.5601 14.5008 22.6954 14.5506 22.8305 14.6504C22.9657 14.7501 23.0332 14.8638 23.0329 14.9916C23.0327 15.0763 22.97 15.1875 22.845 15.325C22.7198 15.4627 22.5858 15.6516 22.4429 15.8923C22.2997 16.133 22.2172 16.4114 22.195 16.7278L24.7069 16.7337C24.7857 16.5196 24.8485 16.3555 24.8951 16.2414C24.9415 16.1272 25.0097 15.9756 25.0992 15.7867C25.1887 15.5976 25.2817 15.4514 25.3782 15.3482C25.4746 15.2448 25.5907 15.1361 25.7264 15.0223C25.862 14.9083 26.0208 14.8265 26.2026 14.777C26.3845 14.7275 26.5859 14.703 26.8068 14.7035C27.427 14.705 27.8975 14.9005 28.2179 15.2905C28.5383 15.6804 28.73 16.1647 28.7929 16.7432L29.1035 16.7439C29.1678 16.7441 29.2248 16.7745 29.2746 16.8354C29.3244 16.8961 29.3493 16.9694 29.3491 17.0552C29.3489 17.1337 29.3236 17.2068 29.2736 17.2745C29.2234 17.3422 29.1662 17.376 29.102 17.3759L28.8128 17.3752C28.7974 17.8106 28.7233 18.2121 28.5904 18.5796C28.4573 18.947 28.2731 19.1305 28.0375 19.1299C27.9089 19.1296 27.7752 19.086 27.6361 18.9992C27.4971 18.9126 27.4277 18.7971 27.428 18.6531C27.4282 18.5963 27.4891 18.4399 27.6113 18.1845C27.7332 17.9289 27.8053 17.6582 27.8273 17.3728L25.6567 17.3677C25.5491 17.6515 25.4469 17.8873 25.3502 18.0752C25.2535 18.2631 25.1196 18.4618 24.948 18.6709C24.7764 18.88 24.5605 19.0375 24.3002 19.1433C24.0399 19.2492 23.735 19.3018 23.3858 19.301C22.7479 19.2996 22.2412 19.1243 21.8658 18.7755C21.4904 18.4265 21.2603 17.9538 21.1757 17.3572L20.8179 17.3563C20.7548 17.3562 20.6989 17.3221 20.6498 17.2541C20.6009 17.1861 20.5764 17.1129 20.5767 17.0344C20.5769 16.9487 20.6017 16.8754 20.6506 16.8149C20.7 16.7543 20.7561 16.7241 20.8192 16.7243L21.1451 16.725C21.1537 16.1039 21.2971 15.5775 21.5752 15.1462C21.8537 14.715 22.1367 14.4998 22.4247 14.5005ZM26.9112 15.7642C26.6332 15.7636 26.421 15.8495 26.2746 16.0225C26.1281 16.1952 25.9903 16.4545 25.8613 16.8007L27.8085 16.8053C27.7244 16.1123 27.4253 15.7654 26.9112 15.7642ZM22.2152 17.2956C22.3276 17.9241 22.6797 18.2392 23.2712 18.2406C23.5847 18.2413 23.8307 18.1597 24.0091 17.9959C24.1876 17.832 24.3415 17.6004 24.4706 17.3008L22.2152 17.2956Z" fill="url(#paint7_linear_54_6991)"/>
<path d="M29.917 6.38424C29.2891 6.38275 28.7812 5.87255 28.7827 5.24463C28.7842 4.61671 29.2944 4.10886 29.9223 4.11035C30.5503 4.11185 31.0581 4.62204 31.0566 5.24996C31.0552 5.87789 30.5449 6.38573 29.917 6.38424Z" fill="url(#paint8_linear_54_6991)"/>
<path d="M29.8623 29.7251C29.2344 29.7236 28.7265 29.2134 28.728 28.5855C28.7295 27.9575 29.2397 27.4497 29.8676 27.4512C30.4956 27.4527 31.0034 27.9629 31.0019 28.5908C31.0005 29.2187 30.4902 29.7266 29.8623 29.7251Z" fill="url(#paint9_linear_54_6991)"/>
<path d="M20.0642 6.36129C20.6921 6.36129 21.2011 5.85226 21.2011 5.22435C21.2011 4.59643 20.6921 4.0874 20.0642 4.0874C19.4363 4.0874 18.9272 4.59643 18.9272 5.22435C18.9272 5.85226 19.4363 6.36129 20.0642 6.36129Z" fill="url(#paint10_linear_54_6991)"/>
<path d="M20.0095 29.7016C20.6374 29.7016 21.1464 29.1926 21.1464 28.5647C21.1464 27.9368 20.6374 27.4277 20.0095 27.4277C19.3816 27.4277 18.8726 27.9368 18.8726 28.5647C18.8726 29.1926 19.3816 29.7016 20.0095 29.7016Z" fill="url(#paint11_linear_54_6991)"/>
<path d="M17.8735 31.3058L8.77596 5.81135C8.62836 5.3977 8.84404 4.94264 9.25769 4.79503L22.5649 0.0464726C22.9785 -0.101136 23.4336 0.114551 23.5812 0.528199L32.6787 26.0227C32.8263 26.4364 32.6106 26.8914 32.197 27.039L18.8898 31.7875C18.4761 31.9352 18.0211 31.7195 17.8735 31.3058Z" fill="url(#paint12_linear_54_6991)"/>
<path d="M18.1892 30.5681L9.4872 6.18206C9.34798 5.79195 9.55135 5.36277 9.94155 5.22355L22.3073 0.810917C22.6974 0.671701 23.1266 0.875153 23.2658 1.26527L31.9678 25.6513C32.107 26.0414 31.9036 26.4706 31.5134 26.6098L19.1477 31.0224C18.7576 31.1616 18.3284 30.9582 18.1892 30.5681Z" fill="url(#paint13_linear_54_6991)"/>
<path d="M27.6105 26.1236C27.1643 24.8733 27.8162 23.4981 29.0666 23.0519C29.118 23.0335 29.1695 23.0171 29.2212 23.0025C29.4693 22.9325 29.6066 22.6678 29.5199 22.4249L23.4138 5.31323C23.3271 5.07033 23.0533 4.95237 22.8168 5.05527C22.7676 5.07668 22.7172 5.09661 22.6659 5.11496C21.4156 5.56116 20.0404 4.90923 19.5942 3.65896C19.5936 3.65747 19.5932 3.65598 19.5926 3.65449C19.5092 3.4195 19.2557 3.29268 19.0208 3.37645L14.1096 5.129C13.8748 5.21276 13.7587 5.47151 13.843 5.70618C13.8436 5.70767 13.8441 5.70916 13.8446 5.71057C14.2908 6.96092 13.6389 8.33614 12.3886 8.78234C12.3372 8.80069 12.2857 8.81708 12.234 8.83167C11.9858 8.90171 11.8485 9.16642 11.9353 9.40932L18.0414 26.521C18.1281 26.7639 18.4019 26.8818 18.6383 26.7789C18.6876 26.7575 18.7379 26.7376 18.7892 26.7192C20.0396 26.273 21.4148 26.925 21.861 28.1753C21.8616 28.1768 21.862 28.1783 21.8626 28.1797C21.9459 28.4147 22.1995 28.5415 22.4343 28.4577L27.3456 26.7051C27.5804 26.6213 27.6965 26.3626 27.6122 26.1279C27.6116 26.1265 27.6111 26.1251 27.6105 26.1236Z" fill="url(#paint14_linear_54_6991)"/>
<path d="M20.7277 21.393C23.7519 21.393 26.2035 18.9414 26.2035 15.9172C26.2035 12.893 23.7519 10.4414 20.7277 10.4414C17.7035 10.4414 15.252 12.893 15.252 15.9172C15.252 18.9414 17.7035 21.393 20.7277 21.393Z" fill="url(#paint15_linear_54_6991)"/>
<path d="M24.5639 16.8312C24.6586 16.7089 24.7066 16.5207 24.7072 16.2656C24.7077 15.9908 24.6745 15.7099 24.6089 15.4232C24.613 15.4051 24.6159 15.3872 24.6174 15.3694L24.9086 14.8062C24.9328 14.7255 24.9318 14.6482 24.9054 14.5742C24.8766 14.4935 24.8283 14.4329 24.761 14.3926C24.6935 14.3522 24.6295 14.3428 24.569 14.3644L24.2764 14.4688C24.0215 13.9457 23.6774 13.5548 23.244 13.2963C22.8105 13.0376 22.3016 13.0127 21.7175 13.2212C21.5094 13.2955 21.3281 13.3866 21.1738 13.4948C21.0193 13.6028 20.8977 13.7335 20.8086 13.8867C20.7194 14.0397 20.6469 14.1812 20.5912 14.3112C20.5908 14.3121 20.5905 14.3131 20.5901 14.314C20.5901 14.314 19.7742 16.0352 19.7738 16.0361C19.7654 16.0524 19.7577 16.0682 19.7498 16.0841L18.0623 16.6862C17.9761 16.381 17.9596 16.091 18.0128 15.8161C18.066 15.5413 18.1281 15.3181 18.1993 15.1463C18.2704 14.9745 18.2918 14.8487 18.2633 14.769C18.2203 14.6486 18.1184 14.5645 17.9574 14.5163C17.7965 14.4682 17.6523 14.4671 17.5248 14.5126C17.321 14.5853 17.1611 14.7719 17.0451 15.0723L14.2129 21.0471L17.8002 31.1L24.5639 16.8312Z" fill="url(#paint16_linear_54_6991)"/>
<path d="M17.525 14.5126C17.6526 14.4671 17.7967 14.4682 17.9577 14.5163C18.1186 14.5645 18.2206 14.6486 18.2636 14.769C18.292 14.8487 18.2706 14.9745 18.1996 15.1463C18.1283 15.3181 18.0661 15.5414 18.013 15.8162C17.9597 16.0911 17.9763 16.381 18.0625 16.6863L20.4282 15.8421C20.43 15.614 20.4335 15.4382 20.4389 15.3152C20.444 15.1919 20.4567 15.0262 20.477 14.8182C20.4973 14.6101 20.5354 14.441 20.5912 14.3112C20.647 14.1812 20.7195 14.0397 20.8087 13.8867C20.8978 13.7335 21.0194 13.6028 21.1738 13.4948C21.3282 13.3865 21.5094 13.2954 21.7175 13.2212C22.3017 13.0127 22.8106 13.0376 23.244 13.2963C23.6774 13.5548 24.0217 13.9457 24.2765 14.4687L24.5691 14.3643C24.6296 14.3428 24.6935 14.3521 24.7611 14.3925C24.8284 14.4328 24.8767 14.4934 24.9054 14.5741C24.9318 14.648 24.9327 14.7254 24.9086 14.8061C24.8843 14.8868 24.8419 14.938 24.7814 14.9596L24.509 15.0568C24.6418 15.4718 24.7079 15.8746 24.7072 16.2655C24.7062 16.6563 24.5949 16.8912 24.3731 16.9705C24.252 17.0137 24.1113 17.0178 23.9512 16.9832C23.791 16.9487 23.6867 16.8635 23.6383 16.7279C23.6192 16.6744 23.6236 16.5066 23.6522 16.225C23.6805 15.9432 23.6567 15.6641 23.581 15.388L21.5366 16.1175C21.5313 16.421 21.515 16.6774 21.4876 16.887C21.4601 17.0965 21.4012 17.3288 21.3105 17.5836C21.2199 17.8385 21.0699 18.0597 20.8608 18.2473C20.6516 18.435 20.3825 18.5877 20.0538 18.705C19.4529 18.9195 18.9168 18.926 18.4455 18.7247C17.9742 18.5232 17.5978 18.1563 17.3163 17.6234L16.9793 17.7436C16.9199 17.7648 16.8556 17.7516 16.7865 17.7043C16.7175 17.6569 16.6697 17.5962 16.6434 17.5223C16.6146 17.4416 16.6131 17.3643 16.6388 17.2908C16.6647 17.217 16.7073 17.1697 16.7668 17.1484L17.0737 17.0389C16.8716 16.4514 16.8285 15.9076 16.9443 15.4076C17.0603 14.9076 17.2537 14.6094 17.525 14.5126ZM22.1745 14.184C21.9127 14.2774 21.742 14.4302 21.6628 14.6424C21.5833 14.8545 21.5414 15.1452 21.5371 15.5145L23.371 14.8601C23.0575 14.2365 22.6587 14.0112 22.1745 14.184ZM18.2734 17.2137C18.5919 17.7671 19.0298 17.9446 19.5868 17.7458C19.882 17.6405 20.0859 17.4804 20.1985 17.266C20.3109 17.0513 20.3774 16.7814 20.3974 16.4558L18.2734 17.2137Z" fill="url(#paint17_linear_54_6991)"/>
<path d="M21.8299 4.34043C21.2386 4.55149 20.5881 4.24309 20.377 3.65172C20.1659 3.06035 20.4743 2.40983 21.0657 2.19878C21.6571 1.98772 22.3076 2.29611 22.5186 2.88748C22.7297 3.47886 22.4213 4.12937 21.8299 4.34043Z" fill="url(#paint18_linear_54_6991)"/>
<path d="M29.6747 26.3228C29.0833 26.5339 28.4328 26.2255 28.2217 25.6341C28.0107 25.0428 28.3191 24.3923 28.9104 24.1812C29.5018 23.9701 30.1524 24.2785 30.3634 24.8699C30.5744 25.4613 30.2661 26.1118 29.6747 26.3228Z" fill="url(#paint19_linear_54_6991)"/>
<path d="M12.1658 7.71822C12.7937 7.71822 13.3027 7.2092 13.3027 6.58128C13.3027 5.95336 12.7937 5.44434 12.1658 5.44434C11.5378 5.44434 11.0288 5.95336 11.0288 6.58128C11.0288 7.2092 11.5378 7.71822 12.1658 7.71822Z" fill="url(#paint20_linear_54_6991)"/>
<path d="M20.3924 29.6349C19.8011 29.8459 19.1506 29.5375 18.9395 28.9462C18.7284 28.3548 19.0368 27.7043 19.6282 27.4932C20.2196 27.2821 20.8701 27.5905 21.0812 28.1819C21.2922 28.7733 20.9838 29.4238 20.3924 29.6349Z" fill="url(#paint21_linear_54_6991)"/>
<path d="M18.9306 31.8664L1.74482 10.9526C1.46599 10.6133 1.51501 10.1122 1.85431 9.83327L12.7705 0.862979C13.1099 0.584155 13.611 0.633175 13.8899 0.97247L31.0756 21.8862C31.3545 22.2256 31.3054 22.7267 30.9661 23.0056L20.0499 31.9759C19.7106 32.2548 19.2094 32.2057 18.9306 31.8664Z" fill="url(#paint22_linear_54_6991)"/>
<path d="M18.9778 31.0659L2.53924 11.0615C2.27626 10.7414 2.32245 10.2688 2.64253 10.0058L12.7864 1.6701C13.1065 1.40712 13.5791 1.45331 13.8421 1.77339L30.2806 21.7778C30.5436 22.0979 30.4974 22.5705 30.1773 22.8335L20.0335 31.1692C19.7135 31.4322 19.2408 31.386 18.9778 31.0659Z" fill="url(#paint23_linear_54_6991)"/>
<path d="M26.3396 23.6957C25.4967 22.6701 25.645 21.1553 26.6706 20.3125C26.7127 20.2779 26.7557 20.245 26.7994 20.2138C27.0093 20.0639 27.0489 19.7684 26.8851 19.5691L15.3503 5.53209C15.1865 5.33288 14.8889 5.31444 14.7013 5.49123C14.6621 5.52809 14.6216 5.56386 14.5795 5.59845C13.5538 6.44127 12.0391 6.29311 11.1962 5.26739C11.1952 5.26621 11.1943 5.26495 11.1933 5.26378C11.0354 5.07084 10.7538 5.03727 10.5612 5.19562L6.53238 8.50629C6.33975 8.66457 6.31803 8.94731 6.47677 9.13963C6.47779 9.1408 6.47873 9.14206 6.47975 9.14324C7.32258 10.1689 7.17434 11.6836 6.1487 12.5265C6.10658 12.561 6.0636 12.594 6.01991 12.6252C5.81003 12.7751 5.77042 13.0706 5.93418 13.2698L17.4691 27.3069C17.6329 27.5061 17.9304 27.5245 18.1181 27.3477C18.1573 27.3109 18.1978 27.2751 18.2399 27.2404C19.2656 26.3976 20.7803 26.5458 21.6232 27.5715C21.6242 27.5727 21.6251 27.5739 21.6261 27.5751C21.7841 27.7681 22.0656 27.8016 22.2583 27.6433L26.2871 24.3326C26.4797 24.1743 26.5014 23.8916 26.3427 23.6993C26.3416 23.6982 26.3406 23.697 26.3396 23.6957Z" fill="url(#paint24_linear_54_6991)"/>
<path d="M16.4108 21.8954C19.435 21.8954 21.8866 19.4438 21.8866 16.4196C21.8866 13.3954 19.435 10.9438 16.4108 10.9438C13.3866 10.9438 10.9351 13.3954 10.9351 16.4196C10.9351 19.4438 13.3866 21.8954 16.4108 21.8954Z" fill="url(#paint25_linear_54_6991)"/>
<path d="M20.3291 15.9819C20.3769 15.8347 20.3583 15.6414 20.2726 15.4012C20.1802 15.1424 20.0539 14.8893 19.8951 14.6416C19.8929 14.6232 19.8895 14.6054 19.8849 14.5882L19.9684 13.9597C19.9638 13.8755 19.9367 13.803 19.8869 13.7424C19.8325 13.6762 19.7665 13.6355 19.6896 13.6204C19.6123 13.6052 19.549 13.618 19.4994 13.6588L19.2594 13.856C18.8425 13.4499 18.3864 13.1985 17.8911 13.1019C17.3957 13.0051 16.9084 13.1539 16.4292 13.5477C16.2585 13.6879 16.1187 13.835 16.0101 13.9891C15.9013 14.143 15.831 14.3071 15.799 14.4814C15.7669 14.6555 15.7466 14.8132 15.738 14.9544C15.7379 14.9554 15.7379 14.9564 15.7379 14.9575C15.7379 14.9575 15.5524 16.8532 15.5524 16.8542C15.55 16.8724 15.5481 16.8898 15.546 16.9075L14.1618 18.045C13.9774 17.7869 13.8637 17.5197 13.8209 17.2429C13.7779 16.9663 13.761 16.7353 13.7699 16.5494C13.7787 16.3637 13.7562 16.2381 13.7025 16.1726C13.6213 16.0739 13.4969 16.0292 13.3292 16.0383C13.1615 16.0475 13.0254 16.0952 12.9208 16.1812C12.7536 16.3186 12.6662 16.5482 12.6586 16.8702L12.0146 23.4508L18.7913 31.6975L20.3291 15.9819Z" fill="url(#paint26_linear_54_6991)"/>
<path d="M12.921 16.181C13.0256 16.0951 13.1616 16.0474 13.3294 16.0382C13.4971 16.029 13.6215 16.0738 13.7027 16.1725C13.7565 16.2379 13.7789 16.3636 13.7701 16.5492C13.7612 16.735 13.7781 16.9661 13.8211 17.2427C13.864 17.5195 13.9776 17.7867 14.162 18.0448L16.1027 16.4501C16.0272 16.2349 15.9711 16.0682 15.9345 15.9506C15.8976 15.833 15.8536 15.6727 15.8023 15.4701C15.7509 15.2673 15.7296 15.0952 15.7383 14.9543C15.7469 14.8131 15.7672 14.6555 15.7993 14.4814C15.8313 14.3071 15.9016 14.1429 16.0104 13.989C16.1191 13.835 16.2588 13.6879 16.4294 13.5476C16.9087 13.1538 17.396 13.0051 17.8914 13.1018C18.3867 13.1985 18.8429 13.4499 19.2596 13.8559L19.4996 13.6588C19.5493 13.618 19.6127 13.6051 19.6898 13.6203C19.7669 13.6354 19.8327 13.6761 19.8872 13.7423C19.937 13.8029 19.964 13.8754 19.9687 13.9596C19.9731 14.0437 19.9505 14.1062 19.9009 14.147L19.6775 14.3306C19.9428 14.6762 20.1413 15.033 20.2728 15.401C20.4041 15.769 20.3789 16.0277 20.1968 16.1774C20.0975 16.2589 19.9666 16.3105 19.8041 16.3322C19.6417 16.3539 19.5147 16.309 19.4233 16.1978C19.3873 16.1538 19.3347 15.9945 19.2662 15.7197C19.1975 15.445 19.0808 15.1904 18.916 14.9562L17.239 16.3343C17.3367 16.6216 17.4081 16.8685 17.4532 17.075C17.4982 17.2814 17.5214 17.52 17.5223 17.7905C17.5232 18.0609 17.457 18.3199 17.3236 18.5672C17.1902 18.8145 16.9887 19.0493 16.7189 19.2709C16.2261 19.676 15.7237 19.8635 15.2122 19.8334C14.7005 19.8034 14.2222 19.5854 13.777 19.1792L13.5006 19.4063C13.4518 19.4464 13.3869 19.4557 13.3059 19.4345C13.2249 19.4132 13.1595 19.3723 13.1096 19.3116C13.0552 19.2454 13.0276 19.1731 13.0269 19.0953C13.0264 19.0172 13.0505 18.9582 13.0992 18.9181L13.351 18.7112C12.9621 18.2266 12.7375 17.7295 12.6774 17.2199C12.6172 16.7101 12.6985 16.3639 12.921 16.181ZM17.1851 14.299C16.9704 14.4755 16.8614 14.677 16.8587 14.9034C16.8556 15.1298 16.9145 15.4177 17.0355 15.7667L18.5399 14.5305C18.0339 14.0497 17.5824 13.9726 17.1851 14.299ZM14.539 18.4698C15.0259 18.8829 15.4981 18.9018 15.955 18.5262C16.1972 18.3272 16.3349 18.1076 16.3683 17.8677C16.4015 17.6276 16.3727 17.3512 16.2814 17.0379L14.539 18.4698Z" fill="url(#paint27_linear_54_6991)"/>
<path d="M12.8059 5.41061C13.4338 5.41061 13.9428 4.90158 13.9428 4.27366C13.9428 3.64575 13.4338 3.13672 12.8059 3.13672C12.178 3.13672 11.6689 3.64575 11.6689 4.27366C11.6689 4.90158 12.178 5.41061 12.8059 5.41061Z" fill="url(#paint28_linear_54_6991)"/>
<path d="M27.6247 23.4438C28.2527 23.4438 28.7617 22.9348 28.7617 22.3069C28.7617 21.6789 28.2527 21.1699 27.6247 21.1699C26.9968 21.1699 26.4878 21.6789 26.4878 22.3069C26.4878 22.9348 26.9968 23.4438 27.6247 23.4438Z" fill="url(#paint29_linear_54_6991)"/>
<path d="M5.19212 11.6679C5.82004 11.6679 6.32906 11.1589 6.32906 10.531C6.32906 9.90307 5.82004 9.39404 5.19212 9.39404C4.5642 9.39404 4.05518 9.90307 4.05518 10.531C4.05518 11.1589 4.5642 11.6679 5.19212 11.6679Z" fill="url(#paint30_linear_54_6991)"/>
<path d="M20.011 29.7011C20.6389 29.7011 21.1479 29.1921 21.1479 28.5642C21.1479 27.9363 20.6389 27.4272 20.011 27.4272C19.3831 27.4272 18.874 27.9363 18.874 28.5642C18.874 29.1921 19.3831 29.7011 20.011 29.7011Z" fill="url(#paint31_linear_54_6991)"/>
<path d="M34.5752 39.9996H2.51347C1.27206 39.9996 0.265625 38.9932 0.265625 37.7518V15.1341C0.265625 13.8926 1.27206 12.8862 2.51347 12.8862H34.5751C35.8165 12.8862 36.8229 13.8926 36.8229 15.1341V37.7518C36.823 38.9932 35.8166 39.9996 34.5752 39.9996Z" fill="url(#paint32_linear_54_6991)"/>
<path d="M36.8224 37.6671V29.9331H29.0884L36.8224 37.6671Z" fill="url(#paint33_linear_54_6991)"/>
<path d="M34.5099 22.8743H29.5086C28.8656 22.8743 28.3442 23.3955 28.3442 24.0386V28.8484C28.3442 29.4914 28.8655 30.0127 29.5086 30.0127H34.5099C36.3433 30.0127 38.0784 29.1835 39.23 27.7567L39.5604 27.3474C39.8884 26.941 40.0673 26.4345 40.0673 25.9123V20.9142C40.0673 20.4701 39.5089 20.2729 39.23 20.6184C38.0784 22.045 36.3433 22.8743 34.5099 22.8743Z" fill="url(#paint34_linear_54_6991)"/>
<path d="M37.4083 28.8482V28.8309L33.3453 24.7679C32.8965 24.2864 32.257 23.9849 31.5468 23.9849C30.1891 23.9849 29.0884 25.0856 29.0884 26.4434C29.0884 27.1536 29.3899 27.793 29.8714 28.2418L31.6421 30.0125H36.244C36.8871 30.0125 37.4083 29.4912 37.4083 28.8482Z" fill="url(#paint35_linear_54_6991)"/>
<path d="M31.5464 28.9014C32.9042 28.9014 34.0049 27.8007 34.0049 26.4429C34.0049 25.0851 32.9042 23.9844 31.5464 23.9844C30.1886 23.9844 29.0879 25.0851 29.0879 26.4429C29.0879 27.8007 30.1886 28.9014 31.5464 28.9014Z" fill="url(#paint36_radial_54_6991)"/>
<path d="M33.7411 26.4435C33.7411 27.6555 32.7586 28.6381 31.5466 28.6381C30.3346 28.6381 29.3521 27.6555 29.3521 26.4435C29.3521 25.2315 30.3346 24.249 31.5466 24.249C32.7585 24.249 33.7411 25.2315 33.7411 26.4435Z" fill="url(#paint37_linear_54_6991)"/>
<path d="M32.6462 24.2441C32.812 24.5751 32.9054 24.9485 32.9054 25.3439C32.9054 26.7017 31.8047 27.8024 30.4469 27.8024C30.0516 27.8024 29.6781 27.7089 29.3472 27.5431C29.7508 28.3488 30.584 28.9019 31.5464 28.9019C32.9042 28.9019 34.0049 27.8012 34.0049 26.4434C34.0049 25.4809 33.4518 24.6477 32.6462 24.2441Z" fill="url(#paint38_linear_54_6991)"/>
<path d="M33.209 25.3909C33.209 26.0218 32.4647 26.5332 31.5466 26.5332C30.6285 26.5332 29.8843 26.0217 29.8843 25.3909C29.8843 24.76 30.6285 24.2485 31.5466 24.2485C32.4648 24.2486 33.209 24.7601 33.209 25.3909Z" fill="url(#paint39_linear_54_6991)"/>
<defs>
<linearGradient id="paint0_linear_54_6991" x1="30.8787" y1="4.05008" x2="27.0356" y2="11.0305" gradientUnits="userSpaceOnUse">
<stop stop-color="#8A7889"/>
<stop offset="1" stop-color="#6E566E"/>
</linearGradient>
<linearGradient id="paint1_linear_54_6991" x1="33.8246" y1="6.91863" x2="29.6677" y2="11.9382" gradientUnits="userSpaceOnUse">
<stop stop-color="#6E566E" stop-opacity="0"/>
<stop offset="0.2191" stop-color="#685168" stop-opacity="0.219"/>
<stop offset="1" stop-color="#564357"/>
</linearGradient>
<linearGradient id="paint2_linear_54_6991" x1="28.7526" y1="15.4747" x2="8.40721" y2="23.4695" gradientUnits="userSpaceOnUse">
<stop stop-color="#4AB272"/>
<stop offset="1" stop-color="#077565"/>
</linearGradient>
<linearGradient id="paint3_linear_54_6991" x1="22.3367" y1="18.1764" x2="55.6086" y2="2.78988" gradientUnits="userSpaceOnUse">
<stop stop-color="#92F37F" stop-opacity="0"/>
<stop offset="1" stop-color="#FFEE83"/>
</linearGradient>
<linearGradient id="paint4_linear_54_6991" x1="27.9523" y1="15.9867" x2="14.3669" y2="20.4353" gradientUnits="userSpaceOnUse">
<stop stop-color="#91F27F"/>
<stop offset="1" stop-color="#00B302"/>
</linearGradient>
<linearGradient id="paint5_linear_54_6991" x1="22.2007" y1="21.1679" x2="32.9446" y2="4.71097" gradientUnits="userSpaceOnUse">
<stop stop-color="#92F37F"/>
<stop offset="1" stop-color="#4AB272"/>
</linearGradient>
<linearGradient id="paint6_linear_54_6991" x1="22.1179" y1="20.8294" x2="27.269" y2="9.25609" gradientUnits="userSpaceOnUse">
<stop stop-color="#4AB272" stop-opacity="0"/>
<stop offset="1" stop-color="#009245"/>
</linearGradient>
<linearGradient id="paint7_linear_54_6991" x1="25.4094" y1="16.4529" x2="22.3786" y2="20.9336" gradientUnits="userSpaceOnUse">
<stop stop-color="#4AB272"/>
<stop offset="1" stop-color="#077565"/>
</linearGradient>
<linearGradient id="paint8_linear_54_6991" x1="30.2822" y1="4.95257" x2="27.9644" y2="7.09006" gradientUnits="userSpaceOnUse">
<stop stop-color="#91F27F"/>
<stop offset="1" stop-color="#00B302"/>
</linearGradient>
<linearGradient id="paint9_linear_54_6991" x1="30.2345" y1="28.2933" x2="27.9167" y2="30.4309" gradientUnits="userSpaceOnUse">
<stop stop-color="#91F27F"/>
<stop offset="1" stop-color="#00B302"/>
</linearGradient>
<linearGradient id="paint10_linear_54_6991" x1="20.4267" y1="4.93257" x2="18.1088" y2="7.07014" gradientUnits="userSpaceOnUse">
<stop stop-color="#91F27F"/>
<stop offset="1" stop-color="#00B302"/>
</linearGradient>
<linearGradient id="paint11_linear_54_6991" x1="20.379" y1="28.2729" x2="18.0612" y2="30.4104" gradientUnits="userSpaceOnUse">
<stop stop-color="#91F27F"/>
<stop offset="1" stop-color="#00B302"/>
</linearGradient>
<linearGradient id="paint12_linear_54_6991" x1="23.7869" y1="13.1855" x2="7.33652" y2="27.5859" gradientUnits="userSpaceOnUse">
<stop stop-color="#4AB272"/>
<stop offset="1" stop-color="#077565"/>
</linearGradient>
<linearGradient id="paint13_linear_54_6991" x1="18.661" y1="17.8962" x2="44.7821" y2="-7.82977" gradientUnits="userSpaceOnUse">
<stop stop-color="#92F37F" stop-opacity="0"/>
<stop offset="1" stop-color="#FFEE83"/>
</linearGradient>
<linearGradient id="paint14_linear_54_6991" x1="23.2065" y1="13.9381" x2="11.9212" y2="22.716" gradientUnits="userSpaceOnUse">
<stop stop-color="#91F27F"/>
<stop offset="1" stop-color="#00B302"/>
</linearGradient>
<linearGradient id="paint15_linear_54_6991" x1="19.5438" y1="20.7587" x2="24.0969" y2="1.63672" gradientUnits="userSpaceOnUse">
<stop stop-color="#92F37F"/>
<stop offset="1" stop-color="#4AB272"/>
</linearGradient>
<linearGradient id="paint16_linear_54_6991" x1="19.3506" y1="20.4682" x2="20.2891" y2="7.83316" gradientUnits="userSpaceOnUse">
<stop stop-color="#4AB272" stop-opacity="0"/>
<stop offset="1" stop-color="#009245"/>
</linearGradient>
<linearGradient id="paint17_linear_54_6991" x1="20.9714" y1="15.2367" x2="19.6324" y2="20.4788" gradientUnits="userSpaceOnUse">
<stop stop-color="#4AB272"/>
<stop offset="1" stop-color="#077565"/>
</linearGradient>
<linearGradient id="paint18_linear_54_6991" x1="21.6723" y1="2.76447" x2="20.2127" y2="5.55985" gradientUnits="userSpaceOnUse">
<stop stop-color="#91F27F"/>
<stop offset="1" stop-color="#00B302"/>
</linearGradient>
<linearGradient id="paint19_linear_54_6991" x1="29.5147" y1="24.7516" x2="28.0551" y2="27.547" gradientUnits="userSpaceOnUse">
<stop stop-color="#91F27F"/>
<stop offset="1" stop-color="#00B302"/>
</linearGradient>
<linearGradient id="paint20_linear_54_6991" x1="12.3882" y1="6.07517" x2="10.9287" y2="8.87056" gradientUnits="userSpaceOnUse">
<stop stop-color="#91F27F"/>
<stop offset="1" stop-color="#00B302"/>
</linearGradient>
<linearGradient id="paint21_linear_54_6991" x1="20.2305" y1="28.0626" x2="18.7709" y2="30.8579" gradientUnits="userSpaceOnUse">
<stop stop-color="#91F27F"/>
<stop offset="1" stop-color="#00B302"/>
</linearGradient>
<linearGradient id="paint22_linear_54_6991" x1="18.3529" y1="12.8198" x2="7.74111" y2="31.9399" gradientUnits="userSpaceOnUse">
<stop stop-color="#4AB272"/>
<stop offset="1" stop-color="#077565"/>
</linearGradient>
<linearGradient id="paint23_linear_54_6991" x1="15.1216" y1="18.9886" x2="31.0038" y2="-14.0637" gradientUnits="userSpaceOnUse">
<stop stop-color="#92F37F" stop-opacity="0"/>
<stop offset="1" stop-color="#FFEE83"/>
</linearGradient>
<linearGradient id="paint24_linear_54_6991" x1="18.0602" y1="13.7245" x2="10.4079" y2="25.805" gradientUnits="userSpaceOnUse">
<stop stop-color="#91F27F"/>
<stop offset="1" stop-color="#00B302"/>
</linearGradient>
<linearGradient id="paint25_linear_54_6991" x1="16.9215" y1="21.3838" x2="14.7372" y2="1.8447" gradientUnits="userSpaceOnUse">
<stop stop-color="#92F37F"/>
<stop offset="1" stop-color="#4AB272"/>
</linearGradient>
<linearGradient id="paint26_linear_54_6991" x1="16.6405" y1="21.1756" x2="13.2488" y2="8.96529" gradientUnits="userSpaceOnUse">
<stop stop-color="#4AB272" stop-opacity="0"/>
<stop offset="1" stop-color="#009245"/>
</linearGradient>
<linearGradient id="paint27_linear_54_6991" x1="16.396" y1="15.703" x2="16.9094" y2="21.0903" gradientUnits="userSpaceOnUse">
<stop stop-color="#4AB272"/>
<stop offset="1" stop-color="#077565"/>
</linearGradient>
<linearGradient id="paint28_linear_54_6991" x1="12.8326" y1="3.72611" x2="12.4045" y2="6.85104" gradientUnits="userSpaceOnUse">
<stop stop-color="#91F27F"/>
<stop offset="1" stop-color="#00B302"/>
</linearGradient>
<linearGradient id="paint29_linear_54_6991" x1="27.6538" y1="21.7686" x2="27.2257" y2="24.8937" gradientUnits="userSpaceOnUse">
<stop stop-color="#91F27F"/>
<stop offset="1" stop-color="#00B302"/>
</linearGradient>
<linearGradient id="paint30_linear_54_6991" x1="5.21492" y1="9.9844" x2="4.78682" y2="13.1094" gradientUnits="userSpaceOnUse">
<stop stop-color="#91F27F"/>
<stop offset="1" stop-color="#00B302"/>
</linearGradient>
<linearGradient id="paint31_linear_54_6991" x1="20.0361" y1="28.0269" x2="19.608" y2="31.152" gradientUnits="userSpaceOnUse">
<stop stop-color="#91F27F"/>
<stop offset="1" stop-color="#00B302"/>
</linearGradient>
<linearGradient id="paint32_linear_54_6991" x1="8.6625" y1="10.4028" x2="29.3999" y2="44.0636" gradientUnits="userSpaceOnUse">
<stop stop-color="#8A7889"/>
<stop offset="1" stop-color="#6E566E"/>
</linearGradient>
<linearGradient id="paint33_linear_54_6991" x1="36.5363" y1="35.8603" x2="32.3069" y2="28.8598" gradientUnits="userSpaceOnUse">
<stop stop-color="#6E566E" stop-opacity="0"/>
<stop offset="0.2191" stop-color="#685168" stop-opacity="0.219"/>
<stop offset="1" stop-color="#564357"/>
</linearGradient>
<linearGradient id="paint34_linear_54_6991" x1="33.8371" y1="23.1209" x2="35.0136" y2="28.8464" gradientUnits="userSpaceOnUse">
<stop stop-color="#FF7044"/>
<stop offset="1" stop-color="#F82814"/>
</linearGradient>
<linearGradient id="paint35_linear_54_6991" x1="35.122" y1="29.6552" x2="32.2049" y2="27.1308" gradientUnits="userSpaceOnUse">
<stop stop-color="#F82814" stop-opacity="0"/>
<stop offset="1" stop-color="#C0272D"/>
</linearGradient>
<radialGradient id="paint36_radial_54_6991" cx="0" cy="0" r="1" gradientUnits="userSpaceOnUse" gradientTransform="translate(30.8384 25.4987) scale(3.0633 3.0633)">
<stop stop-color="#FFD945"/>
<stop offset="0.4169" stop-color="#FFD744"/>
<stop offset="0.6278" stop-color="#FFCF3F"/>
<stop offset="0.7926" stop-color="#FFC237"/>
<stop offset="0.9326" stop-color="#FFAF2C"/>
<stop offset="1" stop-color="#FFA325"/>
</radialGradient>
<linearGradient id="paint37_linear_54_6991" x1="31.9736" y1="26.8706" x2="29.0326" y2="23.9297" gradientUnits="userSpaceOnUse">
<stop stop-color="#FFD945" stop-opacity="0"/>
<stop offset="1" stop-color="#FBED21"/>
</linearGradient>
<linearGradient id="paint38_linear_54_6991" x1="32.5908" y1="26.5357" x2="37.1706" y2="22.6593" gradientUnits="userSpaceOnUse">
<stop stop-color="#E87264" stop-opacity="0"/>
<stop offset="1" stop-color="#FF7044"/>
</linearGradient>
<linearGradient id="paint39_linear_54_6991" x1="31.5467" y1="25.687" x2="31.5467" y2="23.3687" gradientUnits="userSpaceOnUse">
<stop stop-color="white" stop-opacity="0"/>
<stop offset="1" stop-color="white"/>
</linearGradient>
</defs>
</svg>
