<svg width="80" height="80" viewBox="0 0 80 80" fill="none" xmlns="http://www.w3.org/2000/svg">
<path fill-rule="evenodd" clip-rule="evenodd" d="M34.167 25.7797C34.167 24.9764 33.7803 24.2197 33.1303 23.7497C32.477 23.2797 31.6403 23.153 30.877 23.4064L15.877 28.4064C14.857 28.7464 14.167 29.703 14.167 30.7797V54.113C14.167 54.9164 14.5537 55.6697 15.2037 56.1397C15.857 56.6097 16.6937 56.7364 17.457 56.483L32.457 51.483C33.477 51.143 34.167 50.1897 34.167 49.113V25.7797ZM29.167 29.2464V47.3097L19.167 50.643V32.5797L29.167 29.2464Z" fill="#399919"/>
<path fill-rule="evenodd" clip-rule="evenodd" d="M75.8337 24.5665C75.8337 22.2132 74.4237 20.0898 72.257 19.1832C72.2537 19.1798 72.2503 19.1798 72.247 19.1765C50.747 10.2598 29.2503 10.2598 7.75699 19.1865C7.75366 19.1865 7.75033 19.1898 7.75033 19.1898C5.58366 20.0965 4.17366 22.2165 4.17366 24.5632C4.16699 31.3298 4.16699 52.0398 4.16699 61.6165C4.16699 63.5432 5.11699 65.3432 6.70699 66.4298C8.29699 67.5165 10.317 67.7498 12.1137 67.0532C30.6937 59.9598 49.2937 59.8832 67.897 67.0198C69.6703 67.7165 71.6903 67.4865 73.277 66.4032C74.867 65.3198 75.8137 63.5232 75.8137 61.5998C75.8337 52.0198 75.8337 31.3332 75.8337 24.5665ZM70.8337 24.5632C70.8337 31.3265 70.8337 52.0132 70.8137 61.5965C70.8137 61.8665 70.6837 62.1198 70.4603 62.2732C70.237 62.4232 69.9537 62.4565 69.7037 62.3598C69.697 62.3565 69.6937 62.3532 69.687 62.3532C49.8937 54.7598 30.1037 54.8332 10.317 62.3865C10.3103 62.3865 10.307 62.3898 10.3037 62.3898C10.047 62.4898 9.75699 62.4565 9.53033 62.3032C9.30366 62.1465 9.16699 61.8898 9.16699 61.6165C9.16699 52.0398 9.16699 31.3332 9.17366 24.5665C9.17366 24.2332 9.37366 23.9298 9.68033 23.8032C29.8937 15.4098 50.107 15.4098 70.3237 23.7932C70.6337 23.9232 70.8337 24.2265 70.8337 24.5632Z" fill="#399919"/>
<path d="M41.6673 30.7799C43.5083 30.7799 45.0007 29.2876 45.0007 27.4466C45.0007 25.6057 43.5083 24.1133 41.6673 24.1133C39.8264 24.1133 38.334 25.6057 38.334 27.4466C38.334 29.2876 39.8264 30.7799 41.6673 30.7799Z" fill="#399919"/>
<path d="M51.6673 32.4469C53.5083 32.4469 55.0007 30.9546 55.0007 29.1136C55.0007 27.2727 53.5083 25.7803 51.6673 25.7803C49.8264 25.7803 48.334 27.2727 48.334 29.1136C48.334 30.9546 49.8264 32.4469 51.6673 32.4469Z" fill="#399919"/>
<path d="M61.6673 34.113C63.5083 34.113 65.0007 32.6206 65.0007 30.7796C65.0007 28.9387 63.5083 27.4463 61.6673 27.4463C59.8264 27.4463 58.334 28.9387 58.334 30.7796C58.334 32.6206 59.8264 34.113 61.6673 34.113Z" fill="#399919"/>
<path fill-rule="evenodd" clip-rule="evenodd" d="M63.8234 39.9934L47.1568 36.66C45.8034 36.39 44.4868 37.27 44.2168 38.6234C43.9434 39.9767 44.8234 41.2934 46.1768 41.5634L62.8434 44.8967C64.1968 45.1667 65.5134 44.29 65.7834 42.9367C66.0568 41.5834 65.1768 40.2634 63.8234 39.9934Z" fill="#399919"/>
<path fill-rule="evenodd" clip-rule="evenodd" d="M63.7771 48.3196L54.5171 46.6529C53.1605 46.4062 51.8572 47.3096 51.6138 48.6696C51.3705 50.0262 52.2738 51.3296 53.6305 51.5729L62.8905 53.2396C64.2505 53.4829 65.5505 52.5795 65.7938 51.2229C66.0372 49.8629 65.1338 48.5629 63.7771 48.3196Z" fill="#399919"/>
</svg>
