<svg width="80" height="80" viewBox="0 0 80 80" fill="none" xmlns="http://www.w3.org/2000/svg">
<g clip-path="url(#clip0_3089_8117)">
<path d="M4.4202 31.3299C4.70316 31.4449 5.00284 31.5024 5.30253 31.5024C5.61252 31.5024 5.92267 31.4408 6.21392 31.3178L13.2243 28.359C14.4168 27.8557 14.9755 26.4809 14.4721 25.2884C13.9688 24.0959 12.5944 23.537 11.4015 24.0404L9.68652 24.7642C15.0074 12.6525 27.0455 4.6884 40.4404 4.6884C55.7556 4.6884 69.1297 15.0442 72.9638 29.8718C73.2369 30.9281 74.1885 31.6294 75.2313 31.6292C75.4255 31.6292 75.623 31.6049 75.8197 31.5541C77.073 31.23 77.8262 29.9514 77.5022 28.6982C73.133 11.8017 57.8925 0.000976562 40.4404 0.000976562C25.0907 0.000976562 11.3052 9.17943 5.29472 23.1122L4.50348 21.2372C4.00036 20.0447 2.62601 19.486 1.43306 19.9891C0.240419 20.4924 -0.318322 21.8672 0.185108 23.0597L3.1435 30.0699C3.3849 30.6425 3.84427 31.0958 4.4202 31.3299Z" fill="#399919"/>
<path d="M79.8151 56.4661L76.8569 49.4559C76.6152 48.8831 76.156 48.4299 75.58 48.1959C75.0044 47.9618 74.3591 47.9662 73.7863 48.2079L66.7758 51.1668C65.5833 51.6701 65.0246 53.0449 65.528 54.2374C66.0314 55.4298 67.4059 55.9887 68.5986 55.4853L70.5614 54.6569C65.3739 67.0936 53.1671 75.3123 39.5597 75.3123C24.2444 75.3123 10.8704 64.9566 7.03626 50.129C6.71236 48.8757 5.43316 48.1231 4.18053 48.4467C2.92726 48.7707 2.17399 50.0493 2.49805 51.3026C6.8672 68.199 22.1076 79.9999 39.5597 79.9999C54.996 79.9999 68.8501 70.7176 74.806 56.6523L75.4966 58.2887C75.8742 59.1838 76.7428 59.7218 77.6569 59.7218C77.9606 59.7218 78.2695 59.6623 78.567 59.5368C79.7598 59.0332 80.3186 57.6586 79.8151 56.4661Z" fill="#399919"/>
<path d="M65.8592 39.9996C65.8592 36.2579 62.9215 33.1895 59.2315 32.9799C59.0317 32.4322 58.8083 31.8933 58.5623 31.3649C61.0232 28.6073 60.931 24.36 58.2853 21.7144C56.9609 20.3901 55.1953 19.6607 53.3136 19.6607C51.5674 19.6607 49.9212 20.2888 48.6348 21.4375C48.1065 21.1916 47.5678 20.9683 47.0202 20.7685C46.8105 17.0784 43.7421 14.1406 40.0004 14.1406C36.2588 14.1406 33.1904 17.0785 32.9807 20.7685C32.4329 20.9683 31.8943 21.1916 31.3659 21.4375C30.0796 20.2887 28.4333 19.6607 26.6872 19.6607C24.8055 19.6607 23.0397 20.3901 21.7154 21.7144C19.0697 24.3602 18.9775 28.6071 21.4385 31.3649C21.1924 31.8933 20.969 32.4324 20.7693 32.9799C17.0792 33.1895 14.1416 36.2579 14.1416 39.9996C14.1416 43.7413 17.0794 46.8096 20.7693 47.0193C20.9692 47.5671 21.1924 48.1059 21.4384 48.6343C18.9776 51.3918 19.0698 55.6389 21.7154 58.2846C23.0397 59.609 24.8053 60.3383 26.687 60.3383C28.4333 60.3383 30.0795 59.7102 31.3659 58.5615C31.8945 58.8076 32.4332 59.0307 32.9807 59.2307C33.1904 62.9208 36.2588 65.8586 40.0004 65.8586C43.7421 65.8586 46.8105 62.9206 47.0202 59.2307C47.5678 59.0309 48.1065 58.8076 48.635 58.5616C49.9212 59.7105 51.5676 60.3385 53.3136 60.3385C55.1955 60.3385 56.9611 59.6091 58.2854 58.2846C60.9312 55.6389 61.0234 51.3919 58.5623 48.6343C58.8084 48.1059 59.0317 47.567 59.2315 47.0195C62.9216 46.8096 65.8592 43.7413 65.8592 39.9996ZM57.5119 42.3433C56.4503 42.3433 55.5213 43.0569 55.2475 44.0825C54.8916 45.4159 54.3602 46.6978 53.6685 47.8928C53.1365 48.8116 53.2887 49.9737 54.0397 50.7244L54.971 51.6555C55.8849 52.5694 55.8849 54.0563 54.971 54.97C54.5319 55.409 53.9433 55.6508 53.3136 55.6508C52.684 55.6508 52.0954 55.409 51.6565 54.97L50.7251 54.0386C49.9742 53.2878 48.8126 53.1353 47.8936 53.6675C46.6994 54.3589 45.4174 54.8901 44.0832 55.2464C43.0577 55.5203 42.3441 56.4492 42.3441 57.5107V58.8271C42.3441 60.1194 41.2927 61.1708 40.0004 61.1708C38.7081 61.1708 37.6567 60.1194 37.6567 58.8271V57.5107C37.6567 56.4492 36.9433 55.5201 35.9175 55.2464C34.5844 54.8905 33.3024 54.3591 32.1069 53.6674C31.7407 53.4553 31.3357 53.3519 30.9337 53.3519C30.3271 53.3519 29.7271 53.5869 29.2757 54.0384L28.3443 54.9697C27.9053 55.4087 27.3167 55.6504 26.687 55.6504C26.0574 55.6504 25.4688 55.4087 25.0299 54.9697C24.1161 54.0558 24.1161 52.5689 25.0299 51.6552L25.9611 50.724C26.712 49.9732 26.8642 48.8113 26.3322 47.8924C25.6408 46.6982 25.1096 45.4162 24.7533 44.0819C24.4794 43.0563 23.5505 42.3428 22.489 42.3428H21.1727C19.8804 42.3428 18.829 41.2915 18.829 39.9991C18.829 38.7068 19.8804 37.6554 21.1727 37.6554H22.489C23.5505 37.6554 24.4796 36.9418 24.7533 35.9162C25.1092 34.5828 25.6406 33.3008 26.3323 32.106C26.8644 31.1871 26.7122 30.0251 25.9611 29.2743L25.0299 28.3432C24.116 27.4293 24.116 25.9425 25.0299 25.0287C25.4689 24.5897 26.0575 24.348 26.6872 24.348C27.3169 24.348 27.9055 24.5897 28.3443 25.0287L29.2757 25.9601C30.0267 26.7111 31.1882 26.8634 32.1073 26.3312C33.3011 25.6401 34.5832 25.1087 35.9178 24.7523C36.9433 24.4784 37.6567 23.5495 37.6567 22.488V21.1716C37.6567 19.8793 38.7081 18.8279 40.0004 18.8279C41.2927 18.8279 42.3441 19.8793 42.3441 21.1716V22.488C42.3441 23.5494 43.0574 24.4784 44.083 24.7523C45.4172 25.1087 46.6992 25.64 47.8937 26.3314C48.8128 26.8634 49.9742 26.7111 50.7251 25.9603L51.6565 25.0289C52.0955 24.5898 52.684 24.3481 53.3136 24.3481C53.9433 24.3481 54.5319 24.5898 54.971 25.0289C55.8849 25.9428 55.8849 27.4296 54.9711 28.3432L54.0397 29.2745C53.2887 30.0254 53.1365 31.1872 53.6686 32.1063C54.36 33.3005 54.8913 34.5823 55.2475 35.9168C55.5214 36.9423 56.4503 37.6557 57.5119 37.6557H58.8281C60.1204 37.6557 61.1718 38.7071 61.1718 39.9994C61.1718 41.2918 60.1204 42.3432 58.8281 42.3432L57.5119 42.3433Z" fill="#399919"/>
<path d="M39.9999 32.9688C36.1229 32.9688 32.9688 36.1229 32.9688 39.9999C32.9688 43.8769 36.1229 47.031 39.9999 47.031C43.8769 47.031 47.031 43.8769 47.031 39.9999C47.031 36.1229 43.8769 32.9688 39.9999 32.9688ZM39.9999 42.3436C38.7076 42.3436 37.6562 41.2922 37.6562 39.9999C37.6562 38.7076 38.7076 37.6562 39.9999 37.6562C41.2922 37.6562 42.3436 38.7076 42.3436 39.9999C42.3436 41.2922 41.2922 42.3436 39.9999 42.3436Z" fill="#399919"/>
</g>
<defs>
<clipPath id="clip0_3089_8117">
<rect width="80" height="80" fill="white"/>
</clipPath>
</defs>
</svg>
