<svg width="80" height="80" viewBox="0 0 80 80" fill="none" xmlns="http://www.w3.org/2000/svg">
<g clip-path="url(#clip0_3089_8126)">
<path d="M54.2525 47.0646L43.0982 38.6989V21.658C43.0982 19.9446 41.7132 18.5596 39.9998 18.5596C38.2864 18.5596 36.9014 19.9446 36.9014 21.658V40.2483C36.9014 41.2243 37.36 42.1446 38.1407 42.7271L50.5342 52.0222C51.0918 52.4405 51.7426 52.6419 52.3901 52.6419C53.3351 52.6419 54.2646 52.2174 54.872 51.3994C55.9009 50.0329 55.622 48.0902 54.2525 47.0646Z" fill="#399919"/>
<path d="M40 0C17.9427 0 0 17.9427 0 40C0 62.0573 17.9427 80 40 80C62.0573 80 80 62.0573 80 40C80 17.9427 62.0573 0 40 0ZM40 73.8033C21.3633 73.8033 6.19672 58.6367 6.19672 40C6.19672 21.3633 21.3633 6.19672 40 6.19672C58.6398 6.19672 73.8033 21.3633 73.8033 40C73.8033 58.6367 58.6367 73.8033 40 73.8033Z" fill="#399919"/>
</g>
<defs>
<clipPath id="clip0_3089_8126">
<rect width="80" height="80" fill="white"/>
</clipPath>
</defs>
</svg>
