<svg width="32" height="32" viewBox="0 0 32 32" fill="none" xmlns="http://www.w3.org/2000/svg">
<path fill-rule="evenodd" clip-rule="evenodd" d="M6.66668 9.33333C6.66668 8.59696 7.26361 8 8.00001 8H24C24.7364 8 25.3333 8.59696 25.3333 9.33333C25.3333 10.0697 24.7364 10.6667 24 10.6667H8.00001C7.26361 10.6667 6.66668 10.0697 6.66668 9.33333ZM6.66668 16C6.66668 15.2636 7.26361 14.6667 8.00001 14.6667H18.6667C19.4031 14.6667 20 15.2636 20 16C20 16.7364 19.403 17.3333 18.6667 17.3333H8.00001C7.26361 17.3333 6.66668 16.7364 6.66668 16ZM8.00001 21.3333C7.26361 21.3333 6.66668 21.9303 6.66668 22.6667C6.66668 23.4031 7.26361 24 8.00001 24H24C24.7364 24 25.3333 23.4031 25.3333 22.6667C25.3333 21.9303 24.7364 21.3333 24 21.3333H8.00001Z" fill="black"/>
</svg>
