<svg width="40" height="40" viewBox="0 0 40 40" fill="none" xmlns="http://www.w3.org/2000/svg">
<path d="M37.5827 35.6091L36.4377 34.4644C35.8552 33.8817 35.1361 33.4861 34.353 33.3049C34.3594 33.2545 34.3638 33.2036 34.3638 33.1515V10.6061C34.3638 9.93766 33.82 9.39383 33.1516 9.39383H10.6062C9.93781 9.39383 9.39406 9.93766 9.39406 10.6061V28.7676C9.39406 29.0912 9.65641 29.3535 9.98 29.3535C10.3036 29.3535 10.5659 29.0912 10.5659 28.7676V10.6061C10.5659 10.5838 10.584 10.5657 10.6062 10.5657H18.788V17.4949C18.788 17.8185 19.0503 18.0809 19.3739 18.0809H24.384C24.7076 18.0809 24.9699 17.8185 24.9699 17.4949V10.5657H33.1516C33.1739 10.5657 33.192 10.5838 33.192 10.6061V33.1515C33.192 33.1737 33.1739 33.1918 33.1516 33.1918H14.3637C14.0401 33.1918 13.7777 33.4541 13.7777 33.7777C13.7777 34.1013 14.0401 34.3637 14.3637 34.3637H33.3666C34.2136 34.3637 35.0099 34.6937 35.609 35.293L36.7544 36.438C36.8802 36.5637 36.9495 36.7309 36.9495 36.9089C36.9495 37.087 36.8802 37.2545 36.7545 37.3803C36.6284 37.5062 36.4609 37.5756 36.2828 37.5756C36.1049 37.5756 35.9376 37.5063 35.8116 37.3802L34.6661 36.2352C34.3236 35.893 33.8498 35.6969 33.3665 35.6969H12.3986C12.428 35.4787 12.4446 35.2564 12.4446 35.0303C12.4446 32.4884 10.5259 30.3873 8.06078 30.0962V5.22844C8.16008 5.00016 8.21266 4.75187 8.21266 4.49547C8.21266 4.00437 8.02141 3.54273 7.67422 3.19547L5.01719 0.538437C4.67008 0.19125 4.20844 0 3.71734 0C3.22625 0 2.76461 0.19125 2.41734 0.538437C2.07008 0.885625 1.87891 1.34734 1.87891 1.83844C1.87891 2.32953 2.07008 2.79125 2.41734 3.13844L5.0743 5.79539C5.43266 6.15383 5.90352 6.33297 6.3743 6.33297C6.54773 6.33297 6.72109 6.3082 6.88891 6.25961V30.0962C4.42391 30.3872 2.50508 32.4882 2.50508 35.0302C2.50508 37.7705 4.73453 40 7.47484 40C9.56586 40 11.358 38.7013 12.0906 36.8687H33.3666C33.5417 36.8687 33.7136 36.94 33.8378 37.0641L34.983 38.2089C35.3304 38.5562 35.792 38.7474 36.2829 38.7474C36.774 38.7474 37.2357 38.5562 37.5833 38.2087C37.9304 37.8614 38.1215 37.3998 38.1215 36.9087C38.1213 36.4175 37.9299 35.9559 37.5827 35.6091ZM23.798 16.9091H19.9598V10.5658H23.798V16.9091ZM6.84562 4.9668C6.5857 5.22672 6.16281 5.22672 5.90289 4.9668L3.24594 2.30977C2.98602 2.04984 2.98602 1.62695 3.24594 1.36703C3.37188 1.24117 3.5393 1.17188 3.71734 1.17188C3.89539 1.17188 4.06281 1.24117 4.18867 1.36711L6.8457 4.02414C7.10555 4.28406 7.10555 4.70695 6.84562 4.9668ZM7.47484 38.8281C5.3807 38.8281 3.67695 37.1244 3.67695 35.0302C3.67695 32.9361 5.3807 31.2323 7.47484 31.2323C9.56898 31.2323 11.2727 32.9361 11.2727 35.0302C11.2727 37.1244 9.56898 38.8281 7.47484 38.8281Z" fill="#0C67C9"/>
<path d="M7.47445 32.5664C6.11539 32.5664 5.00977 33.672 5.00977 35.0311C5.00977 36.3902 6.11539 37.4958 7.47445 37.4958C8.83352 37.4958 9.93914 36.3902 9.93914 35.0311C9.93914 33.672 8.83352 32.5664 7.47445 32.5664ZM7.47445 36.324C6.76156 36.324 6.18164 35.7441 6.18164 35.0312C6.18164 34.3183 6.76156 33.7384 7.47445 33.7384C8.18734 33.7384 8.76727 34.3183 8.76727 35.0312C8.76727 35.7441 8.18734 36.324 7.47445 36.324Z" fill="#0C67C9"/>
<path d="M19.3738 28.1836H14.3638C14.0402 28.1836 13.7778 28.4459 13.7778 28.7695C13.7778 29.0931 14.0402 29.3555 14.3638 29.3555H19.3738C19.6974 29.3555 19.9598 29.0931 19.9598 28.7695C19.9598 28.4459 19.6974 28.1836 19.3738 28.1836Z" fill="#0C67C9"/>
<path d="M21.8789 25.6758H14.3638C14.0402 25.6758 13.7778 25.9381 13.7778 26.2617C13.7778 26.5853 14.0402 26.8477 14.3638 26.8477H21.8789C22.2025 26.8477 22.4649 26.5853 22.4649 26.2617C22.4649 25.9381 22.2024 25.6758 21.8789 25.6758Z" fill="#0C67C9"/>
</svg>
