<svg width="250" height="55" viewBox="0 0 250 55" fill="none" xmlns="http://www.w3.org/2000/svg">
<path d="M24.964 54.08C19.78 54.08 15.34 52.952 11.644 50.696C7.948 48.416 5.104 45.248 3.112 41.192C1.144 37.136 0.16 32.432 0.16 27.08C0.16 21.728 1.144 17.024 3.112 12.968C5.104 8.912 7.948 5.756 11.644 3.5C15.34 1.22 19.78 0.079999 24.964 0.079999C30.94 0.079999 35.92 1.58 39.904 4.58C43.888 7.556 46.684 11.576 48.292 16.64L39.544 19.052C38.536 15.668 36.82 13.028 34.396 11.132C31.972 9.212 28.828 8.252 24.964 8.252C21.484 8.252 18.58 9.032 16.252 10.592C13.948 12.152 12.208 14.348 11.032 17.18C9.88 19.988 9.292 23.288 9.268 27.08C9.268 30.872 9.844 34.184 10.996 37.016C12.172 39.824 13.924 42.008 16.252 43.568C18.58 45.128 21.484 45.908 24.964 45.908C28.828 45.908 31.972 44.948 34.396 43.028C36.82 41.108 38.536 38.468 39.544 35.108L48.292 37.52C46.684 42.584 43.888 46.616 39.904 49.616C35.92 52.592 30.94 54.08 24.964 54.08ZM50.95 53L67.294 1.16H80.002L96.346 53H87.418L72.586 6.488H74.53L59.878 53H50.95ZM60.058 41.768V33.668H87.274V41.768H60.058ZM102.615 53V1.16H124.035C124.539 1.16 125.187 1.184 125.979 1.232C126.771 1.256 127.503 1.328 128.175 1.448C131.175 1.904 133.647 2.9 135.591 4.436C137.559 5.972 139.011 7.916 139.947 10.268C140.907 12.596 141.387 15.188 141.387 18.044C141.387 22.268 140.319 25.904 138.183 28.952C136.047 31.976 132.771 33.848 128.355 34.568L124.647 34.892H111.291V53H102.615ZM132.387 53L122.163 31.904L130.983 29.96L142.215 53H132.387ZM111.291 26.792H123.675C124.155 26.792 124.695 26.768 125.295 26.72C125.895 26.672 126.447 26.576 126.951 26.432C128.391 26.072 129.519 25.436 130.335 24.524C131.175 23.612 131.763 22.58 132.099 21.428C132.459 20.276 132.639 19.148 132.639 18.044C132.639 16.94 132.459 15.812 132.099 14.66C131.763 13.484 131.175 12.44 130.335 11.528C129.519 10.616 128.391 9.98 126.951 9.62C126.447 9.476 125.895 9.392 125.295 9.368C124.695 9.32 124.155 9.296 123.675 9.296H111.291V26.792ZM171.29 54.08C167.93 54.08 164.774 53.492 161.822 52.316C158.894 51.116 156.314 49.364 154.082 47.06C151.874 44.756 150.146 41.936 148.898 38.6C147.65 35.24 147.026 31.4 147.026 27.08C147.026 21.416 148.082 16.58 150.194 12.572C152.306 8.54 155.198 5.456 158.87 3.32C162.542 1.16 166.682 0.079999 171.29 0.079999C177.674 0.079999 182.726 1.568 186.446 4.544C190.19 7.496 192.722 11.648 194.042 17L185.186 18.404C184.202 15.332 182.594 12.884 180.362 11.06C178.13 9.212 175.286 8.288 171.83 8.288C168.35 8.24 165.458 8.996 163.154 10.556C160.85 12.116 159.11 14.312 157.934 17.144C156.782 19.976 156.206 23.288 156.206 27.08C156.206 30.872 156.782 34.172 157.934 36.98C159.086 39.764 160.814 41.936 163.118 43.496C165.446 45.056 168.35 45.86 171.83 45.908C174.446 45.932 176.738 45.464 178.706 44.504C180.674 43.52 182.282 42.044 183.53 40.076C184.778 38.084 185.618 35.6 186.05 32.624H176.906V25.82H195.266C195.314 26.204 195.35 26.768 195.374 27.512C195.398 28.256 195.41 28.7 195.41 28.844C195.41 33.74 194.438 38.096 192.494 41.912C190.574 45.704 187.814 48.68 184.214 50.84C180.614 53 176.306 54.08 171.29 54.08ZM224.324 54.08C219.14 54.08 214.7 52.952 211.004 50.696C207.308 48.416 204.464 45.248 202.472 41.192C200.504 37.136 199.52 32.432 199.52 27.08C199.52 21.728 200.504 17.024 202.472 12.968C204.464 8.912 207.308 5.756 211.004 3.5C214.7 1.22 219.14 0.079999 224.324 0.079999C229.508 0.079999 233.948 1.22 237.644 3.5C241.364 5.756 244.208 8.912 246.176 12.968C248.168 17.024 249.164 21.728 249.164 27.08C249.164 32.432 248.168 37.136 246.176 41.192C244.208 45.248 241.364 48.416 237.644 50.696C233.948 52.952 229.508 54.08 224.324 54.08ZM224.324 45.908C227.804 45.932 230.696 45.164 233 43.604C235.328 42.044 237.068 39.848 238.22 37.016C239.396 34.184 239.984 30.872 239.984 27.08C239.984 23.288 239.396 20 238.22 17.216C237.068 14.408 235.328 12.224 233 10.664C230.696 9.104 227.804 8.3 224.324 8.252C220.844 8.228 217.952 8.996 215.648 10.556C213.344 12.116 211.604 14.312 210.428 17.144C209.276 19.976 208.7 23.288 208.7 27.08C208.7 30.872 209.276 34.172 210.428 36.98C211.58 39.764 213.308 41.936 215.612 43.496C217.94 45.056 220.844 45.86 224.324 45.908Z" fill="#0C67C9"/>
</svg>
