<svg width="65" height="64" viewBox="0 0 65 64" fill="none" xmlns="http://www.w3.org/2000/svg">
<path d="M14.667 15.333C15.7716 15.333 16.667 14.4376 16.667 13.333C16.667 12.2284 15.7716 11.333 14.667 11.333C13.5624 11.333 12.667 12.2284 12.667 13.333C12.667 14.4376 13.5624 15.333 14.667 15.333Z" fill="#0C67C9"/>
<path d="M21.333 15.333C22.4376 15.333 23.333 14.4376 23.333 13.333C23.333 12.2284 22.4376 11.333 21.333 11.333C20.2284 11.333 19.333 12.2284 19.333 13.333C19.333 14.4376 20.2284 15.333 21.333 15.333Z" fill="#0C67C9"/>
<path d="M28 15.333C29.1046 15.333 30 14.4376 30 13.333C30 12.2284 29.1046 11.333 28 11.333C26.8954 11.333 26 12.2284 26 13.333C26 14.4376 26.8954 15.333 28 15.333Z" fill="#0C67C9"/>
<path fill-rule="evenodd" clip-rule="evenodd" d="M61.3333 34.6663V11.9997C61.3333 7.21301 57.4533 3.33301 52.6667 3.33301C42.4213 3.33301 22.912 3.33301 12.6667 3.33301C7.88 3.33301 4 7.21301 4 11.9997V51.9997C4 56.7863 7.88 60.6663 12.6667 60.6663H32.6667C33.7707 60.6663 34.6667 59.7703 34.6667 58.6663C34.6667 57.5623 33.7707 56.6663 32.6667 56.6663H12.6667C10.088 56.6663 8 54.5783 8 51.9997V11.9997C8 9.42101 10.088 7.33301 12.6667 7.33301H52.6667C55.2453 7.33301 57.3333 9.42101 57.3333 11.9997V34.6663C57.3333 35.7703 58.2293 36.6663 59.3333 36.6663C60.4373 36.6663 61.3333 35.7703 61.3333 34.6663Z" fill="#0C67C9"/>
<path fill-rule="evenodd" clip-rule="evenodd" d="M59.3333 19.333H6C4.896 19.333 4 20.229 4 21.333C4 22.437 4.896 23.333 6 23.333H59.3333C60.4373 23.333 61.3333 22.437 61.3333 21.333C61.3333 20.229 60.4373 19.333 59.3333 19.333Z" fill="#0C67C9"/>
<path fill-rule="evenodd" clip-rule="evenodd" d="M57.8851 57.52L52.2825 49.52C51.6505 48.616 50.4025 48.3946 49.4985 49.0293C48.5945 49.6613 48.3731 50.9093 49.0078 51.8133L54.6078 59.8133C55.2425 60.7173 56.4905 60.9386 57.3945 60.304C58.2985 59.672 58.5198 58.424 57.8851 57.52Z" fill="#0C67C9"/>
<path fill-rule="evenodd" clip-rule="evenodd" d="M59.5118 42.8901C54.9571 40.2607 46.7091 35.5034 42.2585 32.9354C41.0318 32.2287 39.5091 32.2954 38.3491 33.1061C37.1918 33.9167 36.6078 35.3274 36.8531 36.7194C37.7438 41.7807 39.3945 51.1594 40.3065 56.3381C40.5545 57.7594 41.6238 58.9007 43.0265 59.2421C44.4291 59.5861 45.9011 59.0687 46.7811 57.9221L51.4585 51.8261L58.7865 49.5167C60.1651 49.0821 61.1545 47.8741 61.3118 46.4394C61.4691 45.0047 60.7625 43.6101 59.5118 42.8901ZM56.8051 45.9461L49.6531 48.2021C49.2611 48.3247 48.9171 48.5647 48.6691 48.8901L44.1038 54.8421L40.9251 36.7834L56.8051 45.9461Z" fill="#0C67C9"/>
</svg>
