<svg width="64" height="64" viewBox="0 0 64 64" fill="none" xmlns="http://www.w3.org/2000/svg">
<path fill-rule="evenodd" clip-rule="evenodd" d="M50.667 22.6663V10.6663C50.667 8.72234 49.8937 6.85567 48.5203 5.47967C47.1443 4.10634 45.2777 3.33301 43.3337 3.33301C35.6777 3.33301 21.6563 3.33301 14.0003 3.33301C12.0563 3.33301 10.1897 4.10634 8.81366 5.47967C7.44033 6.85567 6.66699 8.72234 6.66699 10.6663V53.333C6.66699 55.277 7.44033 57.1437 8.81366 58.5197C10.1897 59.893 12.0563 60.6663 14.0003 60.6663H26.0003C27.1043 60.6663 28.0003 59.7703 28.0003 58.6663C28.0003 57.5623 27.1043 56.6663 26.0003 56.6663C26.0003 56.6663 19.0937 56.6663 14.0003 56.6663C13.115 56.6663 12.2697 56.3143 11.643 55.6903C11.019 55.0637 10.667 54.2183 10.667 53.333V10.6663C10.667 9.78101 11.019 8.93567 11.643 8.30901C12.2697 7.68501 13.115 7.33301 14.0003 7.33301H43.3337C44.219 7.33301 45.0643 7.68501 45.691 8.30901C46.315 8.93567 46.667 9.78101 46.667 10.6663V22.6663C46.667 23.7703 47.563 24.6663 48.667 24.6663C49.771 24.6663 50.667 23.7703 50.667 22.6663Z" fill="#0C67C9"/>
<path fill-rule="evenodd" clip-rule="evenodd" d="M56.4882 37.7675C57.9682 35.6581 57.4535 32.7461 55.3442 31.2688L50.9735 28.2101C48.8642 26.7328 45.9522 27.2448 44.4749 29.3568C40.8882 34.4768 32.2375 46.8315 32.2375 46.8315C32.0615 47.0848 31.9442 47.3781 31.8989 47.6848L30.5415 56.8448C30.3549 58.0928 30.8909 59.3382 31.9255 60.0635C32.9602 60.7888 34.3149 60.8661 35.4242 60.2635L43.5682 55.8555C43.8402 55.7061 44.0749 55.4981 44.2535 55.2448L56.4882 37.7675ZM34.6935 56.1115L35.7869 48.7381L47.7522 31.6501C47.9629 31.3488 48.3789 31.2741 48.6802 31.4875L53.0482 34.5461C53.3495 34.7568 53.4242 35.1728 53.2135 35.4741L41.2482 52.5621L34.6935 56.1115Z" fill="#0C67C9"/>
<path fill-rule="evenodd" clip-rule="evenodd" d="M52.9395 39.3517L44.2008 33.2344C43.2968 32.5997 42.0488 32.821 41.4168 33.725C40.7848 34.629 41.0035 35.877 41.9075 36.5117L50.6461 42.629C51.5501 43.261 52.7981 43.0424 53.4301 42.1384C54.0648 41.2344 53.8435 39.9864 52.9395 39.3517Z" fill="#0C67C9"/>
<path fill-rule="evenodd" clip-rule="evenodd" d="M16.667 18H40.667C41.771 18 42.667 17.104 42.667 16C42.667 14.896 41.771 14 40.667 14H16.667C15.563 14 14.667 14.896 14.667 16C14.667 17.104 15.563 18 16.667 18Z" fill="#0C67C9"/>
<path fill-rule="evenodd" clip-rule="evenodd" d="M16.667 27.333H24.667C25.771 27.333 26.667 26.437 26.667 25.333C26.667 24.229 25.771 23.333 24.667 23.333H16.667C15.563 23.333 14.667 24.229 14.667 25.333C14.667 26.437 15.563 27.333 16.667 27.333Z" fill="#0C67C9"/>
<path fill-rule="evenodd" clip-rule="evenodd" d="M31.334 27.333H38.0007C39.1047 27.333 40.0007 26.437 40.0007 25.333C40.0007 24.229 39.1047 23.333 38.0007 23.333H31.334C30.23 23.333 29.334 24.229 29.334 25.333C29.334 26.437 30.23 27.333 31.334 27.333Z" fill="#0C67C9"/>
<path fill-rule="evenodd" clip-rule="evenodd" d="M16.667 36.666H30.0003C31.1043 36.666 32.0003 35.77 32.0003 34.666C32.0003 33.562 31.1043 32.666 30.0003 32.666H16.667C15.563 32.666 14.667 33.562 14.667 34.666C14.667 35.77 15.563 36.666 16.667 36.666Z" fill="#0C67C9"/>
</svg>
