<svg width="66" height="64" viewBox="0 0 66 64" fill="none" xmlns="http://www.w3.org/2000/svg">
<path d="M11.8438 34C12.9656 34 13.875 33.1046 13.875 32C13.875 30.8954 12.9656 30 11.8438 30C10.7219 30 9.8125 30.8954 9.8125 32C9.8125 33.1046 10.7219 34 11.8438 34Z" fill="#0C67C9"/>
<path fill-rule="evenodd" clip-rule="evenodd" d="M16.5561 45.1993C17.3469 44.4179 18.6361 44.4179 19.4269 45.1993C20.2205 45.9779 20.2205 47.2473 19.4269 48.0259C18.6361 48.8073 17.3469 48.8073 16.5561 48.0259C15.7626 47.2473 15.7626 45.9779 16.5561 45.1993Z" fill="#0C67C9"/>
<path fill-rule="evenodd" clip-rule="evenodd" d="M49.1105 18.7994C48.3197 19.5807 47.0305 19.5807 46.2397 18.7994C45.4461 18.0207 45.4461 16.7514 46.2397 15.9727C47.0305 15.1914 48.3197 15.1914 49.1105 15.9727C49.9041 16.7514 49.9041 18.0207 49.1105 18.7994Z" fill="#0C67C9"/>
<path fill-rule="evenodd" clip-rule="evenodd" d="M34.8643 11.333C34.8643 12.437 33.9543 13.333 32.833 13.333C31.7118 13.333 30.8018 12.437 30.8018 11.333C30.8018 10.229 31.7118 9.33301 32.833 9.33301C33.9543 9.33301 34.8643 10.229 34.8643 11.333Z" fill="#0C67C9"/>
<path fill-rule="evenodd" clip-rule="evenodd" d="M19.4269 15.9727C20.2205 16.7514 20.2205 18.0207 19.4269 18.7994C18.6361 19.5807 17.3469 19.5807 16.5561 18.7994C15.7626 18.0207 15.7626 16.7514 16.5561 15.9727C17.3469 15.1914 18.6361 15.1914 19.4269 15.9727Z" fill="#0C67C9"/>
<path fill-rule="evenodd" clip-rule="evenodd" d="M47.7295 40.8105C44.3468 40.8105 41.6357 43.4559 41.6357 46.6665C41.6357 49.8772 44.3468 52.5225 47.7295 52.5225C51.1122 52.5225 53.8232 49.8772 53.8232 46.6665C53.8232 43.4559 51.1122 40.8105 47.7295 40.8105ZM47.7295 44.8105C48.8318 44.8105 49.7607 45.6212 49.7607 46.6665C49.7607 47.7119 48.8318 48.5225 47.7295 48.5225C46.6272 48.5225 45.6982 47.7119 45.6982 46.6665C45.6982 45.6212 46.6272 44.8105 47.7295 44.8105Z" fill="#0C67C9"/>
<path fill-rule="evenodd" clip-rule="evenodd" d="M52.1244 33.9993C51.8373 33.1993 51.0682 32.666 50.2096 32.666H45.248C44.3894 32.666 43.6203 33.1993 43.3332 33.9993L42.3744 36.6713C42.0332 36.8367 41.6973 37.0207 41.375 37.2207L38.4013 36.6633C37.5644 36.506 36.7167 36.8794 36.278 37.5994L33.7998 41.6767C33.3394 42.434 33.4369 43.3967 34.0355 44.0473L35.9882 46.1673C35.9719 46.498 35.9719 46.834 35.9882 47.1673C35.9882 47.1647 34.0355 49.2847 34.0355 49.2847C33.4369 49.9354 33.3394 50.898 33.7998 51.6554L36.278 55.7327C36.7167 56.4527 37.5644 56.826 38.4013 56.6687L41.375 56.1113C41.6973 56.3113 42.0305 56.4927 42.3744 56.6607L43.3332 59.3327C43.6203 60.1327 44.3894 60.666 45.248 60.666H50.2096C51.0682 60.666 51.8373 60.1327 52.1244 59.3327L53.0832 56.6607C53.4244 56.4953 53.7603 56.3113 54.0825 56.1113L57.0563 56.6687C57.8932 56.826 58.7409 56.4527 59.1796 55.7327L61.6578 51.6554C62.1182 50.898 62.0207 49.9354 61.4221 49.2847L59.4694 47.1647C59.4857 46.834 59.4857 46.498 59.4694 46.1647C59.4694 46.1674 61.4221 44.0473 61.4221 44.0473C62.0207 43.3967 62.1182 42.434 61.6578 41.6767L59.1796 37.5994C58.7409 36.8794 57.8932 36.506 57.0563 36.6633L54.0825 37.2207C53.7603 37.0207 53.4271 36.8393 53.0832 36.6713L52.1244 33.9993ZM48.7742 36.666L49.5434 38.8127C49.7384 39.354 50.1609 39.786 50.7025 40.002C51.32 40.2447 51.9023 40.562 52.4332 40.9487C52.8882 41.2793 53.4623 41.4074 54.0175 41.3034L56.4225 40.8527L57.4002 42.4607L55.8646 44.1274C55.4611 44.5647 55.2742 45.154 55.3555 45.7407C55.4394 46.354 55.4394 46.978 55.3555 47.5913C55.2742 48.178 55.4611 48.7673 55.8646 49.2047L57.4002 50.8713L56.4225 52.4794L54.0175 52.0287C53.4623 51.9247 52.8882 52.0527 52.4332 52.3833C51.9023 52.77 51.32 53.0874 50.7025 53.33C50.1609 53.546 49.7384 53.978 49.5434 54.5193L48.7742 56.666H46.6834L45.9142 54.5193C45.7192 53.978 45.2967 53.546 44.755 53.33C44.1375 53.0874 43.5553 52.77 43.0244 52.3833C42.5694 52.0527 41.9953 51.9247 41.44 52.0287L39.035 52.4794L38.0573 50.8713L39.593 49.2047C39.9965 48.7673 40.1834 48.178 40.1021 47.5913C40.0182 46.978 40.0182 46.354 40.1021 45.7407C40.1834 45.154 39.9965 44.5647 39.593 44.1274L38.0573 42.4607L39.035 40.8527L41.44 41.3034C41.9953 41.4074 42.5694 41.2793 43.0244 40.9487C43.5553 40.562 44.1375 40.2447 44.755 40.002C45.2967 39.786 45.7192 39.354 45.9142 38.8127L46.6834 36.666H48.7742Z" fill="#0C67C9"/>
<path fill-rule="evenodd" clip-rule="evenodd" d="M30.3254 56.5437C17.6748 55.3063 7.78125 44.781 7.78125 31.9997C7.78125 18.3863 19.0073 7.33301 32.8333 7.33301C45.8144 7.33301 56.5042 17.0743 57.7608 29.5303C57.8719 30.629 58.8685 31.4317 59.9844 31.3223C61.1002 31.213 61.9154 30.2343 61.8044 29.1357C60.3419 14.6557 47.9215 3.33301 32.8333 3.33301C16.7648 3.33301 3.71875 16.1783 3.71875 31.9997C3.71875 46.8557 15.2183 59.085 29.9246 60.525C31.0404 60.6343 32.0344 59.8317 32.1454 58.733C32.2565 57.6343 31.4413 56.653 30.3254 56.5437Z" fill="#0C67C9"/>
<path fill-rule="evenodd" clip-rule="evenodd" d="M32.1566 19.9326V31.266H23.3545C22.2332 31.266 21.3232 32.162 21.3232 33.266C21.3232 34.37 22.2332 35.266 23.3545 35.266H34.1878C35.3091 35.266 36.2191 34.37 36.2191 33.266V19.9326C36.2191 18.8286 35.3091 17.9326 34.1878 17.9326C33.0666 17.9326 32.1566 18.8286 32.1566 19.9326Z" fill="#0C67C9"/>
</svg>
