<svg width="64" height="64" viewBox="0 0 64 64" fill="none" xmlns="http://www.w3.org/2000/svg">
<path fill-rule="evenodd" clip-rule="evenodd" d="M47.9993 8.66602H42.666C41.074 8.66602 39.5487 9.29802 38.4234 10.4233C37.298 11.5487 36.666 13.074 36.666 14.666V51.9994C36.666 53.5914 37.298 55.1167 38.4234 56.242C39.5487 57.3673 41.074 57.9994 42.666 57.9994H47.9993C49.1033 57.9994 49.9993 57.1034 49.9993 55.9994C49.9993 54.8954 49.1033 53.9994 47.9993 53.9994H42.666C42.1353 53.9994 41.626 53.7887 41.2527 53.4127C40.8767 53.0394 40.666 52.53 40.666 51.9994V14.666C40.666 14.1353 40.8767 13.626 41.2527 13.2527C41.626 12.8767 42.1353 12.666 42.666 12.666H47.9993C49.1033 12.666 49.9993 11.77 49.9993 10.666C49.9993 9.56202 49.1033 8.66602 47.9993 8.66602Z" fill="#0C67C9"/>
<path fill-rule="evenodd" clip-rule="evenodd" d="M48 30H32C30.896 30 30 30.896 30 32C30 33.104 30.896 34 32 34H48C49.104 34 50 33.104 50 32C50 30.896 49.104 30 48 30Z" fill="#0C67C9"/>
<path fill-rule="evenodd" clip-rule="evenodd" d="M15.1113 6.66602C9.59133 6.66602 5.11133 11.146 5.11133 16.666C5.11133 22.186 9.59133 26.666 15.1113 26.666C20.6287 26.666 25.1113 22.186 25.1113 16.666C25.1113 11.146 20.6287 6.66602 15.1113 6.66602ZM15.1113 10.666C18.4207 10.666 21.1113 13.354 21.1113 16.666C21.1113 19.978 18.4207 22.666 15.1113 22.666C11.7993 22.666 9.11133 19.978 9.11133 16.666C9.11133 13.354 11.7993 10.666 15.1113 10.666Z" fill="#0C67C9"/>
<path fill-rule="evenodd" clip-rule="evenodd" d="M26.8877 32.2207C26.8877 30.7487 26.3037 29.3353 25.261 28.2927C24.2183 27.2527 22.8077 26.666 21.333 26.666H8.88767C7.41567 26.666 6.00234 27.2527 4.95967 28.2927C3.91701 29.3353 3.33301 30.7487 3.33301 32.2207V37.554C3.33301 38.466 3.55701 39.3647 3.98634 40.17L6.85567 45.5487C6.93301 45.6953 6.98634 45.8527 7.01567 46.0154L8.18367 52.73C8.64501 55.3913 10.957 57.3327 13.6557 57.3327H16.565C19.2663 57.3327 21.5757 55.3913 22.037 52.73L23.1917 46.0953C23.2237 45.9087 23.2903 45.7327 23.3863 45.57L26.1117 40.9673C26.621 40.1113 26.8877 39.1327 26.8877 38.1353V32.2207ZM22.8877 32.2207V38.1353C22.8877 38.4153 22.813 38.69 22.6717 38.93L19.9437 43.53C19.6023 44.1087 19.365 44.746 19.2503 45.41L18.0983 52.0447C17.9677 52.7887 17.3197 53.3327 16.565 53.3327H13.6557C12.901 53.3327 12.253 52.7887 12.125 52.0447L10.957 45.33C10.8557 44.7487 10.6637 44.186 10.3863 43.666L7.51701 38.2873C7.39701 38.0607 7.33301 37.81 7.33301 37.554V32.2207C7.33301 31.81 7.49567 31.4127 7.78901 31.122C8.07967 30.8287 8.47701 30.666 8.88767 30.666H21.333C21.7463 30.666 22.141 30.8287 22.4317 31.122C22.725 31.4127 22.8877 31.81 22.8877 32.2207Z" fill="#0C67C9"/>
<path fill-rule="evenodd" clip-rule="evenodd" d="M56 39.3327C58.5813 39.3327 60.6667 37.242 60.6667 34.666V29.3327C60.6667 26.7567 58.5813 24.666 56 24.666H50.6667C48.0853 24.666 46 26.7567 46 29.3327V34.666C46 37.242 48.0853 39.3327 50.6667 39.3327H56ZM56 35.3327H50.6667C50.2987 35.3327 50 35.034 50 34.666V29.3327C50 28.9647 50.2987 28.666 50.6667 28.666H56C56.368 28.666 56.6667 28.9647 56.6667 29.3327V34.666C56.6667 35.034 56.368 35.3327 56 35.3327Z" fill="#0C67C9"/>
<path fill-rule="evenodd" clip-rule="evenodd" d="M56 63.3327C58.5813 63.3327 60.6667 61.242 60.6667 58.666V53.3327C60.6667 50.7567 58.5813 48.666 56 48.666H50.6667C48.0853 48.666 46 50.7567 46 53.3327V58.666C46 61.242 48.0853 63.3327 50.6667 63.3327H56ZM56 59.3327H50.6667C50.2987 59.3327 50 59.034 50 58.666V53.3327C50 52.9647 50.2987 52.666 50.6667 52.666H56C56.368 52.666 56.6667 52.9647 56.6667 53.3327V58.666C56.6667 59.034 56.368 59.3327 56 59.3327Z" fill="#0C67C9"/>
<path fill-rule="evenodd" clip-rule="evenodd" d="M56 17.9997C58.5813 17.9997 60.6667 15.909 60.6667 13.333V7.99967C60.6667 5.42367 58.5813 3.33301 56 3.33301H50.6667C48.0853 3.33301 46 5.42367 46 7.99967V13.333C46 15.909 48.0853 17.9997 50.6667 17.9997H56ZM56 13.9997H50.6667C50.2987 13.9997 50 13.701 50 13.333V7.99967C50 7.63167 50.2987 7.33301 50.6667 7.33301H56C56.368 7.33301 56.6667 7.63167 56.6667 7.99967V13.333C56.6667 13.701 56.368 13.9997 56 13.9997Z" fill="#0C67C9"/>
</svg>
