<svg width="80" height="80" viewBox="0 0 80 80" fill="none" xmlns="http://www.w3.org/2000/svg">
<g clip-path="url(#clip0_980_30214)">
<path d="M70.304 60.3192H69.4672V24.0784C69.4672 21.4532 67.3315 19.317 64.7058 19.317H28.5889V10.556C28.5889 4.73572 23.8641 0 18.0573 0H9.69604C5.72815 0 2.5 3.23486 2.5 7.21069C2.5 11.1865 5.72815 14.4214 9.69604 14.4214H14.1962V55.7037C10.7654 58.1232 8.5199 62.1228 8.5199 66.6382C8.5199 74.0057 14.4989 80 21.8481 80C26.1609 80 30.0018 77.9358 32.4396 74.7406H70.3033C74.2719 74.7406 77.5 71.5057 77.5 67.5299C77.5 63.5535 74.2719 60.3192 70.304 60.3192ZM64.7058 24.0045C64.7467 24.0045 64.7803 24.0375 64.7803 24.0784V60.3186H33.5895C32.4286 58.1604 30.6927 56.3562 28.5889 55.1147V24.0045H64.7058ZM16.1023 9.73389H9.69604C8.31299 9.73389 7.1875 8.60229 7.1875 7.21069C7.1875 5.8197 8.31299 4.6875 9.69604 4.6875H18.0573C21.2799 4.6875 23.9014 7.32056 23.9014 10.556V53.4351C23.2318 53.3313 22.5464 53.277 21.8481 53.277C20.8295 53.277 19.8376 53.3923 18.8837 53.6102V12.5171C18.8837 10.9827 17.6361 9.73389 16.1023 9.73389ZM21.8481 75.3125C17.0837 75.3125 13.2074 71.4215 13.2074 66.6382C13.2074 61.8555 17.0837 57.9645 21.8481 57.9645C26.6125 57.9645 30.4889 61.8555 30.4889 66.6382C30.4889 71.4215 26.6125 75.3125 21.8481 75.3125ZM70.304 70.0531H34.7351C35.0232 68.963 35.1764 67.818 35.1764 66.6382C35.1764 66.0858 35.1428 65.5414 35.0775 65.0067H70.304C71.687 65.0067 72.8125 66.1383 72.8125 67.5299C72.8125 68.9209 71.687 70.0531 70.304 70.0531Z" fill="#0C67C9"/>
<path d="M21.8477 62.9648C20.5531 62.9648 19.5039 64.014 19.5039 65.3086V67.9691C19.5039 69.2637 20.5531 70.3129 21.8477 70.3129C23.1422 70.3129 24.1914 69.2637 24.1914 67.9691V65.3086C24.1914 64.014 23.1422 62.9648 21.8477 62.9648Z" fill="#0C67C9"/>
<path d="M40.6953 49.7917C41.2257 50.3221 41.9227 50.587 42.6191 50.587C43.3156 50.587 44.0126 50.3221 44.543 49.7917L57.4397 36.8944C58.3552 35.9795 58.3552 34.4951 57.4397 33.5802C56.5248 32.6647 55.041 32.6647 54.1255 33.5802L42.6191 45.0865L39.2421 41.7095C38.3271 40.7939 36.8428 40.7939 35.9279 41.7095C35.0123 42.625 35.0123 44.1088 35.9279 45.0237L40.6953 49.7917Z" fill="#0C67C9"/>
</g>
<defs>
<clipPath id="clip0_980_30214">
<rect width="80" height="80" fill="white"/>
</clipPath>
</defs>
</svg>
