<svg width="65" height="64" viewBox="0 0 65 64" fill="none" xmlns="http://www.w3.org/2000/svg">
<path fill-rule="evenodd" clip-rule="evenodd" d="M42.6663 31.9997V17.333C42.6663 15.741 42.0343 14.2157 40.909 13.0903C39.7837 11.965 38.2583 11.333 36.6663 11.333H13.9997C11.421 11.333 9.33301 13.4237 9.33301 15.9997V22.6663C9.33301 23.7703 10.229 24.6663 11.333 24.6663C12.437 24.6663 13.333 23.7703 13.333 22.6663V15.9997C13.333 15.6317 13.6317 15.333 13.9997 15.333H36.6663C37.197 15.333 37.7063 15.5437 38.0797 15.9197C38.4557 16.293 38.6663 16.8023 38.6663 17.333V31.9997C38.6663 33.1037 39.5623 33.9997 40.6663 33.9997C41.7703 33.9997 42.6663 33.1037 42.6663 31.9997Z" fill="#0C67C9"/>
<path fill-rule="evenodd" clip-rule="evenodd" d="M55.9997 31.9997V7.99967C55.9997 5.42101 53.9117 3.33301 51.333 3.33301H29.9997C27.421 3.33301 25.333 5.42101 25.333 7.99967V13.333C25.333 14.437 26.229 15.333 27.333 15.333C28.437 15.333 29.333 14.437 29.333 13.333V7.99967C29.333 7.63167 29.6317 7.33301 29.9997 7.33301H51.333C51.701 7.33301 51.9997 7.63167 51.9997 7.99967V31.9997C51.9997 33.1037 52.8957 33.9997 53.9997 33.9997C55.1037 33.9997 55.9997 33.1037 55.9997 31.9997Z" fill="#0C67C9"/>
<path fill-rule="evenodd" clip-rule="evenodd" d="M16.667 43.333H24.667C25.771 43.333 26.667 42.437 26.667 41.333C26.667 40.229 25.771 39.333 24.667 39.333H16.667C15.563 39.333 14.667 40.229 14.667 41.333C14.667 42.437 15.563 43.333 16.667 43.333Z" fill="#0C67C9"/>
<path fill-rule="evenodd" clip-rule="evenodd" d="M16.667 50H24.667C25.771 50 26.667 49.104 26.667 48C26.667 46.896 25.771 46 24.667 46H16.667C15.563 46 14.667 46.896 14.667 48C14.667 49.104 15.563 50 16.667 50Z" fill="#0C67C9"/>
<path fill-rule="evenodd" clip-rule="evenodd" d="M54 60.666C58.048 60.666 61.3333 57.3807 61.3333 53.3327V37.3327C61.3333 33.2847 58.048 29.9993 54 29.9993H40.744C39.6693 29.9993 38.6587 29.4794 38.032 28.6047L34.5573 23.738C33.1787 21.81 30.9573 20.666 28.5893 20.666C23.1093 20.666 11.3333 20.666 11.3333 20.666C7.28533 20.666 4 23.9513 4 27.9993V53.3327C4 57.3807 7.28533 60.666 11.3333 60.666H54ZM54 56.666H11.3333C9.49333 56.666 8 55.1727 8 53.3327V27.9993C8 26.1593 9.49333 24.666 11.3333 24.666H28.5893C29.664 24.666 30.6747 25.186 31.3013 26.0607L34.776 30.9273C36.1547 32.8553 38.376 33.9993 40.744 33.9993H54C55.84 33.9993 57.3333 35.4927 57.3333 37.3327V53.3327C57.3333 55.1727 55.84 56.666 54 56.666Z" fill="#0C67C9"/>
</svg>
