<svg width="65" height="64" viewBox="0 0 65 64" fill="none" xmlns="http://www.w3.org/2000/svg">
<path fill-rule="evenodd" clip-rule="evenodd" d="M20.999 15.9997V10.6663C20.999 9.78101 21.351 8.93567 21.975 8.30901C22.6017 7.68501 23.447 7.33301 24.3324 7.33301H43.3004C43.4684 7.33301 43.6284 7.39434 43.751 7.50634L56.7804 19.3517C56.919 19.4797 56.999 19.6583 56.999 19.845V53.333C56.999 54.2183 56.647 55.0637 56.023 55.6903C55.3964 56.3143 54.551 56.6663 53.6657 56.6663H24.3324C22.4924 56.6663 20.999 55.173 20.999 53.333V42.6663C20.999 41.5623 20.103 40.6663 18.999 40.6663C17.895 40.6663 16.999 41.5623 16.999 42.6663V53.333C16.999 57.3837 20.2817 60.6663 24.3324 60.6663H53.6657C55.6097 60.6663 57.4764 59.893 58.8524 58.5197C60.2257 57.1437 60.999 55.277 60.999 53.333V19.845C60.999 18.5303 60.4444 17.277 59.471 16.3917C56.8284 13.989 48.9324 6.81301 46.4417 4.54634C45.5804 3.76501 44.463 3.33301 43.3004 3.33301C40.1484 3.33301 30.4817 3.33301 24.3324 3.33301C22.3884 3.33301 20.5217 4.10634 19.1457 5.47967C17.7724 6.85567 16.999 8.72234 16.999 10.6663V15.9997C16.999 17.1037 17.895 17.9997 18.999 17.9997C20.103 17.9997 20.999 17.1037 20.999 15.9997Z" fill="#0C67C9"/>
<path fill-rule="evenodd" clip-rule="evenodd" d="M46.333 16.6663V5.33301C46.333 4.22901 45.437 3.33301 44.333 3.33301C43.229 3.33301 42.333 4.22901 42.333 5.33301V17.333C42.333 18.2157 42.685 19.0637 43.309 19.6903C43.9357 20.3143 44.7837 20.6663 45.6663 20.6663H57.6663C58.7703 20.6663 59.6663 19.7703 59.6663 18.6663C59.6663 17.5623 58.7703 16.6663 57.6663 16.6663H46.333Z" fill="#0C67C9"/>
<path fill-rule="evenodd" clip-rule="evenodd" d="M21.666 27.3333C21.49 27.3333 21.3193 27.264 21.194 27.1387C21.0687 27.0133 20.9993 26.8427 20.9993 26.6667V16C20.9993 14.896 20.1033 14 18.9993 14C10.53 14 3.66602 20.8667 3.66602 29.3333C3.66602 37.8 10.53 44.6667 18.9993 44.6667C27.4687 44.6667 34.3327 37.8 34.3327 29.3333C34.3327 28.2293 33.4367 27.3333 32.3327 27.3333H21.666ZM21.666 31.3333H30.1567C29.2127 36.6373 24.578 40.6667 18.9993 40.6667C12.738 40.6667 7.66602 35.592 7.66602 29.3333C7.66602 23.7573 11.6927 19.12 16.9993 18.176V26.6667C16.9993 27.904 17.49 29.0907 18.3673 29.9653C19.242 30.8427 20.4287 31.3333 21.666 31.3333Z" fill="#0C67C9"/>
<path fill-rule="evenodd" clip-rule="evenodd" d="M18.999 14C17.895 14 16.999 14.896 16.999 16V26.6667C16.999 27.904 17.4897 29.0907 18.367 29.9653C19.2417 30.8427 20.4284 31.3333 21.6657 31.3333H32.3324C33.4364 31.3333 34.3324 30.4373 34.3324 29.3333C34.3324 20.8667 27.4684 14 18.999 14ZM20.999 18.176C25.655 19.0053 29.327 22.6773 30.1564 27.3333H21.6657C21.4897 27.3333 21.319 27.264 21.1937 27.1387C21.0684 27.0133 20.999 26.8427 20.999 26.6667V18.176Z" fill="#0C67C9"/>
<path fill-rule="evenodd" clip-rule="evenodd" d="M54.3327 35.9993C54.3327 34.1593 52.8393 32.666 50.9993 32.666H46.9993C45.1593 32.666 43.666 34.1593 43.666 35.9993V49.3327C43.666 51.1727 45.1593 52.666 46.9993 52.666H50.9993C52.8393 52.666 54.3327 51.1727 54.3327 49.3327V35.9993ZM47.666 48.666H50.3327V36.666H47.666V48.666Z" fill="#0C67C9"/>
<path fill-rule="evenodd" clip-rule="evenodd" d="M42.3327 43.9993C42.3327 42.1593 40.8393 40.666 38.9993 40.666H34.9993C33.1593 40.666 31.666 42.1593 31.666 43.9993V49.3327C31.666 51.1727 33.1593 52.666 34.9993 52.666H38.9993C40.8393 52.666 42.3327 51.1727 42.3327 49.3327V43.9993ZM35.666 48.666H38.3327V44.666H35.666V48.666Z" fill="#0C67C9"/>
</svg>
