<svg width="40" height="40" viewBox="0 0 40 40" fill="none" xmlns="http://www.w3.org/2000/svg">
<g clip-path="url(#clip0_660_2563)">
<path d="M2.29485 22.9508H19.108C19.1752 22.9481 19.2416 22.9348 19.3047 22.9115C19.9276 24.1002 20.6611 25.2276 21.4955 26.2787L20.1185 27.6557C19.6431 27.4863 19.1128 27.6046 18.7545 27.96L12.1316 34.583C11.1076 35.6072 11.1076 37.2675 12.1316 38.2918L12.5296 38.6898C13.5539 39.7138 15.2142 39.7138 16.2385 38.6898L22.8614 32.0669C23.217 31.7088 23.3356 31.1784 23.1663 30.7029L24.5434 29.3259C26.5619 30.9115 28.8382 32.1382 31.2726 32.9521C31.8154 33.1318 32.4077 33.0845 32.9152 32.821C33.4292 32.5594 33.8162 32.1018 33.9886 31.5515L39.5755 13.9548C39.8138 13.1868 39.6066 12.3501 39.0376 11.7821C38.4686 11.214 37.6315 11.0083 36.864 11.2479L29.1145 13.7049C28.59 8.20079 24.697 3.60375 19.3545 2.17967V1.96721C19.3545 0.880751 18.4738 0 17.3873 0H14.7604C13.674 0 12.7932 0.880751 12.7932 1.96721V2.17705C6.95255 3.72962 2.90333 9.03866 2.95059 15.082V15.7377H2.29485C1.20839 15.7377 0.327637 16.6185 0.327637 17.7049V20.9836C0.327637 22.0701 1.20839 22.9508 2.29485 22.9508ZM15.3067 37.7652C14.7879 38.2609 13.971 38.2609 13.4522 37.7652L13.0542 37.3672C12.5422 36.8551 12.5422 36.0249 13.0542 35.5128L19.6771 28.8898L21.9289 31.1416L15.3067 37.7652ZM22.3283 29.6839L21.1355 28.4911L27.1637 22.4636C27.4198 22.2076 27.8349 22.2076 28.0909 22.4636L28.3532 22.7259C28.6092 22.982 28.6092 23.397 28.3532 23.6531L22.3283 29.6839ZM37.2548 12.4997C37.5559 12.4072 37.8834 12.4883 38.1066 12.7105C38.3298 12.9327 38.4122 13.2599 38.3211 13.5613L32.7355 31.1561C32.6689 31.3693 32.52 31.5472 32.3219 31.6503C32.1237 31.7534 31.8926 31.7733 31.6798 31.7056C29.4401 30.9572 27.3422 29.8376 25.4739 28.3934L29.283 24.5843C30.051 23.8161 30.051 22.5708 29.283 21.8026L29.0208 21.5403C28.2526 20.7724 27.0073 20.7724 26.2391 21.5403L22.426 25.3456C20.9814 23.4773 19.8613 21.3794 19.1126 19.1397C19.0447 18.9265 19.0646 18.6951 19.168 18.4968C19.2715 18.2985 19.4498 18.1496 19.6634 18.0833L37.2548 12.4997ZM4.26206 15.0623C4.25143 11.3582 5.94393 7.85468 8.85223 5.56066V10.518C8.85223 10.8802 9.14581 11.1738 9.50796 11.1738C9.87012 11.1738 10.1637 10.8802 10.1637 10.518V4.6741C10.9888 4.18463 11.8722 3.80106 12.7932 3.53246V6.45574C12.7932 6.81789 13.0868 7.11148 13.4489 7.11148C13.8111 7.11148 14.1047 6.81789 14.1047 6.45574V1.96721C14.1047 1.60506 14.3983 1.31148 14.7604 1.31148H17.3873C17.7495 1.31148 18.043 1.60506 18.043 1.96721V6.45574C18.043 6.81789 18.3366 7.11148 18.6988 7.11148C19.0609 7.11148 19.3545 6.81789 19.3545 6.45574V3.53574C20.2696 3.80427 21.1473 4.18671 21.967 4.6741V10.518C21.967 10.8802 22.2606 11.1738 22.6227 11.1738C22.9849 11.1738 23.2785 10.8802 23.2785 10.518V5.56131C25.925 7.65061 27.5758 10.7526 27.8306 14.1148L22.7185 15.7377H4.26201L4.26206 15.0623ZM1.63911 17.7049C1.63911 17.3428 1.9327 17.0492 2.29485 17.0492H18.805C17.9454 17.5601 17.5558 18.5995 17.868 19.5495C18.1042 20.2595 18.3765 20.957 18.6837 21.6393H2.29485C1.9327 21.6393 1.63911 21.3458 1.63911 20.9836V17.7049Z" fill="#0C67C9"/>
</g>
<defs>
<clipPath id="clip0_660_2563">
<rect width="40" height="40" fill="white"/>
</clipPath>
</defs>
</svg>
