<svg width="65" height="64" viewBox="0 0 65 64" fill="none" xmlns="http://www.w3.org/2000/svg">
<path fill-rule="evenodd" clip-rule="evenodd" d="M45.523 45.333C44.419 45.333 43.523 44.437 43.523 43.333C43.523 42.229 44.419 41.333 45.523 41.333H58.0003C60.5763 41.333 62.667 43.421 62.667 45.9997V51.333C62.667 53.9117 60.5763 55.9997 58.0003 55.9997H26.667C25.563 55.9997 24.667 55.1037 24.667 53.9997C24.667 52.8957 25.563 51.9997 26.667 51.9997H58.0003C58.3683 51.9997 58.667 51.701 58.667 51.333V45.9997C58.667 45.6317 58.3683 45.333 58.0003 45.333H45.523Z" fill="#399919"/>
<path fill-rule="evenodd" clip-rule="evenodd" d="M43.8113 42.3017C45.526 39.4537 46.5526 36.1443 46.6593 32.6083C46.6913 31.5257 47.5766 30.667 48.6566 30.667H58.0006C60.5766 30.667 62.6673 32.755 62.6673 35.3337V40.667C62.6673 43.2457 60.5766 45.3337 58.0006 45.3337H45.5233C44.8033 45.3337 44.1366 44.9443 43.782 44.3177C43.4273 43.6883 43.438 42.9177 43.8113 42.3017ZM48.782 41.3337H58.0006C58.3686 41.3337 58.6673 41.035 58.6673 40.667V35.3337C58.6673 34.9657 58.3686 34.667 58.0006 34.667H50.5206C50.262 37.0057 49.6646 39.2457 48.782 41.3337Z" fill="#399919"/>
<path fill-rule="evenodd" clip-rule="evenodd" d="M46.6593 32.608C46.6646 32.4053 46.6673 32.2027 46.6673 32C46.6673 28.728 45.8806 25.6373 44.486 22.912C44.1686 22.2907 44.1953 21.5493 44.558 20.9573C44.9233 20.3627 45.5686 20 46.2646 20H58.0006C60.5766 20 62.6673 22.088 62.6673 24.6667V30C62.6673 32.5787 60.5766 34.6667 58.0006 34.6667H48.6566C48.1153 34.6667 47.598 34.448 47.222 34.0587C46.846 33.672 46.6433 33.1467 46.6593 32.608ZM50.63 30.6667H58.0006C58.3686 30.6667 58.6673 30.368 58.6673 30V24.6667C58.6673 24.2987 58.3686 24 58.0006 24H49.2993C50.0433 26.104 50.502 28.3413 50.63 30.6667Z" fill="#399919"/>
<path fill-rule="evenodd" clip-rule="evenodd" d="M26.667 8C39.9123 8 50.667 18.7547 50.667 32C50.667 45.2453 39.9123 56 26.667 56C13.4217 56 2.66699 45.2453 2.66699 32C2.66699 18.7547 13.4217 8 26.667 8ZM26.667 12C15.6297 12 6.66699 20.9627 6.66699 32C6.66699 43.0373 15.6297 52 26.667 52C37.7043 52 46.667 43.0373 46.667 32C46.667 20.9627 37.7043 12 26.667 12Z" fill="#399919"/>
<path fill-rule="evenodd" clip-rule="evenodd" d="M30.0003 22C31.1043 22 32.0003 22.896 32.0003 24C32.0003 25.104 31.1043 26 30.0003 26H24.667C24.1363 26 23.627 26.2107 23.2537 26.5867C22.8777 26.96 22.667 27.4693 22.667 28C22.667 28.5307 22.8777 29.04 23.2537 29.4133C23.627 29.7893 24.1363 30 24.667 30H27.3337C28.9257 30 30.451 30.632 31.5763 31.7573C32.7017 32.8827 33.3337 34.408 33.3337 36C33.3337 37.592 32.7017 39.1173 31.5763 40.2427C30.451 41.368 28.9257 42 27.3337 42H22.0003C20.8963 42 20.0003 41.104 20.0003 40C20.0003 38.896 20.8963 38 22.0003 38H27.3337C27.8643 38 28.3737 37.7893 28.747 37.4133C29.123 37.04 29.3337 36.5307 29.3337 36C29.3337 35.4693 29.123 34.96 28.747 34.5867C28.3737 34.2107 27.8643 34 27.3337 34H24.667C23.075 34 21.5497 33.368 20.4243 32.2427C19.299 31.1173 18.667 29.592 18.667 28C18.667 26.408 19.299 24.8827 20.4243 23.7573C21.5497 22.632 23.075 22 24.667 22H30.0003Z" fill="#399919"/>
<path fill-rule="evenodd" clip-rule="evenodd" d="M28 24C28 25.104 27.104 26 26 26C24.896 26 24 25.104 24 24V20C24 18.896 24.896 18 26 18C27.104 18 28 18.896 28 20V24Z" fill="#399919"/>
<path fill-rule="evenodd" clip-rule="evenodd" d="M28 44C28 45.104 27.104 46 26 46C24.896 46 24 45.104 24 44V40C24 38.896 24.896 38 26 38C27.104 38 28 38.896 28 40V44Z" fill="#399919"/>
</svg>
