<svg width="64" height="64" viewBox="0 0 64 64" fill="none" xmlns="http://www.w3.org/2000/svg">
<path fill-rule="evenodd" clip-rule="evenodd" d="M43.3327 14.666V26.666C43.3327 27.77 42.4367 28.666 41.3327 28.666H22.666C21.562 28.666 20.666 27.77 20.666 26.666V14.666C20.666 13.562 21.562 12.666 22.666 12.666H41.3327C42.4367 12.666 43.3327 13.562 43.3327 14.666ZM39.3327 16.666H24.666V24.666H39.3327V16.666Z" fill="#399919"/>
<path fill-rule="evenodd" clip-rule="evenodd" d="M52.6663 45.333C52.6663 46.437 51.7703 47.333 50.6663 47.333C49.5623 47.333 48.6663 46.437 48.6663 45.333V7.33301H18.6663C16.8263 7.33301 15.333 8.82634 15.333 10.6663V51.9997C15.333 53.1037 14.437 53.9997 13.333 53.9997C12.229 53.9997 11.333 53.1037 11.333 51.9997V10.6663C11.333 6.61567 14.6157 3.33301 18.6663 3.33301H50.6663C51.7703 3.33301 52.6663 4.22901 52.6663 5.33301V45.333Z" fill="#399919"/>
<path fill-rule="evenodd" clip-rule="evenodd" d="M50.6663 43.333C51.7703 43.333 52.6663 44.229 52.6663 45.333C52.6663 46.437 51.7703 47.333 50.6663 47.333H19.9997C18.7623 47.333 17.5757 47.8237 16.701 48.701C15.8237 49.5757 15.333 50.7623 15.333 51.9997C15.333 53.237 15.8237 54.4237 16.701 55.2983C17.5757 56.1757 18.7623 56.6663 19.9997 56.6663H50.6663C51.7703 56.6663 52.6663 57.5623 52.6663 58.6663C52.6663 59.7703 51.7703 60.6663 50.6663 60.6663H19.9997C17.701 60.6663 15.4957 59.7543 13.8717 58.1277C12.245 56.5037 11.333 54.2983 11.333 51.9997C11.333 49.701 12.245 47.4957 13.8717 45.8717C15.4957 44.245 17.701 43.333 19.9997 43.333H50.6663Z" fill="#399919"/>
<path fill-rule="evenodd" clip-rule="evenodd" d="M20 54C18.896 54 18 53.104 18 52C18 50.896 18.896 50 20 50H50.6667C51.7707 50 52.6667 50.896 52.6667 52C52.6667 53.104 51.7707 54 50.6667 54H20Z" fill="#399919"/>
</svg>
