<svg width="65" height="64" viewBox="0 0 65 64" fill="none" xmlns="http://www.w3.org/2000/svg">
<path fill-rule="evenodd" clip-rule="evenodd" d="M9.33398 10.6663V54.6663C9.33398 57.981 12.0193 60.6663 15.334 60.6663H48.6673C50.6113 60.6663 52.478 59.893 53.854 58.5197C55.2273 57.1437 56.0007 55.277 56.0007 53.333C56.0007 43.4237 56.0007 22.8477 56.0007 19.2183C56.0007 18.3357 55.6487 17.4877 55.0247 16.861C53.0753 14.9117 44.422 6.25834 42.4727 4.30901C41.846 3.68501 40.998 3.33301 40.1153 3.33301H16.6673C14.7233 3.33301 12.8567 4.10634 11.4807 5.47967C10.1073 6.85567 9.33398 8.72234 9.33398 10.6663ZM39.838 7.33301L52.0007 19.4957V53.333C52.0007 54.2183 51.6487 55.0637 51.0247 55.6903C50.398 56.3143 49.5527 56.6663 48.6673 56.6663H15.334C14.23 56.6663 13.334 55.7703 13.334 54.6663V10.6663C13.334 9.78101 13.686 8.93567 14.31 8.30901C14.9367 7.68501 15.782 7.33301 16.6673 7.33301H39.838Z" fill="#399919"/>
<path fill-rule="evenodd" clip-rule="evenodd" d="M38.667 5.33301V15.9997C38.667 17.237 39.1577 18.4237 40.035 19.2983C40.9097 20.1757 42.0963 20.6663 43.3337 20.6663H54.0003C55.1043 20.6663 56.0003 19.7703 56.0003 18.6663C56.0003 17.5623 55.1043 16.6663 54.0003 16.6663H43.3337C43.1577 16.6663 42.987 16.597 42.8617 16.4717C42.7363 16.3463 42.667 16.1757 42.667 15.9997V5.33301C42.667 4.22901 41.771 3.33301 40.667 3.33301C39.563 3.33301 38.667 4.22901 38.667 5.33301Z" fill="#399919"/>
<path fill-rule="evenodd" clip-rule="evenodd" d="M22.667 29.333V25.333C22.667 24.229 21.771 23.333 20.667 23.333C19.563 23.333 18.667 24.229 18.667 25.333V29.333C18.667 30.437 19.563 31.333 20.667 31.333C21.771 31.333 22.667 30.437 22.667 29.333Z" fill="#399919"/>
<path fill-rule="evenodd" clip-rule="evenodd" d="M30.667 29.3327V18.666C30.667 17.562 29.771 16.666 28.667 16.666C27.563 16.666 26.667 17.562 26.667 18.666V29.3327C26.667 30.4367 27.563 31.3327 28.667 31.3327C29.771 31.3327 30.667 30.4367 30.667 29.3327Z" fill="#399919"/>
<path fill-rule="evenodd" clip-rule="evenodd" d="M38.667 29.3327V22.666C38.667 21.562 37.771 20.666 36.667 20.666C35.563 20.666 34.667 21.562 34.667 22.666V29.3327C34.667 30.4367 35.563 31.3327 36.667 31.3327C37.771 31.3327 38.667 30.4367 38.667 29.3327Z" fill="#399919"/>
<path fill-rule="evenodd" clip-rule="evenodd" d="M19.334 42H32.6673C33.7713 42 34.6673 41.104 34.6673 40C34.6673 38.896 33.7713 38 32.6673 38H19.334C18.23 38 17.334 38.896 17.334 40C17.334 41.104 18.23 42 19.334 42Z" fill="#399919"/>
<path fill-rule="evenodd" clip-rule="evenodd" d="M19.334 50H46.0007C47.1047 50 48.0007 49.104 48.0007 48C48.0007 46.896 47.1047 46 46.0007 46H19.334C18.23 46 17.334 46.896 17.334 48C17.334 49.104 18.23 50 19.334 50Z" fill="#399919"/>
</svg>
