<svg width="64" height="63" viewBox="0 0 64 63" fill="none" xmlns="http://www.w3.org/2000/svg">
<path fill-rule="evenodd" clip-rule="evenodd" d="M60.0518 27.5625C60.0518 28.6493 59.1698 29.5312 58.083 29.5312C56.9963 29.5312 56.1143 28.6493 56.1143 27.5625V13.7812C56.1143 12.9098 55.7678 12.0776 55.1535 11.4608C54.5366 10.8465 53.7045 10.5 52.833 10.5H10.833C9.96151 10.5 9.12938 10.8465 8.51251 11.4608C7.89826 12.0776 7.55176 12.9098 7.55176 13.7812V50.5312C7.55176 51.4027 7.89826 52.2349 8.51251 52.8518C9.12938 53.466 9.96151 53.8125 10.833 53.8125H26.583C27.6698 53.8125 28.5518 54.6945 28.5518 55.7812C28.5518 56.868 27.6698 57.75 26.583 57.75H10.833C8.91938 57.75 7.08188 56.9887 5.72738 55.6369C4.37551 54.2824 3.61426 52.4449 3.61426 50.5312V13.7812C3.61426 11.8676 4.37551 10.0301 5.72738 8.67563C7.08188 7.32375 8.91938 6.5625 10.833 6.5625H52.833C54.7466 6.5625 56.5841 7.32375 57.9386 8.67563C59.2905 10.0301 60.0518 11.8676 60.0518 13.7812V27.5625Z" fill="#399919"/>
<path fill-rule="evenodd" clip-rule="evenodd" d="M46.9268 11.8125C46.9268 12.8993 46.0448 13.7812 44.958 13.7812C43.8713 13.7812 42.9893 12.8993 42.9893 11.8125V5.25C42.9893 4.16325 43.8713 3.28125 44.958 3.28125C46.0448 3.28125 46.9268 4.16325 46.9268 5.25V11.8125Z" fill="#399919"/>
<path fill-rule="evenodd" clip-rule="evenodd" d="M20.6768 11.8125C20.6768 12.8993 19.7948 13.7812 18.708 13.7812C17.6213 13.7812 16.7393 12.8993 16.7393 11.8125V5.25C16.7393 4.16325 17.6213 3.28125 18.708 3.28125C19.7948 3.28125 20.6768 4.16325 20.6768 5.25V11.8125Z" fill="#399919"/>
<path fill-rule="evenodd" clip-rule="evenodd" d="M5.58301 22.3125C4.49626 22.3125 3.61426 21.4305 3.61426 20.3438C3.61426 19.257 4.49626 18.375 5.58301 18.375H58.083C59.1698 18.375 60.0518 19.257 60.0518 20.3438C60.0518 21.4305 59.1698 22.3125 58.083 22.3125H5.58301Z" fill="#399919"/>
<path fill-rule="evenodd" clip-rule="evenodd" d="M44.958 29.5312C53.2898 29.5312 60.0518 36.2933 60.0518 44.625C60.0518 52.9568 53.2898 59.7188 44.958 59.7188C36.6263 59.7188 29.8643 52.9568 29.8643 44.625C29.8643 36.2933 36.6263 29.5312 44.958 29.5312ZM44.958 33.4688C38.7998 33.4688 33.8018 38.4668 33.8018 44.625C33.8018 50.7833 38.7998 55.7813 44.958 55.7813C51.1163 55.7813 56.1143 50.7833 56.1143 44.625C56.1143 38.4668 51.1163 33.4688 44.958 33.4688Z" fill="#399919"/>
<path fill-rule="evenodd" clip-rule="evenodd" d="M42.9893 38.0625C42.9893 36.9757 43.8713 36.0938 44.958 36.0938C46.0448 36.0938 46.9268 36.9757 46.9268 38.0625V42.6562H51.5205C52.6073 42.6562 53.4893 43.5382 53.4893 44.625C53.4893 45.7118 52.6073 46.5938 51.5205 46.5938H44.958C43.8713 46.5938 42.9893 45.7118 42.9893 44.625V38.0625Z" fill="#399919"/>
</svg>
