<svg width="65" height="64" viewBox="0 0 65 64" fill="none" xmlns="http://www.w3.org/2000/svg">
<path fill-rule="evenodd" clip-rule="evenodd" d="M29.1327 59.3333C30.5114 59.3333 31.834 58.7867 32.81 57.8107C33.786 56.8347 34.3327 55.512 34.3327 54.1333V35.2C34.3327 33.8213 33.786 32.4987 32.81 31.5227C31.834 30.5467 30.5114 30 29.1327 30C23.002 30 14.9967 30 8.86602 30C7.48735 30 6.16468 30.5467 5.18868 31.5227C4.21268 32.4987 3.66602 33.8213 3.66602 35.2V54.1333C3.66602 55.512 4.21268 56.8347 5.18868 57.8107C6.16468 58.7867 7.48735 59.3333 8.86602 59.3333H29.1327ZM29.1327 55.3333H8.86602C8.54868 55.3333 8.24202 55.208 8.01802 54.9813C7.79135 54.7573 7.66602 54.4507 7.66602 54.1333V35.2C7.66602 34.8827 7.79135 34.576 8.01802 34.352C8.24202 34.1253 8.54868 34 8.86602 34H29.1327C29.45 34 29.7567 34.1253 29.9807 34.352C30.2073 34.576 30.3327 34.8827 30.3327 35.2V54.1333C30.3327 54.4507 30.2073 54.7573 29.9807 54.9813C29.7567 55.208 29.45 55.3333 29.1327 55.3333Z" fill="#399919"/>
<path fill-rule="evenodd" clip-rule="evenodd" d="M55.7997 59.3333C57.1783 59.3333 58.501 58.7867 59.477 57.8107C60.453 56.8347 60.9997 55.512 60.9997 54.1333V35.2C60.9997 33.8213 60.453 32.4987 59.477 31.5227C58.501 30.5467 57.1783 30 55.7997 30C49.669 30 41.6637 30 35.533 30C34.1543 30 32.8317 30.5467 31.8557 31.5227C30.8797 32.4987 30.333 33.8213 30.333 35.2V54.1333C30.333 55.512 30.8797 56.8347 31.8557 57.8107C32.8317 58.7867 34.1543 59.3333 35.533 59.3333H55.7997ZM55.7997 55.3333H35.533C35.2157 55.3333 34.909 55.208 34.685 54.9813C34.4583 54.7573 34.333 54.4507 34.333 54.1333V35.2C34.333 34.8827 34.4583 34.576 34.685 34.352C34.909 34.1253 35.2157 34 35.533 34H55.7997C56.117 34 56.4237 34.1253 56.6477 34.352C56.8743 34.576 56.9997 34.8827 56.9997 35.2V54.1333C56.9997 54.4507 56.8743 54.7573 56.6477 54.9813C56.4237 55.208 56.117 55.3333 55.7997 55.3333Z" fill="#399919"/>
<path fill-rule="evenodd" clip-rule="evenodd" d="M42.4657 34.0003C43.8444 34.0003 45.167 33.4537 46.143 32.4777C47.119 31.5017 47.6657 30.179 47.6657 28.8003V9.86699C47.6657 8.48833 47.119 7.16566 46.143 6.18966C45.167 5.21366 43.8444 4.66699 42.4657 4.66699C36.335 4.66699 28.3297 4.66699 22.199 4.66699C20.8204 4.66699 19.4977 5.21366 18.5217 6.18966C17.5457 7.16566 16.999 8.48833 16.999 9.86699V28.8003C16.999 30.179 17.5457 31.5017 18.5217 32.4777C19.4977 33.4537 20.8204 34.0003 22.199 34.0003H42.4657ZM42.4657 30.0003H22.199C21.8817 30.0003 21.575 29.875 21.351 29.6483C21.1244 29.4243 20.999 29.1177 20.999 28.8003V9.86699C20.999 9.54966 21.1244 9.24299 21.351 9.01899C21.575 8.79233 21.8817 8.66699 22.199 8.66699H42.4657C42.783 8.66699 43.0897 8.79233 43.3137 9.01899C43.5404 9.24299 43.6657 9.54966 43.6657 9.86699V28.8003C43.6657 29.1177 43.5404 29.4243 43.3137 29.6483C43.0897 29.875 42.783 30.0003 42.4657 30.0003Z" fill="#399919"/>
<path fill-rule="evenodd" clip-rule="evenodd" d="M26.3327 32C26.3327 30.896 25.4367 30 24.3327 30H13.666C12.562 30 11.666 30.896 11.666 32V39.7333C11.666 40.7253 12.1007 41.6933 12.938 42.3973C13.6367 42.984 14.5807 43.3333 15.57 43.3333H22.4287C23.418 43.3333 24.362 42.984 25.0607 42.3973C25.898 41.6933 26.3327 40.7253 26.3327 39.7333C26.3327 37.4 26.3327 32 26.3327 32ZM22.3327 39.3333H15.666V34H22.3327V39.3333Z" fill="#399919"/>
<path fill-rule="evenodd" clip-rule="evenodd" d="M52.9997 32C52.9997 30.896 52.1037 30 50.9997 30H40.333C39.229 30 38.333 30.896 38.333 32V39.7333C38.333 40.7253 38.7677 41.6933 39.605 42.3973C40.3037 42.984 41.2477 43.3333 42.237 43.3333H49.0957C50.085 43.3333 51.029 42.984 51.7277 42.3973C52.565 41.6933 52.9997 40.7253 52.9997 39.7333C52.9997 37.4 52.9997 32 52.9997 32ZM48.9997 39.3333H42.333V34H48.9997V39.3333Z" fill="#399919"/>
<path fill-rule="evenodd" clip-rule="evenodd" d="M39.6657 6.66699C39.6657 5.56299 38.7697 4.66699 37.6657 4.66699H26.999C25.895 4.66699 24.999 5.56299 24.999 6.66699V14.4003C24.999 15.3923 25.4337 16.3603 26.271 17.0643C26.9697 17.651 27.9137 18.0003 28.903 18.0003H35.7617C36.751 18.0003 37.695 17.651 38.3937 17.0643C39.231 16.3603 39.6657 15.3923 39.6657 14.4003C39.6657 12.067 39.6657 6.66699 39.6657 6.66699ZM35.6657 14.0003H28.999V8.66699H35.6657V14.0003Z" fill="#399919"/>
</svg>
