<svg width="64" height="64" viewBox="0 0 64 64" fill="none" xmlns="http://www.w3.org/2000/svg">
<path fill-rule="evenodd" clip-rule="evenodd" d="M23.333 29.333V34.6663C23.333 36.2583 23.965 37.7837 25.0903 38.909C26.2157 40.0343 27.741 40.6663 29.333 40.6663H34.6663C36.2583 40.6663 37.7837 40.0343 38.909 38.909C40.0343 37.7837 40.6663 36.2583 40.6663 34.6663V29.333C40.6663 27.741 40.0343 26.2157 38.909 25.0903C37.7837 23.965 36.2583 23.333 34.6663 23.333H29.333C27.741 23.333 26.2157 23.965 25.0903 25.0903C23.965 26.2157 23.333 27.741 23.333 29.333ZM27.333 29.333C27.333 28.8023 27.5437 28.293 27.9197 27.9197C28.293 27.5437 28.8023 27.333 29.333 27.333H34.6663C35.197 27.333 35.7063 27.5437 36.0797 27.9197C36.4557 28.293 36.6663 28.8023 36.6663 29.333V34.6663C36.6663 35.197 36.4557 35.7063 36.0797 36.0797C35.7063 36.4557 35.197 36.6663 34.6663 36.6663H29.333C28.8023 36.6663 28.293 36.4557 27.9197 36.0797C27.5437 35.7063 27.333 35.197 27.333 34.6663V29.333Z" fill="#399919"/>
<path fill-rule="evenodd" clip-rule="evenodd" d="M3.33301 9.33301V14.6663C3.33301 16.2583 3.96501 17.7837 5.09034 18.909C6.21567 20.0343 7.74101 20.6663 9.33301 20.6663H14.6663C16.2583 20.6663 17.7837 20.0343 18.909 18.909C20.0343 17.7837 20.6663 16.2583 20.6663 14.6663V9.33301C20.6663 7.74101 20.0343 6.21567 18.909 5.09034C17.7837 3.96501 16.2583 3.33301 14.6663 3.33301H9.33301C7.74101 3.33301 6.21567 3.96501 5.09034 5.09034C3.96501 6.21567 3.33301 7.74101 3.33301 9.33301ZM7.33301 9.33301C7.33301 8.80234 7.54367 8.29301 7.91967 7.91967C8.29301 7.54367 8.80234 7.33301 9.33301 7.33301H14.6663C15.197 7.33301 15.7063 7.54367 16.0797 7.91967C16.4557 8.29301 16.6663 8.80234 16.6663 9.33301V14.6663C16.6663 15.197 16.4557 15.7063 16.0797 16.0797C15.7063 16.4557 15.197 16.6663 14.6663 16.6663H9.33301C8.80234 16.6663 8.29301 16.4557 7.91967 16.0797C7.54367 15.7063 7.33301 15.197 7.33301 14.6663V9.33301Z" fill="#399919"/>
<path fill-rule="evenodd" clip-rule="evenodd" d="M43.333 49.333V54.6663C43.333 56.2583 43.965 57.7837 45.0903 58.909C46.2157 60.0343 47.741 60.6663 49.333 60.6663H54.6663C56.2583 60.6663 57.7837 60.0343 58.909 58.909C60.0343 57.7837 60.6663 56.2583 60.6663 54.6663V49.333C60.6663 47.741 60.0343 46.2157 58.909 45.0903C57.7837 43.965 56.2583 43.333 54.6663 43.333H49.333C47.741 43.333 46.2157 43.965 45.0903 45.0903C43.965 46.2157 43.333 47.741 43.333 49.333ZM47.333 49.333C47.333 48.8023 47.5437 48.293 47.9197 47.9197C48.293 47.5437 48.8023 47.333 49.333 47.333H54.6663C55.197 47.333 55.7063 47.5437 56.0797 47.9197C56.4557 48.293 56.6663 48.8023 56.6663 49.333V54.6663C56.6663 55.197 56.4557 55.7063 56.0797 56.0797C55.7063 56.4557 55.197 56.6663 54.6663 56.6663H49.333C48.8023 56.6663 48.293 56.4557 47.9197 56.0797C47.5437 55.7063 47.333 55.197 47.333 54.6663V49.333Z" fill="#399919"/>
<path fill-rule="evenodd" clip-rule="evenodd" d="M18.666 14H53.3327C54.218 14 55.0634 14.352 55.69 14.976C56.314 15.6027 56.666 16.448 56.666 17.3333V26.6667C56.666 27.552 56.314 28.3973 55.69 29.024C55.0634 29.648 54.218 30 53.3327 30H45.3327C44.2287 30 43.3327 30.896 43.3327 32C43.3327 33.104 44.2287 34 45.3327 34H53.3327C55.2767 34 57.1433 33.2267 58.5193 31.8533C59.8927 30.4773 60.666 28.6107 60.666 26.6667C60.666 23.7787 60.666 20.2213 60.666 17.3333C60.666 15.3893 59.8927 13.5227 58.5193 12.1467C57.1433 10.7733 55.2767 10 53.3327 10C42.442 10 18.666 10 18.666 10C17.562 10 16.666 10.896 16.666 12C16.666 13.104 17.562 14 18.666 14Z" fill="#399919"/>
<path fill-rule="evenodd" clip-rule="evenodd" d="M34.6663 50H10.6663C9.78101 50 8.93567 49.648 8.30901 49.024C7.68501 48.3973 7.33301 47.552 7.33301 46.6667C7.33301 43.7787 7.33301 40.2213 7.33301 37.3333C7.33301 36.448 7.68501 35.6027 8.30901 34.976C8.93567 34.352 9.78101 34 10.6663 34H25.333C26.437 34 27.333 33.104 27.333 32C27.333 30.896 26.437 30 25.333 30H10.6663C8.72234 30 6.85568 30.7733 5.47967 32.1467C4.10634 33.5227 3.33301 35.3893 3.33301 37.3333V46.6667C3.33301 48.6107 4.10634 50.4773 5.47967 51.8533C6.85568 53.2267 8.72234 54 10.6663 54H34.6663C35.7703 54 36.6663 53.104 36.6663 52C36.6663 50.896 35.7703 50 34.6663 50Z" fill="#399919"/>
<path fill-rule="evenodd" clip-rule="evenodd" d="M52.08 35.9197L48.1627 31.9997L52.08 28.0797C52.8613 27.301 52.8613 26.0317 52.08 25.253C51.3013 24.4717 50.032 24.4717 49.2533 25.253L43.92 30.5863C43.1387 31.3677 43.1387 32.6317 43.92 33.413L49.2533 38.7463C50.032 39.5277 51.3013 39.5277 52.08 38.7463C52.8613 37.9677 52.8613 36.6983 52.08 35.9197Z" fill="#399919"/>
<path fill-rule="evenodd" clip-rule="evenodd" d="M33.4127 58.7463L38.746 53.413C39.5273 52.6317 39.5273 51.3677 38.746 50.5863L33.4127 45.253C32.634 44.4717 31.3647 44.4717 30.586 45.253C29.8047 46.0317 29.8047 47.301 30.586 48.0797L34.5033 51.9997L30.586 55.9197C29.8047 56.6983 29.8047 57.9677 30.586 58.7463C31.3647 59.5277 32.634 59.5277 33.4127 58.7463Z" fill="#399919"/>
</svg>
