<svg width="65" height="64" viewBox="0 0 65 64" fill="none" xmlns="http://www.w3.org/2000/svg">
<path fill-rule="evenodd" clip-rule="evenodd" d="M39.9999 10.6663C39.9999 6.61834 36.7146 3.33301 32.6666 3.33301C28.6186 3.33301 25.3333 6.61834 25.3333 10.6663C25.3333 14.7143 28.6186 17.9997 32.6666 17.9997C36.7146 17.9997 39.9999 14.7143 39.9999 10.6663ZM35.9999 10.6663C35.9999 12.5063 34.5066 13.9997 32.6666 13.9997C30.8266 13.9997 29.3333 12.5063 29.3333 10.6663C29.3333 8.82634 30.8266 7.33301 32.6666 7.33301C34.5066 7.33301 35.9999 8.82634 35.9999 10.6663Z" fill="#392B9C"/>
<path fill-rule="evenodd" clip-rule="evenodd" d="M21.3333 42.0208C21.3333 37.9728 18.048 34.6875 14 34.6875C9.95196 34.6875 6.66663 37.9728 6.66663 42.0208C6.66663 46.0688 9.95196 49.3542 14 49.3542C18.048 49.3542 21.3333 46.0688 21.3333 42.0208ZM17.3333 42.0208C17.3333 43.8608 15.84 45.3542 14 45.3542C12.16 45.3542 10.6666 43.8608 10.6666 42.0208C10.6666 40.1808 12.16 38.6875 14 38.6875C15.84 38.6875 17.3333 40.1808 17.3333 42.0208Z" fill="#392B9C"/>
<path fill-rule="evenodd" clip-rule="evenodd" d="M58.6666 42.0208C58.6666 37.9728 55.3813 34.6875 51.3333 34.6875C47.2853 34.6875 43.9999 37.9728 43.9999 42.0208C43.9999 46.0688 47.2853 49.3542 51.3333 49.3542C55.3813 49.3542 58.6666 46.0688 58.6666 42.0208ZM54.6666 42.0208C54.6666 43.8608 53.1733 45.3542 51.3333 45.3542C49.4933 45.3542 47.9999 43.8608 47.9999 42.0208C47.9999 40.1808 49.4933 38.6875 51.3333 38.6875C53.1733 38.6875 54.6666 40.1808 54.6666 42.0208Z" fill="#392B9C"/>
<path fill-rule="evenodd" clip-rule="evenodd" d="M30.6666 28V38.6667C30.6666 39.208 30.8853 39.7253 31.2746 40.1013L42.1813 50.688C42.9733 51.456 44.24 51.4373 45.008 50.6453C45.776 49.8533 45.7573 48.5867 44.9653 47.8187L34.6666 37.8213V28C34.6666 26.896 33.7706 26 32.6666 26C31.5626 26 30.6666 26.896 30.6666 28Z" fill="#392B9C"/>
<path fill-rule="evenodd" clip-rule="evenodd" d="M31.272 37.2315L19.032 49.1542C18.24 49.9249 18.224 51.1942 18.9946 51.9835C19.7653 52.7755 21.032 52.7915 21.8213 52.0209L34.0613 40.0982C34.8533 39.3275 34.8693 38.0609 34.0986 37.2689C33.328 36.4795 32.0613 36.4635 31.272 37.2315Z" fill="#392B9C"/>
<path fill-rule="evenodd" clip-rule="evenodd" d="M32.6666 14.0215C27.1466 14.0215 22.6666 18.5015 22.6666 24.0215C22.6666 25.2882 23.2613 26.4162 24.432 27.3042C26.1093 28.5762 29.3733 29.3335 32.6666 29.3335C35.96 29.3335 39.224 28.5762 40.9013 27.3042C42.072 26.4162 42.6666 25.2882 42.6666 24.0215C42.6666 18.5015 38.1866 14.0215 32.6666 14.0215ZM38.6666 23.9468C38.6266 23.9868 38.5466 24.0695 38.488 24.1148C38.2186 24.3202 37.872 24.4828 37.4773 24.6268C36.1653 25.1095 34.4133 25.3335 32.6666 25.3335C30.92 25.3335 29.168 25.1095 27.856 24.6268C27.4613 24.4828 27.1146 24.3202 26.8453 24.1148C26.7866 24.0695 26.7066 23.9868 26.6666 23.9468C26.7066 20.6695 29.3813 18.0215 32.6666 18.0215C35.952 18.0215 38.6266 20.6695 38.6666 23.9468Z" fill="#392B9C"/>
<path fill-rule="evenodd" clip-rule="evenodd" d="M51.3333 45.3545C45.8133 45.3545 41.3333 49.8372 41.3333 55.3545C41.3333 56.6212 41.9279 57.7518 43.0986 58.6372C44.7759 59.9092 48.0399 60.6665 51.3333 60.6665C54.6266 60.6665 57.8906 59.9092 59.5679 58.6372C60.7386 57.7518 61.3333 56.6212 61.3333 55.3545C61.3333 49.8372 56.8533 45.3545 51.3333 45.3545ZM57.3333 55.2798C57.2933 55.3225 57.2133 55.4052 57.1546 55.4505C56.8853 55.6532 56.5386 55.8158 56.1439 55.9625C54.8319 56.4452 53.0799 56.6665 51.3333 56.6665C49.5866 56.6665 47.8346 56.4452 46.5226 55.9625C46.1279 55.8158 45.7813 55.6532 45.5119 55.4505C45.4533 55.4052 45.3733 55.3225 45.3333 55.2798C45.3733 52.0025 48.0479 49.3545 51.3333 49.3545C54.6186 49.3545 57.2933 52.0025 57.3333 55.2798Z" fill="#392B9C"/>
<path fill-rule="evenodd" clip-rule="evenodd" d="M13.9999 45.3545C8.47994 45.3545 3.99994 49.8372 3.99994 55.3545C3.99994 56.6212 4.59461 57.7518 5.76527 58.6372C7.44261 59.9092 10.7066 60.6665 13.9999 60.6665C17.2933 60.6665 20.5573 59.9092 22.2346 58.6372C23.4053 57.7518 23.9999 56.6212 23.9999 55.3545C23.9999 49.8372 19.5199 45.3545 13.9999 45.3545ZM19.9999 55.2798C19.9599 55.3225 19.8799 55.4052 19.8213 55.4505C19.5519 55.6532 19.2053 55.8158 18.8106 55.9625C17.4986 56.4452 15.7466 56.6665 13.9999 56.6665C12.2533 56.6665 10.5013 56.4452 9.18927 55.9625C8.79461 55.8158 8.44794 55.6532 8.17861 55.4505C8.11994 55.4052 8.03994 55.3225 7.99994 55.2798C8.03994 52.0025 10.7146 49.3545 13.9999 49.3545C17.2853 49.3545 19.9599 52.0025 19.9999 55.2798Z" fill="#392B9C"/>
</svg>
