<svg width="40" height="40" viewBox="0 0 40 40" fill="none" xmlns="http://www.w3.org/2000/svg">
<path d="M21.4189 9.81953H25.0314C25.7189 9.81953 26.2814 9.25703 26.2814 8.56953V4.95703C26.2814 4.26953 25.7189 3.70703 25.0314 3.70703H21.4189C20.7314 3.70703 20.1689 4.26953 20.1689 4.95703V8.56953C20.1689 9.25703 20.7314 9.81953 21.4189 9.81953ZM21.4189 4.95703H25.0314V8.56953H21.4189V4.95703Z" fill="#0C67C9"/>
<path d="M30.3188 9.81953H33.9313C34.6188 9.81953 35.1813 9.25703 35.1813 8.56953V4.95703C35.1813 4.26953 34.6188 3.70703 33.9313 3.70703H30.3188C29.6313 3.70703 29.0688 4.26953 29.0688 4.95703V8.56953C29.0688 9.25703 29.6313 9.81953 30.3188 9.81953ZM30.3188 4.95703H33.9313V8.56953H30.3188V4.95703Z" fill="#0C67C9"/>
<path d="M21.4189 17.9328H25.0314C25.7189 17.9328 26.2814 17.3703 26.2814 16.6828V13.0703C26.2814 12.3828 25.7189 11.8203 25.0314 11.8203H21.4189C20.7314 11.8203 20.1689 12.3828 20.1689 13.0703V16.6828C20.1689 17.3703 20.7314 17.9328 21.4189 17.9328ZM21.4189 13.0703H25.0314V16.6828H21.4189V13.0703Z" fill="#0C67C9"/>
<path d="M30.3188 17.9328H33.9313C34.6188 17.9328 35.1813 17.3703 35.1813 16.6828V13.0703C35.1813 12.3828 34.6188 11.8203 33.9313 11.8203H30.3188C29.6313 11.8203 29.0688 12.3828 29.0688 13.0703V16.6828C29.0688 17.3703 29.6313 17.9328 30.3188 17.9328ZM30.3188 13.0703H33.9313V16.6828H30.3188V13.0703Z" fill="#0C67C9"/>
<path d="M21.4189 26.05H25.0314C25.7189 26.05 26.2814 25.4875 26.2814 24.8V21.1875C26.2814 20.5 25.7189 19.9375 25.0314 19.9375H21.4189C20.7314 19.9375 20.1689 20.5 20.1689 21.1875V24.8C20.1689 25.4875 20.7314 26.05 21.4189 26.05ZM21.4189 21.1875H25.0314V24.8H21.4189V21.1875Z" fill="#0C67C9"/>
<path d="M30.3188 26.05H33.9313C34.6188 26.05 35.1813 25.4875 35.1813 24.8V21.1875C35.1813 20.5 34.6188 19.9375 33.9313 19.9375H30.3188C29.6313 19.9375 29.0688 20.5 29.0688 21.1875V24.8C29.0688 25.4875 29.6313 26.05 30.3188 26.05ZM30.3188 21.1875H33.9313V24.8H30.3188V21.1875Z" fill="#0C67C9"/>
<path d="M14.1814 6.83594H12.0127C11.3252 6.83594 10.7627 7.39844 10.7627 8.08594V11.4297C10.7627 12.1172 11.3252 12.6797 12.0127 12.6797H14.1814C14.8689 12.6797 15.4314 12.1172 15.4314 11.4297V8.08594C15.4314 7.39844 14.8689 6.83594 14.1814 6.83594ZM12.0127 11.4297V8.08594H14.1814V11.4297H12.0127Z" fill="#0C67C9"/>
<path d="M7.41875 6.83594H5.25C4.5625 6.83594 4 7.39844 4 8.08594V11.4297C4 12.1172 4.5625 12.6797 5.25 12.6797H7.41875C8.10625 12.6797 8.66875 12.1172 8.66875 11.4297V8.08594C8.66875 7.39844 8.10625 6.83594 7.41875 6.83594ZM5.25 11.4297V8.08594H7.41875V11.4297H5.25Z" fill="#0C67C9"/>
<path d="M14.1814 14.8672H12.0127C11.3252 14.8672 10.7627 15.4297 10.7627 16.1172V19.4609C10.7627 20.1484 11.3252 20.7109 12.0127 20.7109H14.1814C14.8689 20.7109 15.4314 20.1484 15.4314 19.4609V16.1172C15.4314 15.4297 14.8689 14.8672 14.1814 14.8672ZM12.0127 19.4609V16.1172H14.1814V19.4609H12.0127Z" fill="#0C67C9"/>
<path d="M7.41875 14.8672H5.25C4.5625 14.8672 4 15.4297 4 16.1172V19.4609C4 20.1484 4.5625 20.7109 5.25 20.7109H7.41875C8.10625 20.7109 8.66875 20.1484 8.66875 19.4609V16.1172C8.66875 15.4297 8.10625 14.8672 7.41875 14.8672ZM5.25 19.4609V16.1172H7.41875V19.4609H5.25Z" fill="#0C67C9"/>
<path d="M14.1814 22.9062H12.0127C11.3252 22.9062 10.7627 23.4688 10.7627 24.1562V27.5C10.7627 28.1875 11.3252 28.75 12.0127 28.75H14.1814C14.8689 28.75 15.4314 28.1875 15.4314 27.5V24.1562C15.4314 23.4688 14.8689 22.9062 14.1814 22.9062ZM12.0127 27.5V24.1562H14.1814V27.5H12.0127Z" fill="#0C67C9"/>
<path d="M7.41875 22.9062H5.25C4.5625 22.9062 4 23.4688 4 24.1562V27.5C4 28.1875 4.5625 28.75 5.25 28.75H7.41875C8.10625 28.75 8.66875 28.1875 8.66875 27.5V24.1562C8.66875 23.4688 8.10625 22.9062 7.41875 22.9062ZM5.25 27.5V24.1562H7.41875V27.5H5.25Z" fill="#0C67C9"/>
<path d="M14.1814 30.9453H12.0127C11.3252 30.9453 10.7627 31.5078 10.7627 32.1953V35.5391C10.7627 36.2266 11.3252 36.7891 12.0127 36.7891H14.1814C14.8689 36.7891 15.4314 36.2266 15.4314 35.5391V32.1953C15.4314 31.5078 14.8689 30.9453 14.1814 30.9453ZM12.0127 35.5391V32.1953H14.1814V35.5391H12.0127Z" fill="#0C67C9"/>
<path d="M7.41875 30.9453H5.25C4.5625 30.9453 4 31.5078 4 32.1953V35.5391C4 36.2266 4.5625 36.7891 5.25 36.7891H7.41875C8.10625 36.7891 8.66875 36.2266 8.66875 35.5391V32.1953C8.66875 31.5078 8.10625 30.9453 7.41875 30.9453ZM5.25 35.5391V32.1953H7.41875V35.5391H5.25Z" fill="#0C67C9"/>
<path d="M2.04395 39.375H37.9627C38.3064 39.375 38.5877 39.0938 38.5877 38.75V1.875C38.5877 1.1875 38.0252 0.625 37.3377 0.625H18.0252C17.3377 0.625 16.7752 1.1875 16.7752 1.875V4.25H2.66895C1.98145 4.25 1.41895 4.8125 1.41895 5.5V38.75C1.41895 39.0938 1.7002 39.375 2.04395 39.375ZM24.7189 38.125V29.3188H30.6377V38.125H24.7189ZM18.0189 1.875H37.3314V38.125H31.8814V29.3188C31.8814 28.6313 31.3189 28.0688 30.6314 28.0688H24.7127C24.0252 28.0688 23.4627 28.6313 23.4627 29.3188V38.125H18.0127V1.875H18.0189ZM2.66895 5.5H16.7689V38.125H2.66895V5.5Z" fill="#0C67C9"/>
</svg>
