<svg width="40" height="40" viewBox="0 0 40 40" fill="none" xmlns="http://www.w3.org/2000/svg">
<g clip-path="url(#clip0_660_2569)">
<path fill-rule="evenodd" clip-rule="evenodd" d="M10 30.4688C9.92188 30.4688 9.76562 30.3906 9.6875 30.3125C9.53125 30.1562 9.53125 29.8438 9.6875 29.6875L12.8906 26.4062C13.0469 26.25 13.3594 26.25 13.5938 26.4062C13.75 26.6406 13.75 26.9531 13.5938 27.1094L10.3125 30.3125C10.2344 30.3906 10.1562 30.4688 10 30.4688Z" fill="#0C67C9"/>
<path fill-rule="evenodd" clip-rule="evenodd" d="M2.65625 40C1.95312 40 1.25 39.6875 0.78125 39.2188C0.3125 38.75 0 38.0469 0 37.3438C0 36.6406 0.3125 35.9375 0.78125 35.3906L6.5625 29.6875C7.03125 29.1406 7.73438 28.9062 8.4375 28.9062C9.14062 28.9062 9.84375 29.1406 10.3125 29.6875C11.4062 30.7031 11.4062 32.4219 10.3125 33.4375L4.60938 39.2188C4.0625 39.6875 3.4375 40 2.65625 40ZM8.4375 29.8438C7.96875 29.8438 7.5 30 7.1875 30.3125L1.48438 36.0938C1.09375 36.4062 0.9375 36.875 0.9375 37.3438C0.9375 37.8125 1.09375 38.2031 1.48438 38.5938C1.79688 38.9062 2.1875 39.0625 2.65625 39.0625C3.125 39.0625 3.59375 38.9062 3.90625 38.5938L9.6875 32.8125C10.3906 32.1094 10.3906 31.0156 9.6875 30.3125C9.375 30 8.90625 29.8438 8.4375 29.8438Z" fill="#0C67C9"/>
<path fill-rule="evenodd" clip-rule="evenodd" d="M24.1406 31.7188C19.9219 31.7188 15.9375 30.0781 12.8906 27.1094C9.92188 24.1406 8.28125 20.0781 8.28125 15.8594C8.28125 11.6406 9.92188 7.65625 12.8906 4.60938C15.9375 1.64062 19.9219 0 24.1406 0C28.3594 0 32.3438 1.64062 35.3906 4.60938C41.5625 10.8594 41.5625 20.9375 35.3906 27.1094C32.3438 30.0781 28.3594 31.7188 24.1406 31.7188ZM24.1406 0.9375C20.1562 0.9375 16.4062 2.5 13.5938 5.3125C10.7031 8.125 9.21875 11.875 9.21875 15.8594C9.21875 19.8438 10.7031 23.5938 13.5938 26.4062C16.4062 29.2969 20.1562 30.7812 24.1406 30.7812C28.125 30.7812 31.875 29.2969 34.6875 26.4062C40.5469 20.625 40.5469 11.1719 34.6875 5.3125C31.875 2.5 28.125 0.9375 24.1406 0.9375Z" fill="#0C67C9"/>
<path fill-rule="evenodd" clip-rule="evenodd" d="M24.1406 29.0625C20.625 29.0625 17.2656 27.7344 14.7656 25.2344C12.2656 22.7344 10.9375 19.375 10.9375 15.8594C10.9375 12.3438 12.2656 9.0625 14.7656 6.5625C17.2656 4.0625 20.625 2.65625 24.1406 2.65625C27.6562 2.65625 30.9375 4.0625 33.4375 6.5625C35.9375 9.0625 37.3438 12.3438 37.3438 15.8594C37.3438 19.375 35.9375 22.7344 33.4375 25.2344C30.9375 27.7344 27.6562 29.0625 24.1406 29.0625ZM24.1406 3.59375C20.8594 3.59375 17.7344 4.92188 15.4688 7.1875C13.125 9.53125 11.875 12.5781 11.875 15.8594C11.875 19.1406 13.125 22.2656 15.4688 24.5312C17.7344 26.875 20.8594 28.125 24.1406 28.125C27.4219 28.125 30.4688 26.875 32.8125 24.5312C35.1562 22.2656 36.4062 19.1406 36.4062 15.8594C36.4062 12.5781 35.1562 9.53125 32.8125 7.1875C30.4688 4.92188 27.4219 3.59375 24.1406 3.59375Z" fill="#0C67C9"/>
<path fill-rule="evenodd" clip-rule="evenodd" d="M22.9688 22.4219H15.7031C15.4688 22.4219 15.2344 22.1875 15.2344 21.9531V19.5312C15.2344 17.5 16.9531 15.7812 19.0625 15.7812H19.6875C21.7969 15.7812 23.4375 17.5 23.4375 19.5312V21.9531C23.4375 22.0312 23.4375 22.1875 23.3594 22.2656C23.2031 22.3438 23.125 22.4219 22.9688 22.4219ZM16.1719 21.4844H22.5V19.5312C22.5 17.9688 21.25 16.7188 19.6875 16.7188H19.0625C17.5 16.7188 16.1719 17.9688 16.1719 19.5312V21.4844Z" fill="#0C67C9"/>
<path fill-rule="evenodd" clip-rule="evenodd" d="M19.375 14.6094C17.8906 14.6094 16.7188 13.4375 16.7188 12.0312C16.7188 10.5469 17.8906 9.375 19.375 9.375C20.8594 9.375 22.0312 10.5469 22.0312 12.0312C22.0312 13.4375 20.8594 14.6094 19.375 14.6094ZM19.375 10.3125C18.4375 10.3125 17.6562 11.0156 17.6562 12.0312C17.6562 12.9688 18.4375 13.6719 19.375 13.6719C20.3125 13.6719 21.0938 12.9688 21.0938 12.0312C21.0938 11.0156 20.3125 10.3125 19.375 10.3125Z" fill="#0C67C9"/>
<path fill-rule="evenodd" clip-rule="evenodd" d="M32.5 22.4219H25.2344C25 22.4219 24.7656 22.1875 24.7656 21.9531V19.5312C24.7656 17.5 26.4844 15.7812 28.5938 15.7812H29.2188C31.3281 15.7812 32.9688 17.5 32.9688 19.5312V21.9531C32.9688 22.0312 32.9688 22.1875 32.8125 22.2656C32.7344 22.3438 32.6562 22.4219 32.5 22.4219ZM25.7031 21.4844H32.0312V19.5312C32.0312 17.9688 30.7812 16.7188 29.2188 16.7188H28.5938C27.0312 16.7188 25.7031 17.9688 25.7031 19.5312V21.4844Z" fill="#0C67C9"/>
<path fill-rule="evenodd" clip-rule="evenodd" d="M28.9062 14.6094C27.4219 14.6094 26.25 13.4375 26.25 12.0312C26.25 10.5469 27.4219 9.375 28.9062 9.375C30.3125 9.375 31.5625 10.5469 31.5625 12.0312C31.5625 13.4375 30.3125 14.6094 28.9062 14.6094ZM28.9062 10.3125C27.9688 10.3125 27.1875 11.0156 27.1875 12.0312C27.1875 12.9688 27.9688 13.6719 28.9062 13.6719C29.8438 13.6719 30.625 12.9688 30.625 12.0312C30.625 11.0156 29.8438 10.3125 28.9062 10.3125Z" fill="#0C67C9"/>
</g>
<defs>
<clipPath id="clip0_660_2569">
<rect width="40" height="40" fill="white"/>
</clipPath>
</defs>
</svg>
