<svg width="94" height="27" viewBox="0 0 94 27" fill="none" xmlns="http://www.w3.org/2000/svg">
<mask id="path-1-outside-1_3064_1358" maskUnits="userSpaceOnUse" x="0" y="0" width="94" height="27" fill="black">
<rect fill="white" width="94" height="27"/>
<path d="M18.7273 9C18.4773 8.23485 18.1477 7.54924 17.7386 6.94318C17.3371 6.32954 16.8561 5.80682 16.2955 5.375C15.7424 4.94318 15.1136 4.61364 14.4091 4.38636C13.7045 4.15909 12.9318 4.04545 12.0909 4.04545C10.7121 4.04545 9.45833 4.40151 8.32955 5.11364C7.20076 5.82576 6.30303 6.875 5.63636 8.26136C4.9697 9.64773 4.63636 11.3485 4.63636 13.3636C4.63636 15.3788 4.97349 17.0795 5.64773 18.4659C6.32197 19.8523 7.23485 20.9015 8.38636 21.6136C9.53788 22.3258 10.8333 22.6818 12.2727 22.6818C13.6061 22.6818 14.7803 22.3977 15.7955 21.8295C16.8182 21.2538 17.6136 20.4432 18.1818 19.3977C18.7576 18.3447 19.0455 17.1061 19.0455 15.6818L19.9091 15.8636H12.9091V13.3636H21.7727V15.8636C21.7727 17.7803 21.3636 19.447 20.5455 20.8636C19.7348 22.2803 18.6136 23.3788 17.1818 24.1591C15.7576 24.9318 14.1212 25.3182 12.2727 25.3182C10.2121 25.3182 8.40152 24.8333 6.84091 23.8636C5.28788 22.8939 4.07576 21.5152 3.20455 19.7273C2.34091 17.9394 1.90909 15.8182 1.90909 13.3636C1.90909 11.5227 2.1553 9.86742 2.64773 8.39773C3.14773 6.92045 3.85227 5.66288 4.76136 4.625C5.67045 3.58712 6.74621 2.79167 7.98864 2.23864C9.23106 1.68561 10.5985 1.40909 12.0909 1.40909C13.3182 1.40909 14.4621 1.5947 15.5227 1.96591C16.5909 2.32954 17.5417 2.84848 18.375 3.52273C19.2159 4.18939 19.9167 4.98864 20.4773 5.92045C21.0379 6.8447 21.4242 7.87121 21.6364 9H18.7273ZM46.2358 13.3636C46.2358 15.8182 45.7926 17.9394 44.9062 19.7273C44.0199 21.5152 42.804 22.8939 41.2585 23.8636C39.7131 24.8333 37.9479 25.3182 35.9631 25.3182C33.9782 25.3182 32.2131 24.8333 30.6676 23.8636C29.1222 22.8939 27.9063 21.5152 27.0199 19.7273C26.1335 17.9394 25.6903 15.8182 25.6903 13.3636C25.6903 10.9091 26.1335 8.78788 27.0199 7C27.9063 5.21212 29.1222 3.83333 30.6676 2.86364C32.2131 1.89394 33.9782 1.40909 35.9631 1.40909C37.9479 1.40909 39.7131 1.89394 41.2585 2.86364C42.804 3.83333 44.0199 5.21212 44.9062 7C45.7926 8.78788 46.2358 10.9091 46.2358 13.3636ZM43.5085 13.3636C43.5085 11.3485 43.1714 9.64773 42.4972 8.26136C41.8305 6.875 40.9252 5.82576 39.7812 5.11364C38.6449 4.40151 37.3722 4.04545 35.9631 4.04545C34.554 4.04545 33.2775 4.40151 32.1335 5.11364C30.9972 5.82576 30.0919 6.875 29.4176 8.26136C28.7509 9.64773 28.4176 11.3485 28.4176 13.3636C28.4176 15.3788 28.7509 17.0795 29.4176 18.4659C30.0919 19.8523 30.9972 20.9015 32.1335 21.6136C33.2775 22.3258 34.554 22.6818 35.9631 22.6818C37.3722 22.6818 38.6449 22.3258 39.7812 21.6136C40.9252 20.9015 41.8305 19.8523 42.4972 18.4659C43.1714 17.0795 43.5085 15.3788 43.5085 13.3636ZM50.9744 25V1.72727H53.7926V12.0909H66.2017V1.72727H69.0199V25H66.2017V14.5909H53.7926V25H50.9744ZM74.6619 25V1.72727H82.5256C84.3438 1.72727 85.8362 2.03788 87.0028 2.65909C88.1695 3.27273 89.0331 4.11742 89.5938 5.19318C90.1544 6.26894 90.4347 7.49242 90.4347 8.86364C90.4347 10.2348 90.1544 11.4508 89.5938 12.5114C89.0331 13.572 88.1733 14.4053 87.0142 15.0114C85.8551 15.6098 84.3741 15.9091 82.571 15.9091H76.2074V13.3636H82.4801C83.7225 13.3636 84.7225 13.1818 85.4801 12.8182C86.2453 12.4545 86.7983 11.9394 87.1392 11.2727C87.4877 10.5985 87.6619 9.79545 87.6619 8.86364C87.6619 7.93182 87.4877 7.11742 87.1392 6.42045C86.7907 5.72348 86.2339 5.18561 85.4688 4.80682C84.7036 4.42045 83.6922 4.22727 82.4347 4.22727H77.4801V25H74.6619ZM85.6165 14.5455L91.3438 25H88.071L82.4347 14.5455H85.6165Z"/>
</mask>
<path d="M18.7273 9C18.4773 8.23485 18.1477 7.54924 17.7386 6.94318C17.3371 6.32954 16.8561 5.80682 16.2955 5.375C15.7424 4.94318 15.1136 4.61364 14.4091 4.38636C13.7045 4.15909 12.9318 4.04545 12.0909 4.04545C10.7121 4.04545 9.45833 4.40151 8.32955 5.11364C7.20076 5.82576 6.30303 6.875 5.63636 8.26136C4.9697 9.64773 4.63636 11.3485 4.63636 13.3636C4.63636 15.3788 4.97349 17.0795 5.64773 18.4659C6.32197 19.8523 7.23485 20.9015 8.38636 21.6136C9.53788 22.3258 10.8333 22.6818 12.2727 22.6818C13.6061 22.6818 14.7803 22.3977 15.7955 21.8295C16.8182 21.2538 17.6136 20.4432 18.1818 19.3977C18.7576 18.3447 19.0455 17.1061 19.0455 15.6818L19.9091 15.8636H12.9091V13.3636H21.7727V15.8636C21.7727 17.7803 21.3636 19.447 20.5455 20.8636C19.7348 22.2803 18.6136 23.3788 17.1818 24.1591C15.7576 24.9318 14.1212 25.3182 12.2727 25.3182C10.2121 25.3182 8.40152 24.8333 6.84091 23.8636C5.28788 22.8939 4.07576 21.5152 3.20455 19.7273C2.34091 17.9394 1.90909 15.8182 1.90909 13.3636C1.90909 11.5227 2.1553 9.86742 2.64773 8.39773C3.14773 6.92045 3.85227 5.66288 4.76136 4.625C5.67045 3.58712 6.74621 2.79167 7.98864 2.23864C9.23106 1.68561 10.5985 1.40909 12.0909 1.40909C13.3182 1.40909 14.4621 1.5947 15.5227 1.96591C16.5909 2.32954 17.5417 2.84848 18.375 3.52273C19.2159 4.18939 19.9167 4.98864 20.4773 5.92045C21.0379 6.8447 21.4242 7.87121 21.6364 9H18.7273ZM46.2358 13.3636C46.2358 15.8182 45.7926 17.9394 44.9062 19.7273C44.0199 21.5152 42.804 22.8939 41.2585 23.8636C39.7131 24.8333 37.9479 25.3182 35.9631 25.3182C33.9782 25.3182 32.2131 24.8333 30.6676 23.8636C29.1222 22.8939 27.9063 21.5152 27.0199 19.7273C26.1335 17.9394 25.6903 15.8182 25.6903 13.3636C25.6903 10.9091 26.1335 8.78788 27.0199 7C27.9063 5.21212 29.1222 3.83333 30.6676 2.86364C32.2131 1.89394 33.9782 1.40909 35.9631 1.40909C37.9479 1.40909 39.7131 1.89394 41.2585 2.86364C42.804 3.83333 44.0199 5.21212 44.9062 7C45.7926 8.78788 46.2358 10.9091 46.2358 13.3636ZM43.5085 13.3636C43.5085 11.3485 43.1714 9.64773 42.4972 8.26136C41.8305 6.875 40.9252 5.82576 39.7812 5.11364C38.6449 4.40151 37.3722 4.04545 35.9631 4.04545C34.554 4.04545 33.2775 4.40151 32.1335 5.11364C30.9972 5.82576 30.0919 6.875 29.4176 8.26136C28.7509 9.64773 28.4176 11.3485 28.4176 13.3636C28.4176 15.3788 28.7509 17.0795 29.4176 18.4659C30.0919 19.8523 30.9972 20.9015 32.1335 21.6136C33.2775 22.3258 34.554 22.6818 35.9631 22.6818C37.3722 22.6818 38.6449 22.3258 39.7812 21.6136C40.9252 20.9015 41.8305 19.8523 42.4972 18.4659C43.1714 17.0795 43.5085 15.3788 43.5085 13.3636ZM50.9744 25V1.72727H53.7926V12.0909H66.2017V1.72727H69.0199V25H66.2017V14.5909H53.7926V25H50.9744ZM74.6619 25V1.72727H82.5256C84.3438 1.72727 85.8362 2.03788 87.0028 2.65909C88.1695 3.27273 89.0331 4.11742 89.5938 5.19318C90.1544 6.26894 90.4347 7.49242 90.4347 8.86364C90.4347 10.2348 90.1544 11.4508 89.5938 12.5114C89.0331 13.572 88.1733 14.4053 87.0142 15.0114C85.8551 15.6098 84.3741 15.9091 82.571 15.9091H76.2074V13.3636H82.4801C83.7225 13.3636 84.7225 13.1818 85.4801 12.8182C86.2453 12.4545 86.7983 11.9394 87.1392 11.2727C87.4877 10.5985 87.6619 9.79545 87.6619 8.86364C87.6619 7.93182 87.4877 7.11742 87.1392 6.42045C86.7907 5.72348 86.2339 5.18561 85.4688 4.80682C84.7036 4.42045 83.6922 4.22727 82.4347 4.22727H77.4801V25H74.6619ZM85.6165 14.5455L91.3438 25H88.071L82.4347 14.5455H85.6165Z" fill="white"/>
<path d="M18.7273 9L17.7767 9.31058L18.002 10H18.7273V9ZM17.7386 6.94318L16.9018 7.49071L16.9058 7.49671L16.9098 7.50266L17.7386 6.94318ZM16.2955 5.375L15.68 6.16321L15.6852 6.16723L16.2955 5.375ZM14.4091 4.38636L14.7161 3.43465L14.7161 3.43465L14.4091 4.38636ZM5.63636 8.26136L6.53758 8.69474L6.53758 8.69474L5.63636 8.26136ZM5.64773 18.4659L4.74844 18.9033L4.74844 18.9033L5.64773 18.4659ZM8.38636 21.6136L7.86039 22.4641L8.38636 21.6136ZM15.7955 21.8295L16.2839 22.7022L16.286 22.7009L15.7955 21.8295ZM18.1818 19.3977L17.3044 18.918L17.3032 18.9202L18.1818 19.3977ZM19.0455 15.6818L19.2515 14.7033L18.0455 14.4494V15.6818H19.0455ZM19.9091 15.8636V16.8636L20.1151 14.8851L19.9091 15.8636ZM12.9091 15.8636H11.9091V16.8636H12.9091V15.8636ZM12.9091 13.3636V12.3636H11.9091V13.3636H12.9091ZM21.7727 13.3636H22.7727V12.3636H21.7727V13.3636ZM20.5455 20.8636L19.6795 20.3635L19.6775 20.367L20.5455 20.8636ZM17.1818 24.1591L17.6587 25.0381L17.6603 25.0372L17.1818 24.1591ZM6.84091 23.8636L6.31128 24.7119L6.31314 24.713L6.84091 23.8636ZM3.20455 19.7273L2.30409 20.1622L2.30559 20.1653L3.20455 19.7273ZM2.64773 8.39773L1.70051 8.07713L1.69953 8.08003L2.64773 8.39773ZM4.76136 4.625L5.5136 5.28389L5.5136 5.28389L4.76136 4.625ZM7.98864 2.23864L7.58198 1.32505L7.98864 2.23864ZM15.5227 1.96591L15.1924 2.9098L15.2005 2.91256L15.5227 1.96591ZM18.375 3.52273L17.746 4.30017L17.7538 4.30634L18.375 3.52273ZM20.4773 5.92045L19.6204 6.43598L19.6223 6.43907L20.4773 5.92045ZM21.6364 9V10H22.8418L22.6192 8.81531L21.6364 9ZM19.6778 8.68942C19.4019 7.84486 19.0334 7.074 18.5675 6.38371L16.9098 7.50266C17.262 8.02449 17.5527 8.62483 17.7767 9.31058L19.6778 8.68942ZM18.5754 6.39566C18.1149 5.69179 17.5582 5.08537 16.9057 4.58277L15.6852 6.16723C16.1539 6.52827 16.5594 6.9673 16.9018 7.49071L18.5754 6.39566ZM16.9109 4.58681C16.2604 4.07892 15.526 3.69593 14.7161 3.43465L14.1021 5.33807C14.7012 5.53134 15.2244 5.80745 15.68 6.16319L16.9109 4.58681ZM14.7161 3.43465C13.8999 3.17137 13.0221 3.04545 12.0909 3.04545V5.04545C12.8415 5.04545 13.5092 5.14681 14.1021 5.33807L14.7161 3.43465ZM12.0909 3.04545C10.5298 3.04545 9.08997 3.45154 7.79598 4.26788L8.86311 5.95939C9.8267 5.35149 10.8944 5.04545 12.0909 5.04545V3.04545ZM7.79598 4.26788C6.48529 5.09476 5.47053 6.29874 4.73515 7.82799L6.53758 8.69474C7.13554 7.45126 7.91622 6.55676 8.86311 5.95939L7.79598 4.26788ZM4.73515 7.82799C3.98656 9.38472 3.63636 11.2431 3.63636 13.3636H5.63636C5.63636 11.4539 5.95284 9.91073 6.53758 8.69474L4.73515 7.82799ZM3.63636 13.3636C3.63636 15.4856 3.99081 17.3454 4.74844 18.9033L6.54701 18.0286C5.95616 16.8137 5.63636 15.272 5.63636 13.3636H3.63636ZM4.74844 18.9033C5.49372 20.4357 6.52637 21.6392 7.86039 22.4641L8.91233 20.7631C7.94333 20.1639 7.15022 19.2688 6.54701 18.0286L4.74844 18.9033ZM7.86039 22.4641C9.18004 23.2802 10.6598 23.6818 12.2727 23.6818V21.6818C11.0069 21.6818 9.89572 21.3713 8.91233 20.7631L7.86039 22.4641ZM12.2727 23.6818C13.7518 23.6818 15.0989 23.3654 16.2839 22.7022L15.307 20.9569C14.4618 21.43 13.4603 21.6818 12.2727 21.6818V23.6818ZM16.286 22.7009C17.4749 22.0316 18.4038 21.0834 19.0604 19.8752L17.3032 18.9202C16.8235 19.8029 16.1614 20.4759 15.3049 20.9581L16.286 22.7009ZM19.0592 19.8775C19.7292 18.6521 20.0455 17.2424 20.0455 15.6818H18.0455C18.0455 16.9697 17.7859 18.0373 17.3044 18.918L19.0592 19.8775ZM18.8394 16.6604L19.7031 16.8422L20.1151 14.8851L19.2515 14.7033L18.8394 16.6604ZM19.9091 14.8636H12.9091V16.8636H19.9091V14.8636ZM13.9091 15.8636V13.3636H11.9091V15.8636H13.9091ZM12.9091 14.3636H21.7727V12.3636H12.9091V14.3636ZM20.7727 13.3636V15.8636H22.7727V13.3636H20.7727ZM20.7727 15.8636C20.7727 17.6351 20.3958 19.1232 19.6795 20.3635L21.4114 21.3638C22.3314 19.7707 22.7727 17.9255 22.7727 15.8636H20.7727ZM19.6775 20.367C18.9588 21.6231 17.9723 22.5894 16.7033 23.281L17.6603 25.0372C19.255 24.1681 20.5109 22.9375 21.4134 21.3603L19.6775 20.367ZM16.7049 23.2801C15.4466 23.9628 13.9784 24.3182 12.2727 24.3182V26.3182C14.2641 26.3182 16.0685 25.9008 17.6587 25.0381L16.7049 23.2801ZM12.2727 24.3182C10.3753 24.3182 8.75216 23.8739 7.36868 23.0143L6.31314 24.713C8.05087 25.7928 10.0489 26.3182 12.2727 26.3182V24.3182ZM7.37054 23.0154C5.99034 22.1536 4.89988 20.9235 4.1035 19.2892L2.30559 20.1653C3.25163 22.1068 4.58542 23.6343 6.31128 24.7119L7.37054 23.0154ZM4.10499 19.2923C3.3205 17.6683 2.90909 15.7024 2.90909 13.3636H0.909091C0.909091 15.934 1.36132 18.2105 2.3041 20.1622L4.10499 19.2923ZM2.90909 13.3636C2.90909 11.611 3.14355 10.0656 3.59592 8.71542L1.69953 8.08003C1.16705 9.66929 0.909091 11.4344 0.909091 13.3636H2.90909ZM3.59494 8.71832C4.05828 7.34937 4.70168 6.21084 5.5136 5.28389L4.00913 3.96611C3.00287 5.11492 2.23717 6.49154 1.70051 8.07713L3.59494 8.71832ZM5.5136 5.28389C6.32873 4.35329 7.28711 3.64549 8.39529 3.15222L7.58198 1.32505C6.20531 1.93784 5.01218 2.82095 4.00913 3.96611L5.5136 5.28389ZM8.39529 3.15222C9.49771 2.66151 10.7248 2.40909 12.0909 2.40909V0.40909C10.4721 0.40909 8.96441 0.709704 7.58198 1.32505L8.39529 3.15222ZM12.0909 2.40909C13.216 2.40909 14.2473 2.57899 15.1924 2.90977L15.8531 1.02205C14.6769 0.610405 13.4203 0.40909 12.0909 0.40909V2.40909ZM15.2005 2.91256C16.1632 3.24029 17.0089 3.70375 17.746 4.30014L19.004 2.74532C18.0744 1.99321 17.0187 1.4188 15.845 1.01926L15.2005 2.91256ZM17.7538 4.30634C18.4994 4.89749 19.1208 5.60553 19.6204 6.43597L21.3342 5.40493C20.7126 4.37175 19.9324 3.4813 18.9962 2.73911L17.7538 4.30634ZM19.6223 6.43907C20.1167 7.2543 20.4622 8.16653 20.6536 9.18469L22.6192 8.81531C22.3862 7.57589 21.959 6.4351 21.3323 5.40184L19.6223 6.43907ZM21.6364 8H18.7273V10H21.6364V8ZM44.9062 19.7273L44.0103 19.2831L44.0103 19.2831L44.9062 19.7273ZM41.2585 23.8636L41.79 24.7107L41.79 24.7107L41.2585 23.8636ZM30.6676 23.8636L30.1361 24.7107L30.1361 24.7107L30.6676 23.8636ZM27.0199 19.7273L27.9158 19.2831L27.9158 19.2831L27.0199 19.7273ZM27.0199 7L26.1239 6.55583L27.0199 7ZM41.2585 2.86364L41.79 2.01657L41.79 2.01657L41.2585 2.86364ZM44.9062 7L44.0103 7.44417L44.0103 7.44417L44.9062 7ZM42.4972 8.26136L41.5959 8.69474L41.5979 8.69872L42.4972 8.26136ZM39.7812 5.11364L39.2502 5.961L39.2528 5.96258L39.7812 5.11364ZM32.1335 5.11364L31.605 4.26469L31.6025 4.26627L32.1335 5.11364ZM29.4176 8.26136L28.5183 7.824L28.5164 7.82799L29.4176 8.26136ZM29.4176 18.4659L28.5164 18.8993L28.5183 18.9033L29.4176 18.4659ZM32.1335 21.6136L31.6025 22.461L31.605 22.4626L32.1335 21.6136ZM39.7812 21.6136L39.2528 20.7647L39.2502 20.7663L39.7812 21.6136ZM42.4972 18.4659L41.5979 18.0285L41.5959 18.0325L42.4972 18.4659ZM45.2358 13.3636C45.2358 15.6989 44.8143 17.6614 44.0103 19.2831L45.8022 20.1714C46.7709 18.2174 47.2358 15.9375 47.2358 13.3636H45.2358ZM44.0103 19.2831C43.198 20.9217 42.1017 22.1541 40.727 23.0166L41.79 24.7107C43.5063 23.6338 44.8418 22.1086 45.8022 20.1714L44.0103 19.2831ZM40.727 23.0166C39.3548 23.8776 37.7771 24.3182 35.9631 24.3182V26.3182C38.1188 26.3182 40.0714 25.7891 41.79 24.7107L40.727 23.0166ZM35.9631 24.3182C34.1491 24.3182 32.5714 23.8776 31.1991 23.0166L30.1361 24.7107C31.8548 25.7891 33.8074 26.3182 35.9631 26.3182V24.3182ZM31.1991 23.0166C29.8245 22.1541 28.7282 20.9217 27.9158 19.2831L26.1239 20.1714C27.0843 22.1086 28.4198 23.6338 30.1361 24.7107L31.1991 23.0166ZM27.9158 19.2831C27.1118 17.6614 26.6903 15.6989 26.6903 13.3636H24.6903C24.6903 15.9375 25.1552 18.2174 26.1239 20.1714L27.9158 19.2831ZM26.6903 13.3636C26.6903 11.0284 27.1118 9.06588 27.9158 7.44417L26.1239 6.55583C25.1552 8.50988 24.6903 10.7898 24.6903 13.3636H26.6903ZM27.9158 7.44417C28.7282 5.80561 29.8245 4.57321 31.1991 3.7107L30.1361 2.01657C28.4198 3.09346 27.0843 4.61863 26.1239 6.55583L27.9158 7.44417ZM31.1991 3.7107C32.5714 2.84968 34.1491 2.40909 35.9631 2.40909V0.40909C33.8074 0.40909 31.8548 0.938201 30.1361 2.01657L31.1991 3.7107ZM35.9631 2.40909C37.7771 2.40909 39.3548 2.84968 40.727 3.7107L41.79 2.01657C40.0714 0.938201 38.1188 0.40909 35.9631 0.40909V2.40909ZM40.727 3.7107C42.1017 4.57321 43.198 5.80561 44.0103 7.44417L45.8022 6.55583C44.8418 4.61863 43.5063 3.09346 41.79 2.01657L40.727 3.7107ZM44.0103 7.44417C44.8143 9.06588 45.2358 11.0284 45.2358 13.3636H47.2358C47.2358 10.7898 46.7709 8.50988 45.8022 6.55583L44.0103 7.44417ZM44.5085 13.3636C44.5085 11.2417 44.1541 9.38184 43.3964 7.82401L41.5979 8.69872C42.1887 9.91362 42.5085 11.4553 42.5085 13.3636H44.5085ZM43.3984 7.82799C42.6614 6.29538 41.6368 5.09078 40.3097 4.26469L39.2528 5.96258C40.2136 6.56073 40.9996 7.45462 41.5959 8.69474L43.3984 7.82799ZM40.3123 4.26627C39.0085 3.44924 37.55 3.04545 35.9631 3.04545V5.04545C37.1943 5.04545 38.2813 5.35379 39.2502 5.961L40.3123 4.26627ZM35.9631 3.04545C34.3761 3.04545 32.915 3.44921 31.605 4.26469L32.662 5.96258C33.6399 5.35382 34.7318 5.04545 35.9631 5.04545V3.04545ZM31.6025 4.26627C30.2848 5.09205 29.262 6.29491 28.5183 7.82401L30.3169 8.69872C30.9217 7.45509 31.7095 6.55947 32.6645 5.961L31.6025 4.26627ZM28.5164 7.82799C27.7678 9.38472 27.4176 11.2431 27.4176 13.3636H29.4176C29.4176 11.4539 29.7341 9.91073 30.3188 8.69474L28.5164 7.82799ZM27.4176 13.3636C27.4176 15.4842 27.7678 17.3425 28.5164 18.8993L30.3188 18.0325C29.7341 16.8165 29.4176 15.2734 29.4176 13.3636H27.4176ZM28.5183 18.9033C29.262 20.4324 30.2848 21.6352 31.6025 22.461L32.6645 20.7663C31.7095 20.1678 30.9217 19.2722 30.3169 18.0286L28.5183 18.9033ZM31.605 22.4626C32.915 23.2781 34.3761 23.6818 35.9631 23.6818V21.6818C34.7318 21.6818 33.6399 21.3735 32.662 20.7647L31.605 22.4626ZM35.9631 23.6818C37.55 23.6818 39.0085 23.278 40.3123 22.461L39.2502 20.7663C38.2813 21.3735 37.1943 21.6818 35.9631 21.6818V23.6818ZM40.3097 22.4626C41.6368 21.6365 42.6614 20.4319 43.3984 18.8993L41.5959 18.0325C40.9996 19.2726 40.2136 20.1665 39.2528 20.7647L40.3097 22.4626ZM43.3964 18.9033C44.1541 17.3454 44.5085 15.4856 44.5085 13.3636H42.5085C42.5085 15.272 42.1887 16.8137 41.5979 18.0286L43.3964 18.9033ZM50.9744 25H49.9744V26H50.9744V25ZM50.9744 1.72727V0.727272H49.9744V1.72727H50.9744ZM53.7926 1.72727H54.7926V0.727272H53.7926V1.72727ZM53.7926 12.0909H52.7926V13.0909H53.7926V12.0909ZM66.2017 12.0909V13.0909H67.2017V12.0909H66.2017ZM66.2017 1.72727V0.727272H65.2017V1.72727H66.2017ZM69.0199 1.72727H70.0199V0.727272H69.0199V1.72727ZM69.0199 25V26H70.0199V25H69.0199ZM66.2017 25H65.2017V26H66.2017V25ZM66.2017 14.5909H67.2017V13.5909H66.2017V14.5909ZM53.7926 14.5909V13.5909H52.7926V14.5909H53.7926ZM53.7926 25V26H54.7926V25H53.7926ZM51.9744 25V1.72727H49.9744V25H51.9744ZM50.9744 2.72727H53.7926V0.727272H50.9744V2.72727ZM52.7926 1.72727V12.0909H54.7926V1.72727H52.7926ZM53.7926 13.0909H66.2017V11.0909H53.7926V13.0909ZM67.2017 12.0909V1.72727H65.2017V12.0909H67.2017ZM66.2017 2.72727H69.0199V0.727272H66.2017V2.72727ZM68.0199 1.72727V25H70.0199V1.72727H68.0199ZM69.0199 24H66.2017V26H69.0199V24ZM67.2017 25V14.5909H65.2017V25H67.2017ZM66.2017 13.5909H53.7926V15.5909H66.2017V13.5909ZM52.7926 14.5909V25H54.7926V14.5909H52.7926ZM53.7926 24H50.9744V26H53.7926V24ZM74.6619 25H73.6619V26H74.6619V25ZM74.6619 1.72727V0.727272H73.6619V1.72727H74.6619ZM87.0028 2.65909L86.5328 3.54177L86.5373 3.54413L87.0028 2.65909ZM89.5938 5.19318L88.7069 5.65532L88.7069 5.65532L89.5938 5.19318ZM89.5938 12.5114L88.7097 12.0441L88.7097 12.0441L89.5938 12.5114ZM87.0142 15.0114L87.473 15.8999L87.4776 15.8975L87.0142 15.0114ZM76.2074 15.9091H75.2074V16.9091H76.2074V15.9091ZM76.2074 13.3636V12.3636H75.2074V13.3636H76.2074ZM85.4801 12.8182L85.0509 11.915L85.0474 11.9167L85.4801 12.8182ZM87.1392 11.2727L86.2508 10.8136L86.2489 10.8174L87.1392 11.2727ZM85.4688 4.80682L85.018 5.6995L85.0251 5.70301L85.4688 4.80682ZM77.4801 4.22727V3.22727H76.4801V4.22727H77.4801ZM77.4801 25V26H78.4801V25H77.4801ZM85.6165 14.5455L86.4935 14.065L86.2089 13.5455H85.6165V14.5455ZM91.3438 25V26H93.0318L92.2208 24.5195L91.3438 25ZM88.071 25L87.1908 25.4746L87.4741 26H88.071V25ZM82.4347 14.5455V13.5455H80.7595L81.5544 15.02L82.4347 14.5455ZM75.6619 25V1.72727H73.6619V25H75.6619ZM74.6619 2.72727H82.5256V0.727272H74.6619V2.72727ZM82.5256 2.72727C84.2383 2.72727 85.5549 3.02105 86.5328 3.54176L87.4728 1.77642C86.1174 1.05471 84.4492 0.727272 82.5256 0.727272V2.72727ZM86.5373 3.54413C87.5402 4.0716 88.2486 4.77589 88.7069 5.65532L90.4806 4.73104C89.8176 3.45896 88.7988 2.47385 87.4684 1.77405L86.5373 3.54413ZM88.7069 5.65532C89.184 6.5707 89.4347 7.63213 89.4347 8.86364H91.4347C91.4347 7.35272 91.1247 5.96718 90.4806 4.73104L88.7069 5.65532ZM89.4347 8.86364C89.4347 10.0955 89.1839 11.1469 88.7097 12.0441L90.4778 12.9787C91.1248 11.7546 91.4347 10.3742 91.4347 8.86364H89.4347ZM88.7097 12.0441C88.2522 12.9095 87.5475 13.6041 86.5508 14.1252L87.4776 15.8975C88.7991 15.2065 89.8141 14.2345 90.4778 12.9787L88.7097 12.0441ZM86.5554 14.1228C85.5818 14.6255 84.2721 14.9091 82.571 14.9091V16.9091C84.476 16.9091 86.1284 16.5942 87.473 15.8999L86.5554 14.1228ZM82.571 14.9091H76.2074V16.9091H82.571V14.9091ZM77.2074 15.9091V13.3636H75.2074V15.9091H77.2074ZM76.2074 14.3636H82.4801V12.3636H76.2074V14.3636ZM82.4801 14.3636C83.8065 14.3636 84.9713 14.1716 85.9128 13.7197L85.0474 11.9167C84.4737 12.192 83.6385 12.3636 82.4801 12.3636V14.3636ZM85.9094 13.7214C86.8459 13.2763 87.5754 12.6161 88.0295 11.728L86.2489 10.8174C86.0212 11.2627 85.6446 11.6328 85.0509 11.915L85.9094 13.7214ZM88.0276 11.7319C88.4643 10.887 88.6619 9.91939 88.6619 8.86364H86.6619C86.6619 9.67152 86.5111 10.31 86.2508 10.8136L88.0276 11.7319ZM88.6619 8.86364C88.6619 7.80669 88.4639 6.8337 88.0336 5.97324L86.2448 6.86767C86.5115 7.40114 86.6619 8.05694 86.6619 8.86364H88.6619ZM88.0336 5.97324C87.5784 5.0627 86.8529 4.37623 85.9124 3.91062L85.0251 5.70301C85.6149 5.99498 86.0031 6.38427 86.2448 6.86767L88.0336 5.97324ZM85.9195 3.91417C84.9647 3.43203 83.7812 3.22727 82.4347 3.22727V5.22727C83.6032 5.22727 84.4425 5.40888 85.018 5.69947L85.9195 3.91417ZM82.4347 3.22727H77.4801V5.22727H82.4347V3.22727ZM76.4801 4.22727V25H78.4801V4.22727H76.4801ZM77.4801 24H74.6619V26H77.4801V24ZM84.7395 15.0259L90.4667 25.4805L92.2208 24.5195L86.4935 14.065L84.7395 15.0259ZM91.3438 24H88.071V26H91.3438V24ZM88.9512 24.5254L83.3149 14.0709L81.5544 15.02L87.1908 25.4746L88.9512 24.5254ZM82.4347 15.5455H85.6165V13.5455H82.4347V15.5455Z" fill="white" mask="url(#path-1-outside-1_3064_1358)"/>
</svg>
