<svg width="40" height="40" viewBox="0 0 40 40" fill="none" xmlns="http://www.w3.org/2000/svg">
<g clip-path="url(#clip0_599_21898)">
<path d="M3.78894 29.4172C3.8315 29.4882 3.85955 29.5669 3.87144 29.6488C3.88334 29.7307 3.87885 29.8141 3.85823 29.8943C3.83761 29.9745 3.80128 30.0497 3.75135 30.1157C3.70141 30.1817 3.63886 30.2371 3.56733 30.2788C3.4958 30.3204 3.41672 30.3474 3.33466 30.3582C3.25261 30.3691 3.16922 30.3635 3.08935 30.3418C3.00947 30.3202 2.93469 30.2829 2.86934 30.2321C2.804 30.1813 2.7494 30.118 2.7087 30.0459C0.853201 26.8527 -0.0818194 23.208 0.00728824 19.5159C0.0963959 15.8238 1.20615 12.2285 3.21354 9.12852C5.22092 6.02852 8.04753 3.54494 11.38 1.95308C14.7125 0.36122 18.4207 -0.276742 22.0936 0.109912C25.6285 0.476289 29.0006 1.78305 31.8592 3.89429L31.426 2.37569C31.3815 2.21662 31.4019 2.04642 31.4825 1.90229C31.5632 1.75816 31.6976 1.65182 31.8565 1.60652C32.0153 1.56121 32.1856 1.58061 32.3302 1.66049C32.4748 1.74037 32.5818 1.87422 32.628 2.0328L33.6086 5.46976C33.6346 5.56094 33.6396 5.65686 33.623 5.75023C33.6065 5.8436 33.5689 5.93199 33.5132 6.0087C33.4574 6.08541 33.385 6.14842 33.3013 6.19298C33.2175 6.23753 33.1248 6.26245 33.03 6.26585L29.4582 6.39413C29.4503 6.39413 29.4429 6.3946 29.4353 6.3946C29.2696 6.39752 29.1095 6.33448 28.9902 6.21933C28.8709 6.10419 28.8022 5.94638 28.7993 5.78062C28.7964 5.61485 28.8595 5.45472 28.9746 5.33545C29.0897 5.21617 29.2476 5.14752 29.4133 5.1446L31.3508 5.07499C28.6234 2.9941 25.3748 1.70606 21.9625 1.35265C11.6814 0.271162 2.43667 7.7546 1.35441 18.0357C0.927668 21.9923 1.78096 25.9814 3.78894 29.4172ZM37.291 9.95101C37.2501 9.87949 37.1953 9.81679 37.13 9.76652C37.0647 9.71625 36.99 9.67939 36.9104 9.65808C36.8308 9.63677 36.7477 9.63142 36.666 9.64233C36.5843 9.65325 36.5056 9.68022 36.4344 9.7217C36.3631 9.76317 36.3008 9.81833 36.251 9.88399C36.2011 9.94965 36.1648 10.0245 36.144 10.1043C36.1232 10.1841 36.1184 10.2671 36.1299 10.3488C36.1414 10.4304 36.1689 10.509 36.2108 10.5799C38.3883 14.3284 39.1995 18.7156 38.5065 22.9949C37.8134 27.2742 35.659 31.1811 32.4097 34.0507C29.1604 36.9204 25.0172 38.5754 20.6851 38.7342C16.3529 38.893 12.0996 37.5457 8.64902 34.9216L10.5865 34.852C10.7522 34.8461 10.9087 34.7746 11.0216 34.6532C11.1345 34.5319 11.1946 34.3706 11.1887 34.205C11.1828 34.0393 11.1112 33.8828 10.9899 33.7699C10.8686 33.657 10.7073 33.5969 10.5417 33.6028L6.9698 33.7311C6.87502 33.7345 6.78226 33.7594 6.69855 33.804C6.61483 33.8485 6.54235 33.9115 6.4866 33.9883C6.43085 34.065 6.39328 34.1534 6.37676 34.2468C6.36023 34.3401 6.36517 34.4361 6.3912 34.5273L7.37175 37.9642C7.39427 38.0431 7.43212 38.1169 7.48314 38.1811C7.53415 38.2454 7.59733 38.2991 7.66907 38.339C7.74081 38.3788 7.81969 38.4042 7.90123 38.4136C7.98277 38.423 8.06536 38.4162 8.14429 38.3937C8.22322 38.3712 8.29693 38.3333 8.36123 38.2823C8.42553 38.2313 8.47915 38.1681 8.51903 38.0964C8.55892 38.0246 8.58428 37.9458 8.59367 37.8642C8.60306 37.7827 8.59631 37.7001 8.57378 37.6212L8.1405 36.1029C10.9994 38.2137 14.3714 39.5204 17.9061 39.8871C18.6141 39.9618 19.3256 39.9993 20.0375 39.9994C23.5497 39.9925 26.9981 39.0609 30.036 37.2983C33.0738 35.5356 35.5939 33.0041 37.3428 29.9583C39.0916 26.9125 40.0076 23.4599 39.9985 19.9477C39.9894 16.4356 39.0556 12.9877 37.291 9.95101ZM31.1874 13.1782C31.2824 13.233 31.3613 13.3119 31.4161 13.407C31.471 13.502 31.4999 13.6097 31.4999 13.7194V26.2773C31.4999 26.387 31.471 26.4947 31.4161 26.5897C31.3613 26.6848 31.2824 26.7637 31.1874 26.8185L20.3124 33.0972C20.2174 33.152 20.1096 33.1809 19.9999 33.1809C19.8902 33.1809 19.7824 33.152 19.6874 33.0972L8.81238 26.8188C8.71737 26.764 8.63847 26.6851 8.58361 26.5901C8.52876 26.4951 8.49988 26.3873 8.49988 26.2776V13.7198C8.49988 13.61 8.52876 13.5023 8.58361 13.4073C8.63847 13.3123 8.71737 13.2334 8.81238 13.1785L19.6874 6.89976C19.7824 6.8449 19.8902 6.81602 19.9999 6.81602C20.1096 6.81602 20.2174 6.8449 20.3124 6.89976L31.1874 13.1782ZM10.3749 13.7194L19.9999 19.2768L29.6249 13.7198L19.9999 8.16257L10.3749 13.7194ZM9.74988 25.9161L19.3749 31.4734V20.3594L9.74988 14.8023V25.9161ZM30.2499 25.9161V14.8023L20.6249 20.3594V31.4734L30.2499 25.9161Z" fill="#0C67C9"/>
</g>
<defs>
<clipPath id="clip0_599_21898">
<rect width="40" height="40" fill="white"/>
</clipPath>
</defs>
</svg>
