<svg width="40" height="36" viewBox="0 0 40 36" fill="none" xmlns="http://www.w3.org/2000/svg">
<path d="M36.6563 3.40625C34.5938 1.34375 31.8516 0.210938 28.9375 0.210938C23.2578 0.210938 20 4.63281 20 4.63281C20 4.63281 16.7969 0.21875 11.0625 0.21875C8.14844 0.21875 5.40625 1.35156 3.34375 3.41406C-0.914063 7.67188 -0.914063 14.5937 3.34375 18.8437L20 35.7969L36.6563 18.8516C40.9063 14.5859 40.9063 7.66406 36.6563 3.40625ZM35.7422 17.9375L20 33.9531L4.25781 17.9297C0.507813 14.1797 0.507813 8.07031 4.25781 4.3125C6.07813 2.49219 8.49219 1.49219 11.0625 1.49219C16.5 1.49219 20 6.44531 20 6.44531C20 6.44531 23.5547 1.49219 28.9375 1.49219C31.5078 1.49219 33.9297 2.49219 35.7422 4.3125C39.5 8.07031 39.5 14.1797 35.7422 17.9375Z" fill="#0C67C9"/>
<path d="M22.6172 10.4844H17.4844V14.9766H12.9922V20.1094H17.4844V24.6016H22.6172V20.1094H27.1094V14.9766H22.6172V10.4844ZM25.8281 16.2578V18.8281H21.3359V23.3203H18.7656V18.8281H14.2734V16.2578H18.7656V11.7656H21.3359V16.2578H25.8281Z" fill="#0C67C9"/>
<path d="M4 11.2031H5.28125C5.28125 7.97656 7.90625 5.35156 11.1328 5.35156V4.07031C7.20313 4.07031 4 7.26563 4 11.2031Z" fill="#0C67C9"/>
</svg>
