<svg width="65" height="64" viewBox="0 0 65 64" fill="none" xmlns="http://www.w3.org/2000/svg">
<path fill-rule="evenodd" clip-rule="evenodd" d="M35 54.7844H9.53335C9.39202 54.7844 9.25602 54.7284 9.15735 54.6271C9.05602 54.5284 9.00002 54.3924 9.00002 54.2511V50.3844C9.00002 48.1684 10.5813 46.2164 13.0187 44.5578C17.3707 41.5871 24.4133 39.7178 32.3333 39.7178C33.4373 39.7178 34.3333 38.8218 34.3333 37.7178C34.3333 36.6138 33.4373 35.7178 32.3333 35.7178C23.4747 35.7178 15.632 37.9311 10.7627 41.2538C7.04802 43.7871 5.00002 47.0058 5.00002 50.3844V54.2511C5.00002 55.4538 5.47735 56.6058 6.32802 57.4564C7.17868 58.3071 8.33068 58.7844 9.53335 58.7844H35C36.104 58.7844 37 57.8884 37 56.7844C37 55.6804 36.104 54.7844 35 54.7844Z" fill="#392B9C"/>
<path fill-rule="evenodd" clip-rule="evenodd" d="M32.3334 4.08301C24.2374 4.08301 17.6667 10.6563 17.6667 18.7497C17.6667 26.8457 24.2374 33.4163 32.3334 33.4163C40.4294 33.4163 47 26.8457 47 18.7497C47 10.6563 40.4294 4.08301 32.3334 4.08301ZM32.3334 8.08301C38.2214 8.08301 43 12.8643 43 18.7497C43 24.6377 38.2214 29.4163 32.3334 29.4163C26.4454 29.4163 21.6667 24.6377 21.6667 18.7497C21.6667 12.8643 26.4454 8.08301 32.3334 8.08301Z" fill="#392B9C"/>
<path fill-rule="evenodd" clip-rule="evenodd" d="M38 36.9179C33.576 41.3393 33.576 48.5206 38 52.9446C42.4214 57.3686 49.6054 57.3686 54.0267 52.9446C58.4507 48.5206 58.4507 41.3393 54.0267 36.9179C49.6054 32.4939 42.4214 32.4966 38 36.9179ZM40.8267 39.7446C43.6907 36.8833 48.336 36.8833 51.2 39.7446C54.0614 42.6059 54.0614 47.2539 51.2 50.1153C48.336 52.9766 43.6907 52.9766 40.8267 50.1153C37.9654 47.2539 37.9654 42.6059 40.8267 39.7446Z" fill="#392B9C"/>
<path fill-rule="evenodd" clip-rule="evenodd" d="M51.6693 53.4136L57.5867 59.331C58.3653 60.1123 59.6347 60.1123 60.4133 59.331C61.1947 58.5496 61.1947 57.283 60.4133 56.5016L54.4987 50.587C53.7173 49.8056 52.4507 49.8056 51.6693 50.587C50.888 51.3656 50.888 52.635 51.6693 53.4136Z" fill="#392B9C"/>
</svg>
