<svg width="64" height="64" viewBox="0 0 64 64" fill="none" xmlns="http://www.w3.org/2000/svg">
<path fill-rule="evenodd" clip-rule="evenodd" d="M60.6667 32V18C60.6667 15.3467 59.6133 12.8053 57.7387 10.928C55.8613 9.05333 53.32 8 50.6667 8C40.5973 8 23.4027 8 13.3333 8C7.81066 8 3.33333 12.4773 3.33333 18V50C3.33333 55.5227 7.81066 60 13.3333 60H32C33.104 60 34 59.104 34 58C34 56.896 33.104 56 32 56C32 56 21.1893 56 13.3333 56C10.0187 56 7.33333 53.3147 7.33333 50V18C7.33333 14.6853 10.0187 12 13.3333 12H50.6667C52.2587 12 53.784 12.632 54.9093 13.7573C56.0347 14.8827 56.6667 16.408 56.6667 18V32C56.6667 33.104 57.5627 34 58.6667 34C59.7707 34 60.6667 33.104 60.6667 32Z" fill="#392B9C"/>
<path fill-rule="evenodd" clip-rule="evenodd" d="M58.6667 24H5.33333C4.22933 24 3.33333 24.896 3.33333 26C3.33333 27.104 4.22933 28 5.33333 28H58.6667C59.7707 28 60.6667 27.104 60.6667 26C60.6667 24.896 59.7707 24 58.6667 24Z" fill="#392B9C"/>
<path fill-rule="evenodd" clip-rule="evenodd" d="M18 5.33301V14.6663C18 15.7703 18.896 16.6663 20 16.6663C21.104 16.6663 22 15.7703 22 14.6663V5.33301C22 4.22901 21.104 3.33301 20 3.33301C18.896 3.33301 18 4.22901 18 5.33301Z" fill="#392B9C"/>
<path fill-rule="evenodd" clip-rule="evenodd" d="M42 5.33301V14.6663C42 15.7703 42.896 16.6663 44 16.6663C45.104 16.6663 46 15.7703 46 14.6663V5.33301C46 4.22901 45.104 3.33301 44 3.33301C42.896 3.33301 42 4.22901 42 5.33301Z" fill="#392B9C"/>
<path fill-rule="evenodd" clip-rule="evenodd" d="M46.6667 32.666C38.9387 32.666 32.6667 38.938 32.6667 46.666C32.6667 54.394 38.9387 60.666 46.6667 60.666C54.3947 60.666 60.6667 54.394 60.6667 46.666C60.6667 38.938 54.3947 32.666 46.6667 32.666ZM46.6667 36.666C52.1867 36.666 56.6667 41.146 56.6667 46.666C56.6667 52.186 52.1867 56.666 46.6667 56.666C41.1467 56.666 36.6667 52.186 36.6667 46.666C36.6667 41.146 41.1467 36.666 46.6667 36.666Z" fill="#392B9C"/>
<path fill-rule="evenodd" clip-rule="evenodd" d="M39.92 47.4133L43.92 51.4133C44.7013 52.1947 45.9653 52.1947 46.7467 51.4133L53.4133 44.7467C54.1947 43.968 54.1947 42.6987 53.4133 41.92C52.6347 41.1387 51.3653 41.1387 50.5867 41.92L45.3333 47.1706L42.7467 44.5866C41.968 43.8053 40.6987 43.8053 39.92 44.5866C39.1387 45.3653 39.1387 46.6347 39.92 47.4133Z" fill="#392B9C"/>
</svg>
