<svg width="65" height="64" viewBox="0 0 65 64" fill="none" xmlns="http://www.w3.org/2000/svg">
<path fill-rule="evenodd" clip-rule="evenodd" d="M5.66667 60.667H59C60.104 60.667 61 59.771 61 58.667C61 57.563 60.104 56.667 59 56.667H5.66667C4.56267 56.667 3.66667 57.563 3.66667 58.667C3.66667 59.771 4.56267 60.667 5.66667 60.667Z" fill="#392B9C"/>
<path fill-rule="evenodd" clip-rule="evenodd" d="M21 44.0003C21 43.115 20.648 42.2697 20.024 41.643C19.3973 41.019 18.5493 40.667 17.6667 40.667C15.616 40.667 11.7173 40.667 9.66668 40.667C8.78401 40.667 7.93601 41.019 7.30934 41.643C6.68534 42.2697 6.33334 43.115 6.33334 44.0003V58.667C6.33334 59.771 7.22934 60.667 8.33334 60.667H19C20.104 60.667 21 59.771 21 58.667V44.0003ZM10.3333 44.667H17V56.667H10.3333V44.667Z" fill="#392B9C"/>
<path fill-rule="evenodd" clip-rule="evenodd" d="M39.6667 58.667V36.0003C39.6667 35.115 39.3147 34.2697 38.6907 33.643C38.064 33.019 37.216 32.667 36.3333 32.667C34.2827 32.667 30.384 32.667 28.3333 32.667C27.4507 32.667 26.6027 33.019 25.976 33.643C25.352 34.2697 25 35.115 25 36.0003V58.667C25 59.771 25.896 60.667 27 60.667H37.6667C38.7707 60.667 39.6667 59.771 39.6667 58.667ZM29 36.667H35.6667V56.667H29V36.667Z" fill="#392B9C"/>
<path fill-rule="evenodd" clip-rule="evenodd" d="M58.3333 25.3333C58.3333 24.448 57.9813 23.6027 57.3573 22.976C56.7307 22.352 55.8827 22 55 22C52.9493 22 49.0507 22 47 22C46.1173 22 45.2693 22.352 44.6427 22.976C44.0187 23.6027 43.6667 24.448 43.6667 25.3333V58.6667C43.6667 59.7707 44.5627 60.6667 45.6667 60.6667H56.3333C57.4373 60.6667 58.3333 59.7707 58.3333 58.6667V25.3333ZM47.6667 26H54.3333V56.6667H47.6667V26Z" fill="#392B9C"/>
<path fill-rule="evenodd" clip-rule="evenodd" d="M48.816 6.37157C45.6907 11.5289 36.7813 17.1929 25.5467 20.9049C20.6347 22.5316 15.8533 23.5769 11.544 24.0542C10.4453 24.1769 9.65333 25.1662 9.776 26.2622C9.89867 27.3609 10.888 28.1529 11.984 28.0302C16.544 27.5236 21.6053 26.4222 26.8027 24.7049C39.1653 20.6169 48.7973 14.1182 52.2347 8.44357C52.808 7.49957 52.5067 6.27024 51.5627 5.6969C50.6187 5.12624 49.3867 5.42757 48.816 6.37157Z" fill="#392B9C"/>
<path fill-rule="evenodd" clip-rule="evenodd" d="M44.8187 8.1178L50.328 7.5338L50.9147 13.0458C51.0293 14.1418 52.016 14.9391 53.1147 14.8218C54.2107 14.7071 55.008 13.7205 54.8907 12.6218L54.096 5.12313C53.9787 4.02446 52.9947 3.22713 51.896 3.34446L44.3947 4.1418C43.2987 4.25646 42.5013 5.24313 42.6187 6.3418C42.7333 7.4378 43.72 8.23513 44.8187 8.1178Z" fill="#392B9C"/>
</svg>
