<svg width="65" height="64" viewBox="0 0 65 64" fill="none" xmlns="http://www.w3.org/2000/svg">
<path d="M42 60.667H23.3333C22.6933 60.667 22.08 60.347 21.7066 59.8403C21.3333 59.307 21.2266 58.6403 21.44 58.027L24.1066 50.027C24.3733 49.2003 25.1466 48.667 26 48.667H39.3333C40.1866 48.667 40.96 49.227 41.2266 50.027L43.8933 58.027C44.1066 58.6403 44 59.307 43.6266 59.8403C43.2533 60.3737 42.64 60.667 42 60.667ZM26.1066 56.667H39.2266L37.8933 52.667H27.44L26.1066 56.667Z" fill="#392B9C"/>
<path d="M46 60.667H19.3333C18.24 60.667 17.3333 59.7603 17.3333 58.667C17.3333 57.5737 18.24 56.667 19.3333 56.667H46C47.0933 56.667 48 57.5737 48 58.667C48 59.7603 47.0933 60.667 46 60.667Z" fill="#392B9C"/>
<path d="M37.0399 28.9063H28.2933C27.1999 28.9063 26.2933 27.9997 26.2933 26.9063V24.7463C26.2933 24.533 26.1599 24.3197 25.9733 24.1597C22.9599 21.9463 21.1733 18.4797 21.1733 14.8263C21.1733 13.0663 21.5733 11.3597 22.3466 9.78634C24.2933 5.81301 28.5066 3.33301 32.8533 3.33301C37.0666 3.38634 41.0133 5.91967 42.9333 9.75968C43.7866 11.413 44.1866 13.3063 44.1333 15.253C43.9999 18.7997 42.2666 22.0263 39.3866 24.1063C39.2533 24.213 39.0399 24.4263 39.0399 24.7197V26.8797C39.0399 27.973 38.1333 28.8797 37.0399 28.8797V28.9063ZM30.2933 24.9063H35.0399V24.7463C35.0399 23.2263 35.7599 21.8397 37.0133 20.9063C38.9066 19.5463 40.0533 17.4397 40.1333 15.1463C40.1866 13.893 39.9199 12.6663 39.3599 11.5997C38.0799 9.06634 35.5199 7.38634 32.7999 7.35967C29.8933 7.25301 27.1999 8.98634 25.9199 11.573C25.4133 12.5863 25.1733 13.7063 25.1733 14.853C25.1733 17.2263 26.3466 19.5197 28.2933 20.933C29.5199 21.813 30.2933 23.253 30.2933 24.773V24.933V24.9063Z" fill="#392B9C"/>
<path d="M34.3733 35.3329H30.9599C28.3999 35.3329 26.2933 33.2262 26.2933 30.6662V26.9062C26.2933 26.3729 26.5066 25.8663 26.8799 25.4929C27.2533 25.1196 27.7599 24.9062 28.2933 24.9062H37.0399C38.1333 24.9062 39.0399 25.8129 39.0399 26.9062V30.6662C39.0399 33.2262 36.9333 35.3329 34.3733 35.3329ZM30.2933 28.9062V30.6662C30.2933 31.0396 30.5866 31.3329 30.9599 31.3329H34.3733C34.7466 31.3329 35.0399 31.0396 35.0399 30.6662V28.9062H30.2933Z" fill="#392B9C"/>
<path d="M55.3333 52.6663H9.99994C6.69327 52.6663 3.99994 49.973 3.99994 46.6663V41.333C3.99994 40.2397 4.90661 39.333 5.99994 39.333H59.3333C60.4266 39.333 61.3333 40.2397 61.3333 41.333V46.6663C61.3333 49.973 58.6399 52.6663 55.3333 52.6663ZM7.99994 43.333V46.6663C7.99994 47.7597 8.90661 48.6663 9.99994 48.6663H55.3333C56.4266 48.6663 57.3333 47.7597 57.3333 46.6663V43.333H7.99994Z" fill="#392B9C"/>
<path d="M55.3333 8.66699H45.3599C45.9733 9.92033 46.3999 11.2537 46.6133 12.667H55.3333C56.4266 12.667 57.3333 13.5737 57.3333 14.667V46.667C57.3333 47.7603 56.4266 48.667 55.3333 48.667H9.99994C8.90661 48.667 7.99994 47.7603 7.99994 46.667V14.667C7.99994 13.5737 8.90661 12.667 9.99994 12.667H18.6933C18.9066 11.2803 19.3066 9.94699 19.9199 8.66699H9.99994C6.69327 8.66699 3.99994 11.3603 3.99994 14.667V46.667C3.99994 49.9737 6.69327 52.667 9.99994 52.667H55.3333C58.6399 52.667 61.3333 49.9737 61.3333 46.667V14.667C61.3333 11.3603 58.6399 8.66699 55.3333 8.66699Z" fill="#392B9C"/>
</svg>
