<svg width="64" height="64" viewBox="0 0 64 64" fill="none" xmlns="http://www.w3.org/2000/svg">
<path fill-rule="evenodd" clip-rule="evenodd" d="M45.3333 42.666V47.9993C45.3333 48.7567 45.7627 49.45 46.44 49.7887L49.1067 51.122C50.096 51.6153 51.296 51.2153 51.792 50.226C52.2853 49.2393 51.8827 48.0367 50.896 47.5434L49.3333 46.762V42.666C49.3333 41.562 48.4373 40.666 47.3333 40.666C46.2293 40.666 45.3333 41.562 45.3333 42.666Z" fill="#392B9C"/>
<path fill-rule="evenodd" clip-rule="evenodd" d="M60 47.9997C60 41.0077 54.3253 35.333 47.3333 35.333C40.3413 35.333 34.6667 41.0077 34.6667 47.9997C34.6667 54.9917 40.3413 60.6663 47.3333 60.6663C54.3253 60.6663 60 54.9917 60 47.9997ZM56 47.9997C56 52.7837 52.1173 56.6663 47.3333 56.6663C42.5493 56.6663 38.6667 52.7837 38.6667 47.9997C38.6667 43.2157 42.5493 39.333 47.3333 39.333C52.1173 39.333 56 43.2157 56 47.9997Z" fill="#392B9C"/>
<path fill-rule="evenodd" clip-rule="evenodd" d="M34 56.6663H11.3333C10.448 56.6663 9.60267 56.3143 8.976 55.6903C8.352 55.0637 8 54.2183 8 53.333V10.6663C8 9.78101 8.352 8.93567 8.976 8.30901C9.60267 7.68501 10.448 7.33301 11.3333 7.33301H30.3013C30.4693 7.33301 30.6293 7.39434 30.752 7.50634L43.7813 19.3517C43.92 19.4797 44 19.6583 44 19.845V31.9997C44 33.1037 44.896 33.9997 46 33.9997C47.104 33.9997 48 33.1037 48 31.9997C48 31.9997 48 23.1063 48 19.845C48 18.5303 47.4453 17.277 46.472 16.3917C43.8293 13.989 35.9333 6.81301 33.4427 4.54634C32.5813 3.76501 31.464 3.33301 30.3013 3.33301C27.1493 3.33301 17.4827 3.33301 11.3333 3.33301C9.38933 3.33301 7.52267 4.10634 6.14667 5.47967C4.77333 6.85567 4 8.72234 4 10.6663V53.333C4 55.277 4.77333 57.1437 6.14667 58.5197C7.52267 59.893 9.38933 60.6663 11.3333 60.6663H34C35.104 60.6663 36 59.7703 36 58.6663C36 57.5623 35.104 56.6663 34 56.6663Z" fill="#392B9C"/>
<path fill-rule="evenodd" clip-rule="evenodd" d="M33.3333 16.666V6.66602C33.3333 5.56202 32.4373 4.66602 31.3333 4.66602C30.2293 4.66602 29.3333 5.56202 29.3333 6.66602V17.3327C29.3333 18.218 29.6853 19.0633 30.3093 19.69C30.936 20.314 31.784 20.666 32.6667 20.666H44.6667C45.7707 20.666 46.6667 19.77 46.6667 18.666C46.6667 17.562 45.7707 16.666 44.6667 16.666H33.3333Z" fill="#392B9C"/>
<path fill-rule="evenodd" clip-rule="evenodd" d="M15.3333 26H24.6667C25.7707 26 26.6667 25.104 26.6667 24C26.6667 22.896 25.7707 22 24.6667 22H15.3333C14.2293 22 13.3333 22.896 13.3333 24C13.3333 25.104 14.2293 26 15.3333 26Z" fill="#392B9C"/>
<path fill-rule="evenodd" clip-rule="evenodd" d="M15.3333 35.333H32.6667C33.7707 35.333 34.6667 34.437 34.6667 33.333C34.6667 32.229 33.7707 31.333 32.6667 31.333H15.3333C14.2293 31.333 13.3333 32.229 13.3333 33.333C13.3333 34.437 14.2293 35.333 15.3333 35.333Z" fill="#392B9C"/>
<path fill-rule="evenodd" clip-rule="evenodd" d="M15.3333 44.666H26C27.104 44.666 28 43.77 28 42.666C28 41.562 27.104 40.666 26 40.666H15.3333C14.2293 40.666 13.3333 41.562 13.3333 42.666C13.3333 43.77 14.2293 44.666 15.3333 44.666Z" fill="#392B9C"/>
</svg>
