<svg width="32" height="32" viewBox="0 0 32 32" fill="none" xmlns="http://www.w3.org/2000/svg">
<path d="M23.8312 1.46875H8.16873C4.46739 1.46875 1.46686 4.46928 1.46686 8.17062V23.8331C1.46686 27.5345 4.46739 30.535 8.16873 30.535H23.8312C27.5326 30.535 30.5331 27.5345 30.5331 23.8331V8.17062C30.5331 4.46928 27.5326 1.46875 23.8312 1.46875Z" fill="url(#paint0_linear_3008_140)"/>
<path d="M20.6875 7.19984C21.7909 7.20429 22.8479 7.64459 23.6281 8.42484C24.4084 9.20508 24.8487 10.262 24.8531 11.3655V20.6317C24.8487 21.7351 24.4084 22.7921 23.6281 23.5724C22.8479 24.3526 21.7909 24.7929 20.6875 24.7973H11.3125C10.2091 24.7929 9.1521 24.3526 8.37186 23.5724C7.59161 22.7921 7.15131 21.7351 7.14687 20.6317V11.3655C7.15131 10.262 7.59161 9.20508 8.37186 8.42484C9.1521 7.64459 10.2091 7.20429 11.3125 7.19984H20.6875ZM20.6875 5.26234H11.3125C7.95562 5.26234 5.20874 8.01234 5.20874 11.3661V20.6317C5.20874 23.9886 7.95874 26.7355 11.3125 26.7355H20.6875C24.0444 26.7355 26.7912 23.9855 26.7912 20.6317V11.3655C26.7912 8.00859 24.0444 5.26172 20.6875 5.26172V5.26234Z" fill="white"/>
<path d="M16 12.3828C16.7153 12.3828 17.4146 12.5949 18.0094 12.9924C18.6042 13.3898 19.0678 13.9547 19.3416 14.6156C19.6153 15.2765 19.6869 16.0037 19.5474 16.7053C19.4078 17.4069 19.0633 18.0514 18.5575 18.5572C18.0517 19.063 17.4072 19.4075 16.7056 19.5471C16.004 19.6866 15.2768 19.615 14.6159 19.3412C13.955 19.0675 13.3901 18.6039 12.9927 18.0091C12.5952 17.4143 12.3831 16.715 12.3831 15.9997C12.3843 15.0408 12.7657 14.1215 13.4438 13.4434C14.1218 12.7654 15.0411 12.384 16 12.3828ZM16 10.4453C14.9014 10.4453 13.8276 10.7711 12.9142 11.3814C12.0007 11.9917 11.2888 12.8592 10.8684 13.8741C10.448 14.8891 10.338 16.0059 10.5523 17.0833C10.7667 18.1607 11.2957 19.1504 12.0725 19.9272C12.8493 20.704 13.8389 21.233 14.9164 21.4473C15.9938 21.6617 17.1106 21.5517 18.1256 21.1313C19.1405 20.7109 20.008 19.9989 20.6183 19.0855C21.2286 18.1721 21.5544 17.0982 21.5544 15.9997C21.5544 14.5266 20.9692 13.1138 19.9275 12.0722C18.8859 11.0305 17.4731 10.4453 16 10.4453Z" fill="white"/>
<path d="M21.6756 11.5205C22.4029 11.5205 22.9925 10.9309 22.9925 10.2036C22.9925 9.4763 22.4029 8.88672 21.6756 8.88672C20.9484 8.88672 20.3588 9.4763 20.3588 10.2036C20.3588 10.9309 20.9484 11.5205 21.6756 11.5205Z" fill="white"/>
<defs>
<linearGradient id="paint0_linear_3008_140" x1="20.5169" y1="31.755" x2="11.4831" y2="0.248749" gradientUnits="userSpaceOnUse">
<stop stop-color="#FFDB73"/>
<stop offset="0.08" stop-color="#FDAD4E"/>
<stop offset="0.15" stop-color="#FB832E"/>
<stop offset="0.19" stop-color="#FA7321"/>
<stop offset="0.23" stop-color="#F6692F"/>
<stop offset="0.37" stop-color="#E84A5A"/>
<stop offset="0.48" stop-color="#E03675"/>
<stop offset="0.55" stop-color="#DD2F7F"/>
<stop offset="0.68" stop-color="#B43D97"/>
<stop offset="0.97" stop-color="#4D60D4"/>
<stop offset="1" stop-color="#4264DB"/>
</linearGradient>
</defs>
</svg>
