<svg width="20" height="20" viewBox="0 0 20 20" fill="none" xmlns="http://www.w3.org/2000/svg">
<path d="M9.99999 18.9596C5.05832 18.9596 1.04166 14.943 1.04166 10.0013C1.04166 5.05964 5.05832 1.04297 9.99999 1.04297C14.9417 1.04297 18.9583 5.05964 18.9583 10.0013C18.9583 14.943 14.9417 18.9596 9.99999 18.9596ZM9.99999 2.29297C5.74999 2.29297 2.29166 5.7513 2.29166 10.0013C2.29166 14.2513 5.74999 17.7096 9.99999 17.7096C14.25 17.7096 17.7083 14.2513 17.7083 10.0013C17.7083 5.7513 14.25 2.29297 9.99999 2.29297Z" fill="#1E1F2E"/>
<path d="M7.50001 18.125H6.66668C6.32501 18.125 6.04168 17.8417 6.04168 17.5C6.04168 17.1583 6.30835 16.8833 6.65001 16.875C5.34168 12.4083 5.34168 7.59167 6.65001 3.125C6.30835 3.11667 6.04168 2.84167 6.04168 2.5C6.04168 2.15833 6.32501 1.875 6.66668 1.875H7.50001C7.70001 1.875 7.89168 1.975 8.00835 2.13333C8.12501 2.3 8.15835 2.50833 8.09168 2.7C6.52501 7.40833 6.52501 12.5917 8.09168 17.3083C8.15835 17.5 8.12501 17.7083 8.00835 17.875C7.89168 18.025 7.70001 18.125 7.50001 18.125Z" fill="#1E1F2E"/>
<path d="M12.5 18.1243C12.4333 18.1243 12.3667 18.1159 12.3 18.0909C11.975 17.9826 11.7917 17.6243 11.9083 17.2993C13.475 12.5909 13.475 7.40759 11.9083 2.69092C11.8 2.36592 11.975 2.00759 12.3 1.89925C12.6333 1.79092 12.9833 1.96592 13.0917 2.29092C14.75 7.25759 14.75 12.7243 13.0917 17.6826C13.0083 17.9576 12.7583 18.1243 12.5 18.1243Z" fill="#1E1F2E"/>
<path d="M10 14.334C7.675 14.334 5.35833 14.009 3.125 13.3506C3.11667 13.684 2.84167 13.959 2.5 13.959C2.15833 13.959 1.875 13.6756 1.875 13.334V12.5006C1.875 12.3006 1.975 12.109 2.13333 11.9923C2.3 11.8756 2.50833 11.8423 2.7 11.909C7.40833 13.4756 12.6 13.4756 17.3083 11.909C17.5 11.8423 17.7083 11.8756 17.875 11.9923C18.0417 12.109 18.1333 12.3006 18.1333 12.5006V13.334C18.1333 13.6756 17.85 13.959 17.5083 13.959C17.1667 13.959 16.8917 13.6923 16.8833 13.3506C14.6417 14.009 12.325 14.334 10 14.334Z" fill="#1E1F2E"/>
<path d="M17.5 8.12448C17.4333 8.12448 17.3667 8.11615 17.3 8.09115C12.5917 6.52448 7.39999 6.52448 2.69166 8.09115C2.35833 8.19948 2.00833 8.02448 1.89999 7.69948C1.79999 7.36615 1.97499 7.01615 2.29999 6.90781C7.26666 5.24948 12.7333 5.24948 17.6917 6.90781C18.0167 7.01615 18.2 7.37448 18.0833 7.69948C18.0083 7.95781 17.7583 8.12448 17.5 8.12448Z" fill="#1E1F2E"/>
</svg>
