<svg width="64" height="64" viewBox="0 0 64 64" fill="none" xmlns="http://www.w3.org/2000/svg">
<path fill-rule="evenodd" clip-rule="evenodd" d="M28.8 59.3333C30.1786 59.3333 31.5013 58.7867 32.4773 57.8107C33.4533 56.8347 34 55.512 34 54.1333V35.2C34 33.8213 33.4533 32.4987 32.4773 31.5227C31.5013 30.5467 30.1786 30 28.8 30C22.6693 30 14.664 30 8.53331 30C7.15465 30 5.83198 30.5467 4.85598 31.5227C3.87998 32.4987 3.33331 33.8213 3.33331 35.2V54.1333C3.33331 55.512 3.87998 56.8347 4.85598 57.8107C5.83198 58.7867 7.15465 59.3333 8.53331 59.3333H28.8ZM28.8 55.3333H8.53331C8.21598 55.3333 7.90931 55.208 7.68531 54.9813C7.45865 54.7573 7.33331 54.4507 7.33331 54.1333V35.2C7.33331 34.8827 7.45865 34.576 7.68531 34.352C7.90931 34.1253 8.21598 34 8.53331 34H28.8C29.1173 34 29.424 34.1253 29.648 34.352C29.8746 34.576 30 34.8827 30 35.2V54.1333C30 54.4507 29.8746 54.7573 29.648 54.9813C29.424 55.208 29.1173 55.3333 28.8 55.3333Z" fill="#0C67C9"/>
<path fill-rule="evenodd" clip-rule="evenodd" d="M55.4667 59.3333C56.8453 59.3333 58.168 58.7867 59.144 57.8107C60.12 56.8347 60.6667 55.512 60.6667 54.1333V35.2C60.6667 33.8213 60.12 32.4987 59.144 31.5227C58.168 30.5467 56.8453 30 55.4667 30C49.336 30 41.3307 30 35.2 30C33.8213 30 32.4987 30.5467 31.5227 31.5227C30.5467 32.4987 30 33.8213 30 35.2V54.1333C30 55.512 30.5467 56.8347 31.5227 57.8107C32.4987 58.7867 33.8213 59.3333 35.2 59.3333H55.4667ZM55.4667 55.3333H35.2C34.8827 55.3333 34.576 55.208 34.352 54.9813C34.1253 54.7573 34 54.4507 34 54.1333V35.2C34 34.8827 34.1253 34.576 34.352 34.352C34.576 34.1253 34.8827 34 35.2 34H55.4667C55.784 34 56.0907 34.1253 56.3147 34.352C56.5413 34.576 56.6667 34.8827 56.6667 35.2V54.1333C56.6667 54.4507 56.5413 54.7573 56.3147 54.9813C56.0907 55.208 55.784 55.3333 55.4667 55.3333Z" fill="#0C67C9"/>
<path fill-rule="evenodd" clip-rule="evenodd" d="M42.1333 33.9993C43.512 33.9993 44.8346 33.4527 45.8106 32.4767C46.7866 31.5007 47.3333 30.178 47.3333 28.7994V9.86602C47.3333 8.48735 46.7866 7.16468 45.8106 6.18868C44.8346 5.21268 43.512 4.66602 42.1333 4.66602C36.0026 4.66602 27.9973 4.66602 21.8666 4.66602C20.488 4.66602 19.1653 5.21268 18.1893 6.18868C17.2133 7.16468 16.6666 8.48735 16.6666 9.86602V28.7994C16.6666 30.178 17.2133 31.5007 18.1893 32.4767C19.1653 33.4527 20.488 33.9993 21.8666 33.9993H42.1333ZM42.1333 29.9993H21.8666C21.5493 29.9993 21.2426 29.874 21.0186 29.6474C20.792 29.4233 20.6666 29.1167 20.6666 28.7994V9.86602C20.6666 9.54868 20.792 9.24202 21.0186 9.01802C21.2426 8.79135 21.5493 8.66602 21.8666 8.66602H42.1333C42.4506 8.66602 42.7573 8.79135 42.9813 9.01802C43.208 9.24202 43.3333 9.54868 43.3333 9.86602V28.7994C43.3333 29.1167 43.208 29.4233 42.9813 29.6474C42.7573 29.874 42.4506 29.9993 42.1333 29.9993Z" fill="#0C67C9"/>
<path fill-rule="evenodd" clip-rule="evenodd" d="M26 32C26 30.896 25.104 30 24 30H13.3333C12.2293 30 11.3333 30.896 11.3333 32V39.7333C11.3333 40.7253 11.768 41.6933 12.6053 42.3973C13.304 42.984 14.248 43.3333 15.2373 43.3333H22.096C23.0853 43.3333 24.0293 42.984 24.728 42.3973C25.5653 41.6933 26 40.7253 26 39.7333C26 37.4 26 32 26 32ZM22 39.3333H15.3333V34H22V39.3333Z" fill="#0C67C9"/>
<path fill-rule="evenodd" clip-rule="evenodd" d="M52.6667 32C52.6667 30.896 51.7707 30 50.6667 30H40C38.896 30 38 30.896 38 32V39.7333C38 40.7253 38.4347 41.6933 39.272 42.3973C39.9707 42.984 40.9147 43.3333 41.904 43.3333H48.7627C49.752 43.3333 50.696 42.984 51.3947 42.3973C52.232 41.6933 52.6667 40.7253 52.6667 39.7333C52.6667 37.4 52.6667 32 52.6667 32ZM48.6667 39.3333H42V34H48.6667V39.3333Z" fill="#0C67C9"/>
<path fill-rule="evenodd" clip-rule="evenodd" d="M39.3333 6.66602C39.3333 5.56202 38.4373 4.66602 37.3333 4.66602H26.6666C25.5626 4.66602 24.6666 5.56202 24.6666 6.66602V14.3993C24.6666 15.3913 25.1013 16.3594 25.9386 17.0633C26.6373 17.65 27.5813 17.9993 28.5706 17.9993H35.4293C36.4186 17.9993 37.3626 17.65 38.0613 17.0633C38.8986 16.3594 39.3333 15.3913 39.3333 14.3993C39.3333 12.066 39.3333 6.66602 39.3333 6.66602ZM35.3333 13.9993H28.6666V8.66602H35.3333V13.9993Z" fill="#0C67C9"/>
</svg>
