<svg width="65" height="64" viewBox="0 0 65 64" fill="none" xmlns="http://www.w3.org/2000/svg">
<path fill-rule="evenodd" clip-rule="evenodd" d="M45.5226 45.334C44.4186 45.334 43.5226 44.438 43.5226 43.334C43.5226 42.23 44.4186 41.334 45.5226 41.334H58C60.576 41.334 62.6666 43.422 62.6666 46.0007V51.334C62.6666 53.9127 60.576 56.0007 58 56.0007H26.6666C25.5626 56.0007 24.6666 55.1047 24.6666 54.0007C24.6666 52.8967 25.5626 52.0007 26.6666 52.0007H58C58.368 52.0007 58.6666 51.702 58.6666 51.334V46.0007C58.6666 45.6327 58.368 45.334 58 45.334H45.5226Z" fill="#0C67C9"/>
<path fill-rule="evenodd" clip-rule="evenodd" d="M43.8106 42.3007C45.5253 39.4527 46.552 36.1433 46.6586 32.6073C46.6906 31.5247 47.576 30.666 48.656 30.666H58C60.576 30.666 62.6666 32.754 62.6666 35.3327V40.666C62.6666 43.2447 60.576 45.3327 58 45.3327H45.5226C44.8026 45.3327 44.136 44.9433 43.7813 44.3167C43.4266 43.6873 43.4373 42.9167 43.8106 42.3007ZM48.7813 41.3327H58C58.368 41.3327 58.6666 41.034 58.6666 40.666V35.3327C58.6666 34.9647 58.368 34.666 58 34.666H50.52C50.2613 37.0047 49.664 39.2447 48.7813 41.3327Z" fill="#0C67C9"/>
<path fill-rule="evenodd" clip-rule="evenodd" d="M46.6586 32.608C46.664 32.4053 46.6666 32.2027 46.6666 32C46.6666 28.728 45.88 25.6373 44.4853 22.912C44.168 22.2907 44.1946 21.5493 44.5573 20.9573C44.9226 20.3627 45.568 20 46.264 20H58C60.576 20 62.6666 22.088 62.6666 24.6667V30C62.6666 32.5787 60.576 34.6667 58 34.6667H48.656C48.1146 34.6667 47.5973 34.448 47.2213 34.0587C46.8453 33.672 46.6426 33.1467 46.6586 32.608ZM50.6293 30.6667H58C58.368 30.6667 58.6666 30.368 58.6666 30V24.6667C58.6666 24.2987 58.368 24 58 24H49.2986C50.0426 26.104 50.5013 28.3413 50.6293 30.6667Z" fill="#0C67C9"/>
<path fill-rule="evenodd" clip-rule="evenodd" d="M26.6666 8C39.912 8 50.6666 18.7547 50.6666 32C50.6666 45.2453 39.912 56 26.6666 56C13.4213 56 2.66663 45.2453 2.66663 32C2.66663 18.7547 13.4213 8 26.6666 8ZM26.6666 12C15.6293 12 6.66663 20.9627 6.66663 32C6.66663 43.0373 15.6293 52 26.6666 52C37.704 52 46.6666 43.0373 46.6666 32C46.6666 20.9627 37.704 12 26.6666 12Z" fill="#0C67C9"/>
<path fill-rule="evenodd" clip-rule="evenodd" d="M30 22C31.104 22 32 22.896 32 24C32 25.104 31.104 26 30 26H24.6666C24.136 26 23.6266 26.2107 23.2533 26.5867C22.8773 26.96 22.6666 27.4693 22.6666 28C22.6666 28.5307 22.8773 29.04 23.2533 29.4133C23.6266 29.7893 24.136 30 24.6666 30H27.3333C28.9253 30 30.4506 30.632 31.576 31.7573C32.7013 32.8827 33.3333 34.408 33.3333 36C33.3333 37.592 32.7013 39.1173 31.576 40.2427C30.4506 41.368 28.9253 42 27.3333 42H22C20.896 42 20 41.104 20 40C20 38.896 20.896 38 22 38H27.3333C27.864 38 28.3733 37.7893 28.7466 37.4133C29.1226 37.04 29.3333 36.5307 29.3333 36C29.3333 35.4693 29.1226 34.96 28.7466 34.5867C28.3733 34.2107 27.864 34 27.3333 34H24.6666C23.0746 34 21.5493 33.368 20.424 32.2427C19.2986 31.1173 18.6666 29.592 18.6666 28C18.6666 26.408 19.2986 24.8827 20.424 23.7573C21.5493 22.632 23.0746 22 24.6666 22H30Z" fill="#0C67C9"/>
<path fill-rule="evenodd" clip-rule="evenodd" d="M28 24C28 25.104 27.104 26 26 26C24.896 26 24 25.104 24 24V20C24 18.896 24.896 18 26 18C27.104 18 28 18.896 28 20V24Z" fill="#0C67C9"/>
<path fill-rule="evenodd" clip-rule="evenodd" d="M28 44C28 45.104 27.104 46 26 46C24.896 46 24 45.104 24 44V40C24 38.896 24.896 38 26 38C27.104 38 28 38.896 28 40V44Z" fill="#0C67C9"/>
</svg>
