<svg width="65" height="64" viewBox="0 0 65 64" fill="none" xmlns="http://www.w3.org/2000/svg">
<path fill-rule="evenodd" clip-rule="evenodd" d="M34.4454 57.888C38.152 61.592 44.16 61.592 47.8667 57.888L54.2214 51.5333C57.9254 47.8267 57.9254 41.8187 54.2214 38.112C50.5147 34.408 44.5067 34.408 40.8 38.112L34.4454 44.4667C30.7414 48.1733 30.7414 54.1813 34.4454 57.888ZM37.2747 55.0587C35.1307 52.9146 35.1307 49.44 37.2747 47.296L43.6294 40.9413C45.7734 38.7973 49.248 38.7973 51.392 40.9413C53.536 43.0853 53.536 46.56 51.392 48.704L45.0374 55.0587C42.8934 57.2027 39.4187 57.2027 37.2747 55.0587Z" fill="#0C67C9"/>
<path fill-rule="evenodd" clip-rule="evenodd" d="M37.624 44.1177L48.216 54.7097C48.9947 55.4911 50.264 55.4911 51.0427 54.7097C51.824 53.9311 51.824 52.6617 51.0427 51.8831L40.4507 41.2911C39.672 40.5097 38.4027 40.5097 37.624 41.2911C36.8427 42.0697 36.8427 43.3391 37.624 44.1177Z" fill="#0C67C9"/>
<path fill-rule="evenodd" clip-rule="evenodd" d="M54.3334 30.6673V22.438C54.3334 21.2007 53.8427 20.014 52.9654 19.1393C50.2507 16.4247 41.2427 7.41665 38.528 4.70198C37.6534 3.82465 36.4667 3.33398 35.2294 3.33398C31.8427 3.33398 21.4427 3.33398 15 3.33398C13.056 3.33398 11.1894 4.10732 9.81335 5.48065C8.44002 6.85665 7.66669 8.72332 7.66669 10.6673V53.334C7.66669 55.278 8.44002 57.1447 9.81335 58.5207C11.1894 59.894 13.056 60.6673 15 60.6673H28.3334C29.4374 60.6673 30.3334 59.7713 30.3334 58.6673C30.3334 57.5633 29.4374 56.6673 28.3334 56.6673H15C14.1147 56.6673 13.2694 56.3153 12.6427 55.6913C12.0187 55.0647 11.6667 54.2193 11.6667 53.334V10.6673C11.6667 9.78198 12.0187 8.93665 12.6427 8.30998C13.2694 7.68598 14.1147 7.33398 15 7.33398H35.2294C35.4054 7.33398 35.576 7.40332 35.7014 7.52865L50.1387 21.966C50.264 22.0913 50.3334 22.262 50.3334 22.438V30.6673C50.3334 31.7713 51.2294 32.6673 52.3334 32.6673C53.4374 32.6673 54.3334 31.7713 54.3334 30.6673Z" fill="#0C67C9"/>
<path fill-rule="evenodd" clip-rule="evenodd" d="M34.3333 6.66797V16.0013C34.3333 20.052 37.616 23.3346 41.6667 23.3346H51C52.104 23.3346 53 22.4386 53 21.3346C53 20.2306 52.104 19.3346 51 19.3346H41.6667C39.8267 19.3346 38.3333 17.8413 38.3333 16.0013V6.66797C38.3333 5.56397 37.4373 4.66797 36.3333 4.66797C35.2293 4.66797 34.3333 5.56397 34.3333 6.66797Z" fill="#0C67C9"/>
<path fill-rule="evenodd" clip-rule="evenodd" d="M17.6667 28.668H28.3334C29.4374 28.668 30.3334 27.772 30.3334 26.668C30.3334 25.564 29.4374 24.668 28.3334 24.668H17.6667C16.5627 24.668 15.6667 25.564 15.6667 26.668C15.6667 27.772 16.5627 28.668 17.6667 28.668Z" fill="#0C67C9"/>
<path fill-rule="evenodd" clip-rule="evenodd" d="M17.6667 39.334H28.3334C29.4374 39.334 30.3334 38.438 30.3334 37.334C30.3334 36.23 29.4374 35.334 28.3334 35.334H17.6667C16.5627 35.334 15.6667 36.23 15.6667 37.334C15.6667 38.438 16.5627 39.334 17.6667 39.334Z" fill="#0C67C9"/>
</svg>
