<svg width="64" height="64" viewBox="0 0 64 64" fill="none" xmlns="http://www.w3.org/2000/svg">
<g clip-path="url(#clip0_980_8780)">
<path d="M56.6665 56H7.3335C3.28809 56 0 52.7119 0 48.6665V15.3335C0 11.2881 3.28809 8 7.3335 8H56.6665C60.7119 8 64 11.2881 64 15.3335V48.6665C64 52.7119 60.7119 56 56.6665 56ZM7.3335 12C5.49609 12 4 13.4961 4 15.3335V48.6665C4 50.5039 5.49609 52 7.3335 52H56.6665C58.5039 52 60 50.5039 60 48.6665V15.3335C60 13.4961 58.5039 12 56.6665 12H7.3335Z" fill="#0C67C9"/>
<path d="M20 31.9995C16.3252 31.9995 13.3335 29.0073 13.3335 25.333C13.3335 21.6582 16.3252 18.666 20 18.666C23.6748 18.666 26.6665 21.6582 26.6665 25.333C26.6665 29.0073 23.6748 31.9995 20 31.9995ZM20 22.666C18.5308 22.666 17.3335 23.8633 17.3335 25.333C17.3335 26.8022 18.5308 27.9995 20 27.9995C21.4692 27.9995 22.6665 26.8022 22.6665 25.333C22.6665 23.8633 21.4692 22.666 20 22.666Z" fill="#0C67C9"/>
<path d="M30 45.333C28.896 45.333 28 44.437 28 43.333V41.9995C28 40.1621 26.5039 38.666 24.6665 38.666H15.3335C13.4961 38.666 12 40.1621 12 41.9995V43.333C12 44.437 11.104 45.333 10 45.333C8.896 45.333 8 44.437 8 43.333V41.9995C8 37.9541 11.2881 34.666 15.3335 34.666H24.6665C28.7119 34.666 32 37.9541 32 41.9995V43.333C32 44.437 31.104 45.333 30 45.333Z" fill="#0C67C9"/>
<path d="M54 24H39.3335C38.2295 24 37.3335 23.104 37.3335 22C37.3335 20.896 38.2295 20 39.3335 20H54C55.104 20 56 20.896 56 22C56 23.104 55.104 24 54 24Z" fill="#0C67C9"/>
<path d="M54 34.666H39.3335C38.2295 34.666 37.3335 33.77 37.3335 32.666C37.3335 31.562 38.2295 30.666 39.3335 30.666H54C55.104 30.666 56 31.562 56 32.666C56 33.77 55.104 34.666 54 34.666Z" fill="#0C67C9"/>
<path d="M54 45.334H39.3335C38.2295 45.334 37.3335 44.438 37.3335 43.334C37.3335 42.23 38.2295 41.334 39.3335 41.334H54C55.104 41.334 56 42.23 56 43.334C56 44.438 55.104 45.334 54 45.334Z" fill="#0C67C9"/>
</g>
<defs>
<clipPath id="clip0_980_8780">
<rect width="64" height="64" fill="white"/>
</clipPath>
</defs>
</svg>
