<svg width="65" height="64" viewBox="0 0 65 64" fill="none" xmlns="http://www.w3.org/2000/svg">
<path fill-rule="evenodd" clip-rule="evenodd" d="M61 32V18C61 15.3467 59.9467 12.8053 58.072 10.928C56.1947 9.05333 53.6534 8 51 8C40.9307 8 23.736 8 13.6667 8C8.14402 8 3.66669 12.4773 3.66669 18V50C3.66669 55.5227 8.14402 60 13.6667 60H32.3334C33.4374 60 34.3334 59.104 34.3334 58C34.3334 56.896 33.4374 56 32.3334 56C32.3334 56 21.5227 56 13.6667 56C10.352 56 7.66669 53.3147 7.66669 50V18C7.66669 14.6853 10.352 12 13.6667 12H51C52.592 12 54.1174 12.632 55.2427 13.7573C56.368 14.8827 57 16.408 57 18V32C57 33.104 57.896 34 59 34C60.104 34 61 33.104 61 32Z" fill="#0C67C9"/>
<path fill-rule="evenodd" clip-rule="evenodd" d="M59 24H5.66669C4.56269 24 3.66669 24.896 3.66669 26C3.66669 27.104 4.56269 28 5.66669 28H59C60.104 28 61 27.104 61 26C61 24.896 60.104 24 59 24Z" fill="#0C67C9"/>
<path fill-rule="evenodd" clip-rule="evenodd" d="M18.3333 5.33398V14.6673C18.3333 15.7713 19.2293 16.6673 20.3333 16.6673C21.4373 16.6673 22.3333 15.7713 22.3333 14.6673V5.33398C22.3333 4.22998 21.4373 3.33398 20.3333 3.33398C19.2293 3.33398 18.3333 4.22998 18.3333 5.33398Z" fill="#0C67C9"/>
<path fill-rule="evenodd" clip-rule="evenodd" d="M42.3333 5.33398V14.6673C42.3333 15.7713 43.2293 16.6673 44.3333 16.6673C45.4373 16.6673 46.3333 15.7713 46.3333 14.6673V5.33398C46.3333 4.22998 45.4373 3.33398 44.3333 3.33398C43.2293 3.33398 42.3333 4.22998 42.3333 5.33398Z" fill="#0C67C9"/>
<path fill-rule="evenodd" clip-rule="evenodd" d="M47 32.668C39.272 32.668 33 38.94 33 46.668C33 54.396 39.272 60.668 47 60.668C54.728 60.668 61 54.396 61 46.668C61 38.94 54.728 32.668 47 32.668ZM47 36.668C52.52 36.668 57 41.148 57 46.668C57 52.188 52.52 56.668 47 56.668C41.48 56.668 37 52.188 37 46.668C37 41.148 41.48 36.668 47 36.668Z" fill="#0C67C9"/>
<path fill-rule="evenodd" clip-rule="evenodd" d="M40.2534 47.4133L44.2534 51.4133C45.0347 52.1947 46.2987 52.1947 47.08 51.4133L53.7467 44.7467C54.528 43.968 54.528 42.6987 53.7467 41.92C52.968 41.1387 51.6987 41.1387 50.92 41.92L45.6667 47.1706L43.08 44.5866C42.3014 43.8053 41.032 43.8053 40.2534 44.5866C39.472 45.3653 39.472 46.6347 40.2534 47.4133Z" fill="#0C67C9"/>
</svg>
