<svg width="65" height="64" viewBox="0 0 65 64" fill="none" xmlns="http://www.w3.org/2000/svg">
<path fill-rule="evenodd" clip-rule="evenodd" d="M31.616 6.70215C31.616 6.13949 31.3786 5.60349 30.9653 5.22482C30.5493 4.84615 29.992 4.65949 29.432 4.71015C15.1786 6.02749 3.99996 18.0328 3.99996 32.6275C3.99996 48.1048 16.5626 60.6675 32.04 60.6675C38.84 60.6675 45.0773 58.2408 49.9333 54.2088C50.3573 53.8568 50.6186 53.3422 50.6506 52.7875C50.6853 52.2355 50.4853 51.6942 50.104 51.2942L31.616 31.8302V6.70215ZM27.616 8.99549V32.6275C27.616 33.1422 27.8133 33.6355 28.1653 34.0062L45.6666 52.4275C41.7946 55.1022 37.0986 56.6675 32.04 56.6675C18.7706 56.6675 7.99996 45.8968 7.99996 32.6275C7.99996 20.8702 16.4586 11.0728 27.616 8.99549ZM61.3253 35.2702C61.376 34.7102 61.1893 34.1528 60.8106 33.7368C60.432 33.3208 59.896 33.0862 59.3333 33.0862H39.2533C38.4453 33.0862 37.7146 33.5715 37.4053 34.3208C37.096 35.0675 37.2666 35.9262 37.84 36.4995L52.0346 50.6942C52.432 51.0915 52.9786 51.3022 53.5413 51.2782C54.1013 51.2515 54.6266 50.9902 54.9866 50.5582C58.4986 46.3288 60.792 41.0515 61.3253 35.2702ZM57.0373 37.0862C56.416 40.4328 55.096 43.5368 53.24 46.2435L44.0826 37.0862H57.0373ZM36.0133 3.34215C35.4533 3.29149 34.896 3.47815 34.48 3.85682C34.064 4.23549 33.8293 4.77149 33.8293 5.33415V28.8382C33.8293 29.9448 34.7226 30.8382 35.8293 30.8382H59.3333C59.896 30.8382 60.432 30.6035 60.8106 30.1875C61.1893 29.7715 61.376 29.2142 61.3253 28.6542C60.0853 15.2568 49.408 4.57949 36.0133 3.34215ZM37.8293 7.63015C47.552 9.43815 55.2266 17.1128 57.0373 26.8382H37.8293V7.63015Z" fill="#0C67C9"/>
</svg>
