<svg width="40" height="40" viewBox="0 0 40 40" fill="none" xmlns="http://www.w3.org/2000/svg">
<path d="M36.2499 19.375H30.3039L29.4726 9.83981C29.3878 8.86231 28.5855 8.125 27.6062 8.125H23.125C23.125 4.67862 20.3214 1.875 16.875 1.875C13.4286 1.875 10.625 4.67862 10.625 8.125H6.1438C5.16449 8.125 4.36218 8.86231 4.27736 9.83981L2.11486 34.7254C2.03705 35.5948 2.3303 36.4634 2.92024 37.1085C3.51074 37.7546 4.35093 38.1251 5.22493 38.1251H35C36.723 38.1251 38.125 36.7231 38.125 35.0001V21.2501C38.125 20.2161 37.2839 19.375 36.2499 19.375ZM16.8749 3.125C19.6319 3.125 21.8749 5.36806 21.8749 8.125H11.8749C11.8749 5.36806 14.118 3.125 16.8749 3.125ZM5.52236 9.94781C5.55043 9.62675 5.82324 9.375 6.14368 9.375H10.6249V13.75C10.6249 14.0951 10.9047 14.375 11.2499 14.375C11.595 14.375 11.8749 14.0951 11.8749 13.75V9.375H21.8749V13.75C21.8749 14.0951 22.1547 14.375 22.4999 14.375C22.845 14.375 23.1249 14.0951 23.1249 13.75V9.375H27.6061C27.9265 9.375 28.1993 9.62675 28.2274 9.94812L29.0492 19.375H21.2498C20.2159 19.375 19.3748 20.2161 19.3748 21.25V31.875H3.61711L5.52236 9.94781ZM3.84236 36.2649C3.4838 35.8728 3.3123 35.3656 3.35986 34.8352L3.50843 33.125H19.3749V35C19.3749 35.7062 19.6192 36.3511 20.0159 36.875H5.22486C4.69324 36.875 4.20218 36.6583 3.84236 36.2649ZM36.8749 35C36.8749 36.0339 36.0339 36.875 34.9999 36.875H22.4999C21.466 36.875 20.6249 36.0339 20.6249 35V21.25C20.6249 20.9054 20.9054 20.625 21.2499 20.625H36.2499C36.5945 20.625 36.8749 20.9054 36.8749 21.25V35ZM33.1249 23.75V26.25C33.1249 28.6624 31.1624 30.625 28.7499 30.625C26.3375 30.625 24.3749 28.6624 24.3749 26.25V23.75C24.3749 23.4049 24.6548 23.125 24.9999 23.125C25.3451 23.125 25.6249 23.4049 25.6249 23.75V26.25C25.6249 27.973 27.0269 29.375 28.7499 29.375C30.4729 29.375 31.8749 27.973 31.8749 26.25V23.75C31.8749 23.4049 32.1548 23.125 32.4999 23.125C32.8451 23.125 33.1249 23.4049 33.1249 23.75Z" fill="#0C67C9"/>
</svg>
