<svg width="81" height="23" viewBox="0 0 81 23" fill="none" xmlns="http://www.w3.org/2000/svg">
<g clip-path="url(#clip0_980_9066)">
<g clip-path="url(#clip1_980_9066)">
<mask id="mask0_980_9066" style="mask-type:luminance" maskUnits="userSpaceOnUse" x="0" y="0" width="80" height="23">
<path d="M79.844 0.525391H0.349731V22.4754H79.844V0.525391Z" fill="white"/>
</mask>
<g mask="url(#mask0_980_9066)">
<path d="M5.72543 5.19018L4.48369 9.61174H2.04287L0.349731 3.34961H2.24676L3.27227 7.90555H3.34636L4.6255 3.34961H6.8935L8.16589 7.90555H8.24624L9.27233 3.34961H11.1692L9.47003 9.61174H7.0293L5.78719 5.19018H5.72543Z" fill="#B5C3CF"/>
<path d="M14.0599 9.61174H12.2373V3.34961H14.0599V9.61174Z" fill="#B5C3CF"/>
<path d="M19.8936 5.28943C19.8936 5.0877 19.8689 4.99591 19.7268 4.81851C19.5783 4.64716 19.2017 4.56796 18.6269 4.56796C17.8422 4.56796 17.4529 4.75753 17.4529 5.14249C17.4529 5.32608 17.6136 5.4605 17.9286 5.54049C18.2439 5.62602 18.6269 5.687 19.078 5.72998C19.5289 5.77252 19.98 5.83401 20.4311 5.92544C20.8822 6.01724 21.2655 6.21896 21.5805 6.51849C21.8957 6.81831 22.0563 7.22812 22.0563 7.73564C22.0563 9.07492 20.9501 9.74166 18.7383 9.73546C16.5447 9.73546 15.4511 9.02616 15.4511 7.60756V7.41173H17.3231V7.60756C17.3231 8.17618 17.7494 8.39612 18.7383 8.39612C19.6958 8.39612 20.1779 8.18205 20.1838 7.76008C20.1838 7.57689 20.0728 7.43582 19.8442 7.33212C19.6153 7.23411 19.325 7.17301 18.9851 7.14257C18.6456 7.11784 18.2749 7.07524 17.8793 7.00785C17.4838 6.94051 17.1132 6.85503 16.7733 6.75091C16.4333 6.64728 16.149 6.45145 15.9204 6.17607C15.6919 5.90103 15.5745 5.55266 15.5745 5.13031C15.5745 4.51274 15.8527 4.03562 16.4026 3.71136C16.9524 3.38744 17.7064 3.22856 18.6639 3.22856C20.734 3.22229 21.7659 3.91345 21.7659 5.28943H19.8936Z" fill="#B5C3CF"/>
<path d="M25.5712 5.01869C25.2747 5.28147 25.1266 5.5629 25.1266 5.85607H28.4508C28.4508 5.55656 28.3087 5.27527 28.0245 5.01235C27.7339 4.75547 27.3261 4.62739 26.7947 4.62739C26.2695 4.62739 25.862 4.75547 25.5712 5.01869ZM30.3538 6.9573H25.1015C25.1015 7.33009 25.25 7.65448 25.553 7.92357C25.8496 8.1986 26.2695 8.33339 26.8197 8.33339C27.141 8.33339 27.4189 8.27816 27.6598 8.1741C27.8946 8.07017 28.0491 7.96611 28.1232 7.85618L28.2407 7.70959H30.2364C30.23 7.7644 30.2118 7.83767 30.1806 7.92357C30.15 8.01535 30.0636 8.1741 29.9088 8.40668C29.7547 8.64546 29.5691 8.85312 29.3465 9.03037C29.1181 9.20777 28.7845 9.37318 28.3397 9.51351C27.8884 9.66049 27.3819 9.73387 26.8197 9.73387C25.7381 9.73387 24.867 9.44648 24.1935 8.87123C23.5198 8.29672 23.1863 7.50154 23.1863 6.48021C23.1863 5.45887 23.5198 4.66368 24.1874 4.08871C24.8546 3.5139 25.7258 3.22656 26.7947 3.22656C27.8576 3.22656 28.7228 3.5139 29.39 4.08871C30.0573 4.66368 30.3912 5.45887 30.3912 6.48021L30.3538 6.9573Z" fill="#B5C3CF"/>
<path d="M2.2354 1.44829C2.2354 1.95754 1.81811 2.37084 1.30325 2.37084C0.788381 2.37084 0.371155 1.95754 0.371155 1.44829C0.371155 0.938689 0.788381 0.525391 1.30325 0.525391C1.81811 0.525391 2.2354 0.938689 2.2354 1.44829Z" fill="#6A6F79"/>
<path d="M11.1694 1.44829C11.1694 1.95754 10.7522 2.37084 10.2373 2.37084C9.72246 2.37084 9.30518 1.95754 9.30518 1.44829C9.30518 0.938689 9.72246 0.525391 10.2373 0.525391C10.7522 0.525391 11.1694 0.938689 11.1694 1.44829Z" fill="#6A6F79"/>
<path d="M6.70161 1.44829C6.70161 1.95754 6.28409 2.37084 5.76947 2.37084C5.25457 2.37084 4.8374 1.95754 4.8374 1.44829C4.8374 0.938689 5.25457 0.525391 5.76947 0.525391C6.28409 0.525391 6.70161 0.938689 6.70161 1.44829Z" fill="#6A6F79"/>
<path d="M2.74093 15.253C2.44435 15.5158 2.29622 15.7975 2.29622 16.0907H5.62051C5.62051 15.7912 5.47839 15.5095 5.19408 15.2467C4.90349 14.9898 4.49586 14.8617 3.96438 14.8617C3.43918 14.8617 3.03155 14.9898 2.74093 15.253ZM7.52346 17.1917H2.2712C2.2712 17.5647 2.41971 17.8887 2.72228 18.1578C3.0192 18.4329 3.43918 18.5677 3.98902 18.5677C4.31033 18.5677 4.58859 18.5129 4.82945 18.4085C5.06435 18.3048 5.21875 18.2008 5.29285 18.0908L5.4103 17.9439H7.40599C7.3997 17.9991 7.38138 18.0723 7.35029 18.1578C7.31927 18.2496 7.23288 18.4085 7.07835 18.641C6.92392 18.8798 6.73883 19.0874 6.51625 19.2648C6.28773 19.4425 5.95409 19.6076 5.50902 19.7482C5.05795 19.8948 4.55155 19.9684 3.98902 19.9684C2.90778 19.9684 2.0363 19.6808 1.36306 19.1059C0.689451 18.531 0.355865 17.7359 0.355865 16.7146C0.355865 15.6935 0.689451 14.898 1.35708 14.3234C2.02437 13.7481 2.89542 13.4609 3.96438 13.4609C5.02698 13.4609 5.89237 13.7481 6.55962 14.3234C7.2269 14.898 7.56047 15.6935 7.56047 16.7146L7.52346 17.1917Z" fill="#B5C3CF"/>
<path d="M14.1098 19.846V16.6901C14.1098 15.62 13.4983 15.0634 12.5033 15.0634C11.9902 15.0634 11.5949 15.2105 11.317 15.5095C11.0388 15.8097 10.8966 16.207 10.8966 16.6901V19.846H9.07401V13.5835H10.8966V14.623H11.0018C11.0328 14.5559 11.0575 14.4884 11.2923 14.2195C11.4098 14.091 11.5455 13.9685 11.7 13.8644C12.0152 13.6506 12.6145 13.4609 13.2757 13.4609C14.0726 13.4609 14.7153 13.6872 15.2035 14.1398C15.6915 14.5986 15.9324 15.2775 15.9324 16.1885V19.846H14.1098Z" fill="#B5C3CF"/>
<path d="M20.6533 14.7086C19.8934 14.7086 19.5103 14.9898 19.5103 15.5587C19.5103 16.1275 19.8934 16.4151 20.6533 16.4151C21.4133 16.4151 21.7903 16.1275 21.7903 15.5587C21.7903 14.9898 21.4133 14.7086 20.6533 14.7086ZM20.6533 19.8578C19.5103 19.8578 18.9418 20.0785 18.9418 20.5246C18.9418 20.965 19.5103 21.1853 20.6533 21.1853C21.7903 21.1853 22.3585 20.965 22.3585 20.5246C22.3585 20.0785 21.7903 19.8578 20.6533 19.8578ZM18.4598 14.0177C19.0035 13.6445 19.7328 13.4609 20.6533 13.4609H24.5768V14.7086H23.4091C23.5883 14.8677 23.6747 15.1672 23.6747 15.614C23.6747 16.2681 23.4027 16.7694 22.8593 17.118C22.3155 17.4667 21.5802 17.6441 20.6533 17.6441C19.7448 17.6441 19.2878 17.791 19.2878 18.0906C19.2878 18.3904 19.7448 18.543 20.6533 18.543C23.0507 18.543 24.2495 19.2037 24.2432 20.5246C24.2432 21.8276 23.0444 22.4754 20.6533 22.4754C18.2619 22.4754 17.0694 21.8276 17.0694 20.5246C17.0694 20.0596 17.261 19.6379 17.5081 19.4055C17.7554 19.173 18.015 19.0141 18.1818 18.9468L18.3112 18.8917V18.8428C18.2435 18.8124 18.1385 18.7754 17.9652 18.5125C17.873 18.3841 17.8295 18.2435 17.8295 18.0906C17.8295 17.901 17.8913 17.7296 18.015 17.583C18.1325 17.4361 18.2559 17.3384 18.3856 17.2895L18.5772 17.2036V17.167C18.5278 17.1489 18.4661 17.118 18.2559 16.941C18.1508 16.8552 18.052 16.7571 17.9716 16.6475C17.7985 16.4332 17.638 15.999 17.638 15.5525C17.638 14.898 17.9099 14.3905 18.4598 14.0177Z" fill="#B5C3CF"/>
<path d="M27.4054 19.8464H25.5824V13.584H27.4054V19.8464Z" fill="#B5C3CF"/>
<path d="M34.2086 19.846V16.6901C34.2086 15.62 33.5971 15.0634 32.6022 15.0634C32.0894 15.0634 31.6938 15.2105 31.4158 15.5095C31.1376 15.8097 30.9955 16.207 30.9955 16.6901V19.846H29.1729V13.5835H30.9955V14.623H31.1005C31.1316 14.5559 31.1562 14.4884 31.3911 14.2195C31.5085 14.091 31.6444 13.9685 31.7989 13.8644C32.1141 13.6506 32.7133 13.4609 33.3745 13.4609C34.1716 13.4609 34.8141 13.6872 35.3022 14.1398C35.7904 14.5986 36.0313 15.2775 36.0313 16.1885V19.846H34.2086Z" fill="#B5C3CF"/>
<path d="M39.8688 15.253C39.5722 15.5158 39.4241 15.7975 39.4241 16.0907H42.7483C42.7483 15.7912 42.6058 15.5095 42.322 15.2467C42.0313 14.9898 41.6236 14.8617 41.0923 14.8617C40.5671 14.8617 40.1594 14.9898 39.8688 15.253ZM44.6513 17.1917H39.3991C39.3991 17.5647 39.5475 17.8887 39.8501 18.1578C40.1467 18.4329 40.5671 18.5677 41.1169 18.5677C41.4382 18.5677 41.7165 18.5129 41.9574 18.4085C42.1917 18.3048 42.3466 18.2008 42.4207 18.0908L42.5381 17.9439H44.5338C44.5275 17.9991 44.5092 18.0723 44.4782 18.1578C44.4472 18.2496 44.3607 18.4085 44.2063 18.641C44.0518 18.8798 43.8663 19.0874 43.6441 19.2648C43.4155 19.4425 43.082 19.6076 42.6369 19.7482C42.1859 19.8948 41.6791 19.9684 41.1169 19.9684C40.0355 19.9684 39.1641 19.6808 38.491 19.1059C37.8173 18.531 37.4837 17.7359 37.4837 16.7146C37.4837 15.6935 37.8173 14.898 38.4846 14.3234C39.1517 13.7481 40.0233 13.4609 41.0923 13.4609C42.1547 13.4609 43.0203 13.7481 43.6875 14.3234C44.3547 14.898 44.6884 15.6935 44.6884 16.7146L44.6513 17.1917Z" fill="#B5C3CF"/>
<path d="M48.3344 15.253C48.0377 15.5158 47.8897 15.7975 47.8897 16.0907H51.2139C51.2139 15.7912 51.0718 15.5095 50.7876 15.2467C50.4969 14.9898 50.0893 14.8617 49.5578 14.8617C49.0327 14.8617 48.625 14.9898 48.3344 15.253ZM53.1169 17.1917H47.8647C47.8647 17.5647 48.013 17.8887 48.3157 18.1578C48.6127 18.4329 49.0327 18.5677 49.5825 18.5677C49.9037 18.5677 50.182 18.5129 50.4229 18.4085C50.6574 18.3048 50.8122 18.2008 50.8862 18.0908L51.0037 17.9439H52.9995C52.993 17.9991 52.9748 18.0723 52.9438 18.1578C52.9128 18.2496 52.8264 18.4085 52.6719 18.641C52.5174 18.8798 52.3323 19.0874 52.1097 19.2648C51.8812 19.4425 51.5475 19.6076 51.1025 19.7482C50.6514 19.8948 50.1449 19.9684 49.5825 19.9684C48.5012 19.9684 47.6298 19.6808 46.9566 19.1059C46.2829 18.531 45.9493 17.7359 45.9493 16.7146C45.9493 15.6935 46.2829 14.898 46.9505 14.3234C47.6177 13.7481 48.4888 13.4609 49.5578 13.4609C50.6204 13.4609 51.4859 13.7481 52.1531 14.3234C52.8203 14.898 53.154 15.6935 53.154 16.7146L53.1169 17.1917Z" fill="#B5C3CF"/>
<path d="M59.4237 13.5225V15.5096C59.1518 15.3815 58.7871 15.3201 58.3238 15.3264C57.7368 15.3264 57.2794 15.4919 56.9645 15.8158C56.6493 16.1459 56.4887 16.568 56.4887 17.0755V19.8461H54.6659V13.5835H56.4887V14.7333H56.5939C56.6245 14.6659 56.6369 14.5863 56.8718 14.2928C56.9892 14.1462 57.119 14.0178 57.2734 13.9015C57.576 13.6812 58.1509 13.4609 58.7935 13.4609L59.4237 13.5225Z" fill="#B5C3CF"/>
<path d="M62.5744 19.8464H60.752V13.584H62.5744V19.8464Z" fill="#B5C3CF"/>
<path d="M69.3779 19.846V16.6901C69.3779 15.62 68.7663 15.0634 67.7714 15.0634C67.2589 15.0634 66.8632 15.2105 66.5856 15.5095C66.3073 15.8097 66.1649 16.207 66.1649 16.6901V19.846H64.3425V13.5835H66.1649V14.623H66.27C66.3008 14.5559 66.3257 14.4884 66.5607 14.2195C66.6781 14.091 66.8139 13.9685 66.9682 13.8644C67.2838 13.6506 67.883 13.4609 68.5438 13.4609C69.3412 13.4609 69.9837 13.6872 70.4719 14.1398C70.9601 14.5986 71.201 15.2775 71.201 16.1885V19.846H69.3779Z" fill="#B5C3CF"/>
<path d="M75.9207 14.7086C75.1603 14.7086 74.7776 14.9898 74.7776 15.5587C74.7776 16.1275 75.1603 16.4151 75.9207 16.4151C76.6801 16.4151 77.0574 16.1275 77.0574 15.5587C77.0574 14.9898 76.6801 14.7086 75.9207 14.7086ZM75.9207 19.8578C74.7776 19.8578 74.2087 20.0785 74.2087 20.5246C74.2087 20.965 74.7776 21.1853 75.9207 21.1853C77.0574 21.1853 77.6263 20.965 77.6263 20.5246C77.6263 20.0785 77.0574 19.8578 75.9207 19.8578ZM73.727 14.0177C74.2704 13.6445 75.0001 13.4609 75.9207 13.4609H79.844V14.7086H78.6764C78.8555 14.8677 78.9417 15.1672 78.9417 15.614C78.9417 16.2681 78.6699 16.7694 78.1265 17.118C77.5824 17.4667 76.8474 17.6441 75.9207 17.6441C75.0126 17.6441 74.5551 17.791 74.5551 18.0906C74.5551 18.3904 75.0126 18.543 75.9207 18.543C78.3181 18.543 79.5163 19.2037 79.5108 20.5246C79.5108 21.8276 78.3121 22.4754 75.9207 22.4754C73.5295 22.4754 72.3364 21.8276 72.3364 20.5246C72.3364 20.0596 72.5281 19.6379 72.7754 19.4055C73.0228 19.173 73.282 19.0141 73.4487 18.9468L73.5787 18.8917V18.8428C73.5104 18.8124 73.4054 18.7754 73.2322 18.5125C73.1402 18.3841 73.097 18.2435 73.097 18.0906C73.097 17.901 73.1587 17.7296 73.282 17.583C73.3995 17.4361 73.5229 17.3384 73.6528 17.2895L73.8444 17.2036V17.167C73.7952 17.1489 73.7335 17.118 73.5229 16.941C73.4179 16.8552 73.3194 16.7571 73.2387 16.6475C73.0661 16.4332 72.9054 15.999 72.9054 15.5525C72.9054 14.898 73.1771 14.3905 73.727 14.0177Z" fill="#B5C3CF"/>
</g>
</g>
</g>
<defs>
<clipPath id="clip0_980_9066">
<rect width="80" height="21.95" fill="white" transform="translate(0.330078 0.525391)"/>
</clipPath>
<clipPath id="clip1_980_9066">
<rect width="79.9607" height="21.95" fill="white" transform="translate(0.349731 0.525391)"/>
</clipPath>
</defs>
</svg>
