<svg width="40" height="40" viewBox="0 0 40 40" fill="none" xmlns="http://www.w3.org/2000/svg">
<path d="M39.375 28.125H36.875V17.5C36.875 16.8109 36.3141 16.25 35.625 16.25H28.75V5.625C28.75 4.93594 28.1891 4.375 27.5 4.375H12.5C11.8109 4.375 11.25 4.93594 11.25 5.625V16.25H4.375C3.68594 16.25 3.125 16.8109 3.125 17.5V28.125H0.625C0.279687 28.125 0 28.4047 0 28.75V31.875C0 32.2203 0.279687 32.5 0.625 32.5V35C0.625 35.3453 0.904688 35.625 1.25 35.625H7.5C7.84531 35.625 8.125 35.3453 8.125 35V32.5H16.25V35C16.25 35.3453 16.5297 35.625 16.875 35.625H23.125C23.4703 35.625 23.75 35.3453 23.75 35V32.5H31.875V35C31.875 35.3453 32.1547 35.625 32.5 35.625H38.75C39.0953 35.625 39.375 35.3453 39.375 35V32.5C39.7203 32.5 40 32.2203 40 31.875V28.75C40 28.4047 39.7203 28.125 39.375 28.125ZM35.625 28.125H20.625V17.5H25.9375V20.625C25.9375 20.9703 26.2172 21.25 26.5625 21.25H29.6875C30.0328 21.25 30.3125 20.9703 30.3125 20.625V17.5H35.625V28.125ZM29.0625 20H27.1875V17.5H29.0625V20ZM20.9375 5.625V8.125H19.0625V5.625H20.9375ZM12.4992 5.625H17.8125V8.75C17.8125 9.09531 18.0922 9.375 18.4375 9.375H21.5625C21.9078 9.375 22.1875 9.09531 22.1875 8.75V5.625H27.5V16.25H12.5V5.625H12.4992ZM11.875 17.5H12.8125V20H10.9375V17.5H11.875ZM4.37422 17.5H9.6875V20.625C9.6875 20.9703 9.96719 21.25 10.3125 21.25H13.4375C13.7828 21.25 14.0625 20.9703 14.0625 20.625V17.5H19.375V28.125H4.375V17.5H4.37422ZM1.25 29.375H38.75V31.25H1.25V29.375ZM6.875 34.375H1.875V32.5H6.875V34.375ZM22.5 34.375H17.5V32.5H22.5V34.375ZM38.125 34.375H33.125V32.5H38.125V34.375Z" fill="#0C67C9"/>
</svg>
