<svg width="32" height="32" viewBox="0 0 32 32" fill="none" xmlns="http://www.w3.org/2000/svg">
<g clip-path="url(#clip0_3008_148)">
<path d="M26.2766 31.4555C19.4475 32.1841 12.5603 32.1841 5.73116 31.4555C4.40501 31.3155 3.16693 30.7251 2.22332 29.7828C1.27972 28.8405 0.687607 27.6033 0.545702 26.2773C-0.182877 19.4482 -0.182877 12.561 0.545702 5.73189C0.685745 4.40574 1.27612 3.16766 2.2184 2.22405C3.16068 1.28045 4.39793 0.688339 5.72388 0.546435C12.553 -0.182145 19.4402 -0.182145 26.2693 0.546435C27.5955 0.686478 28.8336 1.27685 29.7772 2.21913C30.7208 3.16141 31.3129 4.39866 31.4548 5.72462C32.1834 12.5537 32.1834 19.441 31.4548 26.2701C31.3147 27.5962 30.7244 28.8343 29.7821 29.7779C28.8398 30.7215 27.6026 31.3136 26.2766 31.4555Z" fill="#E60000"/>
<path d="M25.5327 11.1917C25.1327 9.96077 23.8091 9.21532 22.5909 9.04441C18.2093 8.57895 13.7907 8.57895 9.40911 9.04441C8.19093 9.21532 6.86366 9.9535 6.46729 11.1917C5.84367 14.3692 5.84367 17.6377 6.46729 20.8153C6.86729 22.0444 8.19093 22.7917 9.40911 22.9626C13.7907 23.428 18.2093 23.428 22.5909 22.9626C23.8091 22.7917 25.1364 22.0535 25.5327 20.8153C26.1564 17.6377 26.1564 14.3692 25.5327 11.1917ZM13.6073 19.8353V12.1699L19.8473 16.0026C17.7437 17.2953 15.7018 18.548 13.6073 19.8353Z" fill="white"/>
</g>
<defs>
<clipPath id="clip0_3008_148">
<rect width="32" height="32" fill="white"/>
</clipPath>
</defs>
</svg>
